<svg width="180" height="62" viewBox="0 0 187 62" fill="none" xmlns="http://www.w3.org/2000/svg">
    <g clip-path="url(#clip0)">
    <path d="M172.108 0.0002015H14.8999C14.3269 0.0002015 13.7607 0.0002015 13.1892 0.0033015C12.7108 0.0064015 12.2361 0.015407 11.7531 0.0229865C10.7038 0.0352343 9.65692 0.1268 8.62162 0.296887C7.58777 0.470677 6.5863 0.798321 5.6511 1.26874C4.71703 1.74313 3.86355 2.35956 3.12162 3.09566C2.37579 3.82969 1.75408 4.67813 1.2804 5.60835C0.80542 6.53672 0.476064 7.53156 0.303712 8.5585C0.129722 9.58414 0.036096 10.6216 0.023675 11.6616C0.0091731 12.1368 0.00764164 12.6136 0 13.0889V48.916C0.00764164 49.3973 0.0091731 49.8635 0.023675 50.345C0.0360998 51.3849 0.129726 52.4223 0.303712 53.4479C0.475588 54.4755 0.804964 55.4709 1.2804 56.3996C1.75387 57.3268 2.37566 58.1718 3.12162 58.9017C3.86074 59.6411 4.71477 60.258 5.6511 60.7287C6.5863 61.2004 7.58765 61.53 8.62162 61.7065C9.6571 61.8752 10.7039 61.9668 11.7531 61.9805C12.2361 61.9911 12.7108 61.9971 13.1892 61.9971C13.7607 62.0002 14.3269 62.0002 14.8999 62.0002H172.108C172.67 62.0002 173.241 62.0002 173.802 61.9971C174.279 61.9971 174.767 61.9911 175.243 61.9805C176.29 61.9675 177.335 61.8759 178.369 61.7065C179.406 61.5288 180.411 61.1993 181.35 60.7287C182.286 60.2577 183.139 59.6409 183.878 58.9017C184.622 58.1689 185.245 57.3246 185.724 56.3996C186.196 55.4702 186.522 54.4749 186.692 53.4479C186.866 52.4222 186.963 51.385 186.982 50.345C186.988 49.8635 186.988 49.3973 186.988 48.916C187 48.3529 187 47.7929 187 47.2206V14.7812C187 14.2136 187 13.6505 186.988 13.0889C186.988 12.6136 186.988 12.1368 186.982 11.6615C186.963 10.6215 186.866 9.58422 186.692 8.55843C186.522 7.53209 186.196 6.53733 185.724 5.60829C184.76 3.74376 183.23 2.22604 181.35 1.2686C180.411 0.799331 179.406 0.471774 178.369 0.296747C177.335 0.125911 176.29 0.0343135 175.243 0.0227695C174.767 0.0152055 174.279 0.0061225 173.802 0.0031C173.241 0 172.67 0 172.108 0V0.0002015Z" fill="#A6A6A6"/>
    <path d="M13.1968 60.6439C12.7207 60.6439 12.2561 60.6379 11.7837 60.6274C10.8051 60.6147 9.82876 60.5302 8.86274 60.3746C7.96198 60.2207 7.08939 59.9345 6.27374 59.5253C5.46557 59.1196 4.72846 58.5875 4.09064 57.9496C3.44358 57.3192 2.90488 56.588 2.49588 55.785C2.08237 54.9768 1.79619 54.1105 1.64733 53.2163C1.48656 52.2555 1.39958 51.284 1.38714 50.3101C1.37723 49.9832 1.36426 48.8948 1.36426 48.8948V13.0889C1.36426 13.0889 1.37807 12.0172 1.38721 11.7024C1.39913 10.73 1.48561 9.76001 1.64589 8.80068C1.79503 7.90403 2.08143 7.03526 2.49516 6.22442C2.90266 5.42201 3.43837 4.69028 4.08153 4.0576C4.72396 3.41891 5.46343 2.88413 6.27297 2.47277C7.08675 2.06494 7.95769 1.78073 8.85663 1.62966C9.82582 1.47244 10.8055 1.38744 11.7875 1.37537L13.1976 1.35645H173.795L175.222 1.37613C176.195 1.3876 177.166 1.47184 178.126 1.62814C179.034 1.78111 179.914 2.0673 180.737 2.47731C182.359 3.30632 183.678 4.6179 184.511 6.2282C184.918 7.03344 185.2 7.89513 185.347 8.78403C185.509 9.75123 185.6 10.7289 185.619 11.7092C185.623 12.1482 185.623 12.6197 185.623 13.0889C185.636 13.6702 185.636 14.2234 185.636 14.7812V47.2206C185.636 47.7838 185.636 48.3332 185.623 48.8872C185.623 49.3913 185.623 49.853 185.617 50.3282C185.599 51.2911 185.51 52.2513 185.35 53.2012C185.204 54.1018 184.92 54.9748 184.506 55.7897C184.094 56.5839 183.559 57.3088 182.919 57.9375C182.281 58.5789 181.542 59.114 180.732 59.5224C179.912 59.9347 179.033 60.2219 178.126 60.3746C177.16 60.531 176.184 60.6156 175.205 60.6274C174.747 60.6379 174.268 60.6439 173.802 60.6439L172.108 60.647L13.1968 60.6439Z" fill="black"/>
    <path d="M38.7066 31.4661C38.7234 30.1724 39.0699 28.9039 39.7138 27.7787C40.3577 26.6534 41.278 25.708 42.3893 25.0304C41.6833 24.0304 40.752 23.2074 39.6693 22.6269C38.5867 22.0463 37.3824 21.7242 36.1522 21.686C33.5281 21.4128 30.9841 23.2435 29.6468 23.2435C28.2837 23.2435 26.2249 21.7131 24.0078 21.7584C22.5738 21.8043 21.1762 22.2179 19.9512 22.9589C18.7262 23.6999 17.7156 24.743 17.0179 25.9866C13.9957 31.1766 16.25 38.8042 19.1451 42.9995C20.5936 45.0538 22.2864 47.3485 24.5015 47.2671C26.6691 47.1779 27.4786 45.8962 30.095 45.8962C32.6872 45.8962 33.4467 47.2671 35.7067 47.2154C38.0326 47.1779 39.4981 45.1519 40.8957 43.0782C41.9364 41.6144 42.7373 39.9967 43.2686 38.2848C41.9173 37.7179 40.7641 36.7691 39.9529 35.5565C39.1416 34.3439 38.7082 32.9213 38.7066 31.4661Z" fill="white"/>
    <path d="M34.4379 18.9271C35.7061 17.417 36.3309 15.4762 36.1796 13.5166C34.2421 13.7184 32.4524 14.6369 31.1671 16.089C30.5387 16.7984 30.0573 17.6237 29.7507 18.5176C29.444 19.4116 29.318 20.3568 29.3798 21.2992C30.3489 21.309 31.3076 21.1007 32.1838 20.6898C33.0599 20.2789 33.8307 19.6762 34.4379 18.9271Z" fill="white"/>
    <path d="M66.1062 42.0664H58.7093L56.933 47.2689H53.7999L60.8062 28.021H64.0613L71.0675 47.2689H67.8811L66.1062 42.0664ZM59.4754 39.6657H65.3387L62.4483 31.2224H62.3674L59.4754 39.6657Z" fill="white"/>
    <path d="M86.1987 40.2532C86.1987 44.6141 83.8454 47.4159 80.2943 47.4159C79.3947 47.4626 78.5 47.2571 77.7127 46.8228C76.9255 46.3886 76.2774 45.7433 75.8427 44.9607H75.7755V51.9115H72.8713V33.2358H75.6824V35.5699H75.7358C76.1905 34.7911 76.8496 34.1491 77.6428 33.7122C78.4361 33.2754 79.334 33.06 80.2408 33.089C83.8316 33.089 86.1987 35.9044 86.1987 40.2532ZM83.2136 40.2532C83.2136 37.4121 81.7333 35.5442 79.4747 35.5442C77.2558 35.5442 75.7633 37.4514 75.7633 40.2532C75.7633 43.0808 77.2558 44.9744 79.4747 44.9744C81.7333 44.9744 83.2136 43.1201 83.2136 40.2532Z" fill="white"/>
    <path d="M101.771 40.2532C101.771 44.6141 99.4176 47.4159 95.8664 47.4159C94.9668 47.4626 94.0722 47.257 93.2849 46.8228C92.4976 46.3886 91.8495 45.7433 91.4148 44.9607H91.3476V51.9115H88.4435V33.2358H91.2545V35.5699H91.3079C91.7626 34.7911 92.4216 34.1491 93.2149 33.7122C94.0082 33.2754 94.9061 33.06 95.8129 33.089C99.4039 33.089 101.771 35.9044 101.771 40.2532ZM98.7858 40.2532C98.7858 37.4121 97.3055 35.5442 95.0469 35.5442C92.828 35.5442 91.3354 37.4514 91.3354 40.2532C91.3354 43.0808 92.828 44.9744 95.0469 44.9744C97.3055 44.9744 98.7858 43.1201 98.7858 40.2532H98.7858Z" fill="white"/>
    <path d="M112.063 41.9061C112.278 43.8148 114.147 45.0681 116.702 45.0681C119.15 45.0681 120.911 43.8148 120.911 42.0937C120.911 40.5997 119.849 39.7052 117.334 39.0921L114.819 38.4912C111.255 37.6375 109.601 35.9845 109.601 33.3023C109.601 29.9813 112.519 27.7002 116.662 27.7002C120.763 27.7002 123.574 29.9813 123.669 33.3023H120.737C120.561 31.3814 118.961 30.222 116.621 30.222C114.282 30.222 112.681 31.3951 112.681 33.1025C112.681 34.4633 113.703 35.264 116.204 35.877L118.342 36.3977C122.324 37.3316 123.978 38.918 123.978 41.7334C123.978 45.3344 121.086 47.5898 116.487 47.5898C112.183 47.5898 109.278 45.3874 109.09 41.9059L112.063 41.9061Z" fill="white"/>
    <path d="M130.246 29.9146V33.2355H132.936V35.5167H130.246V43.253C130.246 44.4549 130.785 45.0149 131.967 45.0149C132.287 45.0094 132.606 44.9872 132.923 44.9483V47.2158C132.391 47.3143 131.85 47.359 131.31 47.349C128.445 47.349 127.328 46.2818 127.328 43.5603V35.5167H125.271V33.2355H127.328V29.9146H130.246Z" fill="white"/>
    <path d="M134.495 40.2529C134.495 35.8375 137.116 33.063 141.205 33.063C145.307 33.063 147.917 35.8375 147.917 40.2529C147.917 44.6804 145.321 47.4429 141.205 47.4429C137.09 47.4429 134.495 44.6804 134.495 40.2529ZM144.957 40.2529C144.957 37.2241 143.558 35.4364 141.205 35.4364C138.852 35.4364 137.454 37.2377 137.454 40.2529C137.454 43.2939 138.852 45.0679 141.205 45.0679C143.558 45.0679 144.957 43.2939 144.957 40.2529H144.957Z" fill="white"/>
    <path d="M150.311 33.2357H153.081V35.6243H153.148C153.335 34.8783 153.776 34.219 154.396 33.7573C155.015 33.2956 155.777 33.0595 156.551 33.0889C156.886 33.0877 157.22 33.1238 157.546 33.1963V35.8907C157.124 35.7626 156.683 35.7038 156.241 35.7166C155.819 35.6996 155.399 35.7734 155.008 35.9329C154.618 36.0924 154.267 36.3338 153.979 36.6405C153.692 36.9472 153.475 37.312 153.343 37.7099C153.211 38.1077 153.167 38.5291 153.215 38.9453V47.2689H150.311L150.311 33.2357Z" fill="white"/>
    <path d="M170.936 43.1471C170.545 45.6946 168.044 47.4429 164.844 47.4429C160.728 47.4429 158.173 44.7077 158.173 40.3195C158.173 35.9178 160.742 33.063 164.722 33.063C168.636 33.063 171.098 35.7301 171.098 39.985V40.9719H161.105V41.146C161.059 41.6625 161.124 42.1827 161.296 42.6723C161.468 43.1618 161.743 43.6095 162.103 43.9854C162.463 44.3614 162.9 44.657 163.384 44.8528C163.868 45.0486 164.388 45.14 164.911 45.1209C165.597 45.1847 166.286 45.027 166.875 44.6714C167.463 44.3157 167.92 43.7811 168.178 43.1471L170.936 43.1471ZM161.119 38.9587H168.192C168.218 38.4944 168.147 38.0297 167.983 37.5938C167.82 37.1579 167.567 36.7603 167.241 36.4258C166.916 36.0914 166.523 35.8274 166.09 35.6503C165.656 35.4733 165.19 35.3871 164.722 35.3971C164.249 35.3943 163.78 35.4844 163.342 35.6622C162.905 35.8401 162.507 36.1021 162.172 36.4333C161.837 36.7644 161.571 37.1581 161.391 37.5915C161.21 38.025 161.117 38.4897 161.119 38.9588V38.9587Z" fill="white"/>
    <path d="M59.1112 13.5334C59.7201 13.4901 60.331 13.5813 60.9 13.8006C61.469 14.0198 61.9819 14.3615 62.4016 14.8011C62.8213 15.2408 63.1374 15.7673 63.3272 16.3428C63.5169 16.9182 63.5755 17.5283 63.4987 18.1289C63.4987 21.0836 61.8887 22.782 59.1112 22.782H55.7432V13.5334H59.1112ZM57.1914 21.4741H58.9494C59.3845 21.4999 59.8199 21.4291 60.2239 21.267C60.6279 21.1048 60.9904 20.8554 61.285 20.5367C61.5796 20.2181 61.7988 19.8383 61.9267 19.4251C62.0546 19.0118 62.088 18.5755 62.0245 18.1478C62.0834 17.7218 62.0466 17.2882 61.9167 16.8779C61.7868 16.4677 61.5671 16.091 61.2732 15.775C60.9793 15.4589 60.6186 15.2112 60.2168 15.0496C59.8151 14.888 59.3823 14.8166 58.9494 14.8404H57.1914V21.4741Z" fill="white"/>
    <path d="M65.1347 19.2889C65.0905 18.8302 65.1434 18.3674 65.29 17.9302C65.4367 17.493 65.6738 17.091 65.9863 16.75C66.2987 16.4091 66.6796 16.1366 67.1044 15.9502C67.5292 15.7638 67.9886 15.6675 68.4532 15.6675C68.9177 15.6675 69.3771 15.7638 69.802 15.9502C70.2268 16.1366 70.6076 16.4091 70.9201 16.75C71.2325 17.091 71.4697 17.493 71.6163 17.9302C71.763 18.3674 71.8159 18.8302 71.7716 19.2889C71.8167 19.748 71.7644 20.2114 71.6182 20.6493C71.4719 21.0873 71.2349 21.49 70.9224 21.8316C70.6099 22.1733 70.2287 22.4463 69.8035 22.6331C69.3782 22.8199 68.9183 22.9164 68.4532 22.9164C67.9881 22.9164 67.5281 22.8199 67.1029 22.6331C66.6776 22.4463 66.2965 22.1733 65.984 21.8316C65.6714 21.49 65.4344 21.0873 65.2882 20.6493C65.1419 20.2114 65.0896 19.748 65.1347 19.2889ZM70.3432 19.2889C70.3432 17.776 69.658 16.8912 68.4555 16.8912C67.2483 16.8912 66.5693 17.776 66.5693 19.2889C66.5693 20.8139 67.2484 21.6918 68.4555 21.6918C69.658 21.6918 70.3432 20.8078 70.3432 19.2889H70.3432Z" fill="white"/>
    <path d="M80.5939 22.7818H79.1533L77.699 17.6414H77.5891L76.1408 22.7818H74.7139L72.7743 15.8022H74.1829L75.4434 21.128H75.5472L76.9939 15.8022H78.3262L79.7729 21.128H79.8828L81.1372 15.8022H82.5259L80.5939 22.7818Z" fill="white"/>
    <path d="M84.1572 15.8022H85.4941V16.911H85.5979C85.7739 16.5128 86.0708 16.1789 86.4472 15.956C86.8236 15.7332 87.2608 15.6323 87.6977 15.6675C88.0401 15.642 88.3839 15.6932 88.7037 15.8173C89.0234 15.9415 89.3109 16.1354 89.5448 16.3847C89.7787 16.634 89.953 16.9323 90.0549 17.2575C90.1568 17.5828 90.1836 17.9266 90.1334 18.2635V22.7817H88.7446V18.6094C88.7446 17.4877 88.2532 16.9299 87.2262 16.9299C86.9937 16.9192 86.7617 16.9584 86.5459 17.045C86.3302 17.1315 86.1359 17.2633 85.9763 17.4313C85.8167 17.5993 85.6956 17.7995 85.6213 18.0183C85.547 18.237 85.5213 18.4691 85.546 18.6986V22.7818H84.1572L84.1572 15.8022Z" fill="white"/>
    <path d="M92.3462 13.0776H93.7349V22.7818H92.3462V13.0776Z" fill="white"/>
    <path d="M95.6654 19.289C95.6212 18.8303 95.6742 18.3675 95.8208 17.9303C95.9675 17.493 96.2047 17.091 96.5172 16.7501C96.8297 16.4091 97.2106 16.1366 97.6354 15.9502C98.0603 15.7638 98.5197 15.6675 98.9843 15.6675C99.4489 15.6675 99.9083 15.7638 100.333 15.9502C100.758 16.1366 101.139 16.4091 101.451 16.7501C101.764 17.091 102.001 17.493 102.148 17.9303C102.294 18.3675 102.347 18.8303 102.303 19.289C102.348 19.7482 102.296 20.2116 102.15 20.6495C102.003 21.0874 101.766 21.4901 101.454 21.8317C101.141 22.1734 100.76 22.4464 100.335 22.6332C99.9094 22.82 99.4494 22.9165 98.9843 22.9165C98.5192 22.9165 98.0592 22.82 97.6339 22.6332C97.2087 22.4464 96.8275 22.1734 96.515 21.8317C96.2024 21.4901 95.9653 21.0874 95.819 20.6495C95.6727 20.2116 95.6204 19.7482 95.6654 19.289ZM100.874 19.289C100.874 17.7761 100.189 16.8913 98.9862 16.8913C97.7791 16.8913 97.1 17.7761 97.1 19.289C97.1 20.814 97.7791 21.692 98.9862 21.692C100.189 21.6919 100.874 20.808 100.874 19.289H100.874Z" fill="white"/>
    <path d="M103.765 20.8079C103.765 19.5515 104.708 18.8273 106.382 18.7243L108.288 18.6153V18.0129C108.288 17.2757 107.797 16.8595 106.848 16.8595C106.073 16.8595 105.535 17.1418 105.381 17.6353H104.037C104.179 16.4364 105.316 15.6675 106.912 15.6675C108.676 15.6675 109.671 16.5386 109.671 18.0129V22.7817H108.334V21.8009H108.224C108.001 22.1527 107.688 22.4395 107.317 22.6321C106.945 22.8246 106.529 22.9159 106.111 22.8967C105.815 22.9272 105.517 22.8959 105.234 22.805C104.952 22.714 104.692 22.5653 104.471 22.3685C104.25 22.1717 104.073 21.9311 103.951 21.6623C103.83 21.3935 103.766 21.1025 103.765 20.8079ZM108.288 20.2115V19.628L106.57 19.737C105.601 19.8013 105.161 20.1283 105.161 20.7436C105.161 21.3717 105.711 21.7373 106.466 21.7373C106.688 21.7595 106.911 21.7373 107.124 21.6721C107.336 21.6069 107.533 21.4999 107.703 21.3575C107.873 21.2152 108.013 21.0403 108.113 20.8435C108.214 20.6466 108.273 20.4317 108.288 20.2115Z" fill="white"/>
    <path d="M111.496 19.289C111.496 17.0836 112.639 15.6865 114.417 15.6865C114.857 15.6664 115.293 15.7708 115.675 15.9877C116.058 16.2045 116.37 16.5248 116.575 16.911H116.679V13.0776H118.068V22.7818H116.737V21.6791H116.627C116.406 22.0627 116.083 22.3789 115.693 22.5936C115.304 22.8082 114.862 22.9131 114.417 22.8968C112.627 22.8969 111.496 21.4997 111.496 19.289ZM112.931 19.289C112.931 20.7694 113.634 21.6602 114.811 21.6602C115.981 21.6602 116.705 20.7565 116.705 19.2951C116.705 17.8404 115.974 16.9239 114.811 16.9239C113.642 16.9239 112.931 17.8207 112.931 19.289H112.931Z" fill="white"/>
    <path d="M123.813 19.2889C123.769 18.8302 123.822 18.3674 123.969 17.9302C124.115 17.493 124.352 17.091 124.665 16.75C124.977 16.4091 125.358 16.1366 125.783 15.9502C126.208 15.7638 126.667 15.6675 127.132 15.6675C127.596 15.6675 128.056 15.7638 128.481 15.9502C128.905 16.1366 129.286 16.4091 129.599 16.75C129.911 17.091 130.148 17.493 130.295 17.9302C130.442 18.3674 130.494 18.8302 130.45 19.2889C130.495 19.748 130.443 20.2114 130.297 20.6493C130.151 21.0873 129.914 21.49 129.601 21.8316C129.288 22.1733 128.907 22.4463 128.482 22.6331C128.057 22.8199 127.597 22.9164 127.132 22.9164C126.667 22.9164 126.207 22.8199 125.781 22.6331C125.356 22.4463 124.975 22.1733 124.663 21.8316C124.35 21.49 124.113 21.0873 123.967 20.6493C123.82 20.2114 123.768 19.748 123.813 19.2889ZM129.022 19.2889C129.022 17.776 128.337 16.8912 127.134 16.8912C125.927 16.8912 125.248 17.776 125.248 19.2889C125.248 20.8139 125.927 21.6918 127.134 21.6918C128.337 21.6918 129.022 20.8078 129.022 19.2889Z" fill="white"/>
    <path d="M132.314 15.8022H133.65V16.911H133.754C133.93 16.5128 134.227 16.1789 134.604 15.956C134.98 15.7332 135.417 15.6323 135.854 15.6675C136.197 15.642 136.54 15.6932 136.86 15.8173C137.18 15.9415 137.467 16.1354 137.701 16.3847C137.935 16.634 138.109 16.9323 138.211 17.2575C138.313 17.5828 138.34 17.9266 138.29 18.2635V22.7817H136.901V18.6094C136.901 17.4877 136.41 16.9299 135.383 16.9299C135.15 16.9192 134.918 16.9584 134.702 17.045C134.487 17.1315 134.292 17.2633 134.133 17.4313C133.973 17.5993 133.852 17.7995 133.778 18.0183C133.703 18.237 133.678 18.4691 133.702 18.6986V22.7818H132.314V15.8022Z" fill="white"/>
    <path d="M146.137 14.0645V15.8339H147.661V16.9942H146.137V20.5831C146.137 21.3142 146.441 21.6343 147.132 21.6343C147.309 21.6338 147.486 21.6231 147.661 21.6025V22.7499C147.412 22.7941 147.159 22.8177 146.906 22.8203C145.362 22.8203 144.747 22.2814 144.747 20.9358V16.9941H143.63V15.8339H144.747V14.0645H146.137Z" fill="white"/>
    <path d="M149.558 13.0776H150.935V16.9239H151.045C151.229 16.5219 151.534 16.1862 151.918 15.9625C152.302 15.7387 152.746 15.6379 153.19 15.6736C153.531 15.6552 153.871 15.7116 154.188 15.8388C154.504 15.9659 154.788 16.1607 155.019 16.4093C155.251 16.6578 155.424 16.9539 155.527 17.2765C155.629 17.5991 155.659 17.9403 155.614 18.2756V22.7818H154.224V18.6154C154.224 17.5006 153.7 16.936 152.719 16.936C152.48 16.9166 152.24 16.9491 152.015 17.0313C151.791 17.1136 151.587 17.2435 151.418 17.412C151.249 17.5806 151.12 17.7837 151.038 18.0071C150.957 18.2305 150.926 18.4688 150.947 18.7055V22.7818H149.558L149.558 13.0776Z" fill="white"/>
    <path d="M163.711 20.8973C163.522 21.5352 163.114 22.087 162.556 22.4561C161.999 22.8253 161.328 22.9882 160.662 22.9166C160.198 22.9287 159.738 22.8406 159.312 22.6585C158.886 22.4763 158.505 22.2044 158.196 21.8616C157.887 21.5189 157.656 21.1134 157.521 20.6735C157.385 20.2336 157.348 19.7697 157.411 19.314C157.35 18.857 157.388 18.3921 157.523 17.9508C157.658 17.5096 157.887 17.1023 158.195 16.7565C158.502 16.4108 158.881 16.1346 159.306 15.9467C159.731 15.7589 160.191 15.6637 160.656 15.6676C162.614 15.6676 163.795 16.9944 163.795 19.1861V19.6667H158.826V19.7439C158.804 20.0001 158.837 20.2579 158.921 20.5008C159.006 20.7438 159.141 20.9665 159.317 21.1548C159.494 21.3431 159.708 21.4927 159.946 21.594C160.184 21.6954 160.441 21.7463 160.7 21.7434C161.032 21.783 161.369 21.7237 161.667 21.573C161.965 21.4223 162.211 21.1871 162.374 20.8973L163.711 20.8973ZM158.826 18.648H162.38C162.398 18.4138 162.366 18.1785 162.286 17.9573C162.207 17.7361 162.081 17.5338 161.918 17.3635C161.755 17.1932 161.558 17.0587 161.339 16.9685C161.12 16.8784 160.885 16.8346 160.648 16.8399C160.408 16.8369 160.17 16.8817 159.947 16.9715C159.725 17.0613 159.523 17.1944 159.353 17.3629C159.183 17.5314 159.049 17.7319 158.958 17.9526C158.868 18.1733 158.823 18.4098 158.826 18.648H158.826Z" fill="white"/>
    </g>
    <defs>
    <clipPath id="clip0">
    <rect width="187" height="62" fill="white"/>
    </clipPath>
    </defs>
    </svg>
