<svg fill="none" height="30" viewBox="0 0 30 30" width="30" xmlns="http://www.w3.org/2000/svg"><circle cx="15" cy="15" fill="#0ae3bc" fill-opacity=".2" r="15"/><path d="m15 26c6.0751 0 11-4.9249 11-11 0-6.07513-4.9249-11-11-11-6.07513 0-11 4.92487-11 11 0 6.0751 4.92487 11 11 11z" fill="#2ebfa5"/><path d="m13.3328 20.7064-5.0703-5.0703c-.06875-.0688-.06875-.1719 0-.2406l1.46094-1.461c.06875-.0687.17187-.0687.24062 0l3.48904 3.4891 6.5656-6.5656c.0688-.0688.1719-.0688.2407 0l1.4609 1.4609c.0688.0687.0688.1719 0 .2406l-8.1469 8.1469c-.0687.0687-.1718.0687-.2406 0z" fill="#fff"/></svg>