<svg width="15" height="19" viewBox="0 0 23 27" fill="none"
    xmlns="http://www.w3.org/2000/svg">
    <path d="M16.25 4.375H18.625C19.2549 4.375 19.859 4.62522 20.3044 5.07062C20.7498 5.51602 21 6.12011 21 6.75V23.375C21 24.0049 20.7498 24.609 20.3044 25.0544C19.859 25.4998 19.2549 25.75 18.625 25.75H4.375C3.74511 25.75 3.14102 25.4998 2.69562 25.0544C2.25022 24.609 2 24.0049 2 23.375V6.75C2 6.12011 2.25022 5.51602 2.69562 5.07062C3.14102 4.62522 3.74511 4.375 4.375 4.375H6.75" stroke="white" stroke-width="2.5" stroke-linecap="round" stroke-linejoin="round"/>
    <path d="M15.0625 2H7.9375C7.28166 2 6.75 2.53166 6.75 3.1875V5.5625C6.75 6.21834 7.28166 6.75 7.9375 6.75H15.0625C15.7183 6.75 16.25 6.21834 16.25 5.5625V3.1875C16.25 2.53166 15.7183 2 15.0625 2Z" stroke="white" stroke-width="2.5" stroke-linecap="round" stroke-linejoin="round"/>
</svg>
