<svg fill="none" height="71" viewBox="0 0 83 71" width="83" xmlns="http://www.w3.org/2000/svg"><path d="m74.9268 0h-67.48246c-4.10483 0-7.44434 3.33951-7.44434 7.44434v55.88086c0 4.1048 3.33951 7.4443 7.44434 7.4443h67.48246c4.1048 0 7.4443-3.3395 7.4443-7.4443v-55.88086c0-4.10483-3.3395-7.44434-7.4443-7.44434zm2.417 7.44434v4.15606h-18.1561v-6.57306h15.7391c1.3328 0 2.417 1.08417 2.417 2.417zm-69.89946-2.417h46.71596v6.57306h-49.13296v-4.15606c0-1.33283 1.08417-2.417 2.417-2.417zm67.48246 60.71486h-67.48246c-1.33283 0-2.417-1.0842-2.417-2.417v-46.6975h72.31646v46.6975c0 1.3328-1.0842 2.417-2.417 2.417z" fill="#454b53"/><g fill="#2ebfa5"><path d="m30.6859 35.6845c-.9167-.4034-2.0053.0543-2.358 1.014l-1.6028 3.6539-.7003-1.6473c-.5967-1.4699-2.7465-1.4854-3.3654-.0031l-.687 1.6388-1.6018-3.6514c-.3885-.9896-1.4692-1.3955-2.3337-1.0053-.9513.413-1.3721 1.4629-.9699 2.3783 3.3834 8.0049 3.3192 8.0526 3.739 8.3162.42.4625 1.2899.5571 1.7223.373.9919-.2433 1.4219-1.7555 1.8228-2.732.4642 1.1 1.0464 3.3505 2.8665 2.7467.3318-.0466.9262-.4502 1.1766-1.0366l3.2602-7.6665c.4024-.9144-.0222-1.9582-.9685-2.3787z"/><path d="m47.5119 35.6845c-.9183-.4041-2.0057.0559-2.3578 1.014l-1.6028 3.6539-.7005-1.6475c-.5815-1.4318-2.6835-1.5188-3.3573-.0212-.0027.0062-.0054.0122-.008.0183l-.687 1.6388-1.6018-3.6514c-.3884-.9896-1.4691-1.3955-2.3336-1.0053-.9513.413-1.3721 1.4629-.9699 2.3783 3.4478 8.1571 3.3192 8.0526 3.739 8.3162.2376.2616.6727.4244.8923.4341 1.7004.3082 2.1003-1.4469 2.6527-2.7931.4672 1.1074 1.0459 3.3498 2.8668 2.7467.3059-.0429.9252-.4459 1.1766-1.0366l3.2602-7.6665c.402-.9144-.0226-1.9582-.9689-2.3787z"/><path d="m64.3373 35.6845c-.9182-.4041-2.0057.0559-2.3578 1.014l-1.6027 3.6539-.7006-1.6475c-.5814-1.4318-2.6834-1.5188-3.3573-.0212-.0027.0062-.0054.0122-.0079.0183l-.687 1.6388-1.6018-3.6514c-.3885-.9896-1.4692-1.3955-2.3337-1.0053-.9513.413-1.372 1.4629-.9699 2.3783 3.3836 8.0049 3.3192 8.0525 3.739 8.3162.4446.4898 1.6161.7411 2.3853-.0327.3854-.3047.437-.5648 1.1598-2.3265.4693 1.1122 1.0447 3.3502 2.8667 2.7467.3146-.0443.9222-.4399 1.1766-1.0366l3.2603-7.6665c.402-.9142-.0225-1.958-.969-2.3785z"/></g></svg>