<svg width="95" height="95" viewBox="0 0 95 95" fill="none" xmlns="http://www.w3.org/2000/svg">
<rect width="95" height="95" fill="#E5E5E5"/>
<g clip-path="url(#clip0)">
<rect width="1440" height="5054" transform="translate(-254 -2917)" fill="#FFF8F5"/>
<path d="M47.5 95C73.7335 95 95 73.7335 95 47.5C95 21.2665 73.7335 0 47.5 0C21.2665 0 0 21.2665 0 47.5C0 73.7335 21.2665 95 47.5 95Z" fill="#E21B1B"/>
<path d="M94.6817 52.9372L68.2658 26.5212L27.8789 68.394L54.0277 94.5427C75.3982 91.6037 92.228 74.4576 94.6817 52.9372Z" fill="#C40606"/>
<path d="M65.7575 68.9379C64.8075 68.9379 63.859 68.5757 63.1331 67.8513L27.1697 31.8864C25.7195 30.4362 25.7195 28.0879 27.1697 26.6391C28.6199 25.1904 30.9682 25.1889 32.417 26.6391L68.3819 62.604C69.8321 64.0543 69.8321 66.4025 68.3819 67.8513C67.656 68.5757 66.7075 68.9379 65.7575 68.9379Z" fill="white"/>
<path d="M29.7902 68.9374C28.8402 68.9374 27.8917 68.5753 27.1658 67.8509C25.7156 66.4006 25.7156 64.0524 27.1658 62.6036L63.1307 26.6387C64.581 25.1885 66.9292 25.1885 68.378 26.6387C69.8267 28.0889 69.8282 30.4372 68.378 31.886L32.4146 67.8509C31.6902 68.5753 30.7402 68.9374 29.7902 68.9374Z" fill="white"/>
</g>
<defs>
<clipPath id="clip0">
<rect width="1440" height="5054" fill="white" transform="translate(-254 -2917)"/>
</clipPath>
</defs>
</svg>
