<svg fill="none" height="91" viewBox="0 0 91 91" width="91" xmlns="http://www.w3.org/2000/svg"><path d="m45.797 80.0159c18.7484 0 33.947-15.1985 33.947-33.947 0-18.7484-15.1986-33.947-33.947-33.947s-33.947 15.1986-33.947 33.947c0 18.7485 15.1986 33.947 33.947 33.947z" fill="#2ebfa5"/><g fill="#454b53"><path d="m46.027 90.3389c-24.588 0-44.59402-20.007-44.59402-44.599 0-24.591 20.00602-44.59696 44.59402-44.59696 24.592 0 44.598 20.00596 44.598 44.59696 0 24.592-20.006 44.599-44.598 44.599zm0-84.16996c-21.818 0-39.56802 17.75196-39.56802 39.57096 0 21.821 17.75002 39.5731 39.56802 39.5731 21.82 0 39.572-17.7521 39.572-39.5731.001-21.819-17.751-39.57096-39.572-39.57096z"/><path d="m61.092 48.2529h-14.926c-1.388 0-2.513-1.125-2.513-2.513v-32.359c0-1.388 1.125-2.513 2.513-2.513s2.513 1.125 2.513 2.513v29.847h12.413c1.387 0 2.512 1.125 2.512 2.513s-1.125 2.512-2.512 2.512z"/><path d="m46.166 80.5649c-1.388 0-2.513-1.125-2.513-2.513v-7.181c0-1.388 1.125-2.513 2.513-2.513s2.513 1.125 2.513 2.513v7.181c0 1.388-1.125 2.513-2.513 2.513z"/><path d="m20.7079 48.2529h-7.073c-1.387 0-2.512-1.125-2.512-2.513s1.125-2.513 2.512-2.513h7.073c1.388 0 2.513 1.125 2.513 2.513s-1.125 2.513-2.513 2.513z"/><path d="m78.424 48.2529h-7.07c-1.387 0-2.512-1.125-2.512-2.513s1.125-2.513 2.512-2.513h7.07c1.387 0 2.512 1.125 2.512 2.513s-1.125 2.513-2.512 2.513z"/><path d="m27.371 31.083c-.605 0-1.213-.218-1.694-.658l-5.222-4.773c-1.023-.937-1.095-2.525-.158-3.55.936-1.023 2.525-1.095 3.549-.159l5.222 4.773c1.024.937 1.095 2.525.159 3.55-.497.542-1.174.817-1.856.817z"/><path d="m69.975 70.0259c-.605 0-1.213-.218-1.694-.658l-5.222-4.771c-1.023-.936-1.096-2.525-.159-3.55s2.525-1.096 3.55-.159l5.221 4.771c1.024.936 1.096 2.525.16 3.55-.497.542-1.176.817-1.856.817z"/><path d="m24.198 72.0759c-.606 0-1.214-.218-1.696-.659-1.023-.938-1.094-2.526-.156-3.55l4.776-5.217c.938-1.024 2.526-1.093 3.55-.157 1.023.938 1.094 2.526.156 3.55l-4.776 5.217c-.495.542-1.173.816-1.854.816z"/><path d="m63.145 29.478c-.605 0-1.212-.218-1.693-.658-1.025-.936-1.097-2.524-.16-3.549l4.77-5.221c.936-1.025 2.525-1.096 3.55-.16s1.097 2.524.16 3.549l-4.772 5.22c-.495.543-1.174.819-1.855.819z"/></g></svg>