<svg width="36" height="26" viewBox="0 0 36 26" fill="none" xmlns="http://www.w3.org/2000/svg">
    <path d="M36 22C36 24.209 34.209 26 32 26H4C1.791 26 0 24.209 0 22V4C0 1.791 1.791 0 4 0H32C34.209 0 36 1.791 36 4V22Z" fill="#FFEBE0"/>
    <path d="M11.9499 12.636L0.636904 23.949C0.609904 23.977 0.599904 24.012 0.576904 24.04C0.916904 24.61 1.3909 25.083 1.9609 25.424C1.9899 25.401 2.0239 25.391 2.0509 25.364L13.3649 14.05C13.7549 13.659 13.7549 13.027 13.3649 12.636C12.9729 12.245 12.3409 12.245 11.9499 12.636ZM35.4229 24.04C35.4019 24.012 35.3899 23.977 35.3629 23.95L24.0509 12.636C23.6589 12.245 23.0269 12.245 22.6359 12.636C22.2449 13.028 22.2449 13.66 22.6359 14.05L33.9489 25.364C33.9749 25.39 34.0109 25.401 34.0389 25.424C34.6099 25.084 35.0829 24.61 35.4229 24.04Z" fill="#FD8743"/>
    <path d="M32 0H4C1.791 0 0 1.791 0 4V5.03L14.528 19.526C16.422 21.419 19.516 21.419 21.412 19.526L36 5.009V4C36 1.791 34.209 0 32 0Z" fill="#FD8743"/>
    <path d="M32 0H4.00003C2.41203 0 1.05103 0.934 0.405029 2.275L15.171 17.042C16.733 18.604 19.267 18.604 20.828 17.042L35.595 2.275C34.949 0.934 33.589 0 32 0Z" fill="#FFEBE0"/>
    </svg>
