<svg width="34" height="34" viewBox="0 0 34 34" fill="none" xmlns="http://www.w3.org/2000/svg">
<path d="M30 1H4C2.343 1 1 2.343 1 4V30C1 31.657 2.343 33 4 33H30C31.657 33 33 31.657 33 30V4C33 2.343 31.657 1 30 1Z" fill="#CCD6DD"/>
<path d="M30 0H4C1.791 0 0 1.791 0 4V30C0 32.209 1.791 34 4 34H30C32.209 34 34 32.209 34 30V4C34 1.791 32.209 0 30 0ZM30 2C31.103 2 32 2.897 32 4V8H26V2H30ZM26 18H32V24H26V18ZM26 16V10H32V16H26ZM24 2V8H18V2H24ZM18 10H24V16H18V10ZM18 18H24V24H18V18ZM16 2V8H10V2H16ZM10 10H16V16H10V10ZM10 18H16V24H10V18ZM2 4C2 2.897 2.897 2 4 2H8V8H2V4ZM2 10H8V16H2V10ZM2 18H8V24H2V18ZM4 32C2.897 32 2 31.103 2 30V26H8V32H4ZM10 32V26H16V32H10ZM18 32V26H24V32H18ZM30 32H26V26H32V30C32 31.103 31.103 32 30 32Z" fill="#E1E8ED"/>
<path d="M3.99793 32.0004C3.67793 32.0004 3.35293 31.9244 3.05193 31.7614C2.07893 31.2384 1.71593 30.0254 2.23893 29.0524L9.23893 16.0524C9.53793 15.4954 10.0839 15.1134 10.7089 15.0214C11.3349 14.9294 11.9669 15.1394 12.4139 15.5864L18.4899 21.6624L28.2279 3.07245C28.7399 2.09445 29.9489 1.71545 30.9269 2.22945C31.9059 2.74145 32.2829 3.95045 31.7709 4.92945L20.7709 25.9294C20.4759 26.4934 19.9299 26.8824 19.3009 26.9794C18.6739 27.0704 18.0349 26.8664 17.5849 26.4164L11.4849 20.3174L5.76093 30.9484C5.39993 31.6194 4.70993 32.0004 3.99793 32.0004Z" fill="#DD2E44"/>
</svg>
