<svg width="16" height="36" viewBox="0 0 16 36" fill="none" xmlns="http://www.w3.org/2000/svg">
<path d="M8 36C10.2091 36 12 35.3284 12 34.5C12 33.6716 10.2091 33 8 33C5.79086 33 4 33.6716 4 34.5C4 35.3284 5.79086 36 8 36Z" fill="#292F33"/>
<path d="M4.33911 10.7246C4.33911 10.7246 6.89411 34.9976 8.00111 34.9996C9.10711 35.0006 11.6611 10.7246 11.6611 10.7246H4.33911Z" fill="#99AAB5"/>
<path d="M8 16C12.4183 16 16 12.4183 16 8C16 3.58172 12.4183 0 8 0C3.58172 0 0 3.58172 0 8C0 12.4183 3.58172 16 8 16Z" fill="#DD2E44"/>
</svg>
