<svg fill="none" height="34" viewBox="0 0 34 34" width="34" xmlns="http://www.w3.org/2000/svg"><path d="m32.1235 34.0001c1.0362 0 1.8765-.8401 1.8765-1.8765v-30.24709c0-1.036471-.8403-1.87651-1.8765-1.87651h-30.24699c-1.036604 0-1.87651.840039-1.87651 1.87651v30.24709c0 1.0364.839906 1.8765 1.87651 1.8765z" fill="#0036ba"/><path d="m23.4592 34.0002v-13.1666h4.4196l.6617-5.1313h-5.0813v-3.2762c0-1.4856.4127-2.49804 2.5431-2.49804l2.7172-.0012v-4.58933c-.4701-.06256-2.083-.20228-3.9594-.20228-3.9177 0-6.5997 2.39129-6.5997 6.78285v3.7842h-4.4309v5.1313h4.4309v13.1666z" fill="#fff"/></svg>