<svg width="34" height="34" viewBox="0 0 34 34" fill="none" xmlns="http://www.w3.org/2000/svg">
<path d="M32.1235 34.0001C33.1597 34.0001 34 33.16 34 32.1236V1.87651C34 0.840039 33.1597 0 32.1235 0H1.87651C0.839906 0 0 0.840039 0 1.87651V32.1236C0 33.16 0.839906 34.0001 1.87651 34.0001H32.1235Z" fill="#0036BA"/>
<path d="M23.4592 34.0002V20.8336H27.8788L28.5405 15.7023H23.4592V12.4261C23.4592 10.9405 23.8719 9.92806 26.0023 9.92806L28.7195 9.92686V5.33753C28.2494 5.27497 26.6365 5.13525 24.7601 5.13525C20.8424 5.13525 18.1604 7.52654 18.1604 11.9181V15.7023H13.7295V20.8336H18.1604V34.0002H23.4592Z" fill="white"/>
</svg>
