<svg width="24" height="24" viewBox="0 0 13 12" fill="none" xmlns="http://www.w3.org/2000/svg">
    <path d="M8.36847 4.15771C9.20599 4.15771 10.0092 4.49042 10.6014 5.08264C11.1937 5.67486 11.5264 6.47808 11.5264 7.31561V10.9998H9.4211V7.31561C9.4211 7.03643 9.3102 6.76869 9.11279 6.57129C8.91538 6.37388 8.64764 6.26298 8.36847 6.26298C8.08929 6.26298 7.82155 6.37388 7.62414 6.57129C7.42674 6.76869 7.31583 7.03643 7.31583 7.31561V10.9998H5.21057V7.31561C5.21057 6.47808 5.54328 5.67486 6.1355 5.08264C6.72772 4.49042 7.53094 4.15771 8.36847 4.15771V4.15771Z" stroke="#FFDECB" stroke-linecap="round" stroke-linejoin="round"/>
    <path d="M3.10526 4.68408H1V10.9999H3.10526V4.68408Z" stroke="#FFDECB" stroke-linecap="round" stroke-linejoin="round"/>
    <path d="M2.05263 3.10526C2.63398 3.10526 3.10526 2.63398 3.10526 2.05263C3.10526 1.47128 2.63398 1 2.05263 1C1.47128 1 1 1.47128 1 2.05263C1 2.63398 1.47128 3.10526 2.05263 3.10526Z" stroke="#FFDECB" stroke-linecap="round" stroke-linejoin="round"/>
    </svg>
