<svg width="27" height="22" viewBox="0 0 27 22" fill="none" xmlns="http://www.w3.org/2000/svg">
    <path d="M26 1.01121C24.9118 1.76409 23.7069 2.33993 22.4318 2.71654C21.7474 1.9447 20.8379 1.39763 19.8262 1.14934C18.8145 0.901042 17.7494 0.963498 16.7751 1.32826C15.8008 1.69302 14.9641 2.34249 14.3784 3.18882C13.7926 4.03515 13.486 5.03751 13.5 6.06034V7.17494C11.503 7.22573 9.52418 6.79131 7.73978 5.91037C5.95539 5.02942 4.42081 3.72931 3.27273 2.12581C3.27273 2.12581 -1.27273 12.1572 8.95455 16.6156C6.61424 18.1738 3.82631 18.9551 1 18.8448C11.2273 24.4178 23.7273 18.8448 23.7273 6.0269C23.7262 5.71643 23.6958 5.40673 23.6364 5.10178C24.7961 3.97993 25.6146 2.56352 26 1.01121V1.01121Z" stroke="#FFDECB" stroke-linecap="round" stroke-linejoin="round"/>
    </svg>
