<svg width="24" height="24" viewBox="0 0 12 12" fill="none" xmlns="http://www.w3.org/2000/svg">
    <path d="M8.5 1H3.5C2.11929 1 1 2.11929 1 3.5V8.5C1 9.88071 2.11929 11 3.5 11H8.5C9.88071 11 11 9.88071 11 8.5V3.5C11 2.11929 9.88071 1 8.5 1Z" stroke="#FFDECB" stroke-linecap="round" stroke-linejoin="round"/>
    <path d="M7.99998 5.68515C8.06168 6.10127 7.9906 6.52626 7.79685 6.89966C7.60311 7.27306 7.29655 7.57586 6.92079 7.76499C6.54503 7.95412 6.1192 8.01995 5.70387 7.95312C5.28854 7.88628 4.90486 7.69019 4.6074 7.39273C4.30993 7.09527 4.11384 6.71159 4.04701 6.29626C3.98018 5.88093 4.04601 5.4551 4.23514 5.07934C4.42427 4.70358 4.72707 4.39702 5.10047 4.20327C5.47387 4.00952 5.89885 3.93844 6.31498 4.00015C6.73944 4.06309 7.1324 4.26088 7.43582 4.5643C7.73924 4.86773 7.93703 5.26069 7.99998 5.68515Z" stroke="#FFDECB" stroke-linecap="round" stroke-linejoin="round"/>
    <path d="M8.75 3.25H8.755" stroke="#FFDECB" stroke-linecap="round" stroke-linejoin="round"/>
    </svg>
