<svg fill="none" height="34" viewBox="0 0 34 34" width="34" xmlns="http://www.w3.org/2000/svg"><path d="m30.8912 14.2254h-1.1412v-.0588h-12.75v5.6667h8.0063c-1.168 3.2987-4.3066 5.6666-8.0063 5.6666-4.6941 0-8.49996-3.8059-8.49996-8.5s3.80586-8.49998 8.49996-8.49998c2.1668 0 4.1381.81742 5.6391 2.15258l4.007-4.007c-2.5301-2.35804-5.9146-3.81225-9.6461-3.81225-7.8235 0-14.16663 6.34313-14.16663 14.16665 0 7.8236 6.34313 14.1667 14.16663 14.1667 7.8236 0 14.1667-6.3431 14.1667-14.1667 0-.9499-.0977-1.8771-.2755-2.7745z" fill="#ffc107"/><path d="m4.4668 10.406 4.65445 3.4135c1.25945-3.1181 4.30955-5.31958 7.87875-5.31958 2.1668 0 4.1381.81742 5.6391 2.15258l4.007-4.007c-2.5301-2.35804-5.9146-3.81225-9.6461-3.81225-5.4414 0-10.16029 3.07204-12.5332 7.57275z" fill="#ff3d00"/><path d="m17.0001 31.1667c3.6592 0 6.9841-1.4004 9.498-3.6777l-4.3846-3.7103c-1.4701 1.1181-3.2665 1.7228-5.1134 1.7213-3.6848 0-6.8135-2.3495-7.99217-5.6284l-4.61975 3.5594c2.34459 4.5878 7.10602 7.7357 12.61192 7.7357z" fill="#4caf50"/><path d="m30.8911 14.2255h-1.1411v-.0588h-12.75v5.6667h8.0063c-.5587 1.57-1.5652 2.9418-2.895 3.9461l.0022-.0014 4.3845 3.7103c-.3102.2819 4.6687-3.405 4.6687-10.4883 0-.9499-.0978-1.8771-.2756-2.7746z" fill="#1976d2"/></svg>