<svg fill="none" height="34" viewBox="0 0 34 34" width="34" xmlns="http://www.w3.org/2000/svg" xmlns:xlink="http://www.w3.org/1999/xlink"><linearGradient id="a"><stop offset="0" stop-color="#e09b3d"/><stop offset=".3" stop-color="#c74c4d"/><stop offset=".6" stop-color="#c21975"/><stop offset="1" stop-color="#7024c4"/></linearGradient><linearGradient id="b" gradientUnits="userSpaceOnUse" x1="17" x2="17" xlink:href="#a" y1="33.901" y2=".264084"/><linearGradient id="c" gradientUnits="userSpaceOnUse" x1="17" x2="17" xlink:href="#a" y1="33.9009" y2=".263995"/><linearGradient id="d" gradientUnits="userSpaceOnUse" x1="25.8106" x2="25.8106" xlink:href="#a" y1="33.901" y2=".264085"/><path d="m23.8712 0h-13.7424c-5.58505 0-10.1288 4.54375-10.1288 10.1288v13.7424c0 5.585 4.54375 10.1288 10.1288 10.1288h13.7424c5.585 0 10.1288-4.5438 10.1288-10.1288v-13.7424c-.0001-5.58505-4.5438-10.1288-10.1288-10.1288zm6.7084 23.8712c0 3.7049-3.0035 6.7084-6.7084 6.7084h-13.7424c-3.70492 0-6.7084-3.0035-6.7084-6.7084v-13.7424c0-3.70499 3.00348-6.7084 6.7084-6.7084h13.7424c3.7049 0 6.7084 3.00341 6.7084 6.7084z" fill="url(#b)"/><path d="m17 8.2063c-4.8488 0-8.79358 3.9448-8.79358 8.7935 0 4.8488 3.94478 8.7937 8.79358 8.7937s8.7936-3.9449 8.7936-8.7937-3.9448-8.7935-8.7936-8.7935zm0 14.1668c-2.9675 0-5.3732-2.4056-5.3732-5.3732s2.4057-5.3732 5.3732-5.3732c2.9676 0 5.3732 2.4056 5.3732 5.3732 0 2.9675-2.4057 5.3732-5.3732 5.3732z" fill="url(#c)"/><path d="m25.8106 10.3795c1.1638 0 2.1071-.94335 2.1071-2.10709 0-1.16373-.9433-2.10713-2.1071-2.10713-1.1637 0-2.1071.9434-2.1071 2.10713 0 1.16374.9434 2.10709 2.1071 2.10709z" fill="url(#d)"/></svg>