<svg width="290" height="264" viewBox="0 0 290 264" fill="none" xmlns="http://www.w3.org/2000/svg">
<rect width="290" height="264" fill="#E5E5E5"/>
<g clip-path="url(#clip0)">
<rect width="1440" height="5054" transform="translate(-978 -3021)" fill="#FFF8F5"/>
<g filter="url(#filter0_d)">
<rect x="-423" y="-11" width="317.939" height="619" rx="40" fill="#F3F5F7"/>
</g>
<g filter="url(#filter1_d)">
<rect x="11" y="8" width="252" height="226" rx="12" fill="white"/>
</g>
<path d="M83.8347 44.886C84.3201 44.886 84.7014 45.0247 84.9787 45.302C85.2734 45.562 85.4207 45.926 85.4207 46.394V51.464C85.4207 52.1573 85.3601 52.6947 85.2387 53.076C85.1347 53.4573 84.9441 53.7607 84.6667 53.986C84.3894 54.2113 83.9734 54.402 83.4187 54.558C82.7427 54.766 81.9627 54.9307 81.0787 55.052C80.2121 55.1733 79.3887 55.234 78.6087 55.234C76.6674 55.234 74.9861 54.8613 73.5647 54.116C72.1434 53.3533 71.0514 52.27 70.2887 50.866C69.5261 49.4447 69.1447 47.7633 69.1447 45.822C69.1447 43.9153 69.5174 42.26 70.2627 40.856C71.0254 39.4347 72.1087 38.3427 73.5127 37.58C74.9167 36.8173 76.5547 36.436 78.4267 36.436C80.8361 36.436 82.8294 37.06 84.4067 38.308C84.6667 38.516 84.8487 38.724 84.9527 38.932C85.0567 39.14 85.1087 39.4 85.1087 39.712C85.1087 40.1627 84.9787 40.5527 84.7187 40.882C84.4761 41.194 84.1814 41.35 83.8347 41.35C83.6094 41.35 83.4014 41.3153 83.2107 41.246C83.0374 41.1767 82.8207 41.064 82.5607 40.908C81.8327 40.4573 81.1654 40.1367 80.5587 39.946C79.9521 39.7553 79.2847 39.66 78.5567 39.66C75.0207 39.66 73.2527 41.714 73.2527 45.822C73.2527 47.9367 73.7121 49.514 74.6307 50.554C75.5494 51.594 76.9361 52.114 78.7907 52.114C79.7961 52.114 80.7927 51.984 81.7807 51.724V47.694H79.3887C78.8861 47.694 78.4961 47.5727 78.2187 47.33C77.9414 47.0873 77.8027 46.7407 77.8027 46.29C77.8027 45.8393 77.9414 45.4927 78.2187 45.25C78.4961 45.0073 78.8861 44.886 79.3887 44.886H83.8347ZM90.524 55.156C89.952 55.156 89.4754 55 89.094 54.688C88.73 54.376 88.548 53.9167 88.548 53.31V43.82C88.548 43.2133 88.7387 42.754 89.12 42.442C89.5014 42.13 89.9694 41.974 90.524 41.974C91.0787 41.974 91.538 42.13 91.902 42.442C92.2834 42.754 92.474 43.2133 92.474 43.82V53.31C92.474 53.9167 92.2834 54.376 91.902 54.688C91.538 55 91.0787 55.156 90.524 55.156ZM90.524 39.894C89.8307 39.894 89.2847 39.7207 88.886 39.374C88.4874 39.01 88.288 38.5247 88.288 37.918C88.288 37.3113 88.4874 36.8347 88.886 36.488C89.2847 36.1413 89.8307 35.968 90.524 35.968C91.2 35.968 91.7374 36.15 92.136 36.514C92.552 36.8607 92.76 37.3287 92.76 37.918C92.76 38.5247 92.5607 39.01 92.162 39.374C91.7634 39.7207 91.2174 39.894 90.524 39.894ZM104.19 43.092C104.363 42.728 104.588 42.4593 104.866 42.286C105.16 42.0953 105.472 42 105.802 42C106.287 42 106.72 42.1647 107.102 42.494C107.483 42.806 107.674 43.1873 107.674 43.638C107.674 43.898 107.613 44.1493 107.492 44.392L102.812 53.986C102.638 54.3673 102.378 54.662 102.032 54.87C101.685 55.0607 101.312 55.156 100.914 55.156C100.515 55.156 100.142 55.0607 99.7957 54.87C99.449 54.662 99.1803 54.3673 98.9897 53.986L94.3097 44.392C94.2057 44.1493 94.1537 43.9153 94.1537 43.69C94.1537 43.222 94.353 42.8233 94.7517 42.494C95.1677 42.1647 95.627 42 96.1297 42C96.4937 42 96.823 42.0953 97.1177 42.286C97.4123 42.4593 97.6463 42.728 97.8197 43.092L101.018 50.086L104.19 43.092ZM119.358 51.204C119.705 51.204 119.982 51.3427 120.19 51.62C120.416 51.8973 120.528 52.2527 120.528 52.686C120.528 52.9807 120.442 53.258 120.268 53.518C120.095 53.7607 119.852 53.9687 119.54 54.142C118.951 54.454 118.266 54.714 117.486 54.922C116.706 55.1127 115.987 55.208 115.328 55.208C113.942 55.208 112.728 54.9393 111.688 54.402C110.666 53.8647 109.877 53.102 109.322 52.114C108.768 51.1087 108.49 49.93 108.49 48.578C108.49 47.278 108.759 46.1253 109.296 45.12C109.834 44.1147 110.579 43.3347 111.532 42.78C112.486 42.208 113.569 41.922 114.782 41.922C115.944 41.922 116.958 42.182 117.824 42.702C118.708 43.2047 119.393 43.9327 119.878 44.886C120.364 45.822 120.606 46.9227 120.606 48.188C120.606 48.5693 120.511 48.864 120.32 49.072C120.147 49.2627 119.896 49.358 119.566 49.358H112.286C112.408 50.3807 112.72 51.126 113.222 51.594C113.725 52.0447 114.444 52.27 115.38 52.27C115.883 52.27 116.334 52.2093 116.732 52.088C117.131 51.9667 117.573 51.802 118.058 51.594C118.301 51.49 118.535 51.4033 118.76 51.334C118.986 51.2473 119.185 51.204 119.358 51.204ZM114.886 44.626C114.141 44.626 113.543 44.8687 113.092 45.354C112.642 45.822 112.373 46.5067 112.286 47.408H117.304C117.252 46.4893 117.018 45.796 116.602 45.328C116.204 44.86 115.632 44.626 114.886 44.626ZM147.633 52.53C147.772 52.842 147.841 53.1193 147.841 53.362C147.841 53.8473 147.642 54.2633 147.243 54.61C146.862 54.9393 146.42 55.104 145.917 55.104C145.588 55.104 145.276 55.0173 144.981 54.844C144.687 54.6533 144.461 54.376 144.305 54.012L142.927 50.944H134.113L132.735 54.012C132.579 54.376 132.354 54.6533 132.059 54.844C131.782 55.0173 131.47 55.104 131.123 55.104C130.621 55.104 130.17 54.9393 129.771 54.61C129.373 54.2633 129.173 53.8473 129.173 53.362C129.173 53.1193 129.243 52.842 129.381 52.53L136.401 37.788C136.592 37.372 136.878 37.06 137.259 36.852C137.641 36.6267 138.048 36.514 138.481 36.514C138.932 36.514 139.348 36.6267 139.729 36.852C140.111 37.0773 140.405 37.3893 140.613 37.788L147.633 52.53ZM135.491 47.876H141.549L138.533 41.116L135.491 47.876ZM155.667 55.208C154.35 55.208 153.197 54.9393 152.209 54.402C151.221 53.8647 150.458 53.102 149.921 52.114C149.401 51.126 149.141 49.9647 149.141 48.63C149.141 47.2953 149.418 46.1253 149.973 45.12C150.545 44.0973 151.342 43.3087 152.365 42.754C153.388 42.1993 154.566 41.922 155.901 41.922C156.594 41.922 157.288 42.0173 157.981 42.208C158.692 42.3987 159.324 42.6673 159.879 43.014C160.416 43.3433 160.685 43.8287 160.685 44.47C160.685 44.9207 160.581 45.2933 160.373 45.588C160.165 45.8653 159.888 46.004 159.541 46.004C159.316 46.004 159.099 45.9693 158.891 45.9C158.7 45.8133 158.44 45.692 158.111 45.536C157.747 45.3453 157.418 45.198 157.123 45.094C156.846 44.99 156.525 44.938 156.161 44.938C155.19 44.938 154.445 45.25 153.925 45.874C153.422 46.4807 153.171 47.3733 153.171 48.552C153.171 49.7307 153.422 50.632 153.925 51.256C154.445 51.88 155.19 52.192 156.161 52.192C156.525 52.192 156.846 52.1487 157.123 52.062C157.4 51.958 157.738 51.802 158.137 51.594C158.466 51.438 158.726 51.3253 158.917 51.256C159.108 51.1693 159.316 51.126 159.541 51.126C159.87 51.126 160.139 51.2733 160.347 51.568C160.572 51.8627 160.685 52.2353 160.685 52.686C160.685 53.3273 160.416 53.804 159.879 54.116C159.324 54.4627 158.683 54.7313 157.955 54.922C157.227 55.1127 156.464 55.208 155.667 55.208ZM168.514 55.208C167.197 55.208 166.044 54.9393 165.056 54.402C164.068 53.8647 163.306 53.102 162.768 52.114C162.248 51.126 161.988 49.9647 161.988 48.63C161.988 47.2953 162.266 46.1253 162.82 45.12C163.392 44.0973 164.19 43.3087 165.212 42.754C166.235 42.1993 167.414 41.922 168.748 41.922C169.442 41.922 170.135 42.0173 170.828 42.208C171.539 42.3987 172.172 42.6673 172.726 43.014C173.264 43.3433 173.532 43.8287 173.532 44.47C173.532 44.9207 173.428 45.2933 173.22 45.588C173.012 45.8653 172.735 46.004 172.388 46.004C172.163 46.004 171.946 45.9693 171.738 45.9C171.548 45.8133 171.288 45.692 170.958 45.536C170.594 45.3453 170.265 45.198 169.97 45.094C169.693 44.99 169.372 44.938 169.008 44.938C168.038 44.938 167.292 45.25 166.772 45.874C166.27 46.4807 166.018 47.3733 166.018 48.552C166.018 49.7307 166.27 50.632 166.772 51.256C167.292 51.88 168.038 52.192 169.008 52.192C169.372 52.192 169.693 52.1487 169.97 52.062C170.248 51.958 170.586 51.802 170.984 51.594C171.314 51.438 171.574 51.3253 171.764 51.256C171.955 51.1693 172.163 51.126 172.388 51.126C172.718 51.126 172.986 51.2733 173.194 51.568C173.42 51.8627 173.532 52.2353 173.532 52.686C173.532 53.3273 173.264 53.804 172.726 54.116C172.172 54.4627 171.53 54.7313 170.802 54.922C170.074 55.1127 169.312 55.208 168.514 55.208ZM185.704 51.204C186.051 51.204 186.328 51.3427 186.536 51.62C186.761 51.8973 186.874 52.2527 186.874 52.686C186.874 52.9807 186.787 53.258 186.614 53.518C186.441 53.7607 186.198 53.9687 185.886 54.142C185.297 54.454 184.612 54.714 183.832 54.922C183.052 55.1127 182.333 55.208 181.674 55.208C180.287 55.208 179.074 54.9393 178.034 54.402C177.011 53.8647 176.223 53.102 175.668 52.114C175.113 51.1087 174.836 49.93 174.836 48.578C174.836 47.278 175.105 46.1253 175.642 45.12C176.179 44.1147 176.925 43.3347 177.878 42.78C178.831 42.208 179.915 41.922 181.128 41.922C182.289 41.922 183.303 42.182 184.17 42.702C185.054 43.2047 185.739 43.9327 186.224 44.886C186.709 45.822 186.952 46.9227 186.952 48.188C186.952 48.5693 186.857 48.864 186.666 49.072C186.493 49.2627 186.241 49.358 185.912 49.358H178.632C178.753 50.3807 179.065 51.126 179.568 51.594C180.071 52.0447 180.79 52.27 181.726 52.27C182.229 52.27 182.679 52.2093 183.078 52.088C183.477 51.9667 183.919 51.802 184.404 51.594C184.647 51.49 184.881 51.4033 185.106 51.334C185.331 51.2473 185.531 51.204 185.704 51.204ZM181.232 44.626C180.487 44.626 179.889 44.8687 179.438 45.354C178.987 45.822 178.719 46.5067 178.632 47.408H183.65C183.598 46.4893 183.364 45.796 182.948 45.328C182.549 44.86 181.977 44.626 181.232 44.626ZM194.159 55.208C193.102 55.208 192.183 55.1213 191.403 54.948C190.623 54.7747 189.939 54.4973 189.349 54.116C189.089 53.96 188.89 53.752 188.751 53.492C188.613 53.232 188.543 52.9373 188.543 52.608C188.543 52.2093 188.656 51.88 188.881 51.62C189.107 51.3427 189.384 51.204 189.713 51.204C189.939 51.204 190.164 51.2473 190.389 51.334C190.615 51.4033 190.849 51.49 191.091 51.594C191.577 51.8193 192.053 52.0013 192.521 52.14C192.989 52.2613 193.57 52.322 194.263 52.322C194.87 52.322 195.338 52.2267 195.667 52.036C196.014 51.8453 196.187 51.5853 196.187 51.256C196.187 51.0133 196.109 50.8227 195.953 50.684C195.815 50.528 195.546 50.3893 195.147 50.268C194.749 50.1467 194.116 49.9993 193.249 49.826C191.707 49.5313 190.597 49.0893 189.921 48.5C189.245 47.9107 188.907 47.0873 188.907 46.03C188.907 45.25 189.141 44.548 189.609 43.924C190.095 43.3 190.753 42.8147 191.585 42.468C192.417 42.104 193.353 41.922 194.393 41.922C195.139 41.922 195.867 42.0173 196.577 42.208C197.288 42.3987 197.921 42.6673 198.475 43.014C199.013 43.3433 199.281 43.8287 199.281 44.47C199.281 44.886 199.169 45.2327 198.943 45.51C198.718 45.7873 198.441 45.926 198.111 45.926C197.713 45.926 197.236 45.77 196.681 45.458C196.248 45.2327 195.849 45.068 195.485 44.964C195.139 44.8427 194.723 44.782 194.237 44.782C193.7 44.782 193.275 44.886 192.963 45.094C192.651 45.2847 192.495 45.5533 192.495 45.9C192.495 46.264 192.677 46.5413 193.041 46.732C193.405 46.9227 194.107 47.1133 195.147 47.304C196.309 47.5293 197.219 47.8067 197.877 48.136C198.536 48.448 199.013 48.8467 199.307 49.332C199.602 49.8173 199.749 50.4327 199.749 51.178C199.749 52.4087 199.238 53.388 198.215 54.116C197.21 54.844 195.858 55.208 194.159 55.208ZM206.829 55.208C205.772 55.208 204.853 55.1213 204.073 54.948C203.293 54.7747 202.609 54.4973 202.019 54.116C201.759 53.96 201.56 53.752 201.421 53.492C201.283 53.232 201.213 52.9373 201.213 52.608C201.213 52.2093 201.326 51.88 201.551 51.62C201.777 51.3427 202.054 51.204 202.383 51.204C202.609 51.204 202.834 51.2473 203.059 51.334C203.285 51.4033 203.519 51.49 203.761 51.594C204.247 51.8193 204.723 52.0013 205.191 52.14C205.659 52.2613 206.24 52.322 206.933 52.322C207.54 52.322 208.008 52.2267 208.337 52.036C208.684 51.8453 208.857 51.5853 208.857 51.256C208.857 51.0133 208.779 50.8227 208.623 50.684C208.485 50.528 208.216 50.3893 207.817 50.268C207.419 50.1467 206.786 49.9993 205.919 49.826C204.377 49.5313 203.267 49.0893 202.591 48.5C201.915 47.9107 201.577 47.0873 201.577 46.03C201.577 45.25 201.811 44.548 202.279 43.924C202.765 43.3 203.423 42.8147 204.255 42.468C205.087 42.104 206.023 41.922 207.063 41.922C207.809 41.922 208.537 42.0173 209.247 42.208C209.958 42.3987 210.591 42.6673 211.145 43.014C211.683 43.3433 211.951 43.8287 211.951 44.47C211.951 44.886 211.839 45.2327 211.613 45.51C211.388 45.7873 211.111 45.926 210.781 45.926C210.383 45.926 209.906 45.77 209.351 45.458C208.918 45.2327 208.519 45.068 208.155 44.964C207.809 44.8427 207.393 44.782 206.907 44.782C206.37 44.782 205.945 44.886 205.633 45.094C205.321 45.2847 205.165 45.5533 205.165 45.9C205.165 46.264 205.347 46.5413 205.711 46.732C206.075 46.9227 206.777 47.1133 207.817 47.304C208.979 47.5293 209.889 47.8067 210.547 48.136C211.206 48.448 211.683 48.8467 211.977 49.332C212.272 49.8173 212.419 50.4327 212.419 51.178C212.419 52.4087 211.908 53.388 210.885 54.116C209.88 54.844 208.528 55.208 206.829 55.208Z" fill="#242C57"/>
<path d="M61.808 111.184C60.6427 111.184 59.531 111.023 58.473 110.701C57.4303 110.379 56.5947 109.934 55.966 109.367C55.6747 109.122 55.529 108.807 55.529 108.424C55.529 108.148 55.6057 107.918 55.759 107.734C55.9123 107.535 56.0963 107.435 56.311 107.435C56.5257 107.435 56.7863 107.535 57.093 107.734C58.4577 108.746 60.014 109.252 61.762 109.252C62.9887 109.252 63.9317 109.022 64.591 108.562C65.2503 108.102 65.58 107.443 65.58 106.584C65.58 105.909 65.2733 105.403 64.66 105.066C64.0467 104.729 63.0653 104.407 61.716 104.1C60.428 103.824 59.37 103.51 58.542 103.157C57.714 102.804 57.0623 102.329 56.587 101.731C56.127 101.118 55.897 100.343 55.897 99.408C55.897 98.4727 56.15 97.6447 56.656 96.924C57.1773 96.188 57.898 95.6207 58.818 95.222C59.738 94.808 60.7883 94.601 61.969 94.601C63.0577 94.601 64.062 94.7543 64.982 95.061C65.902 95.3677 66.684 95.82 67.328 96.418C67.6347 96.6787 67.788 96.993 67.788 97.361C67.788 97.6217 67.7037 97.8517 67.535 98.051C67.3817 98.2503 67.1977 98.35 66.983 98.35C66.7837 98.35 66.5307 98.2503 66.224 98.051C65.5187 97.5143 64.8517 97.131 64.223 96.901C63.6097 96.6557 62.866 96.533 61.992 96.533C60.8113 96.533 59.8913 96.7783 59.232 97.269C58.5727 97.7443 58.243 98.4113 58.243 99.27C58.243 100.006 58.5343 100.566 59.117 100.949C59.6997 101.317 60.635 101.654 61.923 101.961C63.2723 102.268 64.361 102.59 65.189 102.927C66.0323 103.249 66.6993 103.701 67.19 104.284C67.696 104.851 67.949 105.587 67.949 106.492C67.949 107.412 67.6883 108.232 67.167 108.953C66.661 109.658 65.9403 110.21 65.005 110.609C64.085 110.992 63.0193 111.184 61.808 111.184ZM76.6649 99.5C79.3329 99.5 80.6669 101.01 80.6669 104.031V110.011C80.6669 110.348 80.5596 110.617 80.3449 110.816C80.1302 111.015 79.8466 111.115 79.4939 111.115C79.1412 111.115 78.8576 111.015 78.6429 110.816C78.4436 110.617 78.3439 110.348 78.3439 110.011V104.054C78.3439 103.134 78.1522 102.459 77.7689 102.03C77.4009 101.601 76.8182 101.386 76.0209 101.386C75.0856 101.386 74.3342 101.677 73.7669 102.26C73.1996 102.843 72.9159 103.625 72.9159 104.606V110.011C72.9159 110.348 72.8086 110.617 72.5939 110.816C72.3946 111.015 72.1186 111.115 71.7659 111.115C71.4132 111.115 71.1296 111.015 70.9149 110.816C70.7002 110.617 70.5929 110.348 70.5929 110.011V95.774C70.5929 95.4367 70.7002 95.1683 70.9149 94.969C71.1449 94.7697 71.4362 94.67 71.7889 94.67C72.1262 94.67 72.3946 94.7697 72.5939 94.969C72.8086 95.153 72.9159 95.406 72.9159 95.728V101.478C73.2992 100.834 73.8129 100.343 74.4569 100.006C75.1009 99.6687 75.8369 99.5 76.6649 99.5ZM88.5599 99.5C90.0472 99.5 91.1512 99.8757 91.8719 100.627C92.6079 101.378 92.9759 102.521 92.9759 104.054V110.011C92.9759 110.364 92.8762 110.64 92.6769 110.839C92.4775 111.023 92.2015 111.115 91.8489 111.115C91.5115 111.115 91.2432 111.015 91.0439 110.816C90.8445 110.617 90.7449 110.348 90.7449 110.011V109.16C90.4535 109.804 90.0165 110.302 89.4339 110.655C88.8665 110.992 88.1995 111.161 87.4329 111.161C86.6969 111.161 86.0222 111.015 85.4089 110.724C84.8109 110.417 84.3355 110.003 83.9829 109.482C83.6302 108.961 83.4539 108.37 83.4539 107.711C83.4385 106.883 83.6455 106.239 84.0749 105.779C84.5042 105.304 85.2019 104.966 86.1679 104.767C87.1339 104.552 88.4755 104.445 90.1929 104.445H90.7219V103.778C90.7219 102.919 90.5455 102.298 90.1929 101.915C89.8402 101.532 89.2729 101.34 88.4909 101.34C87.9542 101.34 87.4482 101.409 86.9729 101.547C86.4975 101.685 85.9762 101.884 85.4089 102.145C84.9949 102.375 84.7035 102.49 84.5349 102.49C84.3049 102.49 84.1132 102.406 83.9599 102.237C83.8219 102.068 83.7529 101.854 83.7529 101.593C83.7529 101.363 83.8142 101.164 83.9369 100.995C84.0749 100.811 84.2895 100.635 84.5809 100.466C85.1175 100.175 85.7462 99.9447 86.4669 99.776C87.1875 99.592 87.8852 99.5 88.5599 99.5ZM87.8469 109.436C88.6902 109.436 89.3802 109.152 89.9169 108.585C90.4535 108.002 90.7219 107.259 90.7219 106.354V105.756H90.3079C89.1119 105.756 88.1919 105.81 87.5479 105.917C86.9039 106.024 86.4439 106.208 86.1679 106.469C85.8919 106.714 85.7539 107.075 85.7539 107.55C85.7539 108.102 85.9532 108.554 86.3519 108.907C86.7505 109.26 87.2489 109.436 87.8469 109.436ZM102.041 99.546C102.777 99.5 103.145 99.8143 103.145 100.489C103.145 100.826 103.061 101.079 102.892 101.248C102.724 101.417 102.432 101.516 102.018 101.547L101.328 101.616C100.362 101.708 99.6418 102.045 99.1665 102.628C98.7065 103.211 98.4765 103.916 98.4765 104.744V110.011C98.4765 110.379 98.3691 110.655 98.1545 110.839C97.9398 111.023 97.6638 111.115 97.3265 111.115C96.9891 111.115 96.7055 111.023 96.4755 110.839C96.2608 110.655 96.1535 110.379 96.1535 110.011V100.65C96.1535 100.297 96.2608 100.029 96.4755 99.845C96.7055 99.6457 96.9891 99.546 97.3265 99.546C97.6331 99.546 97.8861 99.6457 98.0855 99.845C98.3001 100.029 98.4075 100.29 98.4075 100.627V101.731C98.7141 101.056 99.1588 100.543 99.7415 100.19C100.324 99.8373 100.983 99.6303 101.719 99.569L102.041 99.546ZM113.138 108.171C113.352 108.171 113.529 108.255 113.667 108.424C113.805 108.593 113.874 108.807 113.874 109.068C113.874 109.513 113.598 109.888 113.046 110.195C112.509 110.502 111.919 110.739 111.275 110.908C110.646 111.077 110.04 111.161 109.458 111.161C107.679 111.161 106.276 110.647 105.249 109.62C104.221 108.577 103.708 107.159 103.708 105.365C103.708 104.215 103.93 103.195 104.375 102.306C104.835 101.417 105.471 100.727 106.284 100.236C107.112 99.7453 108.047 99.5 109.09 99.5C110.592 99.5 111.781 99.983 112.655 100.949C113.529 101.915 113.966 103.218 113.966 104.859C113.966 105.472 113.69 105.779 113.138 105.779H106.031C106.184 108.156 107.326 109.344 109.458 109.344C110.025 109.344 110.516 109.267 110.93 109.114C111.344 108.961 111.781 108.761 112.241 108.516C112.287 108.485 112.409 108.424 112.609 108.332C112.823 108.225 113 108.171 113.138 108.171ZM109.136 101.202C108.246 101.202 107.533 101.486 106.997 102.053C106.46 102.62 106.138 103.418 106.031 104.445H111.965C111.919 103.402 111.65 102.605 111.16 102.053C110.684 101.486 110.01 101.202 109.136 101.202ZM131.767 94.67C132.12 94.67 132.403 94.7697 132.618 94.969C132.833 95.1683 132.94 95.4367 132.94 95.774V109.988C132.94 110.341 132.833 110.617 132.618 110.816C132.419 111.015 132.143 111.115 131.79 111.115C131.437 111.115 131.154 111.015 130.939 110.816C130.74 110.617 130.64 110.341 130.64 109.988V109.068C130.303 109.743 129.812 110.264 129.168 110.632C128.524 110.985 127.78 111.161 126.937 111.161C125.971 111.161 125.105 110.916 124.338 110.425C123.587 109.934 122.996 109.244 122.567 108.355C122.153 107.466 121.946 106.446 121.946 105.296C121.946 104.131 122.153 103.111 122.567 102.237C122.996 101.363 123.587 100.688 124.338 100.213C125.089 99.7377 125.956 99.5 126.937 99.5C127.78 99.5 128.516 99.684 129.145 100.052C129.789 100.405 130.28 100.911 130.617 101.57V95.728C130.617 95.406 130.717 95.153 130.916 94.969C131.131 94.7697 131.414 94.67 131.767 94.67ZM127.489 109.321C128.486 109.321 129.26 108.976 129.812 108.286C130.364 107.596 130.64 106.615 130.64 105.342C130.64 104.069 130.364 103.088 129.812 102.398C129.275 101.708 128.501 101.363 127.489 101.363C126.477 101.363 125.687 101.708 125.12 102.398C124.568 103.073 124.292 104.039 124.292 105.296C124.292 106.553 124.576 107.542 125.143 108.263C125.71 108.968 126.492 109.321 127.489 109.321ZM140.894 99.5C142.381 99.5 143.485 99.8757 144.206 100.627C144.942 101.378 145.31 102.521 145.31 104.054V110.011C145.31 110.364 145.21 110.64 145.011 110.839C144.812 111.023 144.536 111.115 144.183 111.115C143.846 111.115 143.577 111.015 143.378 110.816C143.179 110.617 143.079 110.348 143.079 110.011V109.16C142.788 109.804 142.351 110.302 141.768 110.655C141.201 110.992 140.534 111.161 139.767 111.161C139.031 111.161 138.356 111.015 137.743 110.724C137.145 110.417 136.67 110.003 136.317 109.482C135.964 108.961 135.788 108.37 135.788 107.711C135.773 106.883 135.98 106.239 136.409 105.779C136.838 105.304 137.536 104.966 138.502 104.767C139.468 104.552 140.81 104.445 142.527 104.445H143.056V103.778C143.056 102.919 142.88 102.298 142.527 101.915C142.174 101.532 141.607 101.34 140.825 101.34C140.288 101.34 139.782 101.409 139.307 101.547C138.832 101.685 138.31 101.884 137.743 102.145C137.329 102.375 137.038 102.49 136.869 102.49C136.639 102.49 136.447 102.406 136.294 102.237C136.156 102.068 136.087 101.854 136.087 101.593C136.087 101.363 136.148 101.164 136.271 100.995C136.409 100.811 136.624 100.635 136.915 100.466C137.452 100.175 138.08 99.9447 138.801 99.776C139.522 99.592 140.219 99.5 140.894 99.5ZM140.181 109.436C141.024 109.436 141.714 109.152 142.251 108.585C142.788 108.002 143.056 107.259 143.056 106.354V105.756H142.642C141.446 105.756 140.526 105.81 139.882 105.917C139.238 106.024 138.778 106.208 138.502 106.469C138.226 106.714 138.088 107.075 138.088 107.55C138.088 108.102 138.287 108.554 138.686 108.907C139.085 109.26 139.583 109.436 140.181 109.436ZM153.984 109.344C154.322 109.375 154.559 109.467 154.697 109.62C154.851 109.758 154.927 109.957 154.927 110.218C154.927 110.525 154.805 110.762 154.559 110.931C154.329 111.084 153.984 111.146 153.524 111.115L152.903 111.069C151.661 110.977 150.734 110.601 150.12 109.942C149.507 109.267 149.2 108.278 149.2 106.975V101.57H147.82C147.146 101.57 146.808 101.271 146.808 100.673C146.808 100.397 146.893 100.182 147.061 100.029C147.245 99.8603 147.498 99.776 147.82 99.776H149.2V97.407C149.2 97.0543 149.3 96.7783 149.499 96.579C149.714 96.3797 149.998 96.28 150.35 96.28C150.703 96.28 150.987 96.3797 151.201 96.579C151.416 96.7783 151.523 97.0543 151.523 97.407V99.776H153.8C154.122 99.776 154.368 99.8603 154.536 100.029C154.72 100.182 154.812 100.397 154.812 100.673C154.812 100.964 154.72 101.187 154.536 101.34C154.368 101.493 154.122 101.57 153.8 101.57H151.523V107.136C151.523 107.857 151.669 108.386 151.96 108.723C152.267 109.06 152.727 109.252 153.34 109.298L153.984 109.344ZM161.311 99.5C162.798 99.5 163.902 99.8757 164.623 100.627C165.359 101.378 165.727 102.521 165.727 104.054V110.011C165.727 110.364 165.627 110.64 165.428 110.839C165.229 111.023 164.953 111.115 164.6 111.115C164.263 111.115 163.994 111.015 163.795 110.816C163.596 110.617 163.496 110.348 163.496 110.011V109.16C163.205 109.804 162.768 110.302 162.185 110.655C161.618 110.992 160.951 111.161 160.184 111.161C159.448 111.161 158.773 111.015 158.16 110.724C157.562 110.417 157.087 110.003 156.734 109.482C156.381 108.961 156.205 108.37 156.205 107.711C156.19 106.883 156.397 106.239 156.826 105.779C157.255 105.304 157.953 104.966 158.919 104.767C159.885 104.552 161.227 104.445 162.944 104.445H163.473V103.778C163.473 102.919 163.297 102.298 162.944 101.915C162.591 101.532 162.024 101.34 161.242 101.34C160.705 101.34 160.199 101.409 159.724 101.547C159.249 101.685 158.727 101.884 158.16 102.145C157.746 102.375 157.455 102.49 157.286 102.49C157.056 102.49 156.864 102.406 156.711 102.237C156.573 102.068 156.504 101.854 156.504 101.593C156.504 101.363 156.565 101.164 156.688 100.995C156.826 100.811 157.041 100.635 157.332 100.466C157.869 100.175 158.497 99.9447 159.218 99.776C159.939 99.592 160.636 99.5 161.311 99.5ZM160.598 109.436C161.441 109.436 162.131 109.152 162.668 108.585C163.205 108.002 163.473 107.259 163.473 106.354V105.756H163.059C161.863 105.756 160.943 105.81 160.299 105.917C159.655 106.024 159.195 106.208 158.919 106.469C158.643 106.714 158.505 107.075 158.505 107.55C158.505 108.102 158.704 108.554 159.103 108.907C159.502 109.26 160 109.436 160.598 109.436ZM190.241 100.259C190.41 99.799 190.724 99.569 191.184 99.569C191.475 99.569 191.736 99.6687 191.966 99.868C192.196 100.067 192.311 100.313 192.311 100.604C192.311 100.757 192.28 100.895 192.219 101.018L188.401 110.333C188.309 110.578 188.156 110.77 187.941 110.908C187.726 111.031 187.489 111.092 187.228 111.092C186.983 111.092 186.753 111.031 186.538 110.908C186.323 110.77 186.17 110.578 186.078 110.333L183.088 102.95L180.167 110.333C180.075 110.578 179.922 110.77 179.707 110.908C179.508 111.031 179.278 111.092 179.017 111.092C178.772 111.092 178.534 111.031 178.304 110.908C178.089 110.77 177.928 110.578 177.821 110.333L174.026 101.018C173.965 100.895 173.934 100.765 173.934 100.627C173.934 100.32 174.057 100.067 174.302 99.868C174.563 99.6687 174.846 99.569 175.153 99.569C175.613 99.569 175.927 99.7913 176.096 100.236L179.063 108.079L182.099 100.305C182.191 100.06 182.337 99.8757 182.536 99.753C182.735 99.6303 182.95 99.569 183.18 99.569C183.395 99.569 183.602 99.6303 183.801 99.753C184 99.8757 184.146 100.06 184.238 100.305L187.274 108.033L190.241 100.259ZM195.975 111.115C195.638 111.115 195.354 111.023 195.124 110.839C194.909 110.655 194.802 110.379 194.802 110.011V100.673C194.802 100.305 194.909 100.029 195.124 99.845C195.354 99.6457 195.638 99.546 195.975 99.546C196.312 99.546 196.588 99.6457 196.803 99.845C197.018 100.029 197.125 100.305 197.125 100.673V110.011C197.125 110.379 197.018 110.655 196.803 110.839C196.588 111.023 196.312 111.115 195.975 111.115ZM195.975 97.292C195.53 97.292 195.178 97.1693 194.917 96.924C194.656 96.6787 194.526 96.3567 194.526 95.958C194.526 95.5593 194.656 95.245 194.917 95.015C195.178 94.7697 195.53 94.647 195.975 94.647C196.404 94.647 196.749 94.7697 197.01 95.015C197.286 95.245 197.424 95.5593 197.424 95.958C197.424 96.3567 197.294 96.6787 197.033 96.924C196.772 97.1693 196.42 97.292 195.975 97.292ZM206.184 109.344C206.521 109.375 206.759 109.467 206.897 109.62C207.05 109.758 207.127 109.957 207.127 110.218C207.127 110.525 207.004 110.762 206.759 110.931C206.529 111.084 206.184 111.146 205.724 111.115L205.103 111.069C203.861 110.977 202.933 110.601 202.32 109.942C201.706 109.267 201.4 108.278 201.4 106.975V101.57H200.02C199.345 101.57 199.008 101.271 199.008 100.673C199.008 100.397 199.092 100.182 199.261 100.029C199.445 99.8603 199.698 99.776 200.02 99.776H201.4V97.407C201.4 97.0543 201.499 96.7783 201.699 96.579C201.913 96.3797 202.197 96.28 202.55 96.28C202.902 96.28 203.186 96.3797 203.401 96.579C203.615 96.7783 203.723 97.0543 203.723 97.407V99.776H206C206.322 99.776 206.567 99.8603 206.736 100.029C206.92 100.182 207.012 100.397 207.012 100.673C207.012 100.964 206.92 101.187 206.736 101.34C206.567 101.493 206.322 101.57 206 101.57H203.723V107.136C203.723 107.857 203.868 108.386 204.16 108.723C204.466 109.06 204.926 109.252 205.54 109.298L206.184 109.344ZM214.867 99.5C217.535 99.5 218.869 101.01 218.869 104.031V110.011C218.869 110.348 218.762 110.617 218.547 110.816C218.332 111.015 218.049 111.115 217.696 111.115C217.343 111.115 217.06 111.015 216.845 110.816C216.646 110.617 216.546 110.348 216.546 110.011V104.054C216.546 103.134 216.354 102.459 215.971 102.03C215.603 101.601 215.02 101.386 214.223 101.386C213.288 101.386 212.536 101.677 211.969 102.26C211.402 102.843 211.118 103.625 211.118 104.606V110.011C211.118 110.348 211.011 110.617 210.796 110.816C210.597 111.015 210.321 111.115 209.968 111.115C209.615 111.115 209.332 111.015 209.117 110.816C208.902 110.617 208.795 110.348 208.795 110.011V95.774C208.795 95.4367 208.902 95.1683 209.117 94.969C209.347 94.7697 209.638 94.67 209.991 94.67C210.328 94.67 210.597 94.7697 210.796 94.969C211.011 95.153 211.118 95.406 211.118 95.728V101.478C211.501 100.834 212.015 100.343 212.659 100.006C213.303 99.6687 214.039 99.5 214.867 99.5ZM65.9888 142.161C64.9001 142.161 63.9418 141.923 63.1138 141.448C62.3011 140.973 61.6648 140.298 61.2048 139.424C60.7601 138.55 60.5378 137.538 60.5378 136.388C60.5378 135.223 60.7678 134.195 61.2278 133.306C61.7031 132.417 62.3624 131.727 63.2058 131.236C64.0491 130.745 65.0151 130.5 66.1038 130.5C66.6864 130.5 67.2691 130.584 67.8518 130.753C68.4498 130.922 68.9788 131.152 69.4388 131.443C69.9294 131.78 70.1748 132.171 70.1748 132.616C70.1748 132.877 70.1058 133.099 69.9678 133.283C69.8298 133.452 69.6534 133.536 69.4388 133.536C69.3008 133.536 69.1628 133.505 69.0248 133.444C68.8868 133.367 68.7104 133.26 68.4958 133.122C68.1124 132.877 67.7521 132.693 67.4148 132.57C67.0928 132.432 66.7018 132.363 66.2418 132.363C65.1991 132.363 64.3864 132.716 63.8038 133.421C63.2364 134.126 62.9528 135.108 62.9528 136.365C62.9528 137.622 63.2364 138.596 63.8038 139.286C64.3711 139.961 65.1761 140.298 66.2188 140.298C66.6788 140.298 67.0851 140.229 67.4378 140.091C67.7904 139.953 68.1508 139.769 68.5188 139.539C68.6874 139.432 68.8561 139.34 69.0248 139.263C69.1934 139.186 69.3468 139.148 69.4848 139.148C69.6994 139.148 69.8758 139.24 70.0138 139.424C70.1518 139.593 70.2208 139.807 70.2208 140.068C70.2208 140.283 70.1594 140.482 70.0368 140.666C69.9294 140.835 69.7378 141.011 69.4618 141.195C69.0018 141.502 68.4651 141.739 67.8518 141.908C67.2384 142.077 66.6174 142.161 65.9888 142.161ZM77.1759 142.161C76.0719 142.161 75.0983 141.923 74.2549 141.448C73.4269 140.973 72.7829 140.298 72.3229 139.424C71.8783 138.535 71.6559 137.507 71.6559 136.342C71.6559 135.161 71.8783 134.134 72.3229 133.26C72.7829 132.371 73.4269 131.688 74.2549 131.213C75.0983 130.738 76.0719 130.5 77.1759 130.5C78.2799 130.5 79.2459 130.738 80.0739 131.213C80.9173 131.688 81.5613 132.371 82.0059 133.26C82.4659 134.134 82.6959 135.161 82.6959 136.342C82.6959 137.507 82.4659 138.535 82.0059 139.424C81.5613 140.298 80.9173 140.973 80.0739 141.448C79.2459 141.923 78.2799 142.161 77.1759 142.161ZM77.1759 140.321C78.2033 140.321 78.9853 139.984 79.5219 139.309C80.0739 138.634 80.3499 137.645 80.3499 136.342C80.3499 135.054 80.0739 134.073 79.5219 133.398C78.9699 132.708 78.1879 132.363 77.1759 132.363C76.1639 132.363 75.3819 132.708 74.8299 133.398C74.2779 134.073 74.0019 135.054 74.0019 136.342C74.0019 137.645 74.2703 138.634 74.8069 139.309C75.3589 139.984 76.1486 140.321 77.1759 140.321ZM98.1624 130.5C100.677 130.5 101.934 132.01 101.934 135.031V141.011C101.934 141.364 101.827 141.64 101.612 141.839C101.398 142.023 101.114 142.115 100.761 142.115C100.424 142.115 100.148 142.023 99.9334 141.839C99.7187 141.64 99.6114 141.364 99.6114 141.011V135.054C99.6114 134.119 99.4427 133.444 99.1054 133.03C98.768 132.601 98.239 132.386 97.5184 132.386C96.675 132.386 96.008 132.677 95.5174 133.26C95.0267 133.827 94.7814 134.609 94.7814 135.606V141.011C94.7814 141.364 94.674 141.64 94.4594 141.839C94.2447 142.023 93.961 142.115 93.6084 142.115C93.271 142.115 92.995 142.023 92.7804 141.839C92.5657 141.64 92.4584 141.364 92.4584 141.011V135.054C92.4584 134.119 92.2897 133.444 91.9524 133.03C91.615 132.601 91.086 132.386 90.3654 132.386C89.522 132.386 88.8474 132.677 88.3414 133.26C87.8507 133.827 87.6054 134.609 87.6054 135.606V141.011C87.6054 141.364 87.498 141.64 87.2834 141.839C87.0687 142.023 86.7927 142.115 86.4554 142.115C86.118 142.115 85.8344 142.023 85.6044 141.839C85.3897 141.64 85.2824 141.364 85.2824 141.011V131.65C85.2824 131.313 85.3974 131.044 85.6274 130.845C85.8574 130.646 86.1334 130.546 86.4554 130.546C86.7774 130.546 87.038 130.646 87.2374 130.845C87.452 131.029 87.5594 131.29 87.5594 131.627V132.478C87.8967 131.834 88.3644 131.343 88.9624 131.006C89.5604 130.669 90.2504 130.5 91.0324 130.5C91.891 130.5 92.5964 130.676 93.1484 131.029C93.7157 131.382 94.1374 131.926 94.4134 132.662C94.7507 132.003 95.249 131.481 95.9084 131.098C96.5677 130.699 97.319 130.5 98.1624 130.5ZM111.141 130.5C112.107 130.5 112.966 130.745 113.717 131.236C114.484 131.727 115.074 132.417 115.488 133.306C115.918 134.195 116.132 135.223 116.132 136.388C116.132 137.538 115.925 138.55 115.511 139.424C115.097 140.298 114.507 140.973 113.74 141.448C112.989 141.923 112.123 142.161 111.141 142.161C110.298 142.161 109.554 141.985 108.91 141.632C108.266 141.264 107.776 140.743 107.438 140.068V145.197C107.438 145.519 107.331 145.772 107.116 145.956C106.917 146.155 106.649 146.255 106.311 146.255C105.959 146.255 105.667 146.155 105.437 145.956C105.223 145.757 105.115 145.488 105.115 145.151V131.673C105.115 131.336 105.223 131.067 105.437 130.868C105.652 130.653 105.936 130.546 106.288 130.546C106.626 130.546 106.902 130.653 107.116 130.868C107.331 131.067 107.438 131.336 107.438 131.673V132.616C107.776 131.941 108.266 131.42 108.91 131.052C109.554 130.684 110.298 130.5 111.141 130.5ZM110.589 140.321C111.601 140.321 112.383 139.984 112.935 139.309C113.487 138.619 113.763 137.645 113.763 136.388C113.763 135.115 113.48 134.126 112.912 133.421C112.36 132.716 111.586 132.363 110.589 132.363C109.577 132.363 108.795 132.708 108.243 133.398C107.707 134.088 107.438 135.069 107.438 136.342C107.438 137.615 107.707 138.596 108.243 139.286C108.795 139.976 109.577 140.321 110.589 140.321ZM123.419 130.5C124.907 130.5 126.011 130.876 126.731 131.627C127.467 132.378 127.835 133.521 127.835 135.054V141.011C127.835 141.364 127.736 141.64 127.536 141.839C127.337 142.023 127.061 142.115 126.708 142.115C126.371 142.115 126.103 142.015 125.903 141.816C125.704 141.617 125.604 141.348 125.604 141.011V140.16C125.313 140.804 124.876 141.302 124.293 141.655C123.726 141.992 123.059 142.161 122.292 142.161C121.556 142.161 120.882 142.015 120.268 141.724C119.67 141.417 119.195 141.003 118.842 140.482C118.49 139.961 118.313 139.37 118.313 138.711C118.298 137.883 118.505 137.239 118.934 136.779C119.364 136.304 120.061 135.966 121.027 135.767C121.993 135.552 123.335 135.445 125.052 135.445H125.581V134.778C125.581 133.919 125.405 133.298 125.052 132.915C124.7 132.532 124.132 132.34 123.35 132.34C122.814 132.34 122.308 132.409 121.832 132.547C121.357 132.685 120.836 132.884 120.268 133.145C119.854 133.375 119.563 133.49 119.394 133.49C119.164 133.49 118.973 133.406 118.819 133.237C118.681 133.068 118.612 132.854 118.612 132.593C118.612 132.363 118.674 132.164 118.796 131.995C118.934 131.811 119.149 131.635 119.44 131.466C119.977 131.175 120.606 130.945 121.326 130.776C122.047 130.592 122.745 130.5 123.419 130.5ZM122.706 140.436C123.55 140.436 124.24 140.152 124.776 139.585C125.313 139.002 125.581 138.259 125.581 137.354V136.756H125.167C123.971 136.756 123.051 136.81 122.407 136.917C121.763 137.024 121.303 137.208 121.027 137.469C120.751 137.714 120.613 138.075 120.613 138.55C120.613 139.102 120.813 139.554 121.211 139.907C121.61 140.26 122.108 140.436 122.706 140.436ZM137.062 130.5C139.745 130.5 141.087 132.01 141.087 135.031V141.011C141.087 141.364 140.979 141.64 140.765 141.839C140.565 142.023 140.282 142.115 139.914 142.115C139.561 142.115 139.277 142.015 139.063 141.816C138.863 141.617 138.764 141.348 138.764 141.011V135.146C138.764 134.195 138.572 133.498 138.189 133.053C137.821 132.608 137.238 132.386 136.441 132.386C135.505 132.386 134.754 132.677 134.187 133.26C133.619 133.843 133.336 134.625 133.336 135.606V141.011C133.336 141.348 133.228 141.617 133.014 141.816C132.814 142.015 132.538 142.115 132.186 142.115C131.833 142.115 131.549 142.015 131.335 141.816C131.12 141.617 131.013 141.348 131.013 141.011V131.65C131.013 131.328 131.12 131.067 131.335 130.868C131.565 130.653 131.848 130.546 132.186 130.546C132.523 130.546 132.791 130.646 132.991 130.845C133.19 131.044 133.29 131.305 133.29 131.627V132.57C133.658 131.895 134.171 131.382 134.831 131.029C135.49 130.676 136.234 130.5 137.062 130.5ZM145.438 142.115C145.1 142.115 144.817 142.023 144.587 141.839C144.372 141.655 144.265 141.379 144.265 141.011V131.673C144.265 131.305 144.372 131.029 144.587 130.845C144.817 130.646 145.1 130.546 145.438 130.546C145.775 130.546 146.051 130.646 146.266 130.845C146.48 131.029 146.588 131.305 146.588 131.673V141.011C146.588 141.379 146.48 141.655 146.266 141.839C146.051 142.023 145.775 142.115 145.438 142.115ZM145.438 128.292C144.993 128.292 144.64 128.169 144.38 127.924C144.119 127.679 143.989 127.357 143.989 126.958C143.989 126.559 144.119 126.245 144.38 126.015C144.64 125.77 144.993 125.647 145.438 125.647C145.867 125.647 146.212 125.77 146.473 126.015C146.749 126.245 146.887 126.559 146.887 126.958C146.887 127.357 146.756 127.679 146.496 127.924C146.235 128.169 145.882 128.292 145.438 128.292ZM158.621 139.171C158.836 139.171 159.012 139.255 159.15 139.424C159.288 139.593 159.357 139.807 159.357 140.068C159.357 140.513 159.081 140.888 158.529 141.195C157.992 141.502 157.402 141.739 156.758 141.908C156.129 142.077 155.524 142.161 154.941 142.161C153.162 142.161 151.759 141.647 150.732 140.62C149.705 139.577 149.191 138.159 149.191 136.365C149.191 135.215 149.413 134.195 149.858 133.306C150.318 132.417 150.954 131.727 151.767 131.236C152.595 130.745 153.53 130.5 154.573 130.5C156.076 130.5 157.264 130.983 158.138 131.949C159.012 132.915 159.449 134.218 159.449 135.859C159.449 136.472 159.173 136.779 158.621 136.779H151.514C151.667 139.156 152.81 140.344 154.941 140.344C155.508 140.344 155.999 140.267 156.413 140.114C156.827 139.961 157.264 139.761 157.724 139.516C157.77 139.485 157.893 139.424 158.092 139.332C158.307 139.225 158.483 139.171 158.621 139.171ZM154.619 132.202C153.73 132.202 153.017 132.486 152.48 133.053C151.943 133.62 151.621 134.418 151.514 135.445H157.448C157.402 134.402 157.134 133.605 156.643 133.053C156.168 132.486 155.493 132.202 154.619 132.202ZM165.919 142.161C164.355 142.161 163.075 141.839 162.078 141.195C161.802 141.026 161.603 140.85 161.48 140.666C161.373 140.482 161.319 140.275 161.319 140.045C161.319 139.8 161.388 139.593 161.526 139.424C161.664 139.255 161.84 139.171 162.055 139.171C162.254 139.171 162.569 139.294 162.998 139.539C163.458 139.784 163.903 139.984 164.332 140.137C164.777 140.29 165.329 140.367 165.988 140.367C166.724 140.367 167.299 140.237 167.713 139.976C168.127 139.715 168.334 139.347 168.334 138.872C168.334 138.565 168.25 138.32 168.081 138.136C167.928 137.952 167.652 137.791 167.253 137.653C166.854 137.5 166.264 137.339 165.482 137.17C164.133 136.879 163.159 136.488 162.561 135.997C161.978 135.491 161.687 134.809 161.687 133.95C161.687 133.291 161.879 132.7 162.262 132.179C162.645 131.642 163.174 131.228 163.849 130.937C164.524 130.646 165.29 130.5 166.149 130.5C166.762 130.5 167.36 130.584 167.943 130.753C168.526 130.906 169.039 131.136 169.484 131.443C169.99 131.78 170.243 132.171 170.243 132.616C170.243 132.861 170.166 133.068 170.013 133.237C169.875 133.406 169.706 133.49 169.507 133.49C169.369 133.49 169.231 133.459 169.093 133.398C168.955 133.337 168.771 133.237 168.541 133.099C168.127 132.854 167.736 132.662 167.368 132.524C167.015 132.386 166.571 132.317 166.034 132.317C165.39 132.317 164.869 132.455 164.47 132.731C164.087 133.007 163.895 133.383 163.895 133.858C163.895 134.287 164.071 134.625 164.424 134.87C164.792 135.1 165.474 135.322 166.471 135.537C167.498 135.752 168.303 135.997 168.886 136.273C169.469 136.549 169.883 136.894 170.128 137.308C170.389 137.707 170.519 138.22 170.519 138.849C170.519 139.846 170.097 140.651 169.254 141.264C168.426 141.862 167.314 142.161 165.919 142.161ZM187.15 131.236C187.242 131.006 187.372 130.837 187.541 130.73C187.725 130.623 187.917 130.569 188.116 130.569C188.407 130.569 188.66 130.669 188.875 130.868C189.105 131.067 189.22 131.305 189.22 131.581C189.22 131.734 189.189 131.88 189.128 132.018L182.734 145.588C182.642 145.803 182.504 145.964 182.32 146.071C182.151 146.194 181.967 146.255 181.768 146.255C181.492 146.255 181.239 146.163 181.009 145.979C180.794 145.795 180.687 145.565 180.687 145.289C180.687 145.166 180.725 145.013 180.802 144.829L182.389 141.448L177.95 132.018C177.889 131.895 177.858 131.757 177.858 131.604C177.858 131.313 177.981 131.067 178.226 130.868C178.471 130.669 178.747 130.569 179.054 130.569C179.514 130.569 179.844 130.784 180.043 131.213L183.608 139.125L187.15 131.236ZM195.837 142.161C194.733 142.161 193.759 141.923 192.916 141.448C192.088 140.973 191.444 140.298 190.984 139.424C190.539 138.535 190.317 137.507 190.317 136.342C190.317 135.161 190.539 134.134 190.984 133.26C191.444 132.371 192.088 131.688 192.916 131.213C193.759 130.738 194.733 130.5 195.837 130.5C196.941 130.5 197.907 130.738 198.735 131.213C199.578 131.688 200.222 132.371 200.667 133.26C201.127 134.134 201.357 135.161 201.357 136.342C201.357 137.507 201.127 138.535 200.667 139.424C200.222 140.298 199.578 140.973 198.735 141.448C197.907 141.923 196.941 142.161 195.837 142.161ZM195.837 140.321C196.864 140.321 197.646 139.984 198.183 139.309C198.735 138.634 199.011 137.645 199.011 136.342C199.011 135.054 198.735 134.073 198.183 133.398C197.631 132.708 196.849 132.363 195.837 132.363C194.825 132.363 194.043 132.708 193.491 133.398C192.939 134.073 192.663 135.054 192.663 136.342C192.663 137.645 192.931 138.634 193.468 139.309C194.02 139.984 194.81 140.321 195.837 140.321ZM212.637 130.546C212.99 130.546 213.266 130.646 213.465 130.845C213.68 131.044 213.787 131.32 213.787 131.673V141.034C213.787 141.356 213.68 141.617 213.465 141.816C213.251 142.015 212.967 142.115 212.614 142.115C212.292 142.115 212.032 142.023 211.832 141.839C211.633 141.64 211.533 141.379 211.533 141.057V140.183C211.181 140.827 210.69 141.318 210.061 141.655C209.448 141.992 208.758 142.161 207.991 142.161C205.262 142.161 203.897 140.658 203.897 137.653V131.673C203.897 131.32 203.997 131.044 204.196 130.845C204.411 130.646 204.702 130.546 205.07 130.546C205.423 130.546 205.699 130.646 205.898 130.845C206.113 131.044 206.22 131.32 206.22 131.673V137.63C206.22 138.535 206.404 139.202 206.772 139.631C207.14 140.06 207.708 140.275 208.474 140.275C209.379 140.275 210.1 139.984 210.636 139.401C211.188 138.818 211.464 138.044 211.464 137.078V131.673C211.464 131.336 211.572 131.067 211.786 130.868C212.001 130.653 212.285 130.546 212.637 130.546ZM77.6846 171.344C78.022 171.375 78.2596 171.467 78.3976 171.62C78.551 171.758 78.6276 171.957 78.6276 172.218C78.6276 172.525 78.505 172.762 78.2596 172.931C78.0296 173.084 77.6846 173.146 77.2246 173.115L76.6036 173.069C75.3616 172.977 74.434 172.601 73.8206 171.942C73.2073 171.267 72.9006 170.278 72.9006 168.975V163.57H71.5206C70.846 163.57 70.5086 163.271 70.5086 162.673C70.5086 162.397 70.593 162.182 70.7616 162.029C70.9456 161.86 71.1986 161.776 71.5206 161.776H72.9006V159.407C72.9006 159.054 73.0003 158.778 73.1996 158.579C73.4143 158.38 73.698 158.28 74.0506 158.28C74.4033 158.28 74.687 158.38 74.9016 158.579C75.1163 158.778 75.2236 159.054 75.2236 159.407V161.776H77.5006C77.8226 161.776 78.068 161.86 78.2366 162.029C78.4206 162.182 78.5126 162.397 78.5126 162.673C78.5126 162.964 78.4206 163.187 78.2366 163.34C78.068 163.493 77.8226 163.57 77.5006 163.57H75.2236V169.136C75.2236 169.857 75.3693 170.386 75.6606 170.723C75.9673 171.06 76.4273 171.252 77.0406 171.298L77.6846 171.344ZM86.184 161.546C86.92 161.5 87.288 161.814 87.288 162.489C87.288 162.826 87.2037 163.079 87.035 163.248C86.8664 163.417 86.575 163.516 86.161 163.547L85.471 163.616C84.505 163.708 83.7844 164.045 83.309 164.628C82.849 165.211 82.619 165.916 82.619 166.744V172.011C82.619 172.379 82.5117 172.655 82.297 172.839C82.0824 173.023 81.8064 173.115 81.469 173.115C81.1317 173.115 80.848 173.023 80.618 172.839C80.4034 172.655 80.296 172.379 80.296 172.011V162.65C80.296 162.297 80.4034 162.029 80.618 161.845C80.848 161.646 81.1317 161.546 81.469 161.546C81.7757 161.546 82.0287 161.646 82.228 161.845C82.4427 162.029 82.55 162.29 82.55 162.627V163.731C82.8567 163.056 83.3014 162.543 83.884 162.19C84.4667 161.837 85.126 161.63 85.862 161.569L86.184 161.546ZM97.4129 161.546C97.7656 161.546 98.0416 161.646 98.2409 161.845C98.4556 162.044 98.5629 162.32 98.5629 162.673V172.034C98.5629 172.356 98.4556 172.617 98.2409 172.816C98.0262 173.015 97.7426 173.115 97.3899 173.115C97.0679 173.115 96.8072 173.023 96.6079 172.839C96.4086 172.64 96.3089 172.379 96.3089 172.057V171.183C95.9562 171.827 95.4656 172.318 94.8369 172.655C94.2236 172.992 93.5336 173.161 92.7669 173.161C90.0376 173.161 88.6729 171.658 88.6729 168.653V162.673C88.6729 162.32 88.7726 162.044 88.9719 161.845C89.1866 161.646 89.4779 161.546 89.8459 161.546C90.1986 161.546 90.4746 161.646 90.6739 161.845C90.8886 162.044 90.9959 162.32 90.9959 162.673V168.63C90.9959 169.535 91.1799 170.202 91.5479 170.631C91.9159 171.06 92.4832 171.275 93.2499 171.275C94.1546 171.275 94.8752 170.984 95.4119 170.401C95.9639 169.818 96.2399 169.044 96.2399 168.078V162.673C96.2399 162.336 96.3472 162.067 96.5619 161.868C96.7766 161.653 97.0602 161.546 97.4129 161.546ZM105.724 173.161C104.16 173.161 102.879 172.839 101.883 172.195C101.607 172.026 101.407 171.85 101.285 171.666C101.177 171.482 101.124 171.275 101.124 171.045C101.124 170.8 101.193 170.593 101.331 170.424C101.469 170.255 101.645 170.171 101.86 170.171C102.059 170.171 102.373 170.294 102.803 170.539C103.263 170.784 103.707 170.984 104.137 171.137C104.581 171.29 105.133 171.367 105.793 171.367C106.529 171.367 107.104 171.237 107.518 170.976C107.932 170.715 108.139 170.347 108.139 169.872C108.139 169.565 108.054 169.32 107.886 169.136C107.732 168.952 107.456 168.791 107.058 168.653C106.659 168.5 106.069 168.339 105.287 168.17C103.937 167.879 102.964 167.488 102.366 166.997C101.783 166.491 101.492 165.809 101.492 164.95C101.492 164.291 101.683 163.7 102.067 163.179C102.45 162.642 102.979 162.228 103.654 161.937C104.328 161.646 105.095 161.5 105.954 161.5C106.567 161.5 107.165 161.584 107.748 161.753C108.33 161.906 108.844 162.136 109.289 162.443C109.795 162.78 110.048 163.171 110.048 163.616C110.048 163.861 109.971 164.068 109.818 164.237C109.68 164.406 109.511 164.49 109.312 164.49C109.174 164.49 109.036 164.459 108.898 164.398C108.76 164.337 108.576 164.237 108.346 164.099C107.932 163.854 107.541 163.662 107.173 163.524C106.82 163.386 106.375 163.317 105.839 163.317C105.195 163.317 104.673 163.455 104.275 163.731C103.891 164.007 103.7 164.383 103.7 164.858C103.7 165.287 103.876 165.625 104.229 165.87C104.597 166.1 105.279 166.322 106.276 166.537C107.303 166.752 108.108 166.997 108.691 167.273C109.273 167.549 109.687 167.894 109.933 168.308C110.193 168.707 110.324 169.22 110.324 169.849C110.324 170.846 109.902 171.651 109.059 172.264C108.231 172.862 107.119 173.161 105.724 173.161ZM118.294 171.344C118.631 171.375 118.869 171.467 119.007 171.62C119.16 171.758 119.237 171.957 119.237 172.218C119.237 172.525 119.114 172.762 118.869 172.931C118.639 173.084 118.294 173.146 117.834 173.115L117.213 173.069C115.971 172.977 115.043 172.601 114.43 171.942C113.817 171.267 113.51 170.278 113.51 168.975V163.57H112.13C111.455 163.57 111.118 163.271 111.118 162.673C111.118 162.397 111.202 162.182 111.371 162.029C111.555 161.86 111.808 161.776 112.13 161.776H113.51V159.407C113.51 159.054 113.61 158.778 113.809 158.579C114.024 158.38 114.307 158.28 114.66 158.28C115.013 158.28 115.296 158.38 115.511 158.579C115.726 158.778 115.833 159.054 115.833 159.407V161.776H118.11C118.432 161.776 118.677 161.86 118.846 162.029C119.03 162.182 119.122 162.397 119.122 162.673C119.122 162.964 119.03 163.187 118.846 163.34C118.677 163.493 118.432 163.57 118.11 163.57H115.833V169.136C115.833 169.857 115.979 170.386 116.27 170.723C116.577 171.06 117.037 171.252 117.65 171.298L118.294 171.344ZM131.685 161.5C133.172 161.5 134.276 161.876 134.997 162.627C135.733 163.378 136.101 164.521 136.101 166.054V172.011C136.101 172.364 136.001 172.64 135.802 172.839C135.603 173.023 135.327 173.115 134.974 173.115C134.637 173.115 134.368 173.015 134.169 172.816C133.97 172.617 133.87 172.348 133.87 172.011V171.16C133.579 171.804 133.142 172.302 132.559 172.655C131.992 172.992 131.325 173.161 130.558 173.161C129.822 173.161 129.147 173.015 128.534 172.724C127.936 172.417 127.461 172.003 127.108 171.482C126.755 170.961 126.579 170.37 126.579 169.711C126.564 168.883 126.771 168.239 127.2 167.779C127.629 167.304 128.327 166.966 129.293 166.767C130.259 166.552 131.601 166.445 133.318 166.445H133.847V165.778C133.847 164.919 133.671 164.298 133.318 163.915C132.965 163.532 132.398 163.34 131.616 163.34C131.079 163.34 130.573 163.409 130.098 163.547C129.623 163.685 129.101 163.884 128.534 164.145C128.12 164.375 127.829 164.49 127.66 164.49C127.43 164.49 127.238 164.406 127.085 164.237C126.947 164.068 126.878 163.854 126.878 163.593C126.878 163.363 126.939 163.164 127.062 162.995C127.2 162.811 127.415 162.635 127.706 162.466C128.243 162.175 128.871 161.945 129.592 161.776C130.313 161.592 131.01 161.5 131.685 161.5ZM130.972 171.436C131.815 171.436 132.505 171.152 133.042 170.585C133.579 170.002 133.847 169.259 133.847 168.354V167.756H133.433C132.237 167.756 131.317 167.81 130.673 167.917C130.029 168.024 129.569 168.208 129.293 168.469C129.017 168.714 128.879 169.075 128.879 169.55C128.879 170.102 129.078 170.554 129.477 170.907C129.876 171.26 130.374 171.436 130.972 171.436ZM145.327 161.5C148.011 161.5 149.352 163.01 149.352 166.031V172.011C149.352 172.364 149.245 172.64 149.03 172.839C148.831 173.023 148.547 173.115 148.179 173.115C147.827 173.115 147.543 173.015 147.328 172.816C147.129 172.617 147.029 172.348 147.029 172.011V166.146C147.029 165.195 146.838 164.498 146.454 164.053C146.086 163.608 145.504 163.386 144.706 163.386C143.771 163.386 143.02 163.677 142.452 164.26C141.885 164.843 141.601 165.625 141.601 166.606V172.011C141.601 172.348 141.494 172.617 141.279 172.816C141.08 173.015 140.804 173.115 140.451 173.115C140.099 173.115 139.815 173.015 139.6 172.816C139.386 172.617 139.278 172.348 139.278 172.011V162.65C139.278 162.328 139.386 162.067 139.6 161.868C139.83 161.653 140.114 161.546 140.451 161.546C140.789 161.546 141.057 161.646 141.256 161.845C141.456 162.044 141.555 162.305 141.555 162.627V163.57C141.923 162.895 142.437 162.382 143.096 162.029C143.756 161.676 144.499 161.5 145.327 161.5ZM161.707 156.67C162.06 156.67 162.344 156.77 162.558 156.969C162.773 157.168 162.88 157.437 162.88 157.774V171.988C162.88 172.341 162.773 172.617 162.558 172.816C162.359 173.015 162.083 173.115 161.73 173.115C161.378 173.115 161.094 173.015 160.879 172.816C160.68 172.617 160.58 172.341 160.58 171.988V171.068C160.243 171.743 159.752 172.264 159.108 172.632C158.464 172.985 157.721 173.161 156.877 173.161C155.911 173.161 155.045 172.916 154.278 172.425C153.527 171.934 152.937 171.244 152.507 170.355C152.093 169.466 151.886 168.446 151.886 167.296C151.886 166.131 152.093 165.111 152.507 164.237C152.937 163.363 153.527 162.688 154.278 162.213C155.03 161.738 155.896 161.5 156.877 161.5C157.721 161.5 158.457 161.684 159.085 162.052C159.729 162.405 160.22 162.911 160.557 163.57V157.728C160.557 157.406 160.657 157.153 160.856 156.969C161.071 156.77 161.355 156.67 161.707 156.67ZM157.429 171.321C158.426 171.321 159.2 170.976 159.752 170.286C160.304 169.596 160.58 168.615 160.58 167.342C160.58 166.069 160.304 165.088 159.752 164.398C159.216 163.708 158.441 163.363 157.429 163.363C156.417 163.363 155.628 163.708 155.06 164.398C154.508 165.073 154.232 166.039 154.232 167.296C154.232 168.553 154.516 169.542 155.083 170.263C155.651 170.968 156.433 171.321 157.429 171.321ZM181.476 161.546C181.828 161.546 182.104 161.653 182.304 161.868C182.518 162.067 182.626 162.336 182.626 162.673V172.103C182.626 173.82 182.166 175.116 181.246 175.99C180.341 176.864 178.999 177.301 177.221 177.301C175.565 177.301 174.185 176.987 173.081 176.358C172.513 176.036 172.23 175.653 172.23 175.208C172.23 174.947 172.299 174.733 172.437 174.564C172.59 174.395 172.774 174.311 172.989 174.311C173.188 174.311 173.502 174.426 173.932 174.656C174.484 174.917 174.997 175.116 175.473 175.254C175.948 175.407 176.515 175.484 177.175 175.484C179.291 175.484 180.349 174.418 180.349 172.287V170.516C180.027 171.191 179.536 171.72 178.877 172.103C178.217 172.471 177.451 172.655 176.577 172.655C175.595 172.655 174.721 172.425 173.955 171.965C173.188 171.505 172.59 170.853 172.161 170.01C171.747 169.167 171.54 168.193 171.54 167.089C171.54 165.985 171.754 165.011 172.184 164.168C172.613 163.325 173.203 162.673 173.955 162.213C174.721 161.738 175.595 161.5 176.577 161.5C177.435 161.5 178.187 161.684 178.831 162.052C179.49 162.42 179.988 162.941 180.326 163.616V162.65C180.326 162.313 180.425 162.044 180.625 161.845C180.839 161.646 181.123 161.546 181.476 161.546ZM177.129 170.815C178.125 170.815 178.907 170.485 179.475 169.826C180.042 169.167 180.326 168.254 180.326 167.089C180.326 165.939 180.042 165.034 179.475 164.375C178.923 163.7 178.141 163.363 177.129 163.363C176.117 163.363 175.319 163.693 174.737 164.352C174.169 165.011 173.886 165.924 173.886 167.089C173.886 168.254 174.177 169.167 174.76 169.826C175.342 170.485 176.132 170.815 177.129 170.815ZM194.648 170.171C194.863 170.171 195.039 170.255 195.177 170.424C195.315 170.593 195.384 170.807 195.384 171.068C195.384 171.513 195.108 171.888 194.556 172.195C194.02 172.502 193.429 172.739 192.785 172.908C192.157 173.077 191.551 173.161 190.968 173.161C189.19 173.161 187.787 172.647 186.759 171.62C185.732 170.577 185.218 169.159 185.218 167.365C185.218 166.215 185.441 165.195 185.885 164.306C186.345 163.417 186.982 162.727 187.794 162.236C188.622 161.745 189.558 161.5 190.6 161.5C192.103 161.5 193.291 161.983 194.165 162.949C195.039 163.915 195.476 165.218 195.476 166.859C195.476 167.472 195.2 167.779 194.648 167.779H187.541C187.695 170.156 188.837 171.344 190.968 171.344C191.536 171.344 192.026 171.267 192.44 171.114C192.854 170.961 193.291 170.761 193.751 170.516C193.797 170.485 193.92 170.424 194.119 170.332C194.334 170.225 194.51 170.171 194.648 170.171ZM190.646 163.202C189.757 163.202 189.044 163.486 188.507 164.053C187.971 164.62 187.649 165.418 187.541 166.445H193.475C193.429 165.402 193.161 164.605 192.67 164.053C192.195 163.486 191.52 163.202 190.646 163.202ZM203.421 171.344C203.758 171.375 203.996 171.467 204.134 171.62C204.287 171.758 204.364 171.957 204.364 172.218C204.364 172.525 204.241 172.762 203.996 172.931C203.766 173.084 203.421 173.146 202.961 173.115L202.34 173.069C201.098 172.977 200.17 172.601 199.557 171.942C198.944 171.267 198.637 170.278 198.637 168.975V163.57H197.257C196.582 163.57 196.245 163.271 196.245 162.673C196.245 162.397 196.329 162.182 196.498 162.029C196.682 161.86 196.935 161.776 197.257 161.776H198.637V159.407C198.637 159.054 198.737 158.778 198.936 158.579C199.151 158.38 199.434 158.28 199.787 158.28C200.14 158.28 200.423 158.38 200.638 158.579C200.853 158.778 200.96 159.054 200.96 159.407V161.776H203.237C203.559 161.776 203.804 161.86 203.973 162.029C204.157 162.182 204.249 162.397 204.249 162.673C204.249 162.964 204.157 163.187 203.973 163.34C203.804 163.493 203.559 163.57 203.237 163.57H200.96V169.136C200.96 169.857 201.106 170.386 201.397 170.723C201.704 171.06 202.164 171.252 202.777 171.298L203.421 171.344ZM99.8964 192.546C100.632 192.5 101 192.814 101 193.489C101 193.826 100.916 194.079 100.747 194.248C100.579 194.417 100.287 194.516 99.8734 194.547L99.1834 194.616C98.2174 194.708 97.4968 195.045 97.0214 195.628C96.5614 196.211 96.3314 196.916 96.3314 197.744V203.011C96.3314 203.379 96.2241 203.655 96.0094 203.839C95.7948 204.023 95.5188 204.115 95.1814 204.115C94.8441 204.115 94.5604 204.023 94.3304 203.839C94.1158 203.655 94.0084 203.379 94.0084 203.011V193.65C94.0084 193.297 94.1158 193.029 94.3304 192.845C94.5604 192.646 94.8441 192.546 95.1814 192.546C95.4881 192.546 95.7411 192.646 95.9404 192.845C96.1551 193.029 96.2624 193.29 96.2624 193.627V194.731C96.5691 194.056 97.0138 193.543 97.5964 193.19C98.1791 192.837 98.8384 192.63 99.5744 192.569L99.8964 192.546ZM110.993 201.171C111.207 201.171 111.384 201.255 111.522 201.424C111.66 201.593 111.729 201.807 111.729 202.068C111.729 202.513 111.453 202.888 110.901 203.195C110.364 203.502 109.774 203.739 109.13 203.908C108.501 204.077 107.895 204.161 107.313 204.161C105.534 204.161 104.131 203.647 103.104 202.62C102.076 201.577 101.563 200.159 101.563 198.365C101.563 197.215 101.785 196.195 102.23 195.306C102.69 194.417 103.326 193.727 104.139 193.236C104.967 192.745 105.902 192.5 106.945 192.5C108.447 192.5 109.636 192.983 110.51 193.949C111.384 194.915 111.821 196.218 111.821 197.859C111.821 198.472 111.545 198.779 110.993 198.779H103.886C104.039 201.156 105.181 202.344 107.313 202.344C107.88 202.344 108.371 202.267 108.785 202.114C109.199 201.961 109.636 201.761 110.096 201.516C110.142 201.485 110.264 201.424 110.464 201.332C110.678 201.225 110.855 201.171 110.993 201.171ZM106.991 194.202C106.101 194.202 105.388 194.486 104.852 195.053C104.315 195.62 103.993 196.418 103.886 197.445H109.82C109.774 196.402 109.505 195.605 109.015 195.053C108.539 194.486 107.865 194.202 106.991 194.202ZM129.495 193.259C129.664 192.799 129.978 192.569 130.438 192.569C130.73 192.569 130.99 192.669 131.22 192.868C131.45 193.067 131.565 193.313 131.565 193.604C131.565 193.757 131.535 193.895 131.473 194.018L127.655 203.333C127.563 203.578 127.41 203.77 127.195 203.908C126.981 204.031 126.743 204.092 126.482 204.092C126.237 204.092 126.007 204.031 125.792 203.908C125.578 203.77 125.424 203.578 125.332 203.333L122.342 195.95L119.421 203.333C119.329 203.578 119.176 203.77 118.961 203.908C118.762 204.031 118.532 204.092 118.271 204.092C118.026 204.092 117.788 204.031 117.558 203.908C117.344 203.77 117.183 203.578 117.075 203.333L113.28 194.018C113.219 193.895 113.188 193.765 113.188 193.627C113.188 193.32 113.311 193.067 113.556 192.868C113.817 192.669 114.101 192.569 114.407 192.569C114.867 192.569 115.182 192.791 115.35 193.236L118.317 201.079L121.353 193.305C121.445 193.06 121.591 192.876 121.79 192.753C121.99 192.63 122.204 192.569 122.434 192.569C122.649 192.569 122.856 192.63 123.055 192.753C123.255 192.876 123.4 193.06 123.492 193.305L126.528 201.033L129.495 193.259ZM138.255 192.5C139.742 192.5 140.846 192.876 141.567 193.627C142.303 194.378 142.671 195.521 142.671 197.054V203.011C142.671 203.364 142.571 203.64 142.372 203.839C142.172 204.023 141.896 204.115 141.544 204.115C141.206 204.115 140.938 204.015 140.739 203.816C140.539 203.617 140.44 203.348 140.44 203.011V202.16C140.148 202.804 139.711 203.302 139.129 203.655C138.561 203.992 137.894 204.161 137.128 204.161C136.392 204.161 135.717 204.015 135.104 203.724C134.506 203.417 134.03 203.003 133.678 202.482C133.325 201.961 133.149 201.37 133.149 200.711C133.133 199.883 133.34 199.239 133.77 198.779C134.199 198.304 134.897 197.966 135.863 197.767C136.829 197.552 138.17 197.445 139.888 197.445H140.417V196.778C140.417 195.919 140.24 195.298 139.888 194.915C139.535 194.532 138.968 194.34 138.186 194.34C137.649 194.34 137.143 194.409 136.668 194.547C136.192 194.685 135.671 194.884 135.104 195.145C134.69 195.375 134.398 195.49 134.23 195.49C134 195.49 133.808 195.406 133.655 195.237C133.517 195.068 133.448 194.854 133.448 194.593C133.448 194.363 133.509 194.164 133.632 193.995C133.77 193.811 133.984 193.635 134.276 193.466C134.812 193.175 135.441 192.945 136.162 192.776C136.882 192.592 137.58 192.5 138.255 192.5ZM137.542 202.436C138.385 202.436 139.075 202.152 139.612 201.585C140.148 201.002 140.417 200.259 140.417 199.354V198.756H140.003C138.807 198.756 137.887 198.81 137.243 198.917C136.599 199.024 136.139 199.208 135.863 199.469C135.587 199.714 135.449 200.075 135.449 200.55C135.449 201.102 135.648 201.554 136.047 201.907C136.445 202.26 136.944 202.436 137.542 202.436ZM151.736 192.546C152.472 192.5 152.84 192.814 152.84 193.489C152.84 193.826 152.756 194.079 152.587 194.248C152.419 194.417 152.127 194.516 151.713 194.547L151.023 194.616C150.057 194.708 149.337 195.045 148.861 195.628C148.401 196.211 148.171 196.916 148.171 197.744V203.011C148.171 203.379 148.064 203.655 147.849 203.839C147.635 204.023 147.359 204.115 147.021 204.115C146.684 204.115 146.4 204.023 146.17 203.839C145.956 203.655 145.848 203.379 145.848 203.011V193.65C145.848 193.297 145.956 193.029 146.17 192.845C146.4 192.646 146.684 192.546 147.021 192.546C147.328 192.546 147.581 192.646 147.78 192.845C147.995 193.029 148.102 193.29 148.102 193.627V194.731C148.409 194.056 148.854 193.543 149.436 193.19C150.019 192.837 150.678 192.63 151.414 192.569L151.736 192.546ZM163.224 187.67C163.576 187.67 163.86 187.77 164.075 187.969C164.289 188.168 164.397 188.437 164.397 188.774V202.988C164.397 203.341 164.289 203.617 164.075 203.816C163.875 204.015 163.599 204.115 163.247 204.115C162.894 204.115 162.61 204.015 162.396 203.816C162.196 203.617 162.097 203.341 162.097 202.988V202.068C161.759 202.743 161.269 203.264 160.625 203.632C159.981 203.985 159.237 204.161 158.394 204.161C157.428 204.161 156.561 203.916 155.795 203.425C155.043 202.934 154.453 202.244 154.024 201.355C153.61 200.466 153.403 199.446 153.403 198.296C153.403 197.131 153.61 196.111 154.024 195.237C154.453 194.363 155.043 193.688 155.795 193.213C156.546 192.738 157.412 192.5 158.394 192.5C159.237 192.5 159.973 192.684 160.602 193.052C161.246 193.405 161.736 193.911 162.074 194.57V188.728C162.074 188.406 162.173 188.153 162.373 187.969C162.587 187.77 162.871 187.67 163.224 187.67ZM158.946 202.321C159.942 202.321 160.717 201.976 161.269 201.286C161.821 200.596 162.097 199.615 162.097 198.342C162.097 197.069 161.821 196.088 161.269 195.398C160.732 194.708 159.958 194.363 158.946 194.363C157.934 194.363 157.144 194.708 156.577 195.398C156.025 196.073 155.749 197.039 155.749 198.296C155.749 199.553 156.032 200.542 156.6 201.263C157.167 201.968 157.949 202.321 158.946 202.321ZM171.545 204.161C169.981 204.161 168.701 203.839 167.704 203.195C167.428 203.026 167.229 202.85 167.106 202.666C166.999 202.482 166.945 202.275 166.945 202.045C166.945 201.8 167.014 201.593 167.152 201.424C167.29 201.255 167.467 201.171 167.681 201.171C167.881 201.171 168.195 201.294 168.624 201.539C169.084 201.784 169.529 201.984 169.958 202.137C170.403 202.29 170.955 202.367 171.614 202.367C172.35 202.367 172.925 202.237 173.339 201.976C173.753 201.715 173.96 201.347 173.96 200.872C173.96 200.565 173.876 200.32 173.707 200.136C173.554 199.952 173.278 199.791 172.879 199.653C172.481 199.5 171.89 199.339 171.108 199.17C169.759 198.879 168.785 198.488 168.187 197.997C167.605 197.491 167.313 196.809 167.313 195.95C167.313 195.291 167.505 194.7 167.888 194.179C168.272 193.642 168.801 193.228 169.475 192.937C170.15 192.646 170.917 192.5 171.775 192.5C172.389 192.5 172.987 192.584 173.569 192.753C174.152 192.906 174.666 193.136 175.11 193.443C175.616 193.78 175.869 194.171 175.869 194.616C175.869 194.861 175.793 195.068 175.639 195.237C175.501 195.406 175.333 195.49 175.133 195.49C174.995 195.49 174.857 195.459 174.719 195.398C174.581 195.337 174.397 195.237 174.167 195.099C173.753 194.854 173.362 194.662 172.994 194.524C172.642 194.386 172.197 194.317 171.66 194.317C171.016 194.317 170.495 194.455 170.096 194.731C169.713 195.007 169.521 195.383 169.521 195.858C169.521 196.287 169.698 196.625 170.05 196.87C170.418 197.1 171.101 197.322 172.097 197.537C173.125 197.752 173.93 197.997 174.512 198.273C175.095 198.549 175.509 198.894 175.754 199.308C176.015 199.707 176.145 200.22 176.145 200.849C176.145 201.846 175.724 202.651 174.88 203.264C174.052 203.862 172.941 204.161 171.545 204.161ZM179.858 199.63C179.674 199.63 179.513 199.561 179.375 199.423C179.237 199.285 179.16 199.101 179.145 198.871L178.455 189.119C178.409 188.69 178.516 188.345 178.777 188.084C179.053 187.808 179.413 187.67 179.858 187.67C180.287 187.67 180.632 187.808 180.893 188.084C181.169 188.345 181.284 188.69 181.238 189.119L180.548 198.871C180.533 199.116 180.464 199.308 180.341 199.446C180.218 199.569 180.057 199.63 179.858 199.63ZM179.858 204.115C179.444 204.115 179.091 203.977 178.8 203.701C178.524 203.425 178.386 203.072 178.386 202.643C178.386 202.214 178.524 201.861 178.8 201.585C179.091 201.294 179.444 201.148 179.858 201.148C180.272 201.148 180.617 201.294 180.893 201.585C181.169 201.861 181.307 202.214 181.307 202.643C181.307 203.072 181.169 203.425 180.893 203.701C180.617 203.977 180.272 204.115 179.858 204.115Z" fill="#737584"/>
</g>
<defs>
<filter id="filter0_d" x="-463" y="-31" width="477.939" height="779" filterUnits="userSpaceOnUse" color-interpolation-filters="sRGB">
<feFlood flood-opacity="0" result="BackgroundImageFix"/>
<feColorMatrix in="SourceAlpha" type="matrix" values="0 0 0 0 0 0 0 0 0 0 0 0 0 0 0 0 0 0 127 0"/>
<feOffset dx="40" dy="60"/>
<feGaussianBlur stdDeviation="40"/>
<feColorMatrix type="matrix" values="0 0 0 0 0.0392157 0 0 0 0 0.054902 0 0 0 0 0.419608 0 0 0 0.15 0"/>
<feBlend mode="normal" in2="BackgroundImageFix" result="effect1_dropShadow"/>
<feBlend mode="normal" in="SourceGraphic" in2="effect1_dropShadow" result="shape"/>
</filter>
<filter id="filter1_d" x="0" y="0" width="290" height="264" filterUnits="userSpaceOnUse" color-interpolation-filters="sRGB">
<feFlood flood-opacity="0" result="BackgroundImageFix"/>
<feColorMatrix in="SourceAlpha" type="matrix" values="0 0 0 0 0 0 0 0 0 0 0 0 0 0 0 0 0 0 127 0"/>
<feMorphology radius="10" operator="erode" in="SourceAlpha" result="effect1_dropShadow"/>
<feOffset dx="8" dy="11"/>
<feGaussianBlur stdDeviation="14.5"/>
<feColorMatrix type="matrix" values="0 0 0 0 0.220833 0 0 0 0 0.220833 0 0 0 0 0.220833 0 0 0 0.25 0"/>
<feBlend mode="normal" in2="BackgroundImageFix" result="effect1_dropShadow"/>
<feBlend mode="normal" in="SourceGraphic" in2="effect1_dropShadow" result="shape"/>
</filter>
<clipPath id="clip0">
<rect width="1440" height="5054" fill="white" transform="translate(-978 -3021)"/>
</clipPath>
</defs>
</svg>
