<svg width="30" height="29" viewBox="0 0 37 36" fill="none"
    xmlns="http://www.w3.org/2000/svg">
    <path d="M25.5794 11.5337C28.3732 11.5337 31.0525 12.6435 33.0281 14.619C35.0036 16.5945 36.1134 19.2739 36.1134 22.0677V34.3573H29.0907V22.0677C29.0907 21.1364 28.7208 20.2433 28.0623 19.5848C27.4038 18.9263 26.5107 18.5563 25.5794 18.5563C24.6481 18.5563 23.755 18.9263 23.0965 19.5848C22.438 20.2433 22.0681 21.1364 22.0681 22.0677V34.3573H15.0454V22.0677C15.0454 19.2739 16.1552 16.5945 18.1307 14.619C20.1062 12.6435 22.7856 11.5337 25.5794 11.5337Z" fill="#242A4C" stroke="#242A4C" stroke-width="1.5" stroke-linecap="round" stroke-linejoin="round"/>
    <path d="M8.02266 13.2896H1V34.3575H8.02266V13.2896Z" fill="#242A4C" stroke="#242A4C" stroke-width="1.5" stroke-linecap="round" stroke-linejoin="round"/>
    <path d="M4.51133 8.02266C6.45058 8.02266 8.02266 6.45058 8.02266 4.51133C8.02266 2.57208 6.45058 1 4.51133 1C2.57208 1 1 2.57208 1 4.51133C1 6.45058 2.57208 8.02266 4.51133 8.02266Z" fill="#242A4C" stroke="#242A4C" stroke-width="1.5" stroke-linecap="round" stroke-linejoin="round"/>
</svg>
