<svg fill="none" height="321" viewBox="0 0 266 321" width="266" xmlns="http://www.w3.org/2000/svg"><g fill="#1a0b5c"><path d="m204 129c8.75-70-35-92.5-56-94l-65-7.8642c6.8333-6.6667 27.1-27.735825 67.5-26.135825 40.4 1.600005 69.5 40.666725 76.5 58.500025 20 49.5 8 81 3.5 94-1.11 3.207-4 5.5-7 5-4-1.5-19.5-13-21-16-2.024-4.048.656-6.746 1.5-13.5z"/><rect height="73" rx="17" width="34" x="70" y="248"/><rect height="120" rx="17" width="34" x="70" y="105"/><rect height="104" rx="17" transform="matrix(0 -1 1 0 -321 321)" width="34" y="321"/><rect height="104" rx="17" transform="matrix(0 -1 1 0 -155 295)" width="34" x="70" y="225"/><rect height="118" rx="17" transform="matrix(0 -1 1 0 -174 468)" width="34" x="147" y="321"/><rect height="165" rx="17" transform="matrix(0 -1 1 0 -35 35)" width="34" y="35"/><rect height="317" rx="17" transform="matrix(-1 0 0 -1 68 636)" width="34" x="34" y="318"/><path d="m264.572 300.072c1.019 9.454-5.981 17.775-15.428 18.854-9.957 1.138-18.856-6.174-20.167-16.109-12.409-94.036-50.232-130.607-142.4149-163.752-8.8993-3.2-13.9281-12.753-11.2366-21.819 2.6302-8.86 11.7344-14.199 20.6546-11.783 108.4439 29.379 157.9529 95.859 168.5919 194.609z"/></g></svg>