<svg width="36" height="32" viewBox="0 0 36 32" fill="none" xmlns="http://www.w3.org/2000/svg">
    <path d="M12.8579 28.7798C12.5792 31.0105 10.5444 31.8092 8.31375 31.8092C6.08306 31.8092 4.50068 30.0006 4.77939 27.77L5.78921 18.6816C6.06792 16.4509 8.1027 14.6423 10.3334 14.6423C12.5641 14.6423 16.8649 14.6423 13.8677 18.6816C10.8706 22.7209 12.8579 28.7798 12.8579 28.7798Z" fill="#BE1931"/>
    <path d="M36.0001 12.6227C36.0001 19.5925 34.441 25.2454 32.5162 25.2454C30.5925 25.2454 11.8655 19.5925 11.8655 12.6227C11.8655 5.65195 30.5925 0 32.5162 0C34.441 0 36.0001 5.65195 36.0001 12.6227Z" fill="#CCD6DD"/>
    <path d="M32.5161 25.2454C34.4402 25.2454 36 19.594 36 12.6227C36 5.65138 34.4402 0 32.5161 0C30.592 0 29.0322 5.65138 29.0322 12.6227C29.0322 19.594 30.592 25.2454 32.5161 25.2454Z" fill="#66757F"/>
    <path d="M17.9243 19.6914L3.78681 18.6816C-1.26227 18.6816 -1.26227 6.56377 3.78681 6.56377L17.9243 5.55396C14.8948 8.58341 14.8948 16.6619 17.9243 19.6914Z" fill="#DD2E44"/>
    <path d="M31.4559 17.0133C32.2924 17.0133 32.9706 15.0475 32.9706 12.6226C32.9706 10.1977 32.2924 8.23193 31.4559 8.23193C30.6193 8.23193 29.9412 10.1977 29.9412 12.6226C29.9412 15.0475 30.6193 17.0133 31.4559 17.0133Z" fill="#99AAB5"/>
    </svg>
