<svg width="441" height="134" viewBox="0 0 441 134" fill="none" xmlns="http://www.w3.org/2000/svg">
    <g filter="url(#filter0_ddd)">
    <rect x="24" y="29" width="393" height="65" rx="4" fill="white"/>
    </g>
    <path d="M34.616 26.6C35.5547 26.6853 36.3227 27.048 36.92 27.688C37.5173 28.328 37.816 29.1387 37.816 30.12C37.816 31.1867 37.496 32.0613 36.856 32.744C36.216 33.384 35.4053 33.704 34.424 33.704C33.3147 33.704 32.4187 33.2987 31.736 32.488C31.096 31.6773 30.776 30.4187 30.776 28.712C30.776 25.4267 31.864 22.5893 34.04 20.2C34.4667 19.7733 34.9573 19.56 35.512 19.56C35.9813 19.56 36.3867 19.7307 36.728 20.072C37.0693 20.3707 37.24 20.7333 37.24 21.16C37.24 21.6293 37.0693 22.0347 36.728 22.376C35.6187 23.528 34.9147 24.936 34.616 26.6ZM45.24 26.6C46.1787 26.6853 46.9467 27.048 47.544 27.688C48.1413 28.328 48.44 29.1387 48.44 30.12C48.44 31.1867 48.12 32.0613 47.48 32.744C46.84 33.384 46.0293 33.704 45.048 33.704C43.9387 33.704 43.0427 33.2987 42.36 32.488C41.72 31.6773 41.4 30.4187 41.4 28.712C41.4 25.4267 42.488 22.5893 44.664 20.2C45.0907 19.7733 45.5813 19.56 46.136 19.56C46.6053 19.56 47.0107 19.7307 47.352 20.072C47.6933 20.3707 47.864 20.7333 47.864 21.16C47.864 21.6293 47.6933 22.0347 47.352 22.376C46.2427 23.528 45.5387 24.936 45.24 26.6Z" fill="#2EBFA5"/>
    <path d="M67.808 46.04C67.8507 45.9013 67.9253 45.8 68.032 45.736C68.1387 45.6613 68.256 45.624 68.384 45.624C68.5547 45.624 68.6987 45.6773 68.816 45.784C68.944 45.88 69.008 46.0133 69.008 46.184C69.008 46.2587 68.992 46.344 68.96 46.44L65.344 56.632C65.2907 56.7813 65.2 56.8987 65.072 56.984C64.944 57.0587 64.8 57.096 64.64 57.096C64.4907 57.096 64.352 57.0587 64.224 56.984C64.096 56.8987 64.0053 56.7813 63.952 56.632L60.816 47.768L57.648 56.632C57.5947 56.7813 57.504 56.8987 57.376 56.984C57.248 57.0587 57.1093 57.096 56.96 57.096C56.8107 57.096 56.672 57.0587 56.544 56.984C56.416 56.8987 56.3253 56.7813 56.272 56.632L52.64 46.44C52.608 46.3547 52.592 46.2747 52.592 46.2C52.592 46.0293 52.656 45.8907 52.784 45.784C52.9227 45.6773 53.0773 45.624 53.248 45.624C53.376 45.624 53.4933 45.6613 53.6 45.736C53.7173 45.8 53.7973 45.9013 53.84 46.04L56.992 55.128L60.192 46.136C60.2453 45.976 60.3307 45.8587 60.448 45.784C60.5653 45.6987 60.6933 45.656 60.832 45.656C60.9707 45.656 61.0987 45.6987 61.216 45.784C61.3333 45.8693 61.4187 45.992 61.472 46.152L64.624 55.16L67.808 46.04ZM72.3404 57.08C72.1484 57.08 71.9884 57.0267 71.8604 56.92C71.743 56.8027 71.6844 56.6427 71.6844 56.44V49.688C71.6844 49.4853 71.743 49.3307 71.8604 49.224C71.9884 49.1067 72.1484 49.048 72.3404 49.048C72.5324 49.048 72.687 49.1067 72.8044 49.224C72.9217 49.3307 72.9804 49.4853 72.9804 49.688V56.44C72.9804 56.6533 72.9217 56.8133 72.8044 56.92C72.687 57.0267 72.5324 57.08 72.3404 57.08ZM72.3404 47.368C72.0844 47.368 71.8764 47.2933 71.7164 47.144C71.5564 46.9947 71.4764 46.7973 71.4764 46.552C71.4764 46.3173 71.5564 46.1253 71.7164 45.976C71.8764 45.8267 72.0844 45.752 72.3404 45.752C72.5964 45.752 72.8044 45.8267 72.9644 45.976C73.1244 46.1253 73.2044 46.3173 73.2044 46.552C73.2044 46.7973 73.1244 46.9947 72.9644 47.144C72.8044 47.2933 72.5964 47.368 72.3404 47.368ZM79.1281 56.056C79.5015 56.088 79.6881 56.2587 79.6881 56.568C79.6881 56.7493 79.6188 56.888 79.4801 56.984C79.3521 57.0693 79.1548 57.1013 78.8881 57.08L78.4561 57.048C77.6028 56.984 76.9735 56.728 76.5681 56.28C76.1628 55.832 75.9601 55.1547 75.9601 54.248V50.232H74.8881C74.7068 50.232 74.5628 50.1893 74.4561 50.104C74.3601 50.008 74.3121 49.8853 74.3121 49.736C74.3121 49.576 74.3601 49.448 74.4561 49.352C74.5628 49.256 74.7068 49.208 74.8881 49.208H75.9601V47.4C75.9601 47.1973 76.0188 47.0427 76.1361 46.936C76.2535 46.8187 76.4135 46.76 76.6161 46.76C76.8081 46.76 76.9628 46.8187 77.0801 46.936C77.1975 47.0427 77.2561 47.1973 77.2561 47.4V49.208H79.0321C79.2028 49.208 79.3361 49.256 79.4321 49.352C79.5388 49.448 79.5921 49.576 79.5921 49.736C79.5921 49.8853 79.5388 50.008 79.4321 50.104C79.3361 50.1893 79.2028 50.232 79.0321 50.232H77.2561V54.312C77.2561 54.8987 77.3735 55.3253 77.6081 55.592C77.8535 55.848 78.2161 55.992 78.6961 56.024L79.1281 56.056ZM84.9016 49.016C85.819 49.016 86.5123 49.2773 86.9816 49.8C87.451 50.312 87.6856 51.08 87.6856 52.104V56.44C87.6856 56.6427 87.627 56.8027 87.5096 56.92C87.3923 57.0267 87.2376 57.08 87.0456 57.08C86.843 57.08 86.683 57.0267 86.5656 56.92C86.4483 56.8027 86.3896 56.6427 86.3896 56.44V52.136C86.3896 51.4427 86.2456 50.9307 85.9576 50.6C85.6803 50.2693 85.2323 50.104 84.6136 50.104C83.899 50.104 83.3283 50.3227 82.9016 50.76C82.475 51.1973 82.2616 51.7893 82.2616 52.536V56.44C82.2616 56.6427 82.203 56.8027 82.0856 56.92C81.979 57.0267 81.8243 57.08 81.6216 57.08C81.419 57.08 81.259 57.0267 81.1416 56.92C81.0243 56.8027 80.9656 56.6427 80.9656 56.44V46.264C80.9656 46.0827 81.0243 45.9333 81.1416 45.816C81.2696 45.6987 81.4296 45.64 81.6216 45.64C81.8243 45.64 81.979 45.6987 82.0856 45.816C82.203 45.9227 82.2616 46.072 82.2616 46.264V50.456C82.5176 49.9867 82.875 49.6293 83.3336 49.384C83.7923 49.1387 84.315 49.016 84.9016 49.016ZM102.984 56.184C103.059 56.3013 103.096 56.424 103.096 56.552C103.096 56.712 103.032 56.8453 102.904 56.952C102.787 57.048 102.648 57.096 102.488 57.096C102.243 57.096 102.051 56.9893 101.912 56.776L99.7684 53.384C99.491 52.9467 99.203 52.648 98.9044 52.488C98.6057 52.3173 98.2004 52.232 97.6884 52.232H95.6724V56.408C95.6724 56.6107 95.6137 56.776 95.4964 56.904C95.379 57.0213 95.2244 57.08 95.0324 57.08C94.8297 57.08 94.6697 57.0213 94.5524 56.904C94.435 56.776 94.3764 56.6107 94.3764 56.408V46.36C94.3764 46.168 94.435 46.0133 94.5524 45.896C94.6804 45.7787 94.8457 45.72 95.0484 45.72H99.0164C100.243 45.72 101.176 45.992 101.816 46.536C102.467 47.08 102.792 47.88 102.792 48.936C102.792 49.832 102.531 50.552 102.008 51.096C101.496 51.64 100.76 51.9707 99.8004 52.088C100.067 52.1733 100.307 52.312 100.52 52.504C100.734 52.696 100.947 52.9627 101.16 53.304L102.984 56.184ZM98.9044 51.144C99.779 51.144 100.43 50.9627 100.856 50.6C101.294 50.2373 101.512 49.688 101.512 48.952C101.512 48.2267 101.299 47.688 100.872 47.336C100.446 46.984 99.7897 46.808 98.9044 46.808H95.6724V51.144H98.9044ZM105.809 57.08C105.617 57.08 105.457 57.0267 105.329 56.92C105.212 56.8027 105.153 56.6427 105.153 56.44V49.688C105.153 49.4853 105.212 49.3307 105.329 49.224C105.457 49.1067 105.617 49.048 105.809 49.048C106.001 49.048 106.156 49.1067 106.273 49.224C106.39 49.3307 106.449 49.4853 106.449 49.688V56.44C106.449 56.6533 106.39 56.8133 106.273 56.92C106.156 57.0267 106.001 57.08 105.809 57.08ZM105.809 47.368C105.553 47.368 105.345 47.2933 105.185 47.144C105.025 46.9947 104.945 46.7973 104.945 46.552C104.945 46.3173 105.025 46.1253 105.185 45.976C105.345 45.8267 105.553 45.752 105.809 45.752C106.065 45.752 106.273 45.8267 106.433 45.976C106.593 46.1253 106.673 46.3173 106.673 46.552C106.673 46.7973 106.593 46.9947 106.433 47.144C106.273 47.2933 106.065 47.368 105.809 47.368ZM112.597 56.056C112.97 56.088 113.157 56.2587 113.157 56.568C113.157 56.7493 113.088 56.888 112.949 56.984C112.821 57.0693 112.624 57.1013 112.357 57.08L111.925 57.048C111.072 56.984 110.442 56.728 110.037 56.28C109.632 55.832 109.429 55.1547 109.429 54.248V50.232H108.357C108.176 50.232 108.032 50.1893 107.925 50.104C107.829 50.008 107.781 49.8853 107.781 49.736C107.781 49.576 107.829 49.448 107.925 49.352C108.032 49.256 108.176 49.208 108.357 49.208H109.429V47.4C109.429 47.1973 109.488 47.0427 109.605 46.936C109.722 46.8187 109.882 46.76 110.085 46.76C110.277 46.76 110.432 46.8187 110.549 46.936C110.666 47.0427 110.725 47.1973 110.725 47.4V49.208H112.501C112.672 49.208 112.805 49.256 112.901 49.352C113.008 49.448 113.061 49.576 113.061 49.736C113.061 49.8853 113.008 50.008 112.901 50.104C112.805 50.1893 112.672 50.232 112.501 50.232H110.725V54.312C110.725 54.8987 110.842 55.3253 111.077 55.592C111.322 55.848 111.685 55.992 112.165 56.024L112.597 56.056ZM117.618 49.016C119.57 49.016 120.546 50.04 120.546 52.088V56.44C120.546 56.632 120.488 56.7867 120.37 56.904C120.264 57.0213 120.114 57.08 119.922 57.08C119.73 57.08 119.576 57.0213 119.458 56.904C119.341 56.7867 119.282 56.632 119.282 56.44V55.672C119.08 56.1307 118.77 56.488 118.354 56.744C117.938 56.9893 117.458 57.112 116.914 57.112C116.413 57.112 115.949 57.0107 115.522 56.808C115.106 56.6053 114.776 56.3227 114.53 55.96C114.285 55.5973 114.162 55.1973 114.162 54.76C114.162 54.1733 114.312 53.72 114.61 53.4C114.909 53.0693 115.4 52.8347 116.082 52.696C116.765 52.5467 117.714 52.472 118.93 52.472H119.282V51.944C119.282 51.304 119.149 50.8347 118.882 50.536C118.626 50.2373 118.205 50.088 117.618 50.088C116.893 50.088 116.157 50.2853 115.41 50.68C115.122 50.8613 114.92 50.952 114.802 50.952C114.674 50.952 114.568 50.904 114.482 50.808C114.397 50.712 114.354 50.5893 114.354 50.44C114.354 50.2907 114.397 50.1627 114.482 50.056C114.578 49.9387 114.728 49.8213 114.93 49.704C115.304 49.4907 115.725 49.3253 116.194 49.208C116.674 49.08 117.149 49.016 117.618 49.016ZM117.09 56.088C117.73 56.088 118.253 55.8747 118.658 55.448C119.074 55.0107 119.282 54.4507 119.282 53.768V53.304H118.994C118.056 53.304 117.341 53.3467 116.85 53.432C116.36 53.5067 116.008 53.64 115.794 53.832C115.592 54.0133 115.49 54.2853 115.49 54.648C115.49 55.064 115.64 55.4107 115.938 55.688C116.248 55.9547 116.632 56.088 117.09 56.088ZM127.892 57.08C127.689 57.08 127.529 57.0213 127.412 56.904C127.294 56.776 127.236 56.6107 127.236 56.408V46.312C127.236 46.1093 127.294 45.9493 127.412 45.832C127.529 45.704 127.689 45.64 127.892 45.64C128.094 45.64 128.254 45.704 128.372 45.832C128.489 45.9493 128.548 46.1093 128.548 46.312V56.408C128.548 56.6107 128.489 56.776 128.372 56.904C128.254 57.0213 128.094 57.08 127.892 57.08ZM137.887 57.112C137.396 57.112 136.927 57.0533 136.479 56.936C136.041 56.8187 135.652 56.6533 135.311 56.44C135.119 56.312 134.98 56.1947 134.895 56.088C134.82 55.9707 134.783 55.832 134.783 55.672C134.783 55.5333 134.82 55.4213 134.895 55.336C134.98 55.24 135.087 55.192 135.215 55.192C135.343 55.192 135.529 55.272 135.775 55.432C136.095 55.624 136.409 55.7787 136.719 55.896C137.039 56.0027 137.433 56.056 137.903 56.056C138.479 56.056 138.927 55.9547 139.247 55.752C139.567 55.5493 139.727 55.256 139.727 54.872C139.727 54.6373 139.668 54.4507 139.551 54.312C139.433 54.1627 139.231 54.0347 138.943 53.928C138.655 53.8107 138.233 53.6933 137.679 53.576C136.74 53.3733 136.068 53.1013 135.663 52.76C135.257 52.4187 135.055 51.9547 135.055 51.368C135.055 50.9093 135.183 50.504 135.439 50.152C135.695 49.8 136.047 49.5227 136.495 49.32C136.953 49.1173 137.471 49.016 138.047 49.016C138.463 49.016 138.863 49.0747 139.247 49.192C139.641 49.2987 139.988 49.4533 140.287 49.656C140.649 49.912 140.831 50.1787 140.831 50.456C140.831 50.5947 140.788 50.712 140.703 50.808C140.617 50.904 140.516 50.952 140.399 50.952C140.271 50.952 140.079 50.8613 139.823 50.68C139.524 50.488 139.241 50.3387 138.975 50.232C138.708 50.1253 138.377 50.072 137.983 50.072C137.481 50.072 137.076 50.184 136.767 50.408C136.468 50.632 136.319 50.9307 136.319 51.304C136.319 51.5387 136.372 51.7307 136.479 51.88C136.596 52.0187 136.783 52.1467 137.039 52.264C137.305 52.3707 137.684 52.4773 138.174 52.584C138.9 52.744 139.46 52.92 139.855 53.112C140.26 53.304 140.548 53.5387 140.719 53.816C140.889 54.0933 140.975 54.4453 140.975 54.872C140.975 55.544 140.692 56.088 140.127 56.504C139.561 56.9093 138.815 57.112 137.887 57.112ZM146.472 56.056C146.845 56.088 147.032 56.2587 147.032 56.568C147.032 56.7493 146.963 56.888 146.824 56.984C146.696 57.0693 146.499 57.1013 146.232 57.08L145.8 57.048C144.947 56.984 144.317 56.728 143.912 56.28C143.507 55.832 143.304 55.1547 143.304 54.248V50.232H142.232C142.051 50.232 141.907 50.1893 141.8 50.104C141.704 50.008 141.656 49.8853 141.656 49.736C141.656 49.576 141.704 49.448 141.8 49.352C141.907 49.256 142.051 49.208 142.232 49.208H143.304V47.4C143.304 47.1973 143.363 47.0427 143.48 46.936C143.597 46.8187 143.757 46.76 143.96 46.76C144.152 46.76 144.307 46.8187 144.424 46.936C144.541 47.0427 144.6 47.1973 144.6 47.4V49.208H146.376C146.547 49.208 146.68 49.256 146.776 49.352C146.883 49.448 146.936 49.576 146.936 49.736C146.936 49.8853 146.883 50.008 146.776 50.104C146.68 50.1893 146.547 50.232 146.376 50.232H144.6V54.312C144.6 54.8987 144.717 55.3253 144.952 55.592C145.197 55.848 145.56 55.992 146.04 56.024L146.472 56.056ZM151.541 57.112C150.805 57.112 150.155 56.9467 149.589 56.616C149.035 56.2853 148.603 55.816 148.293 55.208C147.995 54.5893 147.845 53.8747 147.845 53.064C147.845 52.2533 147.995 51.544 148.293 50.936C148.603 50.3173 149.035 49.8427 149.589 49.512C150.155 49.1813 150.805 49.016 151.541 49.016C152.277 49.016 152.928 49.1813 153.493 49.512C154.059 49.8427 154.491 50.3173 154.789 50.936C155.099 51.544 155.253 52.2533 155.253 53.064C155.253 53.8747 155.099 54.5893 154.789 55.208C154.491 55.816 154.059 56.2853 153.493 56.616C152.928 56.9467 152.277 57.112 151.541 57.112ZM151.541 56.04C152.309 56.04 152.896 55.7893 153.301 55.288C153.717 54.776 153.925 54.0347 153.925 53.064C153.925 52.1147 153.717 51.384 153.301 50.872C152.885 50.3493 152.299 50.088 151.541 50.088C150.784 50.088 150.197 50.3493 149.781 50.872C149.365 51.384 149.157 52.1147 149.157 53.064C149.157 54.024 149.36 54.76 149.765 55.272C150.181 55.784 150.773 56.04 151.541 56.04ZM161.104 49.016C161.787 49.016 162.39 49.1867 162.912 49.528C163.435 49.8693 163.84 50.3493 164.128 50.968C164.416 51.576 164.56 52.2853 164.56 53.096C164.56 53.9067 164.416 54.616 164.128 55.224C163.84 55.8213 163.435 56.2853 162.912 56.616C162.4 56.9467 161.798 57.112 161.104 57.112C160.496 57.112 159.963 56.9787 159.504 56.712C159.056 56.4453 158.715 56.0667 158.48 55.576V59.336C158.48 59.528 158.422 59.6773 158.304 59.784C158.198 59.9013 158.043 59.96 157.84 59.96C157.638 59.96 157.478 59.9013 157.36 59.784C157.243 59.6667 157.184 59.5173 157.184 59.336V49.688C157.184 49.496 157.243 49.3413 157.36 49.224C157.478 49.1067 157.638 49.048 157.84 49.048C158.043 49.048 158.198 49.1067 158.304 49.224C158.422 49.3413 158.48 49.496 158.48 49.688V50.552C158.715 50.0613 159.056 49.6827 159.504 49.416C159.963 49.1493 160.496 49.016 161.104 49.016ZM160.848 56.04C161.606 56.04 162.192 55.784 162.608 55.272C163.024 54.76 163.232 54.0347 163.232 53.096C163.232 52.1573 163.024 51.4267 162.608 50.904C162.192 50.3707 161.606 50.104 160.848 50.104C160.091 50.104 159.504 50.36 159.088 50.872C158.683 51.384 158.48 52.1147 158.48 53.064C158.48 54.0133 158.683 54.7493 159.088 55.272C159.504 55.784 160.091 56.04 160.848 56.04ZM170.417 49.016C171.1 49.016 171.702 49.1867 172.225 49.528C172.748 49.8693 173.153 50.3493 173.441 50.968C173.729 51.576 173.873 52.2853 173.873 53.096C173.873 53.9067 173.729 54.616 173.441 55.224C173.153 55.8213 172.748 56.2853 172.225 56.616C171.713 56.9467 171.11 57.112 170.417 57.112C169.809 57.112 169.276 56.9787 168.817 56.712C168.369 56.4453 168.028 56.0667 167.793 55.576V59.336C167.793 59.528 167.734 59.6773 167.617 59.784C167.51 59.9013 167.356 59.96 167.153 59.96C166.95 59.96 166.79 59.9013 166.673 59.784C166.556 59.6667 166.497 59.5173 166.497 59.336V49.688C166.497 49.496 166.556 49.3413 166.673 49.224C166.79 49.1067 166.95 49.048 167.153 49.048C167.356 49.048 167.51 49.1067 167.617 49.224C167.734 49.3413 167.793 49.496 167.793 49.688V50.552C168.028 50.0613 168.369 49.6827 168.817 49.416C169.276 49.1493 169.809 49.016 170.417 49.016ZM170.161 56.04C170.918 56.04 171.505 55.784 171.921 55.272C172.337 54.76 172.545 54.0347 172.545 53.096C172.545 52.1573 172.337 51.4267 171.921 50.904C171.505 50.3707 170.918 50.104 170.161 50.104C169.404 50.104 168.817 50.36 168.401 50.872C167.996 51.384 167.793 52.1147 167.793 53.064C167.793 54.0133 167.996 54.7493 168.401 55.272C168.817 55.784 169.404 56.04 170.161 56.04ZM181.841 55.192C181.959 55.192 182.06 55.24 182.145 55.336C182.231 55.432 182.273 55.5547 182.273 55.704C182.273 55.9707 182.087 56.216 181.713 56.44C181.329 56.664 180.924 56.8347 180.497 56.952C180.071 57.0587 179.655 57.112 179.249 57.112C178.044 57.112 177.089 56.7547 176.385 56.04C175.692 55.3253 175.345 54.3387 175.345 53.08C175.345 52.28 175.5 51.576 175.809 50.968C176.119 50.3493 176.551 49.8693 177.105 49.528C177.671 49.1867 178.311 49.016 179.025 49.016C180.039 49.016 180.844 49.3467 181.441 50.008C182.039 50.6693 182.337 51.5653 182.337 52.696C182.337 52.9093 182.295 53.064 182.209 53.16C182.124 53.256 181.985 53.304 181.793 53.304H176.641C176.737 55.1387 177.607 56.056 179.249 56.056C179.665 56.056 180.023 56.0027 180.321 55.896C180.62 55.7787 180.94 55.624 181.281 55.432C181.559 55.272 181.745 55.192 181.841 55.192ZM179.041 50.024C178.359 50.024 177.809 50.2373 177.393 50.664C176.988 51.0907 176.748 51.6933 176.673 52.472H181.201C181.18 51.6827 180.983 51.08 180.609 50.664C180.236 50.2373 179.713 50.024 179.041 50.024ZM190.503 45.64C190.706 45.64 190.866 45.6987 190.983 45.816C191.1 45.9333 191.159 46.0827 191.159 46.264V56.44C191.159 56.632 191.1 56.7867 190.983 56.904C190.866 57.0213 190.706 57.08 190.503 57.08C190.3 57.08 190.14 57.0213 190.023 56.904C189.916 56.7867 189.863 56.632 189.863 56.44V55.576C189.628 56.0667 189.282 56.4453 188.823 56.712C188.375 56.9787 187.847 57.112 187.239 57.112C186.556 57.112 185.954 56.9413 185.431 56.6C184.908 56.2587 184.503 55.784 184.215 55.176C183.927 54.5573 183.783 53.8427 183.783 53.032C183.783 52.232 183.927 51.528 184.215 50.92C184.503 50.312 184.908 49.8427 185.431 49.512C185.954 49.1813 186.556 49.016 187.239 49.016C187.847 49.016 188.375 49.1493 188.823 49.416C189.282 49.6827 189.628 50.0613 189.863 50.552V46.264C189.863 46.072 189.916 45.9227 190.023 45.816C190.14 45.6987 190.3 45.64 190.503 45.64ZM187.495 56.04C188.252 56.04 188.834 55.784 189.239 55.272C189.655 54.7493 189.863 54.0133 189.863 53.064C189.863 52.1147 189.655 51.384 189.239 50.872C188.834 50.36 188.252 50.104 187.495 50.104C186.738 50.104 186.146 50.36 185.719 50.872C185.303 51.384 185.095 52.104 185.095 53.032C185.095 53.9813 185.303 54.7227 185.719 55.256C186.146 55.7787 186.738 56.04 187.495 56.04ZM206.356 49.016C208.084 49.016 208.948 50.0453 208.948 52.104V56.44C208.948 56.6427 208.89 56.8027 208.772 56.92C208.655 57.0267 208.5 57.08 208.308 57.08C208.116 57.08 207.956 57.0267 207.828 56.92C207.711 56.8027 207.652 56.6427 207.652 56.44V52.136C207.652 51.4213 207.524 50.904 207.268 50.584C207.012 50.264 206.612 50.104 206.068 50.104C205.418 50.104 204.906 50.3227 204.532 50.76C204.159 51.1973 203.972 51.7893 203.972 52.536V56.44C203.972 56.6427 203.908 56.8027 203.78 56.92C203.663 57.0267 203.508 57.08 203.316 57.08C203.124 57.08 202.97 57.0267 202.852 56.92C202.735 56.8027 202.676 56.6427 202.676 56.44V52.136C202.676 51.4213 202.548 50.904 202.292 50.584C202.036 50.264 201.631 50.104 201.076 50.104C200.436 50.104 199.924 50.3227 199.54 50.76C199.167 51.1973 198.98 51.7893 198.98 52.536V56.44C198.98 56.6427 198.922 56.8027 198.804 56.92C198.687 57.0267 198.532 57.08 198.34 57.08C198.148 57.08 197.988 57.0267 197.86 56.92C197.743 56.8027 197.684 56.6427 197.684 56.44V49.688C197.684 49.496 197.743 49.3413 197.86 49.224C197.988 49.1067 198.148 49.048 198.34 49.048C198.522 49.048 198.671 49.1067 198.788 49.224C198.906 49.3307 198.964 49.48 198.964 49.672V50.44C199.199 49.9813 199.524 49.6293 199.94 49.384C200.356 49.1387 200.836 49.016 201.38 49.016C202.596 49.016 203.391 49.528 203.764 50.552C203.988 50.0827 204.33 49.7093 204.788 49.432C205.247 49.1547 205.77 49.016 206.356 49.016ZM214.541 57.112C213.805 57.112 213.155 56.9467 212.589 56.616C212.035 56.2853 211.603 55.816 211.293 55.208C210.995 54.5893 210.845 53.8747 210.845 53.064C210.845 52.2533 210.995 51.544 211.293 50.936C211.603 50.3173 212.035 49.8427 212.589 49.512C213.155 49.1813 213.805 49.016 214.541 49.016C215.277 49.016 215.928 49.1813 216.493 49.512C217.059 49.8427 217.491 50.3173 217.789 50.936C218.099 51.544 218.253 52.2533 218.253 53.064C218.253 53.8747 218.099 54.5893 217.789 55.208C217.491 55.816 217.059 56.2853 216.493 56.616C215.928 56.9467 215.277 57.112 214.541 57.112ZM214.541 56.04C215.309 56.04 215.896 55.7893 216.301 55.288C216.717 54.776 216.925 54.0347 216.925 53.064C216.925 52.1147 216.717 51.384 216.301 50.872C215.885 50.3493 215.299 50.088 214.541 50.088C213.784 50.088 213.197 50.3493 212.781 50.872C212.365 51.384 212.157 52.1147 212.157 53.064C212.157 54.024 212.36 54.76 212.765 55.272C213.181 55.784 213.773 56.04 214.541 56.04ZM224.04 49.048C224.488 49.016 224.712 49.1973 224.712 49.592C224.712 49.7627 224.664 49.9013 224.568 50.008C224.472 50.104 224.307 50.1627 224.072 50.184L223.592 50.232C222.878 50.296 222.344 50.552 221.992 51C221.651 51.4373 221.48 51.9547 221.48 52.552V56.44C221.48 56.6533 221.422 56.8133 221.304 56.92C221.187 57.0267 221.032 57.08 220.84 57.08C220.648 57.08 220.488 57.0267 220.36 56.92C220.243 56.8027 220.184 56.6427 220.184 56.44V49.688C220.184 49.4853 220.248 49.3307 220.376 49.224C220.504 49.1067 220.659 49.048 220.84 49.048C221.011 49.048 221.155 49.1067 221.272 49.224C221.39 49.3307 221.448 49.48 221.448 49.672V50.568C221.672 50.0987 221.987 49.7413 222.392 49.496C222.808 49.2507 223.283 49.1067 223.816 49.064L224.04 49.048ZM231.701 55.192C231.818 55.192 231.919 55.24 232.005 55.336C232.09 55.432 232.133 55.5547 232.133 55.704C232.133 55.9707 231.946 56.216 231.573 56.44C231.189 56.664 230.783 56.8347 230.357 56.952C229.93 57.0587 229.514 57.112 229.109 57.112C227.903 57.112 226.949 56.7547 226.245 56.04C225.551 55.3253 225.205 54.3387 225.205 53.08C225.205 52.28 225.359 51.576 225.669 50.968C225.978 50.3493 226.41 49.8693 226.965 49.528C227.53 49.1867 228.17 49.016 228.885 49.016C229.898 49.016 230.703 49.3467 231.301 50.008C231.898 50.6693 232.197 51.5653 232.197 52.696C232.197 52.9093 232.154 53.064 232.069 53.16C231.983 53.256 231.845 53.304 231.653 53.304H226.501C226.597 55.1387 227.466 56.056 229.109 56.056C229.525 56.056 229.882 56.0027 230.181 55.896C230.479 55.7787 230.799 55.624 231.141 55.432C231.418 55.272 231.605 55.192 231.701 55.192ZM228.901 50.024C228.218 50.024 227.669 50.2373 227.253 50.664C226.847 51.0907 226.607 51.6933 226.533 52.472H231.061C231.039 51.6827 230.842 51.08 230.469 50.664C230.095 50.2373 229.573 50.024 228.901 50.024ZM241.831 56.056C242.205 56.088 242.391 56.2587 242.391 56.568C242.391 56.7493 242.322 56.888 242.183 56.984C242.055 57.0693 241.858 57.1013 241.591 57.08L241.159 57.048C240.306 56.984 239.677 56.728 239.271 56.28C238.866 55.832 238.663 55.1547 238.663 54.248V50.232H237.591C237.41 50.232 237.266 50.1893 237.159 50.104C237.063 50.008 237.015 49.8853 237.015 49.736C237.015 49.576 237.063 49.448 237.159 49.352C237.266 49.256 237.41 49.208 237.591 49.208H238.663V47.4C238.663 47.1973 238.722 47.0427 238.839 46.936C238.957 46.8187 239.117 46.76 239.319 46.76C239.511 46.76 239.666 46.8187 239.783 46.936C239.901 47.0427 239.959 47.1973 239.959 47.4V49.208H241.735C241.906 49.208 242.039 49.256 242.135 49.352C242.242 49.448 242.295 49.576 242.295 49.736C242.295 49.8853 242.242 50.008 242.135 50.104C242.039 50.1893 241.906 50.232 241.735 50.232H239.959V54.312C239.959 54.8987 240.077 55.3253 240.311 55.592C240.557 55.848 240.919 55.992 241.399 56.024L241.831 56.056ZM247.605 49.016C248.522 49.016 249.215 49.2773 249.685 49.8C250.154 50.312 250.389 51.08 250.389 52.104V56.44C250.389 56.6427 250.33 56.8027 250.213 56.92C250.095 57.0267 249.941 57.08 249.749 57.08C249.546 57.08 249.386 57.0267 249.269 56.92C249.151 56.8027 249.093 56.6427 249.093 56.44V52.136C249.093 51.4427 248.949 50.9307 248.661 50.6C248.383 50.2693 247.935 50.104 247.317 50.104C246.602 50.104 246.031 50.3227 245.605 50.76C245.178 51.1973 244.965 51.7893 244.965 52.536V56.44C244.965 56.6427 244.906 56.8027 244.789 56.92C244.682 57.0267 244.527 57.08 244.325 57.08C244.122 57.08 243.962 57.0267 243.845 56.92C243.727 56.8027 243.669 56.6427 243.669 56.44V46.264C243.669 46.0827 243.727 45.9333 243.845 45.816C243.973 45.6987 244.133 45.64 244.325 45.64C244.527 45.64 244.682 45.6987 244.789 45.816C244.906 45.9227 244.965 46.072 244.965 46.264V50.456C245.221 49.9867 245.578 49.6293 246.037 49.384C246.495 49.1387 247.018 49.016 247.605 49.016ZM255.947 49.016C257.899 49.016 258.875 50.04 258.875 52.088V56.44C258.875 56.632 258.816 56.7867 258.699 56.904C258.592 57.0213 258.443 57.08 258.251 57.08C258.059 57.08 257.904 57.0213 257.787 56.904C257.669 56.7867 257.611 56.632 257.611 56.44V55.672C257.408 56.1307 257.099 56.488 256.683 56.744C256.267 56.9893 255.787 57.112 255.243 57.112C254.741 57.112 254.277 57.0107 253.851 56.808C253.435 56.6053 253.104 56.3227 252.859 55.96C252.613 55.5973 252.491 55.1973 252.491 54.76C252.491 54.1733 252.64 53.72 252.939 53.4C253.237 53.0693 253.728 52.8347 254.411 52.696C255.093 52.5467 256.043 52.472 257.259 52.472H257.611V51.944C257.611 51.304 257.477 50.8347 257.211 50.536C256.955 50.2373 256.533 50.088 255.947 50.088C255.221 50.088 254.485 50.2853 253.739 50.68C253.451 50.8613 253.248 50.952 253.131 50.952C253.003 50.952 252.896 50.904 252.811 50.808C252.725 50.712 252.683 50.5893 252.683 50.44C252.683 50.2907 252.725 50.1627 252.811 50.056C252.907 49.9387 253.056 49.8213 253.259 49.704C253.632 49.4907 254.053 49.3253 254.523 49.208C255.003 49.08 255.477 49.016 255.947 49.016ZM255.419 56.088C256.059 56.088 256.581 55.8747 256.987 55.448C257.403 55.0107 257.611 54.4507 257.611 53.768V53.304H257.323C256.384 53.304 255.669 53.3467 255.179 53.432C254.688 53.5067 254.336 53.64 254.123 53.832C253.92 54.0133 253.819 54.2853 253.819 54.648C253.819 55.064 253.968 55.4107 254.267 55.688C254.576 55.9547 254.96 56.088 255.419 56.088ZM265.167 49.016C267.034 49.016 267.967 50.0453 267.967 52.104V56.44C267.967 56.6427 267.908 56.8027 267.791 56.92C267.684 57.0267 267.53 57.08 267.327 57.08C267.124 57.08 266.964 57.0267 266.847 56.92C266.73 56.8027 266.671 56.6427 266.671 56.44V52.184C266.671 51.4587 266.527 50.9307 266.239 50.6C265.962 50.2693 265.514 50.104 264.895 50.104C264.18 50.104 263.61 50.3227 263.183 50.76C262.756 51.1973 262.543 51.7893 262.543 52.536V56.44C262.543 56.6427 262.484 56.8027 262.367 56.92C262.26 57.0267 262.106 57.08 261.903 57.08C261.7 57.08 261.54 57.0267 261.423 56.92C261.306 56.8027 261.247 56.6427 261.247 56.44V49.688C261.247 49.496 261.306 49.3413 261.423 49.224C261.54 49.1067 261.7 49.048 261.903 49.048C262.095 49.048 262.244 49.1067 262.351 49.224C262.468 49.3413 262.527 49.4907 262.527 49.672V50.488C262.783 50.008 263.14 49.6453 263.599 49.4C264.058 49.144 264.58 49.016 265.167 49.016ZM281.394 55.896C281.586 55.896 281.735 55.944 281.842 56.04C281.948 56.136 282.002 56.2693 282.002 56.44C282.002 56.8133 281.799 57 281.394 57H275.122C274.94 57 274.791 56.9467 274.674 56.84C274.556 56.7227 274.498 56.584 274.498 56.424C274.498 56.2213 274.572 56.0453 274.722 55.896L278.578 51.656C279.111 51.0587 279.495 50.5253 279.73 50.056C279.975 49.576 280.098 49.096 280.098 48.616C280.098 47.9973 279.916 47.5227 279.554 47.192C279.202 46.8613 278.7 46.696 278.05 46.696C277.538 46.696 277.047 46.792 276.578 46.984C276.108 47.1653 275.639 47.448 275.17 47.832C275.01 47.96 274.86 48.024 274.722 48.024C274.604 48.024 274.503 47.9707 274.418 47.864C274.332 47.7467 274.29 47.608 274.29 47.448C274.29 47.224 274.375 47.0427 274.546 46.904C274.983 46.4987 275.516 46.1787 276.146 45.944C276.775 45.7093 277.42 45.592 278.082 45.592C279.095 45.592 279.9 45.8587 280.498 46.392C281.106 46.9253 281.41 47.6453 281.41 48.552C281.41 49.2027 281.26 49.8267 280.962 50.424C280.674 51.0213 280.194 51.688 279.522 52.424L276.322 55.896H281.394ZM287.659 57.128C286.369 57.128 285.387 56.6373 284.715 55.656C284.043 54.6747 283.707 53.2453 283.707 51.368C283.707 49.48 284.043 48.0453 284.715 47.064C285.387 46.0827 286.369 45.592 287.659 45.592C288.95 45.592 289.931 46.0827 290.603 47.064C291.275 48.0347 291.611 49.464 291.611 51.352C291.611 53.24 291.275 54.6747 290.603 55.656C289.931 56.6373 288.95 57.128 287.659 57.128ZM287.659 56.024C288.555 56.024 289.217 55.6453 289.643 54.888C290.07 54.1307 290.283 52.952 290.283 51.352C290.283 49.7413 290.07 48.5627 289.643 47.816C289.227 47.0693 288.566 46.696 287.659 46.696C286.763 46.696 286.102 47.0747 285.675 47.832C285.249 48.5787 285.035 49.752 285.035 51.352C285.035 52.952 285.249 54.1307 285.675 54.888C286.102 55.6453 286.763 56.024 287.659 56.024ZM297.253 57.128C295.962 57.128 294.981 56.6373 294.309 55.656C293.637 54.6747 293.301 53.2453 293.301 51.368C293.301 49.48 293.637 48.0453 294.309 47.064C294.981 46.0827 295.962 45.592 297.253 45.592C298.544 45.592 299.525 46.0827 300.197 47.064C300.869 48.0347 301.205 49.464 301.205 51.352C301.205 53.24 300.869 54.6747 300.197 55.656C299.525 56.6373 298.544 57.128 297.253 57.128ZM297.253 56.024C298.149 56.024 298.81 55.6453 299.237 54.888C299.664 54.1307 299.877 52.952 299.877 51.352C299.877 49.7413 299.664 48.5627 299.237 47.816C298.821 47.0693 298.16 46.696 297.253 46.696C296.357 46.696 295.696 47.0747 295.269 47.832C294.842 48.5787 294.629 49.752 294.629 51.352C294.629 52.952 294.842 54.1307 295.269 54.888C295.696 55.6453 296.357 56.024 297.253 56.024ZM310.588 57.112C309.863 57.112 309.217 56.9467 308.652 56.616C308.097 56.2853 307.665 55.816 307.356 55.208C307.057 54.6 306.908 53.896 306.908 53.096C306.908 52.296 307.063 51.5867 307.372 50.968C307.692 50.3493 308.135 49.8693 308.7 49.528C309.265 49.1867 309.916 49.016 310.652 49.016C311.057 49.016 311.457 49.0747 311.852 49.192C312.257 49.2987 312.609 49.4587 312.908 49.672C313.1 49.8 313.233 49.928 313.308 50.056C313.393 50.1733 313.436 50.3067 313.436 50.456C313.436 50.6053 313.393 50.728 313.308 50.824C313.233 50.92 313.132 50.968 313.004 50.968C312.929 50.968 312.849 50.9467 312.764 50.904C312.679 50.8613 312.604 50.8187 312.54 50.776C312.487 50.7333 312.449 50.7067 312.428 50.696C312.151 50.5147 311.884 50.3707 311.628 50.264C311.383 50.1573 311.079 50.104 310.716 50.104C309.937 50.104 309.329 50.3707 308.892 50.904C308.465 51.4267 308.252 52.1573 308.252 53.096C308.252 54.0347 308.465 54.76 308.892 55.272C309.329 55.784 309.937 56.04 310.716 56.04C311.079 56.04 311.388 55.9867 311.644 55.88C311.911 55.7733 312.177 55.6293 312.444 55.448C312.561 55.3733 312.673 55.3093 312.78 55.256C312.887 55.2027 312.977 55.176 313.052 55.176C313.169 55.176 313.265 55.224 313.34 55.32C313.425 55.416 313.468 55.5387 313.468 55.688C313.468 55.8267 313.431 55.9547 313.356 56.072C313.281 56.1787 313.143 56.3013 312.94 56.44C312.641 56.6427 312.279 56.808 311.852 56.936C311.436 57.0533 311.015 57.112 310.588 57.112ZM318.26 57.112C317.524 57.112 316.873 56.9467 316.308 56.616C315.753 56.2853 315.321 55.816 315.012 55.208C314.713 54.5893 314.564 53.8747 314.564 53.064C314.564 52.2533 314.713 51.544 315.012 50.936C315.321 50.3173 315.753 49.8427 316.308 49.512C316.873 49.1813 317.524 49.016 318.26 49.016C318.996 49.016 319.647 49.1813 320.212 49.512C320.777 49.8427 321.209 50.3173 321.508 50.936C321.817 51.544 321.972 52.2533 321.972 53.064C321.972 53.8747 321.817 54.5893 321.508 55.208C321.209 55.816 320.777 56.2853 320.212 56.616C319.647 56.9467 318.996 57.112 318.26 57.112ZM318.26 56.04C319.028 56.04 319.615 55.7893 320.02 55.288C320.436 54.776 320.644 54.0347 320.644 53.064C320.644 52.1147 320.436 51.384 320.02 50.872C319.604 50.3493 319.017 50.088 318.26 50.088C317.503 50.088 316.916 50.3493 316.5 50.872C316.084 51.384 315.876 52.1147 315.876 53.064C315.876 54.024 316.079 54.76 316.484 55.272C316.9 55.784 317.492 56.04 318.26 56.04ZM332.575 49.016C334.303 49.016 335.167 50.0453 335.167 52.104V56.44C335.167 56.6427 335.108 56.8027 334.991 56.92C334.874 57.0267 334.719 57.08 334.527 57.08C334.335 57.08 334.175 57.0267 334.047 56.92C333.93 56.8027 333.871 56.6427 333.871 56.44V52.136C333.871 51.4213 333.743 50.904 333.487 50.584C333.231 50.264 332.831 50.104 332.287 50.104C331.636 50.104 331.124 50.3227 330.751 50.76C330.378 51.1973 330.191 51.7893 330.191 52.536V56.44C330.191 56.6427 330.127 56.8027 329.999 56.92C329.882 57.0267 329.727 57.08 329.535 57.08C329.343 57.08 329.188 57.0267 329.071 56.92C328.954 56.8027 328.895 56.6427 328.895 56.44V52.136C328.895 51.4213 328.767 50.904 328.511 50.584C328.255 50.264 327.85 50.104 327.295 50.104C326.655 50.104 326.143 50.3227 325.759 50.76C325.386 51.1973 325.199 51.7893 325.199 52.536V56.44C325.199 56.6427 325.14 56.8027 325.023 56.92C324.906 57.0267 324.751 57.08 324.559 57.08C324.367 57.08 324.207 57.0267 324.079 56.92C323.962 56.8027 323.903 56.6427 323.903 56.44V49.688C323.903 49.496 323.962 49.3413 324.079 49.224C324.207 49.1067 324.367 49.048 324.559 49.048C324.74 49.048 324.89 49.1067 325.007 49.224C325.124 49.3307 325.183 49.48 325.183 49.672V50.44C325.418 49.9813 325.743 49.6293 326.159 49.384C326.575 49.1387 327.055 49.016 327.599 49.016C328.815 49.016 329.61 49.528 329.983 50.552C330.207 50.0827 330.548 49.7093 331.007 49.432C331.466 49.1547 331.988 49.016 332.575 49.016ZM341.448 49.016C342.131 49.016 342.733 49.1867 343.256 49.528C343.779 49.8693 344.184 50.3493 344.472 50.968C344.76 51.576 344.904 52.2853 344.904 53.096C344.904 53.9067 344.76 54.616 344.472 55.224C344.184 55.8213 343.779 56.2853 343.256 56.616C342.744 56.9467 342.141 57.112 341.448 57.112C340.84 57.112 340.307 56.9787 339.848 56.712C339.4 56.4453 339.059 56.0667 338.824 55.576V59.336C338.824 59.528 338.765 59.6773 338.648 59.784C338.541 59.9013 338.387 59.96 338.184 59.96C337.981 59.96 337.821 59.9013 337.704 59.784C337.587 59.6667 337.528 59.5173 337.528 59.336V49.688C337.528 49.496 337.587 49.3413 337.704 49.224C337.821 49.1067 337.981 49.048 338.184 49.048C338.387 49.048 338.541 49.1067 338.648 49.224C338.765 49.3413 338.824 49.496 338.824 49.688V50.552C339.059 50.0613 339.4 49.6827 339.848 49.416C340.307 49.1493 340.84 49.016 341.448 49.016ZM341.192 56.04C341.949 56.04 342.536 55.784 342.952 55.272C343.368 54.76 343.576 54.0347 343.576 53.096C343.576 52.1573 343.368 51.4267 342.952 50.904C342.536 50.3707 341.949 50.104 341.192 50.104C340.435 50.104 339.848 50.36 339.432 50.872C339.027 51.384 338.824 52.1147 338.824 53.064C338.824 54.0133 339.027 54.7493 339.432 55.272C339.848 55.784 340.435 56.04 341.192 56.04ZM350.025 49.016C351.977 49.016 352.953 50.04 352.953 52.088V56.44C352.953 56.632 352.894 56.7867 352.777 56.904C352.67 57.0213 352.521 57.08 352.329 57.08C352.137 57.08 351.982 57.0213 351.865 56.904C351.747 56.7867 351.689 56.632 351.689 56.44V55.672C351.486 56.1307 351.177 56.488 350.761 56.744C350.345 56.9893 349.865 57.112 349.321 57.112C348.819 57.112 348.355 57.0107 347.929 56.808C347.513 56.6053 347.182 56.3227 346.937 55.96C346.691 55.5973 346.569 55.1973 346.569 54.76C346.569 54.1733 346.718 53.72 347.017 53.4C347.315 53.0693 347.806 52.8347 348.489 52.696C349.171 52.5467 350.121 52.472 351.337 52.472H351.689V51.944C351.689 51.304 351.555 50.8347 351.289 50.536C351.033 50.2373 350.611 50.088 350.025 50.088C349.299 50.088 348.563 50.2853 347.817 50.68C347.529 50.8613 347.326 50.952 347.209 50.952C347.081 50.952 346.974 50.904 346.889 50.808C346.803 50.712 346.761 50.5893 346.761 50.44C346.761 50.2907 346.803 50.1627 346.889 50.056C346.985 49.9387 347.134 49.8213 347.337 49.704C347.71 49.4907 348.131 49.3253 348.601 49.208C349.081 49.08 349.555 49.016 350.025 49.016ZM349.497 56.088C350.137 56.088 350.659 55.8747 351.065 55.448C351.481 55.0107 351.689 54.4507 351.689 53.768V53.304H351.401C350.462 53.304 349.747 53.3467 349.257 53.432C348.766 53.5067 348.414 53.64 348.201 53.832C347.998 54.0133 347.897 54.2853 347.897 54.648C347.897 55.064 348.046 55.4107 348.345 55.688C348.654 55.9547 349.038 56.088 349.497 56.088ZM359.245 49.016C361.112 49.016 362.045 50.0453 362.045 52.104V56.44C362.045 56.6427 361.986 56.8027 361.869 56.92C361.762 57.0267 361.608 57.08 361.405 57.08C361.202 57.08 361.042 57.0267 360.925 56.92C360.808 56.8027 360.749 56.6427 360.749 56.44V52.184C360.749 51.4587 360.605 50.9307 360.317 50.6C360.04 50.2693 359.592 50.104 358.973 50.104C358.258 50.104 357.688 50.3227 357.261 50.76C356.834 51.1973 356.621 51.7893 356.621 52.536V56.44C356.621 56.6427 356.562 56.8027 356.445 56.92C356.338 57.0267 356.184 57.08 355.981 57.08C355.778 57.08 355.618 57.0267 355.501 56.92C355.384 56.8027 355.325 56.6427 355.325 56.44V49.688C355.325 49.496 355.384 49.3413 355.501 49.224C355.618 49.1067 355.778 49.048 355.981 49.048C356.173 49.048 356.322 49.1067 356.429 49.224C356.546 49.3413 356.605 49.4907 356.605 49.672V50.488C356.861 50.008 357.218 49.6453 357.677 49.4C358.136 49.144 358.658 49.016 359.245 49.016ZM365.075 57.08C364.883 57.08 364.723 57.0267 364.595 56.92C364.477 56.8027 364.419 56.6427 364.419 56.44V49.688C364.419 49.4853 364.477 49.3307 364.595 49.224C364.723 49.1067 364.883 49.048 365.075 49.048C365.267 49.048 365.421 49.1067 365.539 49.224C365.656 49.3307 365.715 49.4853 365.715 49.688V56.44C365.715 56.6533 365.656 56.8133 365.539 56.92C365.421 57.0267 365.267 57.08 365.075 57.08ZM365.075 47.368C364.819 47.368 364.611 47.2933 364.451 47.144C364.291 46.9947 364.211 46.7973 364.211 46.552C364.211 46.3173 364.291 46.1253 364.451 45.976C364.611 45.8267 364.819 45.752 365.075 45.752C365.331 45.752 365.539 45.8267 365.699 45.976C365.859 46.1253 365.939 46.3173 365.939 46.552C365.939 46.7973 365.859 46.9947 365.699 47.144C365.539 47.2933 365.331 47.368 365.075 47.368ZM374.17 55.192C374.287 55.192 374.388 55.24 374.474 55.336C374.559 55.432 374.602 55.5547 374.602 55.704C374.602 55.9707 374.415 56.216 374.042 56.44C373.658 56.664 373.252 56.8347 372.826 56.952C372.399 57.0587 371.983 57.112 371.578 57.112C370.372 57.112 369.418 56.7547 368.714 56.04C368.02 55.3253 367.674 54.3387 367.674 53.08C367.674 52.28 367.828 51.576 368.138 50.968C368.447 50.3493 368.879 49.8693 369.434 49.528C369.999 49.1867 370.639 49.016 371.354 49.016C372.367 49.016 373.172 49.3467 373.77 50.008C374.367 50.6693 374.666 51.5653 374.666 52.696C374.666 52.9093 374.623 53.064 374.538 53.16C374.452 53.256 374.314 53.304 374.122 53.304H368.97C369.066 55.1387 369.935 56.056 371.578 56.056C371.994 56.056 372.351 56.0027 372.65 55.896C372.948 55.7787 373.268 55.624 373.61 55.432C373.887 55.272 374.074 55.192 374.17 55.192ZM371.37 50.024C370.687 50.024 370.138 50.2373 369.722 50.664C369.316 51.0907 369.076 51.6933 369.002 52.472H373.53C373.508 51.6827 373.311 51.08 372.938 50.664C372.564 50.2373 372.042 50.024 371.37 50.024ZM379.199 57.112C378.708 57.112 378.239 57.0533 377.791 56.936C377.354 56.8187 376.964 56.6533 376.623 56.44C376.431 56.312 376.292 56.1947 376.207 56.088C376.132 55.9707 376.095 55.832 376.095 55.672C376.095 55.5333 376.132 55.4213 376.207 55.336C376.292 55.24 376.399 55.192 376.527 55.192C376.655 55.192 376.842 55.272 377.087 55.432C377.407 55.624 377.722 55.7787 378.031 55.896C378.351 56.0027 378.746 56.056 379.215 56.056C379.791 56.056 380.239 55.9547 380.559 55.752C380.879 55.5493 381.039 55.256 381.039 54.872C381.039 54.6373 380.98 54.4507 380.863 54.312C380.746 54.1627 380.543 54.0347 380.255 53.928C379.967 53.8107 379.546 53.6933 378.991 53.576C378.052 53.3733 377.38 53.1013 376.975 52.76C376.57 52.4187 376.367 51.9547 376.367 51.368C376.367 50.9093 376.495 50.504 376.751 50.152C377.007 49.8 377.359 49.5227 377.807 49.32C378.266 49.1173 378.783 49.016 379.359 49.016C379.775 49.016 380.175 49.0747 380.559 49.192C380.954 49.2987 381.3 49.4533 381.599 49.656C381.962 49.912 382.143 50.1787 382.143 50.456C382.143 50.5947 382.1 50.712 382.015 50.808C381.93 50.904 381.828 50.952 381.711 50.952C381.583 50.952 381.391 50.8613 381.135 50.68C380.836 50.488 380.554 50.3387 380.287 50.232C380.02 50.1253 379.69 50.072 379.295 50.072C378.794 50.072 378.388 50.184 378.079 50.408C377.78 50.632 377.631 50.9307 377.631 51.304C377.631 51.5387 377.684 51.7307 377.791 51.88C377.908 52.0187 378.095 52.1467 378.351 52.264C378.618 52.3707 378.996 52.4773 379.487 52.584C380.212 52.744 380.772 52.92 381.167 53.112C381.572 53.304 381.86 53.5387 382.031 53.816C382.202 54.0933 382.287 54.4453 382.287 54.872C382.287 55.544 382.004 56.088 381.439 56.504C380.874 56.9093 380.127 57.112 379.199 57.112ZM56.8 76.056C57.1733 76.088 57.36 76.2587 57.36 76.568C57.36 76.7493 57.2907 76.888 57.152 76.984C57.024 77.0693 56.8267 77.1013 56.56 77.08L56.128 77.048C55.2747 76.984 54.6453 76.728 54.24 76.28C53.8347 75.832 53.632 75.1547 53.632 74.248V70.232H52.56C52.3787 70.232 52.2347 70.1893 52.128 70.104C52.032 70.008 51.984 69.8853 51.984 69.736C51.984 69.576 52.032 69.448 52.128 69.352C52.2347 69.256 52.3787 69.208 52.56 69.208H53.632V67.4C53.632 67.1973 53.6907 67.0427 53.808 66.936C53.9253 66.8187 54.0853 66.76 54.288 66.76C54.48 66.76 54.6347 66.8187 54.752 66.936C54.8693 67.0427 54.928 67.1973 54.928 67.4V69.208H56.704C56.8747 69.208 57.008 69.256 57.104 69.352C57.2107 69.448 57.264 69.576 57.264 69.736C57.264 69.8853 57.2107 70.008 57.104 70.104C57.008 70.1893 56.8747 70.232 56.704 70.232H54.928V74.312C54.928 74.8987 55.0453 75.3253 55.28 75.592C55.5253 75.848 55.888 75.992 56.368 76.024L56.8 76.056ZM61.8215 69.016C63.7735 69.016 64.7495 70.04 64.7495 72.088V76.44C64.7495 76.632 64.6908 76.7867 64.5735 76.904C64.4668 77.0213 64.3175 77.08 64.1255 77.08C63.9335 77.08 63.7788 77.0213 63.6615 76.904C63.5442 76.7867 63.4855 76.632 63.4855 76.44V75.672C63.2828 76.1307 62.9735 76.488 62.5575 76.744C62.1415 76.9893 61.6615 77.112 61.1175 77.112C60.6162 77.112 60.1522 77.0107 59.7255 76.808C59.3095 76.6053 58.9788 76.3227 58.7335 75.96C58.4882 75.5973 58.3655 75.1973 58.3655 74.76C58.3655 74.1733 58.5148 73.72 58.8135 73.4C59.1122 73.0693 59.6028 72.8347 60.2855 72.696C60.9682 72.5467 61.9175 72.472 63.1335 72.472H63.4855V71.944C63.4855 71.304 63.3522 70.8347 63.0855 70.536C62.8295 70.2373 62.4082 70.088 61.8215 70.088C61.0962 70.088 60.3602 70.2853 59.6135 70.68C59.3255 70.8613 59.1228 70.952 59.0055 70.952C58.8775 70.952 58.7708 70.904 58.6855 70.808C58.6002 70.712 58.5575 70.5893 58.5575 70.44C58.5575 70.2907 58.6002 70.1627 58.6855 70.056C58.7815 69.9387 58.9308 69.8213 59.1335 69.704C59.5068 69.4907 59.9282 69.3253 60.3975 69.208C60.8775 69.08 61.3522 69.016 61.8215 69.016ZM61.2935 76.088C61.9335 76.088 62.4562 75.8747 62.8615 75.448C63.2775 75.0107 63.4855 74.4507 63.4855 73.768V73.304H63.1975C62.2588 73.304 61.5442 73.3467 61.0535 73.432C60.5628 73.5067 60.2108 73.64 59.9975 73.832C59.7948 74.0133 59.6935 74.2853 59.6935 74.648C59.6935 75.064 59.8428 75.4107 60.1415 75.688C60.4508 75.9547 60.8348 76.088 61.2935 76.088ZM73.3459 75.976C73.5165 76.136 73.6019 76.3067 73.6019 76.488C73.6019 76.648 73.5432 76.7867 73.4259 76.904C73.3192 77.0213 73.1859 77.08 73.0259 77.08C72.8872 77.08 72.7432 77.016 72.5939 76.888L68.4179 73.288V76.44C68.4179 76.6427 68.3539 76.8027 68.2259 76.92C68.1085 77.0267 67.9592 77.08 67.7779 77.08C67.5859 77.08 67.4259 77.0267 67.2979 76.92C67.1805 76.8027 67.1219 76.6427 67.1219 76.44V66.28C67.1219 66.0773 67.1805 65.9227 67.2979 65.816C67.4259 65.6987 67.5859 65.64 67.7779 65.64C67.9592 65.64 68.1085 65.6987 68.2259 65.816C68.3539 65.9227 68.4179 66.0773 68.4179 66.28V72.776L72.2419 69.272C72.3699 69.144 72.5139 69.08 72.6739 69.08C72.8339 69.08 72.9725 69.1387 73.0899 69.256C73.2072 69.3733 73.2659 69.512 73.2659 69.672C73.2659 69.8533 73.1912 70.0133 73.0419 70.152L69.8899 72.968L73.3459 75.976ZM75.7779 77.08C75.5859 77.08 75.4259 77.0267 75.2979 76.92C75.1805 76.8027 75.1219 76.6427 75.1219 76.44V69.688C75.1219 69.4853 75.1805 69.3307 75.2979 69.224C75.4259 69.1067 75.5859 69.048 75.7779 69.048C75.9699 69.048 76.1245 69.1067 76.2419 69.224C76.3592 69.3307 76.4179 69.4853 76.4179 69.688V76.44C76.4179 76.6533 76.3592 76.8133 76.2419 76.92C76.1245 77.0267 75.9699 77.08 75.7779 77.08ZM75.7779 67.368C75.5219 67.368 75.3139 67.2933 75.1539 67.144C74.9939 66.9947 74.9139 66.7973 74.9139 66.552C74.9139 66.3173 74.9939 66.1253 75.1539 65.976C75.3139 65.8267 75.5219 65.752 75.7779 65.752C76.0339 65.752 76.2419 65.8267 76.4019 65.976C76.5619 66.1253 76.6419 66.3173 76.6419 66.552C76.6419 66.7973 76.5619 66.9947 76.4019 67.144C76.2419 67.2933 76.0339 67.368 75.7779 67.368ZM82.7606 69.016C84.6273 69.016 85.5606 70.0453 85.5606 72.104V76.44C85.5606 76.6427 85.502 76.8027 85.3846 76.92C85.278 77.0267 85.1233 77.08 84.9206 77.08C84.718 77.08 84.558 77.0267 84.4406 76.92C84.3233 76.8027 84.2646 76.6427 84.2646 76.44V72.184C84.2646 71.4587 84.1206 70.9307 83.8326 70.6C83.5553 70.2693 83.1073 70.104 82.4886 70.104C81.774 70.104 81.2033 70.3227 80.7766 70.76C80.35 71.1973 80.1366 71.7893 80.1366 72.536V76.44C80.1366 76.6427 80.078 76.8027 79.9606 76.92C79.854 77.0267 79.6993 77.08 79.4966 77.08C79.294 77.08 79.134 77.0267 79.0166 76.92C78.8993 76.8027 78.8406 76.6427 78.8406 76.44V69.688C78.8406 69.496 78.8993 69.3413 79.0166 69.224C79.134 69.1067 79.294 69.048 79.4966 69.048C79.6886 69.048 79.838 69.1067 79.9446 69.224C80.062 69.3413 80.1206 69.4907 80.1206 69.672V70.488C80.3766 70.008 80.734 69.6453 81.1926 69.4C81.6513 69.144 82.174 69.016 82.7606 69.016ZM94.2544 69.048C94.457 69.048 94.617 69.1067 94.7344 69.224C94.8517 69.3413 94.9104 69.496 94.9104 69.688V76.472C94.9104 77.6347 94.6117 78.5093 94.0144 79.096C93.417 79.6933 92.5317 79.992 91.3584 79.992C90.217 79.992 89.2677 79.768 88.5104 79.32C88.1264 79.1067 87.9344 78.8613 87.9344 78.584C87.9344 78.4347 87.9717 78.312 88.0464 78.216C88.1317 78.12 88.2384 78.072 88.3664 78.072C88.473 78.072 88.665 78.1467 88.9424 78.296C89.3157 78.488 89.6837 78.6427 90.0464 78.76C90.409 78.8773 90.841 78.936 91.3424 78.936C92.0997 78.936 92.6704 78.7333 93.0544 78.328C93.4384 77.9333 93.6304 77.352 93.6304 76.584V75.208C93.4064 75.7093 93.0597 76.0933 92.5904 76.36C92.1317 76.6267 91.5877 76.76 90.9584 76.76C90.2757 76.76 89.6677 76.6 89.1344 76.28C88.6117 75.96 88.201 75.5067 87.9024 74.92C87.6144 74.3333 87.4704 73.656 87.4704 72.888C87.4704 72.12 87.6144 71.4427 87.9024 70.856C88.201 70.2693 88.6117 69.816 89.1344 69.496C89.6677 69.176 90.2757 69.016 90.9584 69.016C91.577 69.016 92.1157 69.1493 92.5744 69.416C93.033 69.6827 93.3797 70.0613 93.6144 70.552V69.688C93.6144 69.496 93.6677 69.3413 93.7744 69.224C93.8917 69.1067 94.0517 69.048 94.2544 69.048ZM91.2144 75.688C91.961 75.688 92.5477 75.4427 92.9744 74.952C93.401 74.4507 93.6144 73.7627 93.6144 72.888C93.6144 72.024 93.401 71.3467 92.9744 70.856C92.5584 70.3547 91.9717 70.104 91.2144 70.104C90.457 70.104 89.8597 70.3547 89.4224 70.856C88.9957 71.3467 88.7824 72.024 88.7824 72.888C88.7824 73.7627 88.9957 74.4507 89.4224 74.952C89.8597 75.4427 90.457 75.688 91.2144 75.688ZM110.106 69.016C111.834 69.016 112.698 70.0453 112.698 72.104V76.44C112.698 76.6427 112.64 76.8027 112.522 76.92C112.405 77.0267 112.25 77.08 112.058 77.08C111.866 77.08 111.706 77.0267 111.578 76.92C111.461 76.8027 111.402 76.6427 111.402 76.44V72.136C111.402 71.4213 111.274 70.904 111.018 70.584C110.762 70.264 110.362 70.104 109.818 70.104C109.168 70.104 108.656 70.3227 108.282 70.76C107.909 71.1973 107.722 71.7893 107.722 72.536V76.44C107.722 76.6427 107.658 76.8027 107.53 76.92C107.413 77.0267 107.258 77.08 107.066 77.08C106.874 77.08 106.72 77.0267 106.602 76.92C106.485 76.8027 106.426 76.6427 106.426 76.44V72.136C106.426 71.4213 106.298 70.904 106.042 70.584C105.786 70.264 105.381 70.104 104.826 70.104C104.186 70.104 103.674 70.3227 103.29 70.76C102.917 71.1973 102.73 71.7893 102.73 72.536V76.44C102.73 76.6427 102.672 76.8027 102.554 76.92C102.437 77.0267 102.282 77.08 102.09 77.08C101.898 77.08 101.738 77.0267 101.61 76.92C101.493 76.8027 101.434 76.6427 101.434 76.44V69.688C101.434 69.496 101.493 69.3413 101.61 69.224C101.738 69.1067 101.898 69.048 102.09 69.048C102.272 69.048 102.421 69.1067 102.538 69.224C102.656 69.3307 102.714 69.48 102.714 69.672V70.44C102.949 69.9813 103.274 69.6293 103.69 69.384C104.106 69.1387 104.586 69.016 105.13 69.016C106.346 69.016 107.141 69.528 107.514 70.552C107.738 70.0827 108.08 69.7093 108.538 69.432C108.997 69.1547 109.52 69.016 110.106 69.016ZM120.675 69.448C120.793 69.192 120.979 69.064 121.235 69.064C121.395 69.064 121.539 69.1173 121.667 69.224C121.795 69.3307 121.859 69.464 121.859 69.624C121.859 69.72 121.838 69.8053 121.795 69.88L117.299 79.576C117.246 79.6933 117.166 79.784 117.059 79.848C116.963 79.912 116.862 79.944 116.755 79.944C116.595 79.944 116.451 79.8907 116.323 79.784C116.206 79.688 116.147 79.56 116.147 79.4C116.147 79.3147 116.169 79.2293 116.211 79.144L117.331 76.728L114.163 69.88C114.121 69.8053 114.099 69.7253 114.099 69.64C114.099 69.48 114.169 69.3413 114.307 69.224C114.457 69.1067 114.617 69.048 114.787 69.048C114.894 69.048 114.995 69.08 115.091 69.144C115.198 69.208 115.278 69.2987 115.331 69.416L118.003 75.416L120.675 69.448ZM133.659 65.64C133.862 65.64 134.022 65.6987 134.139 65.816C134.256 65.9333 134.315 66.0827 134.315 66.264V76.44C134.315 76.632 134.256 76.7867 134.139 76.904C134.022 77.0213 133.862 77.08 133.659 77.08C133.456 77.08 133.296 77.0213 133.179 76.904C133.072 76.7867 133.019 76.632 133.019 76.44V75.576C132.784 76.0667 132.438 76.4453 131.979 76.712C131.531 76.9787 131.003 77.112 130.395 77.112C129.712 77.112 129.11 76.9413 128.587 76.6C128.064 76.2587 127.659 75.784 127.371 75.176C127.083 74.5573 126.939 73.8427 126.939 73.032C126.939 72.232 127.083 71.528 127.371 70.92C127.659 70.312 128.064 69.8427 128.587 69.512C129.11 69.1813 129.712 69.016 130.395 69.016C131.003 69.016 131.531 69.1493 131.979 69.416C132.438 69.6827 132.784 70.0613 133.019 70.552V66.264C133.019 66.072 133.072 65.9227 133.179 65.816C133.296 65.6987 133.456 65.64 133.659 65.64ZM130.651 76.04C131.408 76.04 131.99 75.784 132.395 75.272C132.811 74.7493 133.019 74.0133 133.019 73.064C133.019 72.1147 132.811 71.384 132.395 70.872C131.99 70.36 131.408 70.104 130.651 70.104C129.894 70.104 129.302 70.36 128.875 70.872C128.459 71.384 128.251 72.104 128.251 73.032C128.251 73.9813 128.459 74.7227 128.875 75.256C129.302 75.7787 129.894 76.04 130.651 76.04ZM139.9 69.016C141.852 69.016 142.828 70.04 142.828 72.088V76.44C142.828 76.632 142.769 76.7867 142.652 76.904C142.545 77.0213 142.396 77.08 142.204 77.08C142.012 77.08 141.857 77.0213 141.74 76.904C141.622 76.7867 141.564 76.632 141.564 76.44V75.672C141.361 76.1307 141.052 76.488 140.636 76.744C140.22 76.9893 139.74 77.112 139.196 77.112C138.694 77.112 138.23 77.0107 137.804 76.808C137.388 76.6053 137.057 76.3227 136.812 75.96C136.566 75.5973 136.444 75.1973 136.444 74.76C136.444 74.1733 136.593 73.72 136.892 73.4C137.19 73.0693 137.681 72.8347 138.364 72.696C139.046 72.5467 139.996 72.472 141.212 72.472H141.564V71.944C141.564 71.304 141.43 70.8347 141.164 70.536C140.908 70.2373 140.486 70.088 139.9 70.088C139.174 70.088 138.438 70.2853 137.692 70.68C137.404 70.8613 137.201 70.952 137.084 70.952C136.956 70.952 136.849 70.904 136.764 70.808C136.678 70.712 136.636 70.5893 136.636 70.44C136.636 70.2907 136.678 70.1627 136.764 70.056C136.86 69.9387 137.009 69.8213 137.212 69.704C137.585 69.4907 138.006 69.3253 138.476 69.208C138.956 69.08 139.43 69.016 139.9 69.016ZM139.372 76.088C140.012 76.088 140.534 75.8747 140.94 75.448C141.356 75.0107 141.564 74.4507 141.564 73.768V73.304H141.276C140.337 73.304 139.622 73.3467 139.132 73.432C138.641 73.5067 138.289 73.64 138.076 73.832C137.873 74.0133 137.772 74.2853 137.772 74.648C137.772 75.064 137.921 75.4107 138.22 75.688C138.529 75.9547 138.913 76.088 139.372 76.088ZM148.8 76.056C149.173 76.088 149.36 76.2587 149.36 76.568C149.36 76.7493 149.291 76.888 149.152 76.984C149.024 77.0693 148.827 77.1013 148.56 77.08L148.128 77.048C147.275 76.984 146.645 76.728 146.24 76.28C145.835 75.832 145.632 75.1547 145.632 74.248V70.232H144.56C144.379 70.232 144.235 70.1893 144.128 70.104C144.032 70.008 143.984 69.8853 143.984 69.736C143.984 69.576 144.032 69.448 144.128 69.352C144.235 69.256 144.379 69.208 144.56 69.208H145.632V67.4C145.632 67.1973 145.691 67.0427 145.808 66.936C145.925 66.8187 146.085 66.76 146.288 66.76C146.48 66.76 146.635 66.8187 146.752 66.936C146.869 67.0427 146.928 67.1973 146.928 67.4V69.208H148.704C148.875 69.208 149.008 69.256 149.104 69.352C149.211 69.448 149.264 69.576 149.264 69.736C149.264 69.8853 149.211 70.008 149.104 70.104C149.008 70.1893 148.875 70.232 148.704 70.232H146.928V74.312C146.928 74.8987 147.045 75.3253 147.28 75.592C147.525 75.848 147.888 75.992 148.368 76.024L148.8 76.056ZM153.822 69.016C155.774 69.016 156.75 70.04 156.75 72.088V76.44C156.75 76.632 156.691 76.7867 156.574 76.904C156.467 77.0213 156.318 77.08 156.126 77.08C155.934 77.08 155.779 77.0213 155.662 76.904C155.544 76.7867 155.486 76.632 155.486 76.44V75.672C155.283 76.1307 154.974 76.488 154.558 76.744C154.142 76.9893 153.662 77.112 153.118 77.112C152.616 77.112 152.152 77.0107 151.726 76.808C151.31 76.6053 150.979 76.3227 150.734 75.96C150.488 75.5973 150.366 75.1973 150.366 74.76C150.366 74.1733 150.515 73.72 150.814 73.4C151.112 73.0693 151.603 72.8347 152.286 72.696C152.968 72.5467 153.918 72.472 155.134 72.472H155.486V71.944C155.486 71.304 155.352 70.8347 155.086 70.536C154.83 70.2373 154.408 70.088 153.822 70.088C153.096 70.088 152.36 70.2853 151.614 70.68C151.326 70.8613 151.123 70.952 151.006 70.952C150.878 70.952 150.771 70.904 150.686 70.808C150.6 70.712 150.558 70.5893 150.558 70.44C150.558 70.2907 150.6 70.1627 150.686 70.056C150.782 69.9387 150.931 69.8213 151.134 69.704C151.507 69.4907 151.928 69.3253 152.398 69.208C152.878 69.08 153.352 69.016 153.822 69.016ZM153.294 76.088C153.934 76.088 154.456 75.8747 154.862 75.448C155.278 75.0107 155.486 74.4507 155.486 73.768V73.304H155.198C154.259 73.304 153.544 73.3467 153.054 73.432C152.563 73.5067 152.211 73.64 151.998 73.832C151.795 74.0133 151.694 74.2853 151.694 74.648C151.694 75.064 151.843 75.4107 152.142 75.688C152.451 75.9547 152.835 76.088 153.294 76.088ZM173.903 69.464C174.01 69.208 174.186 69.08 174.431 69.08C174.591 69.08 174.735 69.1333 174.863 69.24C174.991 69.3467 175.055 69.48 175.055 69.64C175.055 69.7147 175.039 69.7947 175.007 69.88L172.351 76.6C172.287 76.7387 172.191 76.8507 172.063 76.936C171.946 77.0107 171.812 77.048 171.663 77.048C171.524 77.048 171.391 77.0107 171.263 76.936C171.146 76.8507 171.055 76.7387 170.991 76.6L168.783 70.984L166.591 76.6C166.538 76.7387 166.447 76.8507 166.319 76.936C166.191 77.0107 166.052 77.048 165.903 77.048C165.764 77.048 165.631 77.0107 165.503 76.936C165.375 76.8507 165.279 76.7387 165.215 76.6L162.559 69.896C162.527 69.8107 162.511 69.736 162.511 69.672C162.511 69.5013 162.58 69.3573 162.719 69.24C162.868 69.1227 163.028 69.064 163.199 69.064C163.455 69.064 163.636 69.192 163.743 69.448L165.935 75.352L168.191 69.496C168.255 69.3573 168.34 69.2507 168.447 69.176C168.564 69.1013 168.687 69.064 168.815 69.064C168.954 69.064 169.076 69.1013 169.183 69.176C169.3 69.2507 169.386 69.3573 169.439 69.496L171.695 75.336L173.903 69.464ZM177.575 77.08C177.383 77.08 177.223 77.0267 177.095 76.92C176.977 76.8027 176.919 76.6427 176.919 76.44V69.688C176.919 69.4853 176.977 69.3307 177.095 69.224C177.223 69.1067 177.383 69.048 177.575 69.048C177.767 69.048 177.921 69.1067 178.039 69.224C178.156 69.3307 178.215 69.4853 178.215 69.688V76.44C178.215 76.6533 178.156 76.8133 178.039 76.92C177.921 77.0267 177.767 77.08 177.575 77.08ZM177.575 67.368C177.319 67.368 177.111 67.2933 176.951 67.144C176.791 66.9947 176.711 66.7973 176.711 66.552C176.711 66.3173 176.791 66.1253 176.951 65.976C177.111 65.8267 177.319 65.752 177.575 65.752C177.831 65.752 178.039 65.8267 178.199 65.976C178.359 66.1253 178.439 66.3173 178.439 66.552C178.439 66.7973 178.359 66.9947 178.199 67.144C178.039 67.2933 177.831 67.368 177.575 67.368ZM184.363 76.056C184.736 76.088 184.923 76.2587 184.923 76.568C184.923 76.7493 184.853 76.888 184.715 76.984C184.587 77.0693 184.389 77.1013 184.123 77.08L183.691 77.048C182.837 76.984 182.208 76.728 181.803 76.28C181.397 75.832 181.195 75.1547 181.195 74.248V70.232H180.123C179.941 70.232 179.797 70.1893 179.691 70.104C179.595 70.008 179.546 69.8853 179.546 69.736C179.546 69.576 179.595 69.448 179.691 69.352C179.797 69.256 179.941 69.208 180.123 69.208H181.195V67.4C181.195 67.1973 181.253 67.0427 181.371 66.936C181.488 66.8187 181.648 66.76 181.851 66.76C182.043 66.76 182.197 66.8187 182.315 66.936C182.432 67.0427 182.491 67.1973 182.491 67.4V69.208H184.266C184.437 69.208 184.571 69.256 184.667 69.352C184.773 69.448 184.827 69.576 184.827 69.736C184.827 69.8853 184.773 70.008 184.667 70.104C184.571 70.1893 184.437 70.232 184.266 70.232H182.491V74.312C182.491 74.8987 182.608 75.3253 182.843 75.592C183.088 75.848 183.451 75.992 183.931 76.024L184.363 76.056ZM190.136 69.016C191.053 69.016 191.747 69.2773 192.216 69.8C192.685 70.312 192.92 71.08 192.92 72.104V76.44C192.92 76.6427 192.861 76.8027 192.744 76.92C192.627 77.0267 192.472 77.08 192.28 77.08C192.077 77.08 191.917 77.0267 191.8 76.92C191.683 76.8027 191.624 76.6427 191.624 76.44V72.136C191.624 71.4427 191.48 70.9307 191.192 70.6C190.915 70.2693 190.467 70.104 189.848 70.104C189.133 70.104 188.563 70.3227 188.136 70.76C187.709 71.1973 187.496 71.7893 187.496 72.536V76.44C187.496 76.6427 187.437 76.8027 187.32 76.92C187.213 77.0267 187.059 77.08 186.856 77.08C186.653 77.08 186.493 77.0267 186.376 76.92C186.259 76.8027 186.2 76.6427 186.2 76.44V66.264C186.2 66.0827 186.259 65.9333 186.376 65.816C186.504 65.6987 186.664 65.64 186.856 65.64C187.059 65.64 187.213 65.6987 187.32 65.816C187.437 65.9227 187.496 66.072 187.496 66.264V70.456C187.752 69.9867 188.109 69.6293 188.568 69.384C189.027 69.1387 189.549 69.016 190.136 69.016ZM198.526 77.112C197.79 77.112 197.139 76.9467 196.574 76.616C196.019 76.2853 195.587 75.816 195.278 75.208C194.979 74.5893 194.83 73.8747 194.83 73.064C194.83 72.2533 194.979 71.544 195.278 70.936C195.587 70.3173 196.019 69.8427 196.574 69.512C197.139 69.1813 197.79 69.016 198.526 69.016C199.262 69.016 199.912 69.1813 200.478 69.512C201.043 69.8427 201.475 70.3173 201.774 70.936C202.083 71.544 202.238 72.2533 202.238 73.064C202.238 73.8747 202.083 74.5893 201.774 75.208C201.475 75.816 201.043 76.2853 200.478 76.616C199.912 76.9467 199.262 77.112 198.526 77.112ZM198.526 76.04C199.294 76.04 199.88 75.7893 200.286 75.288C200.702 74.776 200.91 74.0347 200.91 73.064C200.91 72.1147 200.702 71.384 200.286 70.872C199.87 70.3493 199.283 70.088 198.526 70.088C197.768 70.088 197.182 70.3493 196.766 70.872C196.35 71.384 196.142 72.1147 196.142 73.064C196.142 74.024 196.344 74.76 196.75 75.272C197.166 75.784 197.758 76.04 198.526 76.04ZM210.089 69.048C210.291 69.048 210.446 69.1067 210.553 69.224C210.67 69.3413 210.729 69.496 210.729 69.688V76.456C210.729 76.6373 210.67 76.7867 210.553 76.904C210.446 77.0213 210.291 77.08 210.089 77.08C209.897 77.08 209.742 77.0267 209.625 76.92C209.518 76.8027 209.465 76.6533 209.465 76.472V75.672C209.219 76.1413 208.873 76.4987 208.425 76.744C207.987 76.9893 207.491 77.112 206.937 77.112C206.009 77.112 205.31 76.856 204.841 76.344C204.371 75.8213 204.137 75.0533 204.137 74.04V69.688C204.137 69.496 204.195 69.3413 204.313 69.224C204.43 69.1067 204.59 69.048 204.793 69.048C204.995 69.048 205.15 69.1067 205.257 69.224C205.374 69.3413 205.433 69.496 205.433 69.688V74.008C205.433 74.7013 205.571 75.2133 205.849 75.544C206.126 75.864 206.563 76.024 207.161 76.024C207.843 76.024 208.393 75.8053 208.809 75.368C209.225 74.92 209.433 74.3333 209.433 73.608V69.688C209.433 69.496 209.491 69.3413 209.609 69.224C209.726 69.1067 209.886 69.048 210.089 69.048ZM216.738 76.056C217.111 76.088 217.298 76.2587 217.298 76.568C217.298 76.7493 217.228 76.888 217.09 76.984C216.962 77.0693 216.764 77.1013 216.498 77.08L216.066 77.048C215.212 76.984 214.583 76.728 214.178 76.28C213.772 75.832 213.57 75.1547 213.57 74.248V70.232H212.498C212.316 70.232 212.172 70.1893 212.066 70.104C211.97 70.008 211.921 69.8853 211.921 69.736C211.921 69.576 211.97 69.448 212.066 69.352C212.172 69.256 212.316 69.208 212.498 69.208H213.57V67.4C213.57 67.1973 213.628 67.0427 213.746 66.936C213.863 66.8187 214.023 66.76 214.226 66.76C214.418 66.76 214.572 66.8187 214.69 66.936C214.807 67.0427 214.866 67.1973 214.866 67.4V69.208H216.641C216.812 69.208 216.946 69.256 217.042 69.352C217.148 69.448 217.202 69.576 217.202 69.736C217.202 69.8853 217.148 70.008 217.042 70.104C216.946 70.1893 216.812 70.232 216.641 70.232H214.866V74.312C214.866 74.8987 214.983 75.3253 215.218 75.592C215.463 75.848 215.826 75.992 216.306 76.024L216.738 76.056ZM231.372 69.016C233.1 69.016 233.964 70.0453 233.964 72.104V76.44C233.964 76.6427 233.905 76.8027 233.788 76.92C233.671 77.0267 233.516 77.08 233.324 77.08C233.132 77.08 232.972 77.0267 232.844 76.92C232.727 76.8027 232.668 76.6427 232.668 76.44V72.136C232.668 71.4213 232.54 70.904 232.284 70.584C232.028 70.264 231.628 70.104 231.084 70.104C230.433 70.104 229.921 70.3227 229.548 70.76C229.175 71.1973 228.988 71.7893 228.988 72.536V76.44C228.988 76.6427 228.924 76.8027 228.796 76.92C228.679 77.0267 228.524 77.08 228.332 77.08C228.14 77.08 227.985 77.0267 227.868 76.92C227.751 76.8027 227.692 76.6427 227.692 76.44V72.136C227.692 71.4213 227.564 70.904 227.308 70.584C227.052 70.264 226.647 70.104 226.092 70.104C225.452 70.104 224.94 70.3227 224.556 70.76C224.183 71.1973 223.996 71.7893 223.996 72.536V76.44C223.996 76.6427 223.937 76.8027 223.82 76.92C223.703 77.0267 223.548 77.08 223.356 77.08C223.164 77.08 223.004 77.0267 222.876 76.92C222.759 76.8027 222.7 76.6427 222.7 76.44V69.688C222.7 69.496 222.759 69.3413 222.876 69.224C223.004 69.1067 223.164 69.048 223.356 69.048C223.537 69.048 223.687 69.1067 223.804 69.224C223.921 69.3307 223.98 69.48 223.98 69.672V70.44C224.215 69.9813 224.54 69.6293 224.956 69.384C225.372 69.1387 225.852 69.016 226.396 69.016C227.612 69.016 228.407 69.528 228.78 70.552C229.004 70.0827 229.345 69.7093 229.804 69.432C230.263 69.1547 230.785 69.016 231.372 69.016ZM241.941 69.448C242.058 69.192 242.245 69.064 242.501 69.064C242.661 69.064 242.805 69.1173 242.933 69.224C243.061 69.3307 243.125 69.464 243.125 69.624C243.125 69.72 243.104 69.8053 243.061 69.88L238.565 79.576C238.512 79.6933 238.432 79.784 238.325 79.848C238.229 79.912 238.128 79.944 238.021 79.944C237.861 79.944 237.717 79.8907 237.589 79.784C237.472 79.688 237.413 79.56 237.413 79.4C237.413 79.3147 237.434 79.2293 237.477 79.144L238.597 76.728L235.429 69.88C235.386 69.8053 235.365 69.7253 235.365 69.64C235.365 69.48 235.434 69.3413 235.573 69.224C235.722 69.1067 235.882 69.048 236.053 69.048C236.16 69.048 236.261 69.08 236.357 69.144C236.464 69.208 236.544 69.2987 236.597 69.416L239.269 75.416L241.941 69.448ZM251.885 77.112C251.159 77.112 250.514 76.9467 249.949 76.616C249.394 76.2853 248.962 75.816 248.653 75.208C248.354 74.6 248.205 73.896 248.205 73.096C248.205 72.296 248.359 71.5867 248.669 70.968C248.989 70.3493 249.431 69.8693 249.997 69.528C250.562 69.1867 251.213 69.016 251.949 69.016C252.354 69.016 252.754 69.0747 253.149 69.192C253.554 69.2987 253.906 69.4587 254.205 69.672C254.397 69.8 254.53 69.928 254.605 70.056C254.69 70.1733 254.733 70.3067 254.733 70.456C254.733 70.6053 254.69 70.728 254.605 70.824C254.53 70.92 254.429 70.968 254.301 70.968C254.226 70.968 254.146 70.9467 254.061 70.904C253.975 70.8613 253.901 70.8187 253.837 70.776C253.783 70.7333 253.746 70.7067 253.725 70.696C253.447 70.5147 253.181 70.3707 252.925 70.264C252.679 70.1573 252.375 70.104 252.013 70.104C251.234 70.104 250.626 70.3707 250.189 70.904C249.762 71.4267 249.549 72.1573 249.549 73.096C249.549 74.0347 249.762 74.76 250.189 75.272C250.626 75.784 251.234 76.04 252.013 76.04C252.375 76.04 252.685 75.9867 252.941 75.88C253.207 75.7733 253.474 75.6293 253.741 75.448C253.858 75.3733 253.97 75.3093 254.077 75.256C254.183 75.2027 254.274 75.176 254.349 75.176C254.466 75.176 254.562 75.224 254.637 75.32C254.722 75.416 254.765 75.5387 254.765 75.688C254.765 75.8267 254.727 75.9547 254.653 76.072C254.578 76.1787 254.439 76.3013 254.237 76.44C253.938 76.6427 253.575 76.808 253.149 76.936C252.733 77.0533 252.311 77.112 251.885 77.112ZM259.557 77.112C258.821 77.112 258.17 76.9467 257.605 76.616C257.05 76.2853 256.618 75.816 256.309 75.208C256.01 74.5893 255.861 73.8747 255.861 73.064C255.861 72.2533 256.01 71.544 256.309 70.936C256.618 70.3173 257.05 69.8427 257.605 69.512C258.17 69.1813 258.821 69.016 259.557 69.016C260.293 69.016 260.944 69.1813 261.509 69.512C262.074 69.8427 262.506 70.3173 262.805 70.936C263.114 71.544 263.269 72.2533 263.269 73.064C263.269 73.8747 263.114 74.5893 262.805 75.208C262.506 75.816 262.074 76.2853 261.509 76.616C260.944 76.9467 260.293 77.112 259.557 77.112ZM259.557 76.04C260.325 76.04 260.912 75.7893 261.317 75.288C261.733 74.776 261.941 74.0347 261.941 73.064C261.941 72.1147 261.733 71.384 261.317 70.872C260.901 70.3493 260.314 70.088 259.557 70.088C258.8 70.088 258.213 70.3493 257.797 70.872C257.381 71.384 257.173 72.1147 257.173 73.064C257.173 74.024 257.376 74.76 257.781 75.272C258.197 75.784 258.789 76.04 259.557 76.04ZM269.12 69.016C270.987 69.016 271.92 70.0453 271.92 72.104V76.44C271.92 76.6427 271.861 76.8027 271.744 76.92C271.637 77.0267 271.483 77.08 271.28 77.08C271.077 77.08 270.917 77.0267 270.8 76.92C270.683 76.8027 270.624 76.6427 270.624 76.44V72.184C270.624 71.4587 270.48 70.9307 270.192 70.6C269.915 70.2693 269.467 70.104 268.848 70.104C268.133 70.104 267.563 70.3227 267.136 70.76C266.709 71.1973 266.496 71.7893 266.496 72.536V76.44C266.496 76.6427 266.437 76.8027 266.32 76.92C266.213 77.0267 266.059 77.08 265.856 77.08C265.653 77.08 265.493 77.0267 265.376 76.92C265.259 76.8027 265.2 76.6427 265.2 76.44V69.688C265.2 69.496 265.259 69.3413 265.376 69.224C265.493 69.1067 265.653 69.048 265.856 69.048C266.048 69.048 266.197 69.1067 266.304 69.224C266.421 69.3413 266.48 69.4907 266.48 69.672V70.488C266.736 70.008 267.093 69.6453 267.552 69.4C268.011 69.144 268.533 69.016 269.12 69.016ZM277.894 76.056C278.267 76.088 278.454 76.2587 278.454 76.568C278.454 76.7493 278.384 76.888 278.246 76.984C278.118 77.0693 277.92 77.1013 277.654 77.08L277.222 77.048C276.368 76.984 275.739 76.728 275.334 76.28C274.928 75.832 274.726 75.1547 274.726 74.248V70.232H273.654C273.472 70.232 273.328 70.1893 273.222 70.104C273.126 70.008 273.078 69.8853 273.078 69.736C273.078 69.576 273.126 69.448 273.222 69.352C273.328 69.256 273.472 69.208 273.654 69.208H274.726V67.4C274.726 67.1973 274.784 67.0427 274.902 66.936C275.019 66.8187 275.179 66.76 275.382 66.76C275.574 66.76 275.728 66.8187 275.846 66.936C275.963 67.0427 276.022 67.1973 276.022 67.4V69.208H277.798C277.968 69.208 278.102 69.256 278.198 69.352C278.304 69.448 278.358 69.576 278.358 69.736C278.358 69.8853 278.304 70.008 278.198 70.104C278.102 70.1893 277.968 70.232 277.798 70.232H276.022V74.312C276.022 74.8987 276.139 75.3253 276.374 75.592C276.619 75.848 276.982 75.992 277.462 76.024L277.894 76.056ZM283.587 69.048C284.035 69.016 284.259 69.1973 284.259 69.592C284.259 69.7627 284.211 69.9013 284.115 70.008C284.019 70.104 283.854 70.1627 283.619 70.184L283.139 70.232C282.425 70.296 281.891 70.552 281.539 71C281.198 71.4373 281.027 71.9547 281.027 72.552V76.44C281.027 76.6533 280.969 76.8133 280.851 76.92C280.734 77.0267 280.579 77.08 280.387 77.08C280.195 77.08 280.035 77.0267 279.907 76.92C279.79 76.8027 279.731 76.6427 279.731 76.44V69.688C279.731 69.4853 279.795 69.3307 279.923 69.224C280.051 69.1067 280.206 69.048 280.387 69.048C280.558 69.048 280.702 69.1067 280.819 69.224C280.937 69.3307 280.995 69.48 280.995 69.672V70.568C281.219 70.0987 281.534 69.7413 281.939 69.496C282.355 69.2507 282.83 69.1067 283.363 69.064L283.587 69.048ZM288.448 77.112C287.712 77.112 287.061 76.9467 286.496 76.616C285.941 76.2853 285.509 75.816 285.2 75.208C284.901 74.5893 284.752 73.8747 284.752 73.064C284.752 72.2533 284.901 71.544 285.2 70.936C285.509 70.3173 285.941 69.8427 286.496 69.512C287.061 69.1813 287.712 69.016 288.448 69.016C289.184 69.016 289.834 69.1813 290.4 69.512C290.965 69.8427 291.397 70.3173 291.696 70.936C292.005 71.544 292.16 72.2533 292.16 73.064C292.16 73.8747 292.005 74.5893 291.696 75.208C291.397 75.816 290.965 76.2853 290.4 76.616C289.834 76.9467 289.184 77.112 288.448 77.112ZM288.448 76.04C289.216 76.04 289.802 75.7893 290.208 75.288C290.624 74.776 290.832 74.0347 290.832 73.064C290.832 72.1147 290.624 71.384 290.208 70.872C289.792 70.3493 289.205 70.088 288.448 70.088C287.69 70.088 287.104 70.3493 286.688 70.872C286.272 71.384 286.064 72.1147 286.064 73.064C286.064 74.024 286.266 74.76 286.672 75.272C287.088 75.784 287.68 76.04 288.448 76.04ZM294.747 77.08C294.555 77.08 294.395 77.0267 294.267 76.92C294.149 76.8027 294.091 76.6427 294.091 76.44V66.28C294.091 66.0773 294.149 65.9227 294.267 65.816C294.395 65.6987 294.555 65.64 294.747 65.64C294.928 65.64 295.077 65.6987 295.195 65.816C295.323 65.9227 295.387 66.0773 295.387 66.28V76.44C295.387 76.6427 295.323 76.8027 295.195 76.92C295.077 77.0267 294.928 77.08 294.747 77.08ZM298.449 77.08C298.193 77.08 297.98 77 297.809 76.84C297.639 76.6693 297.553 76.4507 297.553 76.184C297.553 75.9173 297.639 75.6987 297.809 75.528C297.98 75.3573 298.193 75.272 298.449 75.272C298.695 75.272 298.897 75.3573 299.057 75.528C299.228 75.6987 299.313 75.9173 299.313 76.184C299.313 76.4507 299.228 76.6693 299.057 76.84C298.897 77 298.695 77.08 298.449 77.08Z" fill="#242A4C"/>
    <defs>
    <filter id="filter0_ddd" x="0" y="21" width="441" height="113" filterUnits="userSpaceOnUse" color-interpolation-filters="sRGB">
    <feFlood flood-opacity="0" result="BackgroundImageFix"/>
    <feColorMatrix in="SourceAlpha" type="matrix" values="0 0 0 0 0 0 0 0 0 0 0 0 0 0 0 0 0 0 127 0"/>
    <feOffset/>
    <feGaussianBlur stdDeviation="0.5"/>
    <feColorMatrix type="matrix" values="0 0 0 0 0 0 0 0 0 0 0 0 0 0 0 0 0 0 0.04 0"/>
    <feBlend mode="normal" in2="BackgroundImageFix" result="effect1_dropShadow"/>
    <feColorMatrix in="SourceAlpha" type="matrix" values="0 0 0 0 0 0 0 0 0 0 0 0 0 0 0 0 0 0 127 0"/>
    <feOffset dy="2"/>
    <feGaussianBlur stdDeviation="3"/>
    <feColorMatrix type="matrix" values="0 0 0 0 0 0 0 0 0 0 0 0 0 0 0 0 0 0 0.04 0"/>
    <feBlend mode="normal" in2="effect1_dropShadow" result="effect2_dropShadow"/>
    <feColorMatrix in="SourceAlpha" type="matrix" values="0 0 0 0 0 0 0 0 0 0 0 0 0 0 0 0 0 0 127 0"/>
    <feOffset dy="16"/>
    <feGaussianBlur stdDeviation="12"/>
    <feColorMatrix type="matrix" values="0 0 0 0 0 0 0 0 0 0 0 0 0 0 0 0 0 0 0.06 0"/>
    <feBlend mode="normal" in2="effect2_dropShadow" result="effect3_dropShadow"/>
    <feBlend mode="normal" in="SourceGraphic" in2="effect3_dropShadow" result="shape"/>
    </filter>
    </defs>
    </svg>
