<svg width="290" height="264" viewBox="0 0 290 264" fill="none" xmlns="http://www.w3.org/2000/svg">
<rect width="290" height="264" fill="#E5E5E5"/>
<g clip-path="url(#clip0)">
<rect width="1440" height="5054" transform="translate(-164 -3021)" fill="#FFF8F5"/>
<g filter="url(#filter0_d)">
<rect x="11" y="8" width="252" height="226" rx="12" fill="white"/>
</g>
<path d="M64.6742 50.426C64.9342 50.8073 65.0642 51.18 65.0642 51.544C65.0642 52.0293 64.8648 52.428 64.4662 52.74C64.0848 53.052 63.6342 53.208 63.1142 53.208C62.7848 53.208 62.4642 53.13 62.1522 52.974C61.8402 52.818 61.5802 52.5753 61.3722 52.246L57.9402 47.15C57.6455 46.6993 57.3335 46.3787 57.0042 46.188C56.6748 45.98 56.2588 45.876 55.7562 45.876H53.6502V51.128C53.6502 51.752 53.4682 52.246 53.1042 52.61C52.7575 52.974 52.2808 53.156 51.6742 53.156C51.0502 53.156 50.5562 52.974 50.1922 52.61C49.8282 52.246 49.6462 51.752 49.6462 51.128V36.568C49.6462 35.9613 49.8108 35.4933 50.1402 35.164C50.4695 34.8347 50.9375 34.67 51.5442 34.67H58.0702C60.2195 34.67 61.8402 35.1467 62.9322 36.1C64.0415 37.036 64.5962 38.3967 64.5962 40.182C64.5962 41.586 64.2062 42.756 63.4262 43.692C62.6462 44.628 61.5455 45.2433 60.1242 45.538C60.6442 45.642 61.1035 45.85 61.5022 46.162C61.9182 46.4567 62.3168 46.89 62.6982 47.462L64.6742 50.426ZM57.4722 42.808C58.6335 42.808 59.4742 42.6087 59.9942 42.21C60.5142 41.794 60.7742 41.1527 60.7742 40.286C60.7742 39.402 60.5142 38.7607 59.9942 38.362C59.4742 37.9633 58.6335 37.764 57.4722 37.764H53.5982V42.808H57.4722ZM77.8086 49.204C78.1553 49.204 78.4326 49.3427 78.6406 49.62C78.866 49.8973 78.9786 50.2527 78.9786 50.686C78.9786 50.9807 78.892 51.258 78.7186 51.518C78.5453 51.7607 78.3026 51.9687 77.9906 52.142C77.4013 52.454 76.7166 52.714 75.9366 52.922C75.1566 53.1127 74.4373 53.208 73.7786 53.208C72.392 53.208 71.1786 52.9393 70.1386 52.402C69.116 51.8647 68.3273 51.102 67.7726 50.114C67.218 49.1087 66.9406 47.93 66.9406 46.578C66.9406 45.278 67.2093 44.1253 67.7466 43.12C68.284 42.1147 69.0293 41.3347 69.9826 40.78C70.936 40.208 72.0193 39.922 73.2326 39.922C74.394 39.922 75.408 40.182 76.2746 40.702C77.1586 41.2047 77.8433 41.9327 78.3286 42.886C78.814 43.822 79.0566 44.9227 79.0566 46.188C79.0566 46.5693 78.9613 46.864 78.7706 47.072C78.5973 47.2627 78.346 47.358 78.0166 47.358H70.7366C70.858 48.3807 71.17 49.126 71.6726 49.594C72.1753 50.0447 72.8946 50.27 73.8306 50.27C74.3333 50.27 74.784 50.2093 75.1826 50.088C75.5813 49.9667 76.0233 49.802 76.5086 49.594C76.7513 49.49 76.9853 49.4033 77.2106 49.334C77.436 49.2473 77.6353 49.204 77.8086 49.204ZM73.3366 42.626C72.5913 42.626 71.9933 42.8687 71.5426 43.354C71.092 43.822 70.8233 44.5067 70.7366 45.408H75.7546C75.7026 44.4893 75.4686 43.796 75.0526 43.328C74.654 42.86 74.082 42.626 73.3366 42.626ZM89.884 41.092C90.0573 40.728 90.2827 40.4593 90.56 40.286C90.8547 40.0953 91.1667 40 91.496 40C91.9813 40 92.4147 40.1647 92.796 40.494C93.1773 40.806 93.368 41.1873 93.368 41.638C93.368 41.898 93.3073 42.1493 93.186 42.392L88.506 51.986C88.3327 52.3673 88.0727 52.662 87.726 52.87C87.3793 53.0607 87.0067 53.156 86.608 53.156C86.2093 53.156 85.8367 53.0607 85.49 52.87C85.1433 52.662 84.8747 52.3673 84.684 51.986L80.004 42.392C79.9 42.1493 79.848 41.9153 79.848 41.69C79.848 41.222 80.0473 40.8233 80.446 40.494C80.862 40.1647 81.3213 40 81.824 40C82.188 40 82.5173 40.0953 82.812 40.286C83.1067 40.4593 83.3407 40.728 83.514 41.092L86.712 48.086L89.884 41.092ZM100.945 53.208C99.5928 53.208 98.4054 52.9393 97.3828 52.402C96.3601 51.8473 95.5714 51.076 95.0168 50.088C94.4621 49.0827 94.1848 47.904 94.1848 46.552C94.1848 45.2 94.4621 44.03 95.0168 43.042C95.5714 42.0367 96.3601 41.2653 97.3828 40.728C98.4054 40.1907 99.5928 39.922 100.945 39.922C102.297 39.922 103.484 40.1907 104.507 40.728C105.529 41.2653 106.318 42.0367 106.873 43.042C107.427 44.03 107.705 45.2 107.705 46.552C107.705 47.904 107.427 49.0827 106.873 50.088C106.318 51.076 105.529 51.8473 104.507 52.402C103.484 52.9393 102.297 53.208 100.945 53.208ZM100.945 50.218C102.851 50.218 103.805 48.996 103.805 46.552C103.805 45.3213 103.553 44.4027 103.051 43.796C102.565 43.1893 101.863 42.886 100.945 42.886C99.0381 42.886 98.0848 44.108 98.0848 46.552C98.0848 48.996 99.0381 50.218 100.945 50.218ZM122.132 49.958C122.531 50.3393 122.73 50.7727 122.73 51.258C122.73 51.7433 122.548 52.1767 122.184 52.558C121.837 52.9393 121.43 53.13 120.962 53.13C120.511 53.13 120.095 52.948 119.714 52.584L114.02 47.306V51.284C114.02 51.8907 113.829 52.35 113.448 52.662C113.084 52.974 112.625 53.13 112.07 53.13C111.498 53.13 111.021 52.974 110.64 52.662C110.276 52.35 110.094 51.8907 110.094 51.284V36.386C110.094 35.7793 110.276 35.32 110.64 35.008C111.021 34.696 111.498 34.54 112.07 34.54C112.625 34.54 113.084 34.696 113.448 35.008C113.829 35.32 114.02 35.7793 114.02 36.386V45.694L119.22 40.572C119.601 40.1907 120.026 40 120.494 40C120.979 40 121.404 40.182 121.768 40.546C122.132 40.8927 122.314 41.3087 122.314 41.794C122.314 42.2447 122.115 42.6693 121.716 43.068L118.258 46.37L122.132 49.958ZM134.709 49.204C135.056 49.204 135.333 49.3427 135.541 49.62C135.766 49.8973 135.879 50.2527 135.879 50.686C135.879 50.9807 135.792 51.258 135.619 51.518C135.446 51.7607 135.203 51.9687 134.891 52.142C134.302 52.454 133.617 52.714 132.837 52.922C132.057 53.1127 131.338 53.208 130.679 53.208C129.292 53.208 128.079 52.9393 127.039 52.402C126.016 51.8647 125.228 51.102 124.673 50.114C124.118 49.1087 123.841 47.93 123.841 46.578C123.841 45.278 124.11 44.1253 124.647 43.12C125.184 42.1147 125.93 41.3347 126.883 40.78C127.836 40.208 128.92 39.922 130.133 39.922C131.294 39.922 132.308 40.182 133.175 40.702C134.059 41.2047 134.744 41.9327 135.229 42.886C135.714 43.822 135.957 44.9227 135.957 46.188C135.957 46.5693 135.862 46.864 135.671 47.072C135.498 47.2627 135.246 47.358 134.917 47.358H127.637C127.758 48.3807 128.07 49.126 128.573 49.594C129.076 50.0447 129.795 50.27 130.731 50.27C131.234 50.27 131.684 50.2093 132.083 50.088C132.482 49.9667 132.924 49.802 133.409 49.594C133.652 49.49 133.886 49.4033 134.111 49.334C134.336 49.2473 134.536 49.204 134.709 49.204ZM130.237 42.626C129.492 42.626 128.894 42.8687 128.443 43.354C127.992 43.822 127.724 44.5067 127.637 45.408H132.655C132.603 44.4893 132.369 43.796 131.953 43.328C131.554 42.86 130.982 42.626 130.237 42.626ZM151.336 39.922C153.208 39.922 154.595 40.3813 155.496 41.3C156.397 42.2013 156.848 43.588 156.848 45.46V51.336C156.848 51.908 156.683 52.3587 156.354 52.688C156.025 53 155.565 53.156 154.976 53.156C154.421 53.156 153.971 52.9913 153.624 52.662C153.295 52.3153 153.13 51.8733 153.13 51.336V51.154C152.87 51.7953 152.437 52.298 151.83 52.662C151.223 53.026 150.513 53.208 149.698 53.208C148.831 53.208 148.043 53.0347 147.332 52.688C146.639 52.3413 146.084 51.856 145.668 51.232C145.269 50.608 145.07 49.9147 145.07 49.152C145.07 48.216 145.304 47.4793 145.772 46.942C146.257 46.4047 147.029 46.0147 148.086 45.772C149.143 45.5293 150.591 45.408 152.428 45.408H153.104V44.94C153.104 44.212 152.939 43.6833 152.61 43.354C152.298 43.0247 151.769 42.86 151.024 42.86C150.279 42.86 149.204 43.12 147.8 43.64C147.401 43.8307 147.063 43.926 146.786 43.926C146.405 43.926 146.101 43.796 145.876 43.536C145.651 43.2587 145.538 42.9033 145.538 42.47C145.538 42.1233 145.616 41.8373 145.772 41.612C145.928 41.3867 146.179 41.1787 146.526 40.988C147.133 40.6587 147.869 40.3987 148.736 40.208C149.62 40.0173 150.487 39.922 151.336 39.922ZM150.556 50.504C151.319 50.504 151.934 50.2527 152.402 49.75C152.87 49.23 153.104 48.5627 153.104 47.748V47.306H152.662C151.258 47.306 150.27 47.4187 149.698 47.644C149.143 47.8693 148.866 48.2767 148.866 48.866C148.866 49.3513 149.022 49.75 149.334 50.062C149.663 50.3567 150.071 50.504 150.556 50.504ZM165.685 53.208C164.368 53.208 163.215 52.9393 162.227 52.402C161.239 51.8647 160.477 51.102 159.939 50.114C159.419 49.126 159.159 47.9647 159.159 46.63C159.159 45.2953 159.437 44.1253 159.991 43.12C160.563 42.0973 161.361 41.3087 162.383 40.754C163.406 40.1993 164.585 39.922 165.919 39.922C166.613 39.922 167.306 40.0173 167.999 40.208C168.71 40.3987 169.343 40.6673 169.897 41.014C170.435 41.3433 170.703 41.8287 170.703 42.47C170.703 42.9207 170.599 43.2933 170.391 43.588C170.183 43.8653 169.906 44.004 169.559 44.004C169.334 44.004 169.117 43.9693 168.909 43.9C168.719 43.8133 168.459 43.692 168.129 43.536C167.765 43.3453 167.436 43.198 167.141 43.094C166.864 42.99 166.543 42.938 166.179 42.938C165.209 42.938 164.463 43.25 163.943 43.874C163.441 44.4807 163.189 45.3733 163.189 46.552C163.189 47.7307 163.441 48.632 163.943 49.256C164.463 49.88 165.209 50.192 166.179 50.192C166.543 50.192 166.864 50.1487 167.141 50.062C167.419 49.958 167.757 49.802 168.155 49.594C168.485 49.438 168.745 49.3253 168.935 49.256C169.126 49.1693 169.334 49.126 169.559 49.126C169.889 49.126 170.157 49.2733 170.365 49.568C170.591 49.8627 170.703 50.2353 170.703 50.686C170.703 51.3273 170.435 51.804 169.897 52.116C169.343 52.4627 168.701 52.7313 167.973 52.922C167.245 53.1127 166.483 53.208 165.685 53.208ZM178.533 53.208C177.216 53.208 176.063 52.9393 175.075 52.402C174.087 51.8647 173.324 51.102 172.787 50.114C172.267 49.126 172.007 47.9647 172.007 46.63C172.007 45.2953 172.284 44.1253 172.839 43.12C173.411 42.0973 174.208 41.3087 175.231 40.754C176.254 40.1993 177.432 39.922 178.767 39.922C179.46 39.922 180.154 40.0173 180.847 40.208C181.558 40.3987 182.19 40.6673 182.745 41.014C183.282 41.3433 183.551 41.8287 183.551 42.47C183.551 42.9207 183.447 43.2933 183.239 43.588C183.031 43.8653 182.754 44.004 182.407 44.004C182.182 44.004 181.965 43.9693 181.757 43.9C181.566 43.8133 181.306 43.692 180.977 43.536C180.613 43.3453 180.284 43.198 179.989 43.094C179.712 42.99 179.391 42.938 179.027 42.938C178.056 42.938 177.311 43.25 176.791 43.874C176.288 44.4807 176.037 45.3733 176.037 46.552C176.037 47.7307 176.288 48.632 176.791 49.256C177.311 49.88 178.056 50.192 179.027 50.192C179.391 50.192 179.712 50.1487 179.989 50.062C180.266 49.958 180.604 49.802 181.003 49.594C181.332 49.438 181.592 49.3253 181.783 49.256C181.974 49.1693 182.182 49.126 182.407 49.126C182.736 49.126 183.005 49.2733 183.213 49.568C183.438 49.8627 183.551 50.2353 183.551 50.686C183.551 51.3273 183.282 51.804 182.745 52.116C182.19 52.4627 181.549 52.7313 180.821 52.922C180.093 53.1127 179.33 53.208 178.533 53.208ZM195.723 49.204C196.069 49.204 196.347 49.3427 196.555 49.62C196.78 49.8973 196.893 50.2527 196.893 50.686C196.893 50.9807 196.806 51.258 196.633 51.518C196.459 51.7607 196.217 51.9687 195.905 52.142C195.315 52.454 194.631 52.714 193.851 52.922C193.071 53.1127 192.351 53.208 191.693 53.208C190.306 53.208 189.093 52.9393 188.053 52.402C187.03 51.8647 186.241 51.102 185.687 50.114C185.132 49.1087 184.855 47.93 184.855 46.578C184.855 45.278 185.123 44.1253 185.661 43.12C186.198 42.1147 186.943 41.3347 187.897 40.78C188.85 40.208 189.933 39.922 191.147 39.922C192.308 39.922 193.322 40.182 194.189 40.702C195.073 41.2047 195.757 41.9327 196.243 42.886C196.728 43.822 196.971 44.9227 196.971 46.188C196.971 46.5693 196.875 46.864 196.685 47.072C196.511 47.2627 196.26 47.358 195.931 47.358H188.651C188.772 48.3807 189.084 49.126 189.587 49.594C190.089 50.0447 190.809 50.27 191.745 50.27C192.247 50.27 192.698 50.2093 193.097 50.088C193.495 49.9667 193.937 49.802 194.423 49.594C194.665 49.49 194.899 49.4033 195.125 49.334C195.35 49.2473 195.549 49.204 195.723 49.204ZM191.251 42.626C190.505 42.626 189.907 42.8687 189.457 43.354C189.006 43.822 188.737 44.5067 188.651 45.408H193.669C193.617 44.4893 193.383 43.796 192.967 43.328C192.568 42.86 191.996 42.626 191.251 42.626ZM204.178 53.208C203.121 53.208 202.202 53.1213 201.422 52.948C200.642 52.7747 199.957 52.4973 199.368 52.116C199.108 51.96 198.909 51.752 198.77 51.492C198.631 51.232 198.562 50.9373 198.562 50.608C198.562 50.2093 198.675 49.88 198.9 49.62C199.125 49.3427 199.403 49.204 199.732 49.204C199.957 49.204 200.183 49.2473 200.408 49.334C200.633 49.4033 200.867 49.49 201.11 49.594C201.595 49.8193 202.072 50.0013 202.54 50.14C203.008 50.2613 203.589 50.322 204.282 50.322C204.889 50.322 205.357 50.2267 205.686 50.036C206.033 49.8453 206.206 49.5853 206.206 49.256C206.206 49.0133 206.128 48.8227 205.972 48.684C205.833 48.528 205.565 48.3893 205.166 48.268C204.767 48.1467 204.135 47.9993 203.268 47.826C201.725 47.5313 200.616 47.0893 199.94 46.5C199.264 45.9107 198.926 45.0873 198.926 44.03C198.926 43.25 199.16 42.548 199.628 41.924C200.113 41.3 200.772 40.8147 201.604 40.468C202.436 40.104 203.372 39.922 204.412 39.922C205.157 39.922 205.885 40.0173 206.596 40.208C207.307 40.3987 207.939 40.6673 208.494 41.014C209.031 41.3433 209.3 41.8287 209.3 42.47C209.3 42.886 209.187 43.2327 208.962 43.51C208.737 43.7873 208.459 43.926 208.13 43.926C207.731 43.926 207.255 43.77 206.7 43.458C206.267 43.2327 205.868 43.068 205.504 42.964C205.157 42.8427 204.741 42.782 204.256 42.782C203.719 42.782 203.294 42.886 202.982 43.094C202.67 43.2847 202.514 43.5533 202.514 43.9C202.514 44.264 202.696 44.5413 203.06 44.732C203.424 44.9227 204.126 45.1133 205.166 45.304C206.327 45.5293 207.237 45.8067 207.896 46.136C208.555 46.448 209.031 46.8467 209.326 47.332C209.621 47.8173 209.768 48.4327 209.768 49.178C209.768 50.4087 209.257 51.388 208.234 52.116C207.229 52.844 205.877 53.208 204.178 53.208ZM216.848 53.208C215.791 53.208 214.872 53.1213 214.092 52.948C213.312 52.7747 212.627 52.4973 212.038 52.116C211.778 51.96 211.579 51.752 211.44 51.492C211.301 51.232 211.232 50.9373 211.232 50.608C211.232 50.2093 211.345 49.88 211.57 49.62C211.795 49.3427 212.073 49.204 212.402 49.204C212.627 49.204 212.853 49.2473 213.078 49.334C213.303 49.4033 213.537 49.49 213.78 49.594C214.265 49.8193 214.742 50.0013 215.21 50.14C215.678 50.2613 216.259 50.322 216.952 50.322C217.559 50.322 218.027 50.2267 218.356 50.036C218.703 49.8453 218.876 49.5853 218.876 49.256C218.876 49.0133 218.798 48.8227 218.642 48.684C218.503 48.528 218.235 48.3893 217.836 48.268C217.437 48.1467 216.805 47.9993 215.938 47.826C214.395 47.5313 213.286 47.0893 212.61 46.5C211.934 45.9107 211.596 45.0873 211.596 44.03C211.596 43.25 211.83 42.548 212.298 41.924C212.783 41.3 213.442 40.8147 214.274 40.468C215.106 40.104 216.042 39.922 217.082 39.922C217.827 39.922 218.555 40.0173 219.266 40.208C219.977 40.3987 220.609 40.6673 221.164 41.014C221.701 41.3433 221.97 41.8287 221.97 42.47C221.97 42.886 221.857 43.2327 221.632 43.51C221.407 43.7873 221.129 43.926 220.8 43.926C220.401 43.926 219.925 43.77 219.37 43.458C218.937 43.2327 218.538 43.068 218.174 42.964C217.827 42.8427 217.411 42.782 216.926 42.782C216.389 42.782 215.964 42.886 215.652 43.094C215.34 43.2847 215.184 43.5533 215.184 43.9C215.184 44.264 215.366 44.5413 215.73 44.732C216.094 44.9227 216.796 45.1133 217.836 45.304C218.997 45.5293 219.907 45.8067 220.566 46.136C221.225 46.448 221.701 46.8467 221.996 47.332C222.291 47.8173 222.438 48.4327 222.438 49.178C222.438 50.4087 221.927 51.388 220.904 52.116C219.899 52.844 218.547 53.208 216.848 53.208Z" fill="#242C57"/>
<path d="M68.3762 106.184C66.8275 106.184 65.4782 105.854 64.3282 105.195C63.1782 104.52 62.2965 103.562 61.6832 102.32C61.0699 101.063 60.7632 99.583 60.7632 97.881C60.7632 96.1943 61.0699 94.73 61.6832 93.488C62.2965 92.2307 63.1782 91.2723 64.3282 90.613C65.4782 89.9383 66.8275 89.601 68.3762 89.601C69.3882 89.601 70.3465 89.762 71.2512 90.084C72.1559 90.3907 72.9455 90.843 73.6202 91.441C73.9115 91.671 74.0572 91.9777 74.0572 92.361C74.0572 92.637 73.9805 92.8747 73.8272 93.074C73.6739 93.258 73.4899 93.35 73.2752 93.35C73.0145 93.35 72.7615 93.2503 72.5162 93.051C71.7802 92.499 71.1055 92.1157 70.4922 91.901C69.8942 91.671 69.2119 91.556 68.4452 91.556C66.7585 91.556 65.4629 92.1003 64.5582 93.189C63.6535 94.2777 63.2012 95.8417 63.2012 97.881C63.2012 99.9357 63.6535 101.507 64.5582 102.596C65.4629 103.685 66.7585 104.229 68.4452 104.229C69.1812 104.229 69.8482 104.114 70.4462 103.884C71.0595 103.654 71.7495 103.271 72.5162 102.734C72.8229 102.535 73.0759 102.435 73.2752 102.435C73.4899 102.435 73.6739 102.535 73.8272 102.734C73.9805 102.918 74.0572 103.148 74.0572 103.424C74.0572 103.807 73.9115 104.114 73.6202 104.344C72.9455 104.942 72.1559 105.402 71.2512 105.724C70.3465 106.031 69.3882 106.184 68.3762 106.184ZM82.6766 94.5C85.3446 94.5 86.6786 96.0103 86.6786 99.031V105.011C86.6786 105.348 86.5713 105.617 86.3566 105.816C86.142 106.015 85.8583 106.115 85.5056 106.115C85.153 106.115 84.8693 106.015 84.6546 105.816C84.4553 105.617 84.3556 105.348 84.3556 105.011V99.054C84.3556 98.134 84.164 97.4593 83.7806 97.03C83.4126 96.6007 82.83 96.386 82.0326 96.386C81.0973 96.386 80.346 96.6773 79.7786 97.26C79.2113 97.8427 78.9276 98.6247 78.9276 99.606V105.011C78.9276 105.348 78.8203 105.617 78.6056 105.816C78.4063 106.015 78.1303 106.115 77.7776 106.115C77.425 106.115 77.1413 106.015 76.9266 105.816C76.712 105.617 76.6046 105.348 76.6046 105.011V90.774C76.6046 90.4367 76.712 90.1683 76.9266 89.969C77.1566 89.7697 77.448 89.67 77.8006 89.67C78.138 89.67 78.4063 89.7697 78.6056 89.969C78.8203 90.153 78.9276 90.406 78.9276 90.728V96.478C79.311 95.834 79.8246 95.3433 80.4686 95.006C81.1126 94.6687 81.8486 94.5 82.6766 94.5ZM94.7326 106.161C93.6286 106.161 92.6549 105.923 91.8116 105.448C90.9836 104.973 90.3396 104.298 89.8796 103.424C89.4349 102.535 89.2126 101.507 89.2126 100.342C89.2126 99.1613 89.4349 98.134 89.8796 97.26C90.3396 96.3707 90.9836 95.6883 91.8116 95.213C92.6549 94.7377 93.6286 94.5 94.7326 94.5C95.8366 94.5 96.8026 94.7377 97.6306 95.213C98.4739 95.6883 99.1179 96.3707 99.5626 97.26C100.023 98.134 100.253 99.1613 100.253 100.342C100.253 101.507 100.023 102.535 99.5626 103.424C99.1179 104.298 98.4739 104.973 97.6306 105.448C96.8026 105.923 95.8366 106.161 94.7326 106.161ZM94.7326 104.321C95.7599 104.321 96.5419 103.984 97.0786 103.309C97.6306 102.634 97.9066 101.645 97.9066 100.342C97.9066 99.054 97.6306 98.0727 97.0786 97.398C96.5266 96.708 95.7446 96.363 94.7326 96.363C93.7206 96.363 92.9386 96.708 92.3866 97.398C91.8346 98.0727 91.5586 99.054 91.5586 100.342C91.5586 101.645 91.8269 102.634 92.3636 103.309C92.9156 103.984 93.7052 104.321 94.7326 104.321ZM107.715 106.161C106.611 106.161 105.637 105.923 104.794 105.448C103.966 104.973 103.322 104.298 102.862 103.424C102.417 102.535 102.195 101.507 102.195 100.342C102.195 99.1613 102.417 98.134 102.862 97.26C103.322 96.3707 103.966 95.6883 104.794 95.213C105.637 94.7377 106.611 94.5 107.715 94.5C108.819 94.5 109.785 94.7377 110.613 95.213C111.456 95.6883 112.1 96.3707 112.545 97.26C113.005 98.134 113.235 99.1613 113.235 100.342C113.235 101.507 113.005 102.535 112.545 103.424C112.1 104.298 111.456 104.973 110.613 105.448C109.785 105.923 108.819 106.161 107.715 106.161ZM107.715 104.321C108.742 104.321 109.524 103.984 110.061 103.309C110.613 102.634 110.889 101.645 110.889 100.342C110.889 99.054 110.613 98.0727 110.061 97.398C109.509 96.708 108.727 96.363 107.715 96.363C106.703 96.363 105.921 96.708 105.369 97.398C104.817 98.0727 104.541 99.054 104.541 100.342C104.541 101.645 104.809 102.634 105.346 103.309C105.898 103.984 106.688 104.321 107.715 104.321ZM119.731 106.161C118.167 106.161 116.887 105.839 115.89 105.195C115.614 105.026 115.415 104.85 115.292 104.666C115.185 104.482 115.131 104.275 115.131 104.045C115.131 103.8 115.2 103.593 115.338 103.424C115.476 103.255 115.653 103.171 115.867 103.171C116.067 103.171 116.381 103.294 116.81 103.539C117.27 103.784 117.715 103.984 118.144 104.137C118.589 104.29 119.141 104.367 119.8 104.367C120.536 104.367 121.111 104.237 121.525 103.976C121.939 103.715 122.146 103.347 122.146 102.872C122.146 102.565 122.062 102.32 121.893 102.136C121.74 101.952 121.464 101.791 121.065 101.653C120.667 101.5 120.076 101.339 119.294 101.17C117.945 100.879 116.971 100.488 116.373 99.997C115.791 99.491 115.499 98.8087 115.499 97.95C115.499 97.2907 115.691 96.7003 116.074 96.179C116.458 95.6423 116.987 95.2283 117.661 94.937C118.336 94.6457 119.103 94.5 119.961 94.5C120.575 94.5 121.173 94.5843 121.755 94.753C122.338 94.9063 122.852 95.1363 123.296 95.443C123.802 95.7803 124.055 96.1713 124.055 96.616C124.055 96.8613 123.979 97.0683 123.825 97.237C123.687 97.4057 123.519 97.49 123.319 97.49C123.181 97.49 123.043 97.4593 122.905 97.398C122.767 97.3367 122.583 97.237 122.353 97.099C121.939 96.8537 121.548 96.662 121.18 96.524C120.828 96.386 120.383 96.317 119.846 96.317C119.202 96.317 118.681 96.455 118.282 96.731C117.899 97.007 117.707 97.3827 117.707 97.858C117.707 98.2873 117.884 98.6247 118.236 98.87C118.604 99.1 119.287 99.3223 120.283 99.537C121.311 99.7517 122.116 99.997 122.698 100.273C123.281 100.549 123.695 100.894 123.94 101.308C124.201 101.707 124.331 102.22 124.331 102.849C124.331 103.846 123.91 104.651 123.066 105.264C122.238 105.862 121.127 106.161 119.731 106.161ZM135.703 103.171C135.918 103.171 136.094 103.255 136.232 103.424C136.37 103.593 136.439 103.807 136.439 104.068C136.439 104.513 136.163 104.888 135.611 105.195C135.074 105.502 134.484 105.739 133.84 105.908C133.211 106.077 132.606 106.161 132.023 106.161C130.244 106.161 128.841 105.647 127.814 104.62C126.787 103.577 126.273 102.159 126.273 100.365C126.273 99.215 126.495 98.1953 126.94 97.306C127.4 96.4167 128.036 95.7267 128.849 95.236C129.677 94.7453 130.612 94.5 131.655 94.5C133.158 94.5 134.346 94.983 135.22 95.949C136.094 96.915 136.531 98.2183 136.531 99.859C136.531 100.472 136.255 100.779 135.703 100.779H128.596C128.749 103.156 129.892 104.344 132.023 104.344C132.59 104.344 133.081 104.267 133.495 104.114C133.909 103.961 134.346 103.761 134.806 103.516C134.852 103.485 134.975 103.424 135.174 103.332C135.389 103.225 135.565 103.171 135.703 103.171ZM131.701 96.202C130.812 96.202 130.099 96.4857 129.562 97.053C129.025 97.6203 128.703 98.4177 128.596 99.445H134.53C134.484 98.4023 134.216 97.605 133.725 97.053C133.25 96.4857 132.575 96.202 131.701 96.202ZM160.427 95.259C160.596 94.799 160.91 94.569 161.37 94.569C161.662 94.569 161.922 94.6687 162.152 94.868C162.382 95.0673 162.497 95.3127 162.497 95.604C162.497 95.7573 162.467 95.8953 162.405 96.018L158.587 105.333C158.495 105.578 158.342 105.77 158.127 105.908C157.913 106.031 157.675 106.092 157.414 106.092C157.169 106.092 156.939 106.031 156.724 105.908C156.51 105.77 156.356 105.578 156.264 105.333L153.274 97.95L150.353 105.333C150.261 105.578 150.108 105.77 149.893 105.908C149.694 106.031 149.464 106.092 149.203 106.092C148.958 106.092 148.72 106.031 148.49 105.908C148.276 105.77 148.115 105.578 148.007 105.333L144.212 96.018C144.151 95.8953 144.12 95.765 144.12 95.627C144.12 95.3203 144.243 95.0673 144.488 94.868C144.749 94.6687 145.033 94.569 145.339 94.569C145.799 94.569 146.114 94.7913 146.282 95.236L149.249 103.079L152.285 95.305C152.377 95.0597 152.523 94.8757 152.722 94.753C152.922 94.6303 153.136 94.569 153.366 94.569C153.581 94.569 153.788 94.6303 153.987 94.753C154.187 94.8757 154.332 95.0597 154.424 95.305L157.46 103.033L160.427 95.259ZM171.06 94.5C173.728 94.5 175.062 96.0103 175.062 99.031V105.011C175.062 105.348 174.955 105.617 174.74 105.816C174.526 106.015 174.242 106.115 173.889 106.115C173.537 106.115 173.253 106.015 173.038 105.816C172.839 105.617 172.739 105.348 172.739 105.011V99.054C172.739 98.134 172.548 97.4593 172.164 97.03C171.796 96.6007 171.214 96.386 170.416 96.386C169.481 96.386 168.73 96.6773 168.162 97.26C167.595 97.8427 167.311 98.6247 167.311 99.606V105.011C167.311 105.348 167.204 105.617 166.989 105.816C166.79 106.015 166.514 106.115 166.161 106.115C165.809 106.115 165.525 106.015 165.31 105.816C165.096 105.617 164.988 105.348 164.988 105.011V90.774C164.988 90.4367 165.096 90.1683 165.31 89.969C165.54 89.7697 165.832 89.67 166.184 89.67C166.522 89.67 166.79 89.7697 166.989 89.969C167.204 90.153 167.311 90.406 167.311 90.728V96.478C167.695 95.834 168.208 95.3433 168.852 95.006C169.496 94.6687 170.232 94.5 171.06 94.5ZM179.413 106.115C179.076 106.115 178.792 106.023 178.562 105.839C178.348 105.655 178.24 105.379 178.24 105.011V95.673C178.24 95.305 178.348 95.029 178.562 94.845C178.792 94.6457 179.076 94.546 179.413 94.546C179.751 94.546 180.027 94.6457 180.241 94.845C180.456 95.029 180.563 95.305 180.563 95.673V105.011C180.563 105.379 180.456 105.655 180.241 105.839C180.027 106.023 179.751 106.115 179.413 106.115ZM179.413 92.292C178.969 92.292 178.616 92.1693 178.355 91.924C178.095 91.6787 177.964 91.3567 177.964 90.958C177.964 90.5593 178.095 90.245 178.355 90.015C178.616 89.7697 178.969 89.647 179.413 89.647C179.843 89.647 180.188 89.7697 180.448 90.015C180.724 90.245 180.862 90.5593 180.862 90.958C180.862 91.3567 180.732 91.6787 180.471 91.924C180.211 92.1693 179.858 92.292 179.413 92.292ZM188.618 106.161C187.529 106.161 186.571 105.923 185.743 105.448C184.93 104.973 184.294 104.298 183.834 103.424C183.389 102.55 183.167 101.538 183.167 100.388C183.167 99.2227 183.397 98.1953 183.857 97.306C184.332 96.4167 184.991 95.7267 185.835 95.236C186.678 94.7453 187.644 94.5 188.733 94.5C189.315 94.5 189.898 94.5843 190.481 94.753C191.079 94.9217 191.608 95.1517 192.068 95.443C192.558 95.7803 192.804 96.1713 192.804 96.616C192.804 96.8767 192.735 97.099 192.597 97.283C192.459 97.4517 192.282 97.536 192.068 97.536C191.93 97.536 191.792 97.5053 191.654 97.444C191.516 97.3673 191.339 97.26 191.125 97.122C190.741 96.8767 190.381 96.6927 190.044 96.57C189.722 96.432 189.331 96.363 188.871 96.363C187.828 96.363 187.015 96.7157 186.433 97.421C185.865 98.1263 185.582 99.1077 185.582 100.365C185.582 101.622 185.865 102.596 186.433 103.286C187 103.961 187.805 104.298 188.848 104.298C189.308 104.298 189.714 104.229 190.067 104.091C190.419 103.953 190.78 103.769 191.148 103.539C191.316 103.432 191.485 103.34 191.654 103.263C191.822 103.186 191.976 103.148 192.114 103.148C192.328 103.148 192.505 103.24 192.643 103.424C192.781 103.593 192.85 103.807 192.85 104.068C192.85 104.283 192.788 104.482 192.666 104.666C192.558 104.835 192.367 105.011 192.091 105.195C191.631 105.502 191.094 105.739 190.481 105.908C189.867 106.077 189.246 106.161 188.618 106.161ZM201.001 94.5C203.669 94.5 205.003 96.0103 205.003 99.031V105.011C205.003 105.348 204.896 105.617 204.681 105.816C204.466 106.015 204.183 106.115 203.83 106.115C203.477 106.115 203.194 106.015 202.979 105.816C202.78 105.617 202.68 105.348 202.68 105.011V99.054C202.68 98.134 202.488 97.4593 202.105 97.03C201.737 96.6007 201.154 96.386 200.357 96.386C199.422 96.386 198.67 96.6773 198.103 97.26C197.536 97.8427 197.252 98.6247 197.252 99.606V105.011C197.252 105.348 197.145 105.617 196.93 105.816C196.731 106.015 196.455 106.115 196.102 106.115C195.749 106.115 195.466 106.015 195.251 105.816C195.036 105.617 194.929 105.348 194.929 105.011V90.774C194.929 90.4367 195.036 90.1683 195.251 89.969C195.481 89.7697 195.772 89.67 196.125 89.67C196.462 89.67 196.731 89.7697 196.93 89.969C197.145 90.153 197.252 90.406 197.252 90.728V96.478C197.635 95.834 198.149 95.3433 198.793 95.006C199.437 94.6687 200.173 94.5 201.001 94.5ZM62.084 137.161C60.9953 137.161 60.037 136.923 59.209 136.448C58.3963 135.973 57.76 135.298 57.3 134.424C56.8553 133.55 56.633 132.538 56.633 131.388C56.633 130.223 56.863 129.195 57.323 128.306C57.7983 127.417 58.4577 126.727 59.301 126.236C60.1443 125.745 61.1103 125.5 62.199 125.5C62.7817 125.5 63.3643 125.584 63.947 125.753C64.545 125.922 65.074 126.152 65.534 126.443C66.0247 126.78 66.27 127.171 66.27 127.616C66.27 127.877 66.201 128.099 66.063 128.283C65.925 128.452 65.7487 128.536 65.534 128.536C65.396 128.536 65.258 128.505 65.12 128.444C64.982 128.367 64.8057 128.26 64.591 128.122C64.2077 127.877 63.8473 127.693 63.51 127.57C63.188 127.432 62.797 127.363 62.337 127.363C61.2943 127.363 60.4817 127.716 59.899 128.421C59.3317 129.126 59.048 130.108 59.048 131.365C59.048 132.622 59.3317 133.596 59.899 134.286C60.4663 134.961 61.2713 135.298 62.314 135.298C62.774 135.298 63.1803 135.229 63.533 135.091C63.8857 134.953 64.246 134.769 64.614 134.539C64.7827 134.432 64.9513 134.34 65.12 134.263C65.2887 134.186 65.442 134.148 65.58 134.148C65.7947 134.148 65.971 134.24 66.109 134.424C66.247 134.593 66.316 134.807 66.316 135.068C66.316 135.283 66.2547 135.482 66.132 135.666C66.0247 135.835 65.833 136.011 65.557 136.195C65.097 136.502 64.5603 136.739 63.947 136.908C63.3337 137.077 62.7127 137.161 62.084 137.161ZM73.2712 137.161C72.1672 137.161 71.1935 136.923 70.3502 136.448C69.5222 135.973 68.8782 135.298 68.4182 134.424C67.9735 133.535 67.7512 132.507 67.7512 131.342C67.7512 130.161 67.9735 129.134 68.4182 128.26C68.8782 127.371 69.5222 126.688 70.3502 126.213C71.1935 125.738 72.1672 125.5 73.2712 125.5C74.3752 125.5 75.3412 125.738 76.1692 126.213C77.0125 126.688 77.6565 127.371 78.1012 128.26C78.5612 129.134 78.7912 130.161 78.7912 131.342C78.7912 132.507 78.5612 133.535 78.1012 134.424C77.6565 135.298 77.0125 135.973 76.1692 136.448C75.3412 136.923 74.3752 137.161 73.2712 137.161ZM73.2712 135.321C74.2985 135.321 75.0805 134.984 75.6172 134.309C76.1692 133.634 76.4452 132.645 76.4452 131.342C76.4452 130.054 76.1692 129.073 75.6172 128.398C75.0652 127.708 74.2832 127.363 73.2712 127.363C72.2592 127.363 71.4772 127.708 70.9252 128.398C70.3732 129.073 70.0972 130.054 70.0972 131.342C70.0972 132.645 70.3655 133.634 70.9022 134.309C71.4542 134.984 72.2438 135.321 73.2712 135.321ZM94.2576 125.5C96.7722 125.5 98.0296 127.01 98.0296 130.031V136.011C98.0296 136.364 97.9222 136.64 97.7076 136.839C97.4929 137.023 97.2092 137.115 96.8566 137.115C96.5192 137.115 96.2432 137.023 96.0286 136.839C95.8139 136.64 95.7066 136.364 95.7066 136.011V130.054C95.7066 129.119 95.5379 128.444 95.2006 128.03C94.8632 127.601 94.3342 127.386 93.6136 127.386C92.7702 127.386 92.1032 127.677 91.6126 128.26C91.1219 128.827 90.8766 129.609 90.8766 130.606V136.011C90.8766 136.364 90.7692 136.64 90.5546 136.839C90.3399 137.023 90.0562 137.115 89.7036 137.115C89.3662 137.115 89.0902 137.023 88.8756 136.839C88.6609 136.64 88.5536 136.364 88.5536 136.011V130.054C88.5536 129.119 88.3849 128.444 88.0476 128.03C87.7102 127.601 87.1812 127.386 86.4606 127.386C85.6172 127.386 84.9426 127.677 84.4366 128.26C83.9459 128.827 83.7006 129.609 83.7006 130.606V136.011C83.7006 136.364 83.5932 136.64 83.3786 136.839C83.1639 137.023 82.8879 137.115 82.5506 137.115C82.2132 137.115 81.9296 137.023 81.6996 136.839C81.4849 136.64 81.3776 136.364 81.3776 136.011V126.65C81.3776 126.313 81.4926 126.044 81.7226 125.845C81.9526 125.646 82.2286 125.546 82.5506 125.546C82.8726 125.546 83.1332 125.646 83.3326 125.845C83.5472 126.029 83.6546 126.29 83.6546 126.627V127.478C83.9919 126.834 84.4596 126.343 85.0576 126.006C85.6556 125.669 86.3456 125.5 87.1276 125.5C87.9862 125.5 88.6916 125.676 89.2436 126.029C89.8109 126.382 90.2326 126.926 90.5086 127.662C90.8459 127.003 91.3442 126.481 92.0036 126.098C92.6629 125.699 93.4142 125.5 94.2576 125.5ZM107.237 125.5C108.203 125.5 109.061 125.745 109.813 126.236C110.579 126.727 111.17 127.417 111.584 128.306C112.013 129.195 112.228 130.223 112.228 131.388C112.228 132.538 112.021 133.55 111.607 134.424C111.193 135.298 110.602 135.973 109.836 136.448C109.084 136.923 108.218 137.161 107.237 137.161C106.393 137.161 105.65 136.985 105.006 136.632C104.362 136.264 103.871 135.743 103.534 135.068V140.197C103.534 140.519 103.426 140.772 103.212 140.956C103.012 141.155 102.744 141.255 102.407 141.255C102.054 141.255 101.763 141.155 101.533 140.956C101.318 140.757 101.211 140.488 101.211 140.151V126.673C101.211 126.336 101.318 126.067 101.533 125.868C101.747 125.653 102.031 125.546 102.384 125.546C102.721 125.546 102.997 125.653 103.212 125.868C103.426 126.067 103.534 126.336 103.534 126.673V127.616C103.871 126.941 104.362 126.42 105.006 126.052C105.65 125.684 106.393 125.5 107.237 125.5ZM106.685 135.321C107.697 135.321 108.479 134.984 109.031 134.309C109.583 133.619 109.859 132.645 109.859 131.388C109.859 130.115 109.575 129.126 109.008 128.421C108.456 127.716 107.681 127.363 106.685 127.363C105.673 127.363 104.891 127.708 104.339 128.398C103.802 129.088 103.534 130.069 103.534 131.342C103.534 132.615 103.802 133.596 104.339 134.286C104.891 134.976 105.673 135.321 106.685 135.321ZM119.514 125.5C121.002 125.5 122.106 125.876 122.826 126.627C123.562 127.378 123.93 128.521 123.93 130.054V136.011C123.93 136.364 123.831 136.64 123.631 136.839C123.432 137.023 123.156 137.115 122.803 137.115C122.466 137.115 122.198 137.015 121.998 136.816C121.799 136.617 121.699 136.348 121.699 136.011V135.16C121.408 135.804 120.971 136.302 120.388 136.655C119.821 136.992 119.154 137.161 118.387 137.161C117.651 137.161 116.977 137.015 116.363 136.724C115.765 136.417 115.29 136.003 114.937 135.482C114.585 134.961 114.408 134.37 114.408 133.711C114.393 132.883 114.6 132.239 115.029 131.779C115.459 131.304 116.156 130.966 117.122 130.767C118.088 130.552 119.43 130.445 121.147 130.445H121.676V129.778C121.676 128.919 121.5 128.298 121.147 127.915C120.795 127.532 120.227 127.34 119.445 127.34C118.909 127.34 118.403 127.409 117.927 127.547C117.452 127.685 116.931 127.884 116.363 128.145C115.949 128.375 115.658 128.49 115.489 128.49C115.259 128.49 115.068 128.406 114.914 128.237C114.776 128.068 114.707 127.854 114.707 127.593C114.707 127.363 114.769 127.164 114.891 126.995C115.029 126.811 115.244 126.635 115.535 126.466C116.072 126.175 116.701 125.945 117.421 125.776C118.142 125.592 118.84 125.5 119.514 125.5ZM118.801 135.436C119.645 135.436 120.335 135.152 120.871 134.585C121.408 134.002 121.676 133.259 121.676 132.354V131.756H121.262C120.066 131.756 119.146 131.81 118.502 131.917C117.858 132.024 117.398 132.208 117.122 132.469C116.846 132.714 116.708 133.075 116.708 133.55C116.708 134.102 116.908 134.554 117.306 134.907C117.705 135.26 118.203 135.436 118.801 135.436ZM133.157 125.5C135.84 125.5 137.182 127.01 137.182 130.031V136.011C137.182 136.364 137.075 136.64 136.86 136.839C136.661 137.023 136.377 137.115 136.009 137.115C135.656 137.115 135.373 137.015 135.158 136.816C134.959 136.617 134.859 136.348 134.859 136.011V130.146C134.859 129.195 134.667 128.498 134.284 128.053C133.916 127.608 133.333 127.386 132.536 127.386C131.601 127.386 130.849 127.677 130.282 128.26C129.715 128.843 129.431 129.625 129.431 130.606V136.011C129.431 136.348 129.324 136.617 129.109 136.816C128.91 137.015 128.634 137.115 128.281 137.115C127.928 137.115 127.645 137.015 127.43 136.816C127.215 136.617 127.108 136.348 127.108 136.011V126.65C127.108 126.328 127.215 126.067 127.43 125.868C127.66 125.653 127.944 125.546 128.281 125.546C128.618 125.546 128.887 125.646 129.086 125.845C129.285 126.044 129.385 126.305 129.385 126.627V127.57C129.753 126.895 130.267 126.382 130.926 126.029C131.585 125.676 132.329 125.5 133.157 125.5ZM141.533 137.115C141.196 137.115 140.912 137.023 140.682 136.839C140.467 136.655 140.36 136.379 140.36 136.011V126.673C140.36 126.305 140.467 126.029 140.682 125.845C140.912 125.646 141.196 125.546 141.533 125.546C141.87 125.546 142.146 125.646 142.361 125.845C142.576 126.029 142.683 126.305 142.683 126.673V136.011C142.683 136.379 142.576 136.655 142.361 136.839C142.146 137.023 141.87 137.115 141.533 137.115ZM141.533 123.292C141.088 123.292 140.736 123.169 140.475 122.924C140.214 122.679 140.084 122.357 140.084 121.958C140.084 121.559 140.214 121.245 140.475 121.015C140.736 120.77 141.088 120.647 141.533 120.647C141.962 120.647 142.307 120.77 142.568 121.015C142.844 121.245 142.982 121.559 142.982 121.958C142.982 122.357 142.852 122.679 142.591 122.924C142.33 123.169 141.978 123.292 141.533 123.292ZM154.716 134.171C154.931 134.171 155.107 134.255 155.245 134.424C155.383 134.593 155.452 134.807 155.452 135.068C155.452 135.513 155.176 135.888 154.624 136.195C154.088 136.502 153.497 136.739 152.853 136.908C152.225 137.077 151.619 137.161 151.036 137.161C149.258 137.161 147.855 136.647 146.827 135.62C145.8 134.577 145.286 133.159 145.286 131.365C145.286 130.215 145.509 129.195 145.953 128.306C146.413 127.417 147.05 126.727 147.862 126.236C148.69 125.745 149.626 125.5 150.668 125.5C152.171 125.5 153.359 125.983 154.233 126.949C155.107 127.915 155.544 129.218 155.544 130.859C155.544 131.472 155.268 131.779 154.716 131.779H147.609C147.763 134.156 148.905 135.344 151.036 135.344C151.604 135.344 152.094 135.267 152.508 135.114C152.922 134.961 153.359 134.761 153.819 134.516C153.865 134.485 153.988 134.424 154.187 134.332C154.402 134.225 154.578 134.171 154.716 134.171ZM150.714 127.202C149.825 127.202 149.112 127.486 148.575 128.053C148.039 128.62 147.717 129.418 147.609 130.445H153.543C153.497 129.402 153.229 128.605 152.738 128.053C152.263 127.486 151.588 127.202 150.714 127.202ZM162.014 137.161C160.45 137.161 159.17 136.839 158.173 136.195C157.897 136.026 157.698 135.85 157.575 135.666C157.468 135.482 157.414 135.275 157.414 135.045C157.414 134.8 157.483 134.593 157.621 134.424C157.759 134.255 157.935 134.171 158.15 134.171C158.349 134.171 158.664 134.294 159.093 134.539C159.553 134.784 159.998 134.984 160.427 135.137C160.872 135.29 161.424 135.367 162.083 135.367C162.819 135.367 163.394 135.237 163.808 134.976C164.222 134.715 164.429 134.347 164.429 133.872C164.429 133.565 164.345 133.32 164.176 133.136C164.023 132.952 163.747 132.791 163.348 132.653C162.949 132.5 162.359 132.339 161.577 132.17C160.228 131.879 159.254 131.488 158.656 130.997C158.073 130.491 157.782 129.809 157.782 128.95C157.782 128.291 157.974 127.7 158.357 127.179C158.74 126.642 159.269 126.228 159.944 125.937C160.619 125.646 161.385 125.5 162.244 125.5C162.857 125.5 163.455 125.584 164.038 125.753C164.621 125.906 165.134 126.136 165.579 126.443C166.085 126.78 166.338 127.171 166.338 127.616C166.338 127.861 166.261 128.068 166.108 128.237C165.97 128.406 165.801 128.49 165.602 128.49C165.464 128.49 165.326 128.459 165.188 128.398C165.05 128.337 164.866 128.237 164.636 128.099C164.222 127.854 163.831 127.662 163.463 127.524C163.11 127.386 162.666 127.317 162.129 127.317C161.485 127.317 160.964 127.455 160.565 127.731C160.182 128.007 159.99 128.383 159.99 128.858C159.99 129.287 160.166 129.625 160.519 129.87C160.887 130.1 161.569 130.322 162.566 130.537C163.593 130.752 164.398 130.997 164.981 131.273C165.564 131.549 165.978 131.894 166.223 132.308C166.484 132.707 166.614 133.22 166.614 133.849C166.614 134.846 166.192 135.651 165.349 136.264C164.521 136.862 163.409 137.161 162.014 137.161ZM180.071 137.161C178.983 137.161 178.024 136.923 177.196 136.448C176.384 135.973 175.747 135.298 175.287 134.424C174.843 133.55 174.62 132.538 174.62 131.388C174.62 130.223 174.85 129.195 175.31 128.306C175.786 127.417 176.445 126.727 177.288 126.236C178.132 125.745 179.098 125.5 180.186 125.5C180.769 125.5 181.352 125.584 181.934 125.753C182.532 125.922 183.061 126.152 183.521 126.443C184.012 126.78 184.257 127.171 184.257 127.616C184.257 127.877 184.188 128.099 184.05 128.283C183.912 128.452 183.736 128.536 183.521 128.536C183.383 128.536 183.245 128.505 183.107 128.444C182.969 128.367 182.793 128.26 182.578 128.122C182.195 127.877 181.835 127.693 181.497 127.57C181.175 127.432 180.784 127.363 180.324 127.363C179.282 127.363 178.469 127.716 177.886 128.421C177.319 129.126 177.035 130.108 177.035 131.365C177.035 132.622 177.319 133.596 177.886 134.286C178.454 134.961 179.259 135.298 180.301 135.298C180.761 135.298 181.168 135.229 181.52 135.091C181.873 134.953 182.233 134.769 182.601 134.539C182.77 134.432 182.939 134.34 183.107 134.263C183.276 134.186 183.429 134.148 183.567 134.148C183.782 134.148 183.958 134.24 184.096 134.424C184.234 134.593 184.303 134.807 184.303 135.068C184.303 135.283 184.242 135.482 184.119 135.666C184.012 135.835 183.82 136.011 183.544 136.195C183.084 136.502 182.548 136.739 181.934 136.908C181.321 137.077 180.7 137.161 180.071 137.161ZM191.097 125.5C192.585 125.5 193.689 125.876 194.409 126.627C195.145 127.378 195.513 128.521 195.513 130.054V136.011C195.513 136.364 195.414 136.64 195.214 136.839C195.015 137.023 194.739 137.115 194.386 137.115C194.049 137.115 193.781 137.015 193.581 136.816C193.382 136.617 193.282 136.348 193.282 136.011V135.16C192.991 135.804 192.554 136.302 191.971 136.655C191.404 136.992 190.737 137.161 189.97 137.161C189.234 137.161 188.56 137.015 187.946 136.724C187.348 136.417 186.873 136.003 186.52 135.482C186.168 134.961 185.991 134.37 185.991 133.711C185.976 132.883 186.183 132.239 186.612 131.779C187.042 131.304 187.739 130.966 188.705 130.767C189.671 130.552 191.013 130.445 192.73 130.445H193.259V129.778C193.259 128.919 193.083 128.298 192.73 127.915C192.378 127.532 191.81 127.34 191.028 127.34C190.492 127.34 189.986 127.409 189.51 127.547C189.035 127.685 188.514 127.884 187.946 128.145C187.532 128.375 187.241 128.49 187.072 128.49C186.842 128.49 186.651 128.406 186.497 128.237C186.359 128.068 186.29 127.854 186.29 127.593C186.29 127.363 186.352 127.164 186.474 126.995C186.612 126.811 186.827 126.635 187.118 126.466C187.655 126.175 188.284 125.945 189.004 125.776C189.725 125.592 190.423 125.5 191.097 125.5ZM190.384 135.436C191.228 135.436 191.918 135.152 192.454 134.585C192.991 134.002 193.259 133.259 193.259 132.354V131.756H192.845C191.649 131.756 190.729 131.81 190.085 131.917C189.441 132.024 188.981 132.208 188.705 132.469C188.429 132.714 188.291 133.075 188.291 133.55C188.291 134.102 188.491 134.554 188.889 134.907C189.288 135.26 189.786 135.436 190.384 135.436ZM204.74 125.5C207.423 125.5 208.765 127.01 208.765 130.031V136.011C208.765 136.364 208.658 136.64 208.443 136.839C208.244 137.023 207.96 137.115 207.592 137.115C207.239 137.115 206.956 137.015 206.741 136.816C206.542 136.617 206.442 136.348 206.442 136.011V130.146C206.442 129.195 206.25 128.498 205.867 128.053C205.499 127.608 204.916 127.386 204.119 127.386C203.184 127.386 202.432 127.677 201.865 128.26C201.298 128.843 201.014 129.625 201.014 130.606V136.011C201.014 136.348 200.907 136.617 200.692 136.816C200.493 137.015 200.217 137.115 199.864 137.115C199.511 137.115 199.228 137.015 199.013 136.816C198.798 136.617 198.691 136.348 198.691 136.011V126.65C198.691 126.328 198.798 126.067 199.013 125.868C199.243 125.653 199.527 125.546 199.864 125.546C200.201 125.546 200.47 125.646 200.669 125.845C200.868 126.044 200.968 126.305 200.968 126.627V127.57C201.336 126.895 201.85 126.382 202.509 126.029C203.168 125.676 203.912 125.5 204.74 125.5ZM64.8539 156.5C67.5219 156.5 68.8559 158.01 68.8559 161.031V167.011C68.8559 167.348 68.7485 167.617 68.5339 167.816C68.3192 168.015 68.0355 168.115 67.6829 168.115C67.3302 168.115 67.0465 168.015 66.8319 167.816C66.6325 167.617 66.5329 167.348 66.5329 167.011V161.054C66.5329 160.134 66.3412 159.459 65.9579 159.03C65.5899 158.601 65.0072 158.386 64.2099 158.386C63.2745 158.386 62.5232 158.677 61.9559 159.26C61.3885 159.843 61.1049 160.625 61.1049 161.606V167.011C61.1049 167.348 60.9975 167.617 60.7829 167.816C60.5835 168.015 60.3075 168.115 59.9549 168.115C59.6022 168.115 59.3185 168.015 59.1039 167.816C58.8892 167.617 58.7819 167.348 58.7819 167.011V152.774C58.7819 152.437 58.8892 152.168 59.1039 151.969C59.3339 151.77 59.6252 151.67 59.9779 151.67C60.3152 151.67 60.5835 151.77 60.7829 151.969C60.9975 152.153 61.1049 152.406 61.1049 152.728V158.478C61.4882 157.834 62.0019 157.343 62.6459 157.006C63.2899 156.669 64.0259 156.5 64.8539 156.5ZM76.7488 156.5C78.2362 156.5 79.3402 156.876 80.0608 157.627C80.7968 158.378 81.1648 159.521 81.1648 161.054V167.011C81.1648 167.364 81.0652 167.64 80.8658 167.839C80.6665 168.023 80.3905 168.115 80.0378 168.115C79.7005 168.115 79.4322 168.015 79.2328 167.816C79.0335 167.617 78.9338 167.348 78.9338 167.011V166.16C78.6425 166.804 78.2055 167.302 77.6228 167.655C77.0555 167.992 76.3885 168.161 75.6218 168.161C74.8858 168.161 74.2112 168.015 73.5978 167.724C72.9998 167.417 72.5245 167.003 72.1718 166.482C71.8192 165.961 71.6428 165.37 71.6428 164.711C71.6275 163.883 71.8345 163.239 72.2638 162.779C72.6932 162.304 73.3908 161.966 74.3568 161.767C75.3228 161.552 76.6645 161.445 78.3818 161.445H78.9108V160.778C78.9108 159.919 78.7345 159.298 78.3818 158.915C78.0292 158.532 77.4618 158.34 76.6798 158.34C76.1432 158.34 75.6372 158.409 75.1618 158.547C74.6865 158.685 74.1652 158.884 73.5978 159.145C73.1838 159.375 72.8925 159.49 72.7238 159.49C72.4938 159.49 72.3022 159.406 72.1488 159.237C72.0108 159.068 71.9418 158.854 71.9418 158.593C71.9418 158.363 72.0032 158.164 72.1258 157.995C72.2638 157.811 72.4785 157.635 72.7698 157.466C73.3065 157.175 73.9352 156.945 74.6558 156.776C75.3765 156.592 76.0742 156.5 76.7488 156.5ZM76.0358 166.436C76.8792 166.436 77.5692 166.152 78.1058 165.585C78.6425 165.002 78.9108 164.259 78.9108 163.354V162.756H78.4968C77.3008 162.756 76.3808 162.81 75.7368 162.917C75.0928 163.024 74.6328 163.208 74.3568 163.469C74.0808 163.714 73.9428 164.075 73.9428 164.55C73.9428 165.102 74.1422 165.554 74.5408 165.907C74.9395 166.26 75.4378 166.436 76.0358 166.436ZM92.3234 157.236C92.4154 157.006 92.5458 156.837 92.7144 156.73C92.8984 156.623 93.0901 156.569 93.2894 156.569C93.5808 156.569 93.8338 156.669 94.0484 156.868C94.2784 157.067 94.3934 157.305 94.3934 157.581C94.3934 157.734 94.3628 157.88 94.3014 158.018L89.9084 167.333C89.8011 167.578 89.6324 167.77 89.4024 167.908C89.1878 168.031 88.9578 168.092 88.7124 168.092C88.4671 168.092 88.2294 168.031 87.9994 167.908C87.7848 167.77 87.6238 167.578 87.5164 167.333L83.1234 158.018C83.0621 157.895 83.0314 157.75 83.0314 157.581C83.0314 157.305 83.1541 157.067 83.3994 156.868C83.6448 156.669 83.9208 156.569 84.2274 156.569C84.6721 156.569 85.0018 156.784 85.2164 157.213L88.7814 165.125L92.3234 157.236ZM104.92 165.171C105.135 165.171 105.311 165.255 105.449 165.424C105.587 165.593 105.656 165.807 105.656 166.068C105.656 166.513 105.38 166.888 104.828 167.195C104.292 167.502 103.701 167.739 103.057 167.908C102.429 168.077 101.823 168.161 101.24 168.161C99.4617 168.161 98.0587 167.647 97.0314 166.62C96.0041 165.577 95.4904 164.159 95.4904 162.365C95.4904 161.215 95.7127 160.195 96.1574 159.306C96.6174 158.417 97.2537 157.727 98.0664 157.236C98.8944 156.745 99.8297 156.5 100.872 156.5C102.375 156.5 103.563 156.983 104.437 157.949C105.311 158.915 105.748 160.218 105.748 161.859C105.748 162.472 105.472 162.779 104.92 162.779H97.8134C97.9667 165.156 99.1091 166.344 101.24 166.344C101.808 166.344 102.298 166.267 102.712 166.114C103.126 165.961 103.563 165.761 104.023 165.516C104.069 165.485 104.192 165.424 104.391 165.332C104.606 165.225 104.782 165.171 104.92 165.171ZM100.918 158.202C100.029 158.202 99.3161 158.486 98.7794 159.053C98.2427 159.62 97.9207 160.418 97.8134 161.445H103.747C103.701 160.402 103.433 159.605 102.942 159.053C102.467 158.486 101.792 158.202 100.918 158.202ZM119.088 156.5C120.575 156.5 121.679 156.876 122.4 157.627C123.136 158.378 123.504 159.521 123.504 161.054V167.011C123.504 167.364 123.404 167.64 123.205 167.839C123.005 168.023 122.729 168.115 122.377 168.115C122.039 168.115 121.771 168.015 121.572 167.816C121.372 167.617 121.273 167.348 121.273 167.011V166.16C120.981 166.804 120.544 167.302 119.962 167.655C119.394 167.992 118.727 168.161 117.961 168.161C117.225 168.161 116.55 168.015 115.937 167.724C115.339 167.417 114.863 167.003 114.511 166.482C114.158 165.961 113.982 165.37 113.982 164.711C113.966 163.883 114.173 163.239 114.603 162.779C115.032 162.304 115.73 161.966 116.696 161.767C117.662 161.552 119.003 161.445 120.721 161.445H121.25V160.778C121.25 159.919 121.073 159.298 120.721 158.915C120.368 158.532 119.801 158.34 119.019 158.34C118.482 158.34 117.976 158.409 117.501 158.547C117.025 158.685 116.504 158.884 115.937 159.145C115.523 159.375 115.231 159.49 115.063 159.49C114.833 159.49 114.641 159.406 114.488 159.237C114.35 159.068 114.281 158.854 114.281 158.593C114.281 158.363 114.342 158.164 114.465 157.995C114.603 157.811 114.817 157.635 115.109 157.466C115.645 157.175 116.274 156.945 116.995 156.776C117.715 156.592 118.413 156.5 119.088 156.5ZM118.375 166.436C119.218 166.436 119.908 166.152 120.445 165.585C120.981 165.002 121.25 164.259 121.25 163.354V162.756H120.836C119.64 162.756 118.72 162.81 118.076 162.917C117.432 163.024 116.972 163.208 116.696 163.469C116.42 163.714 116.282 164.075 116.282 164.55C116.282 165.102 116.481 165.554 116.88 165.907C117.278 166.26 117.777 166.436 118.375 166.436ZM131.488 168.161C130.4 168.161 129.441 167.923 128.613 167.448C127.801 166.973 127.164 166.298 126.704 165.424C126.26 164.55 126.037 163.538 126.037 162.388C126.037 161.223 126.267 160.195 126.727 159.306C127.203 158.417 127.862 157.727 128.705 157.236C129.549 156.745 130.515 156.5 131.603 156.5C132.186 156.5 132.769 156.584 133.351 156.753C133.949 156.922 134.478 157.152 134.938 157.443C135.429 157.78 135.674 158.171 135.674 158.616C135.674 158.877 135.605 159.099 135.467 159.283C135.329 159.452 135.153 159.536 134.938 159.536C134.8 159.536 134.662 159.505 134.524 159.444C134.386 159.367 134.21 159.26 133.995 159.122C133.612 158.877 133.252 158.693 132.914 158.57C132.592 158.432 132.201 158.363 131.741 158.363C130.699 158.363 129.886 158.716 129.303 159.421C128.736 160.126 128.452 161.108 128.452 162.365C128.452 163.622 128.736 164.596 129.303 165.286C129.871 165.961 130.676 166.298 131.718 166.298C132.178 166.298 132.585 166.229 132.937 166.091C133.29 165.953 133.65 165.769 134.018 165.539C134.187 165.432 134.356 165.34 134.524 165.263C134.693 165.186 134.846 165.148 134.984 165.148C135.199 165.148 135.375 165.24 135.513 165.424C135.651 165.593 135.72 165.807 135.72 166.068C135.72 166.283 135.659 166.482 135.536 166.666C135.429 166.835 135.237 167.011 134.961 167.195C134.501 167.502 133.965 167.739 133.351 167.908C132.738 168.077 132.117 168.161 131.488 168.161ZM142.606 168.161C141.518 168.161 140.559 167.923 139.731 167.448C138.919 166.973 138.282 166.298 137.822 165.424C137.378 164.55 137.155 163.538 137.155 162.388C137.155 161.223 137.385 160.195 137.845 159.306C138.321 158.417 138.98 157.727 139.823 157.236C140.667 156.745 141.633 156.5 142.721 156.5C143.304 156.5 143.887 156.584 144.469 156.753C145.067 156.922 145.596 157.152 146.056 157.443C146.547 157.78 146.792 158.171 146.792 158.616C146.792 158.877 146.723 159.099 146.585 159.283C146.447 159.452 146.271 159.536 146.056 159.536C145.918 159.536 145.78 159.505 145.642 159.444C145.504 159.367 145.328 159.26 145.113 159.122C144.73 158.877 144.37 158.693 144.032 158.57C143.71 158.432 143.319 158.363 142.859 158.363C141.817 158.363 141.004 158.716 140.421 159.421C139.854 160.126 139.57 161.108 139.57 162.365C139.57 163.622 139.854 164.596 140.421 165.286C140.989 165.961 141.794 166.298 142.836 166.298C143.296 166.298 143.703 166.229 144.055 166.091C144.408 165.953 144.768 165.769 145.136 165.539C145.305 165.432 145.474 165.34 145.642 165.263C145.811 165.186 145.964 165.148 146.102 165.148C146.317 165.148 146.493 165.24 146.631 165.424C146.769 165.593 146.838 165.807 146.838 166.068C146.838 166.283 146.777 166.482 146.654 166.666C146.547 166.835 146.355 167.011 146.079 167.195C145.619 167.502 145.083 167.739 144.469 167.908C143.856 168.077 143.235 168.161 142.606 168.161ZM157.704 165.171C157.918 165.171 158.095 165.255 158.233 165.424C158.371 165.593 158.44 165.807 158.44 166.068C158.44 166.513 158.164 166.888 157.612 167.195C157.075 167.502 156.485 167.739 155.841 167.908C155.212 168.077 154.606 168.161 154.024 168.161C152.245 168.161 150.842 167.647 149.815 166.62C148.787 165.577 148.274 164.159 148.274 162.365C148.274 161.215 148.496 160.195 148.941 159.306C149.401 158.417 150.037 157.727 150.85 157.236C151.678 156.745 152.613 156.5 153.656 156.5C155.158 156.5 156.347 156.983 157.221 157.949C158.095 158.915 158.532 160.218 158.532 161.859C158.532 162.472 158.256 162.779 157.704 162.779H150.597C150.75 165.156 151.892 166.344 154.024 166.344C154.591 166.344 155.082 166.267 155.496 166.114C155.91 165.961 156.347 165.761 156.807 165.516C156.853 165.485 156.975 165.424 157.175 165.332C157.389 165.225 157.566 165.171 157.704 165.171ZM153.702 158.202C152.812 158.202 152.099 158.486 151.563 159.053C151.026 159.62 150.704 160.418 150.597 161.445H156.531C156.485 160.402 156.216 159.605 155.726 159.053C155.25 158.486 154.576 158.202 153.702 158.202ZM165.001 168.161C163.437 168.161 162.157 167.839 161.16 167.195C160.884 167.026 160.685 166.85 160.562 166.666C160.455 166.482 160.401 166.275 160.401 166.045C160.401 165.8 160.47 165.593 160.608 165.424C160.746 165.255 160.923 165.171 161.137 165.171C161.337 165.171 161.651 165.294 162.08 165.539C162.54 165.784 162.985 165.984 163.414 166.137C163.859 166.29 164.411 166.367 165.07 166.367C165.806 166.367 166.381 166.237 166.795 165.976C167.209 165.715 167.416 165.347 167.416 164.872C167.416 164.565 167.332 164.32 167.163 164.136C167.01 163.952 166.734 163.791 166.335 163.653C165.937 163.5 165.346 163.339 164.564 163.17C163.215 162.879 162.241 162.488 161.643 161.997C161.061 161.491 160.769 160.809 160.769 159.95C160.769 159.291 160.961 158.7 161.344 158.179C161.728 157.642 162.257 157.228 162.931 156.937C163.606 156.646 164.373 156.5 165.231 156.5C165.845 156.5 166.443 156.584 167.025 156.753C167.608 156.906 168.122 157.136 168.566 157.443C169.072 157.78 169.325 158.171 169.325 158.616C169.325 158.861 169.249 159.068 169.095 159.237C168.957 159.406 168.789 159.49 168.589 159.49C168.451 159.49 168.313 159.459 168.175 159.398C168.037 159.337 167.853 159.237 167.623 159.099C167.209 158.854 166.818 158.662 166.45 158.524C166.098 158.386 165.653 158.317 165.116 158.317C164.472 158.317 163.951 158.455 163.552 158.731C163.169 159.007 162.977 159.383 162.977 159.858C162.977 160.287 163.154 160.625 163.506 160.87C163.874 161.1 164.557 161.322 165.553 161.537C166.581 161.752 167.386 161.997 167.968 162.273C168.551 162.549 168.965 162.894 169.21 163.308C169.471 163.707 169.601 164.22 169.601 164.849C169.601 165.846 169.18 166.651 168.336 167.264C167.508 167.862 166.397 168.161 165.001 168.161ZM176.097 168.161C174.533 168.161 173.253 167.839 172.256 167.195C171.98 167.026 171.781 166.85 171.658 166.666C171.551 166.482 171.497 166.275 171.497 166.045C171.497 165.8 171.566 165.593 171.704 165.424C171.842 165.255 172.018 165.171 172.233 165.171C172.432 165.171 172.747 165.294 173.176 165.539C173.636 165.784 174.081 165.984 174.51 166.137C174.955 166.29 175.507 166.367 176.166 166.367C176.902 166.367 177.477 166.237 177.891 165.976C178.305 165.715 178.512 165.347 178.512 164.872C178.512 164.565 178.428 164.32 178.259 164.136C178.106 163.952 177.83 163.791 177.431 163.653C177.032 163.5 176.442 163.339 175.66 163.17C174.311 162.879 173.337 162.488 172.739 161.997C172.156 161.491 171.865 160.809 171.865 159.95C171.865 159.291 172.057 158.7 172.44 158.179C172.823 157.642 173.352 157.228 174.027 156.937C174.702 156.646 175.468 156.5 176.327 156.5C176.94 156.5 177.538 156.584 178.121 156.753C178.704 156.906 179.217 157.136 179.662 157.443C180.168 157.78 180.421 158.171 180.421 158.616C180.421 158.861 180.344 159.068 180.191 159.237C180.053 159.406 179.884 159.49 179.685 159.49C179.547 159.49 179.409 159.459 179.271 159.398C179.133 159.337 178.949 159.237 178.719 159.099C178.305 158.854 177.914 158.662 177.546 158.524C177.193 158.386 176.749 158.317 176.212 158.317C175.568 158.317 175.047 158.455 174.648 158.731C174.265 159.007 174.073 159.383 174.073 159.858C174.073 160.287 174.249 160.625 174.602 160.87C174.97 161.1 175.652 161.322 176.649 161.537C177.676 161.752 178.481 161.997 179.064 162.273C179.647 162.549 180.061 162.894 180.306 163.308C180.567 163.707 180.697 164.22 180.697 164.849C180.697 165.846 180.275 166.651 179.432 167.264C178.604 167.862 177.492 168.161 176.097 168.161ZM194.844 166.344C195.182 166.375 195.419 166.467 195.557 166.62C195.711 166.758 195.787 166.957 195.787 167.218C195.787 167.525 195.665 167.762 195.419 167.931C195.189 168.084 194.844 168.146 194.384 168.115L193.763 168.069C192.521 167.977 191.594 167.601 190.98 166.942C190.367 166.267 190.06 165.278 190.06 163.975V158.57H188.68C188.006 158.57 187.668 158.271 187.668 157.673C187.668 157.397 187.753 157.182 187.921 157.029C188.105 156.86 188.358 156.776 188.68 156.776H190.06V154.407C190.06 154.054 190.16 153.778 190.359 153.579C190.574 153.38 190.858 153.28 191.21 153.28C191.563 153.28 191.847 153.38 192.061 153.579C192.276 153.778 192.383 154.054 192.383 154.407V156.776H194.66C194.982 156.776 195.228 156.86 195.396 157.029C195.58 157.182 195.672 157.397 195.672 157.673C195.672 157.964 195.58 158.187 195.396 158.34C195.228 158.493 194.982 158.57 194.66 158.57H192.383V164.136C192.383 164.857 192.529 165.386 192.82 165.723C193.127 166.06 193.587 166.252 194.2 166.298L194.844 166.344ZM202.332 168.161C201.228 168.161 200.254 167.923 199.411 167.448C198.583 166.973 197.939 166.298 197.479 165.424C197.034 164.535 196.812 163.507 196.812 162.342C196.812 161.161 197.034 160.134 197.479 159.26C197.939 158.371 198.583 157.688 199.411 157.213C200.254 156.738 201.228 156.5 202.332 156.5C203.436 156.5 204.402 156.738 205.23 157.213C206.073 157.688 206.717 158.371 207.162 159.26C207.622 160.134 207.852 161.161 207.852 162.342C207.852 163.507 207.622 164.535 207.162 165.424C206.717 166.298 206.073 166.973 205.23 167.448C204.402 167.923 203.436 168.161 202.332 168.161ZM202.332 166.321C203.359 166.321 204.141 165.984 204.678 165.309C205.23 164.634 205.506 163.645 205.506 162.342C205.506 161.054 205.23 160.073 204.678 159.398C204.126 158.708 203.344 158.363 202.332 158.363C201.32 158.363 200.538 158.708 199.986 159.398C199.434 160.073 199.158 161.054 199.158 162.342C199.158 163.645 199.426 164.634 199.963 165.309C200.515 165.984 201.304 166.321 202.332 166.321ZM90.5153 188.236C90.6073 188.006 90.7376 187.837 90.9063 187.73C91.0903 187.623 91.282 187.569 91.4813 187.569C91.7727 187.569 92.0257 187.669 92.2403 187.868C92.4703 188.067 92.5853 188.305 92.5853 188.581C92.5853 188.734 92.5547 188.88 92.4933 189.018L86.0993 202.588C86.0073 202.803 85.8693 202.964 85.6853 203.071C85.5167 203.194 85.3326 203.255 85.1333 203.255C84.8573 203.255 84.6043 203.163 84.3743 202.979C84.1596 202.795 84.0523 202.565 84.0523 202.289C84.0523 202.166 84.0906 202.013 84.1673 201.829L85.7543 198.448L81.3153 189.018C81.254 188.895 81.2233 188.757 81.2233 188.604C81.2233 188.313 81.346 188.067 81.5913 187.868C81.8366 187.669 82.1126 187.569 82.4193 187.569C82.8793 187.569 83.209 187.784 83.4083 188.213L86.9733 196.125L90.5153 188.236ZM99.2023 199.161C98.0983 199.161 97.1246 198.923 96.2813 198.448C95.4533 197.973 94.8093 197.298 94.3493 196.424C93.9046 195.535 93.6823 194.507 93.6823 193.342C93.6823 192.161 93.9046 191.134 94.3493 190.26C94.8093 189.371 95.4533 188.688 96.2813 188.213C97.1246 187.738 98.0983 187.5 99.2023 187.5C100.306 187.5 101.272 187.738 102.1 188.213C102.944 188.688 103.588 189.371 104.032 190.26C104.492 191.134 104.722 192.161 104.722 193.342C104.722 194.507 104.492 195.535 104.032 196.424C103.588 197.298 102.944 197.973 102.1 198.448C101.272 198.923 100.306 199.161 99.2023 199.161ZM99.2023 197.321C100.23 197.321 101.012 196.984 101.548 196.309C102.1 195.634 102.376 194.645 102.376 193.342C102.376 192.054 102.1 191.073 101.548 190.398C100.996 189.708 100.214 189.363 99.2023 189.363C98.1903 189.363 97.4083 189.708 96.8563 190.398C96.3043 191.073 96.0283 192.054 96.0283 193.342C96.0283 194.645 96.2966 195.634 96.8333 196.309C97.3853 196.984 98.175 197.321 99.2023 197.321ZM116.003 187.546C116.355 187.546 116.631 187.646 116.831 187.845C117.045 188.044 117.153 188.32 117.153 188.673V198.034C117.153 198.356 117.045 198.617 116.831 198.816C116.616 199.015 116.332 199.115 115.98 199.115C115.658 199.115 115.397 199.023 115.198 198.839C114.998 198.64 114.899 198.379 114.899 198.057V197.183C114.546 197.827 114.055 198.318 113.427 198.655C112.813 198.992 112.123 199.161 111.357 199.161C108.627 199.161 107.263 197.658 107.263 194.653V188.673C107.263 188.32 107.362 188.044 107.562 187.845C107.776 187.646 108.068 187.546 108.436 187.546C108.788 187.546 109.064 187.646 109.264 187.845C109.478 188.044 109.586 188.32 109.586 188.673V194.63C109.586 195.535 109.77 196.202 110.138 196.631C110.506 197.06 111.073 197.275 111.84 197.275C112.744 197.275 113.465 196.984 114.002 196.401C114.554 195.818 114.83 195.044 114.83 194.078V188.673C114.83 188.336 114.937 188.067 115.152 187.868C115.366 187.653 115.65 187.546 116.003 187.546ZM126.291 187.546C127.027 187.5 127.395 187.814 127.395 188.489C127.395 188.826 127.311 189.079 127.142 189.248C126.974 189.417 126.682 189.516 126.268 189.547L125.578 189.616C124.612 189.708 123.892 190.045 123.416 190.628C122.956 191.211 122.726 191.916 122.726 192.744V198.011C122.726 198.379 122.619 198.655 122.404 198.839C122.19 199.023 121.914 199.115 121.576 199.115C121.239 199.115 120.955 199.023 120.725 198.839C120.511 198.655 120.403 198.379 120.403 198.011V188.65C120.403 188.297 120.511 188.029 120.725 187.845C120.955 187.646 121.239 187.546 121.576 187.546C121.883 187.546 122.136 187.646 122.335 187.845C122.55 188.029 122.657 188.29 122.657 188.627V189.731C122.964 189.056 123.409 188.543 123.991 188.19C124.574 187.837 125.233 187.63 125.969 187.569L126.291 187.546ZM144.068 182.67C144.42 182.67 144.704 182.77 144.919 182.969C145.133 183.168 145.241 183.437 145.241 183.774V197.988C145.241 198.341 145.133 198.617 144.919 198.816C144.719 199.015 144.443 199.115 144.091 199.115C143.738 199.115 143.454 199.015 143.24 198.816C143.04 198.617 142.941 198.341 142.941 197.988V197.068C142.603 197.743 142.113 198.264 141.469 198.632C140.825 198.985 140.081 199.161 139.238 199.161C138.272 199.161 137.405 198.916 136.639 198.425C135.887 197.934 135.297 197.244 134.868 196.355C134.454 195.466 134.247 194.446 134.247 193.296C134.247 192.131 134.454 191.111 134.868 190.237C135.297 189.363 135.887 188.688 136.639 188.213C137.39 187.738 138.256 187.5 139.238 187.5C140.081 187.5 140.817 187.684 141.446 188.052C142.09 188.405 142.58 188.911 142.918 189.57V183.728C142.918 183.406 143.017 183.153 143.217 182.969C143.431 182.77 143.715 182.67 144.068 182.67ZM139.79 197.321C140.786 197.321 141.561 196.976 142.113 196.286C142.665 195.596 142.941 194.615 142.941 193.342C142.941 192.069 142.665 191.088 142.113 190.398C141.576 189.708 140.802 189.363 139.79 189.363C138.778 189.363 137.988 189.708 137.421 190.398C136.869 191.073 136.593 192.039 136.593 193.296C136.593 194.553 136.876 195.542 137.444 196.263C138.011 196.968 138.793 197.321 139.79 197.321ZM153.195 187.5C154.682 187.5 155.786 187.876 156.507 188.627C157.243 189.378 157.611 190.521 157.611 192.054V198.011C157.611 198.364 157.511 198.64 157.312 198.839C157.112 199.023 156.836 199.115 156.484 199.115C156.146 199.115 155.878 199.015 155.679 198.816C155.479 198.617 155.38 198.348 155.38 198.011V197.16C155.088 197.804 154.651 198.302 154.069 198.655C153.501 198.992 152.834 199.161 152.068 199.161C151.332 199.161 150.657 199.015 150.044 198.724C149.446 198.417 148.97 198.003 148.618 197.482C148.265 196.961 148.089 196.37 148.089 195.711C148.073 194.883 148.28 194.239 148.71 193.779C149.139 193.304 149.837 192.966 150.803 192.767C151.769 192.552 153.11 192.445 154.828 192.445H155.357V191.778C155.357 190.919 155.18 190.298 154.828 189.915C154.475 189.532 153.908 189.34 153.126 189.34C152.589 189.34 152.083 189.409 151.608 189.547C151.132 189.685 150.611 189.884 150.044 190.145C149.63 190.375 149.338 190.49 149.17 190.49C148.94 190.49 148.748 190.406 148.595 190.237C148.457 190.068 148.388 189.854 148.388 189.593C148.388 189.363 148.449 189.164 148.572 188.995C148.71 188.811 148.924 188.635 149.216 188.466C149.752 188.175 150.381 187.945 151.102 187.776C151.822 187.592 152.52 187.5 153.195 187.5ZM152.482 197.436C153.325 197.436 154.015 197.152 154.552 196.585C155.088 196.002 155.357 195.259 155.357 194.354V193.756H154.943C153.747 193.756 152.827 193.81 152.183 193.917C151.539 194.024 151.079 194.208 150.803 194.469C150.527 194.714 150.389 195.075 150.389 195.55C150.389 196.102 150.588 196.554 150.987 196.907C151.385 197.26 151.884 197.436 152.482 197.436ZM166.285 197.344C166.623 197.375 166.86 197.467 166.998 197.62C167.152 197.758 167.228 197.957 167.228 198.218C167.228 198.525 167.106 198.762 166.86 198.931C166.63 199.084 166.285 199.146 165.825 199.115L165.204 199.069C163.962 198.977 163.035 198.601 162.421 197.942C161.808 197.267 161.501 196.278 161.501 194.975V189.57H160.121C159.447 189.57 159.109 189.271 159.109 188.673C159.109 188.397 159.194 188.182 159.362 188.029C159.546 187.86 159.799 187.776 160.121 187.776H161.501V185.407C161.501 185.054 161.601 184.778 161.8 184.579C162.015 184.38 162.299 184.28 162.651 184.28C163.004 184.28 163.288 184.38 163.502 184.579C163.717 184.778 163.824 185.054 163.824 185.407V187.776H166.101C166.423 187.776 166.669 187.86 166.837 188.029C167.021 188.182 167.113 188.397 167.113 188.673C167.113 188.964 167.021 189.187 166.837 189.34C166.669 189.493 166.423 189.57 166.101 189.57H163.824V195.136C163.824 195.857 163.97 196.386 164.261 196.723C164.568 197.06 165.028 197.252 165.641 197.298L166.285 197.344ZM173.612 187.5C175.099 187.5 176.203 187.876 176.924 188.627C177.66 189.378 178.028 190.521 178.028 192.054V198.011C178.028 198.364 177.928 198.64 177.729 198.839C177.529 199.023 177.253 199.115 176.901 199.115C176.563 199.115 176.295 199.015 176.096 198.816C175.896 198.617 175.797 198.348 175.797 198.011V197.16C175.505 197.804 175.068 198.302 174.486 198.655C173.918 198.992 173.251 199.161 172.485 199.161C171.749 199.161 171.074 199.015 170.461 198.724C169.863 198.417 169.387 198.003 169.035 197.482C168.682 196.961 168.506 196.37 168.506 195.711C168.49 194.883 168.697 194.239 169.127 193.779C169.556 193.304 170.254 192.966 171.22 192.767C172.186 192.552 173.527 192.445 175.245 192.445H175.774V191.778C175.774 190.919 175.597 190.298 175.245 189.915C174.892 189.532 174.325 189.34 173.543 189.34C173.006 189.34 172.5 189.409 172.025 189.547C171.549 189.685 171.028 189.884 170.461 190.145C170.047 190.375 169.755 190.49 169.587 190.49C169.357 190.49 169.165 190.406 169.012 190.237C168.874 190.068 168.805 189.854 168.805 189.593C168.805 189.363 168.866 189.164 168.989 188.995C169.127 188.811 169.341 188.635 169.633 188.466C170.169 188.175 170.798 187.945 171.519 187.776C172.239 187.592 172.937 187.5 173.612 187.5ZM172.899 197.436C173.742 197.436 174.432 197.152 174.969 196.585C175.505 196.002 175.774 195.259 175.774 194.354V193.756H175.36C174.164 193.756 173.244 193.81 172.6 193.917C171.956 194.024 171.496 194.208 171.22 194.469C170.944 194.714 170.806 195.075 170.806 195.55C170.806 196.102 171.005 196.554 171.404 196.907C171.802 197.26 172.301 197.436 172.899 197.436ZM182.332 199.115C181.918 199.115 181.566 198.977 181.274 198.701C180.998 198.425 180.86 198.072 180.86 197.643C180.86 197.214 180.998 196.861 181.274 196.585C181.566 196.294 181.918 196.148 182.332 196.148C182.746 196.148 183.091 196.294 183.367 196.585C183.643 196.861 183.781 197.214 183.781 197.643C183.781 198.072 183.643 198.425 183.367 198.701C183.091 198.977 182.746 199.115 182.332 199.115Z" fill="#737584"/>
</g>
<defs>
<filter id="filter0_d" x="0" y="0" width="290" height="264" filterUnits="userSpaceOnUse" color-interpolation-filters="sRGB">
<feFlood flood-opacity="0" result="BackgroundImageFix"/>
<feColorMatrix in="SourceAlpha" type="matrix" values="0 0 0 0 0 0 0 0 0 0 0 0 0 0 0 0 0 0 127 0"/>
<feMorphology radius="10" operator="erode" in="SourceAlpha" result="effect1_dropShadow"/>
<feOffset dx="8" dy="11"/>
<feGaussianBlur stdDeviation="14.5"/>
<feColorMatrix type="matrix" values="0 0 0 0 0.220833 0 0 0 0 0.220833 0 0 0 0 0.220833 0 0 0 0.25 0"/>
<feBlend mode="normal" in2="BackgroundImageFix" result="effect1_dropShadow"/>
<feBlend mode="normal" in="SourceGraphic" in2="effect1_dropShadow" result="shape"/>
</filter>
<clipPath id="clip0">
<rect width="1440" height="5054" fill="white" transform="translate(-164 -3021)"/>
</clipPath>
</defs>
</svg>
