<svg fill="none" height="89" viewBox="0 0 89 89" width="89" xmlns="http://www.w3.org/2000/svg" xmlns:xlink="http://www.w3.org/1999/xlink"><clipPath id="a"><path d="m0 0h89v89h-89z"/></clipPath><g clip-path="url(#a)"><path d="m1.31714 19.0588v35.244c0 9.0958 8.2236 17.3194 16.46496 23.2824 8.2414 5.963 16.465 9.6476 16.465 9.6476s32.93-14.7384 32.93-32.93v-35.244l-32.93-13.72384z" fill="#fff"/><path d="m34.3005 78.4218c-2.9014-1.513-7.4048-4.0228-11.8726-7.2446-8.3838-6.052-13.17204-12.2108-13.17204-16.8566v-29.9752l24.99124-10.413 25.009 10.413v29.9574c0 8.0812-13.884 18.4586-24.9556 24.119z" fill="#ff9d9c"/><path d="m34.247 38.2472c3.9322 0 7.12-3.1877 7.12-7.12s-3.1878-7.12-7.12-7.12c-3.9323 0-7.12 3.1877-7.12 7.12s3.1877 7.12 7.12 7.12z" fill="#fff"/><path d="m48.8787 56.5989h-29.2632c.0178-5.8918 3.5244-10.9648 8.5618-13.2788l11.57-.2492c5.34 2.1716 9.1136 7.4048 9.1314 13.528z" fill="#2ebfa5"/><g fill="#454b53"><path d="m55.6428 71.9248c-.5518.4806-.5874 1.335-.1068 1.8868.2492.2848.623.445.9968.445.3204 0 .6408-.1246.89-.356.5518-.4806.5874-1.335.1068-1.869s-1.3706-.5874-1.8868-.1068z"/><path d="m67.6934 17.8306-32.93-13.7238c-.3204-.1424-.6942-.1424-1.0146 0l-32.93 13.7238c-.4984.1958-.8188.6764-.8188 1.2282v35.244c.0178 4.5034 1.8512 9.0958 5.4112 13.6348 2.7946 3.5778 6.586 7.0844 11.5878 10.7334 8.01 5.7672 15.842 9.3806 16.7142 9.7722.178.0712.356.1068.5518.1068.178 0 .356-.0356.5518-.1068 0-.0178.0178-.0178.0712-.0356 1.8156-.8544 11.3386-5.3934 19.758-12.1396.5696-.4628.6586-1.3172.2136-1.8868-.445-.5518-1.335-.6408-1.8868-.1958-4.628 3.7202-9.6298 6.7284-13.0118 8.6152-2.6522 1.4774-4.6992 2.4742-5.7138 2.9548-1.9758-.9434-8.7932-4.272-15.6818-9.256-5.9808-4.2898-15.9844-12.8872-15.9132-22.1966v-34.354l7.7786-3.2396c.0356-.0178.0712-.0178.089-.0356l23.7274-9.879 31.595 13.1542v34.354c.0178 4.8416-2.581 9.968-7.6896 15.219-.5162.5162-.4984 1.3706.0178 1.8868.5162.4984 1.3884.4806 1.8868-.0356 5.607-5.7494 8.455-11.4988 8.455-17.0702v-35.244c0-.5518-.3204-1.0324-.8188-1.2282z"/><path d="m47.4903 17.9907-12.727-5.3044c-.3204-.1246-.6942-.1246-1.0146 0l-25.009 10.413c-.4984.2136-.8188.6942-.8188 1.246v29.9574c.089 5.3045 4.6992 11.3387 13.7238 17.9425 4.5034 3.2396 9.0246 5.785 12.0328 7.3514.1958.1068.4094.1424.623.1424s.4272-.0356.6052-.1424c6.1944-3.1684 12.371-7.298 16.91-11.3386 5.8562-5.2332 8.722-9.8079 8.7754-13.9553v-29.9574c0-.5518-.3204-1.0324-.8188-1.246l-5.7138-2.3674c-.6586-.2848-1.4596.0534-1.7266.712-.1424.3382-.1424.6942-.0178 1.0324.1424.3204.3916.5696.712.712 0 0 0 0 .0178.0178l4.8772 2.0292v29.0674c.0534 3.0972-2.8836 7.5828-7.8854 11.9616-4.2008 3.738-9.9502 7.6185-15.7352 10.6445-2.7946-1.4774-6.9776-3.8626-11.0894-6.8352-7.7786-5.5536-12.727-11.748-12.6202-15.7709v-29.0674l23.674-9.8612 12.2108 5.0908c.6586.267 1.4596-.0712 1.7444-.7298.267-.6764-.0534-1.4596-.7298-1.7444z"/><path d="m49.7509 21.8178c.1602.0712.3382.1068.5162.1068.5518 0 1.0324-.3204 1.2282-.8188.1424-.3204.1424-.6942 0-1.0146-.1246-.3382-.3916-.5874-.712-.7298-.6586-.2848-1.4774.0534-1.7444.712-.1424.3382-.1424.6942 0 1.0324.1246.3204.3916.5874.712.712z"/><path d="m34.2472 39.5999c4.6636 0 8.455-3.7914 8.455-8.455s-3.7914-8.455-8.455-8.455-8.455 3.7914-8.455 8.455c0 4.6458 3.7914 8.455 8.455 8.455zm0-14.2578c3.1862 0 5.785 2.5988 5.785 5.785s-2.5988 5.785-5.785 5.785-5.785-2.5988-5.785-5.785 2.5988-5.785 5.785-5.785z"/><path d="m40.2457 41.8428c-.1602-.0712-.3382-.089-.534-.1068l-11.57.2492c-.178 0-.356.0534-.534.1246-5.6604 2.581-9.3272 8.2592-9.345 14.4714 0 .356.1424.6942.3916.9434s.5874.3916.9434.3916h29.2632c.356 0 .6942-.1424.9434-.3916s.3916-.5874.3916-.9434c0-6.497-3.916-12.282-9.9502-14.7384zm-19.224 13.4212c.4806-4.5568 3.293-8.5974 7.476-10.6088l11.0004-.2314c4.4678 1.9224 7.4938 6.0698 7.9922 10.8402z"/></g></g></svg>