<svg width="30" height="30" viewBox="0 0 36 36" fill="none"
    xmlns="http://www.w3.org/2000/svg">
    <path d="M36 18C36 27.941 27.941 36 18 36C8.059 36 0 27.941 0 18C0 8.059 8.059 0 18 0C27.941 0 36 8.059 36 18Z" fill="#FFCC4D"/>
    <path d="M7 23C9.76142 23 12 20.7614 12 18C12 15.2386 9.76142 13 7 13C4.23858 13 2 15.2386 2 18C2 20.7614 4.23858 23 7 23Z" fill="#FF7892"/>
    <path d="M29 23C31.7614 23 34 20.7614 34 18C34 15.2386 31.7614 13 29 13C26.2386 13 24 15.2386 24 18C24 20.7614 26.2386 23 29 23Z" fill="#FF7892"/>
    <path d="M27.335 21.629C27.157 21.468 26.891 21.458 26.7 21.6C26.661 21.629 22.778 24.5 18 24.5C13.234 24.5 9.33797 21.629 9.29997 21.6C9.10897 21.458 8.84297 21.47 8.66497 21.629C8.48797 21.789 8.44797 22.053 8.57097 22.257C8.69997 22.472 11.788 27.5 18 27.5C24.212 27.5 27.301 22.472 27.429 22.257C27.552 22.052 27.513 21.789 27.335 21.629ZM7.99897 15C7.84897 15 7.69597 14.966 7.55297 14.894C7.05897 14.647 6.85897 14.046 7.10597 13.552C7.15797 13.448 8.42397 11 12 11C15.577 11 16.842 13.449 16.894 13.553C17.141 14.047 16.941 14.648 16.447 14.895C15.955 15.14 15.362 14.944 15.111 14.459C15.068 14.379 14.281 13 12 13C9.68297 13 8.90097 14.433 8.89397 14.447C8.71897 14.798 8.36597 15 7.99897 15ZM28.001 15C27.634 15 27.281 14.798 27.105 14.447C27.08 14.401 26.299 13 24 13C21.701 13 20.92 14.401 20.888 14.46C20.628 14.941 20.029 15.13 19.543 14.88C19.058 14.628 18.861 14.041 19.105 13.552C19.157 13.449 20.423 11 24 11C27.577 11 28.843 13.449 28.895 13.553C29.142 14.047 28.942 14.648 28.448 14.895C28.304 14.966 28.151 15 28.001 15Z" fill="#664500"/>
</svg>
