<svg width="198" height="126" viewBox="0 0 198 126" fill="none" xmlns="http://www.w3.org/2000/svg">
    <g filter="url(#filter0_ddd)">
    <rect x="24" y="9" width="150" height="77" rx="4" fill="white"/>
    </g>
    <path d="M25.616 7.6C26.5547 7.68533 27.3227 8.048 27.92 8.688C28.5173 9.328 28.816 10.1387 28.816 11.12C28.816 12.1867 28.496 13.0613 27.856 13.744C27.216 14.384 26.4053 14.704 25.424 14.704C24.3147 14.704 23.4187 14.2987 22.736 13.488C22.096 12.6773 21.776 11.4187 21.776 9.712C21.776 6.42666 22.864 3.58933 25.04 1.2C25.4667 0.773331 25.9573 0.559998 26.512 0.559998C26.9813 0.559998 27.3867 0.730665 27.728 1.072C28.0693 1.37066 28.24 1.73333 28.24 2.16C28.24 2.62933 28.0693 3.03467 27.728 3.376C26.6187 4.528 25.9147 5.936 25.616 7.6ZM36.24 7.6C37.1787 7.68533 37.9467 8.048 38.544 8.688C39.1413 9.328 39.44 10.1387 39.44 11.12C39.44 12.1867 39.12 13.0613 38.48 13.744C37.84 14.384 37.0293 14.704 36.048 14.704C34.9387 14.704 34.0427 14.2987 33.36 13.488C32.72 12.6773 32.4 11.4187 32.4 9.712C32.4 6.42666 33.488 3.58933 35.664 1.2C36.0907 0.773331 36.5813 0.559998 37.136 0.559998C37.6053 0.559998 38.0107 0.730665 38.352 1.072C38.6933 1.37066 38.864 1.73333 38.864 2.16C38.864 2.62933 38.6933 3.03467 38.352 3.376C37.2427 4.528 36.5387 5.936 36.24 7.6Z" fill="#2EBFA5"/>
    <path d="M37.3018 25.8623L37.4932 27.1748L37.7734 25.9922L39.7422 19.0469H40.8496L42.7705 25.9922L43.0439 27.1953L43.2559 25.8555L44.8008 19.0469H46.1201L43.707 29H42.5107L40.46 21.7471L40.3027 20.9883L40.1455 21.7471L38.0195 29H36.8232L34.417 19.0469H35.7295L37.3018 25.8623ZM48.7588 29H47.4941V21.6035H48.7588V29ZM47.3916 19.6416C47.3916 19.4365 47.4531 19.2633 47.5762 19.1221C47.7038 18.9808 47.8906 18.9102 48.1367 18.9102C48.3828 18.9102 48.5697 18.9808 48.6973 19.1221C48.8249 19.2633 48.8887 19.4365 48.8887 19.6416C48.8887 19.8467 48.8249 20.0176 48.6973 20.1543C48.5697 20.291 48.3828 20.3594 48.1367 20.3594C47.8906 20.3594 47.7038 20.291 47.5762 20.1543C47.4531 20.0176 47.3916 19.8467 47.3916 19.6416ZM52.5049 19.8125V21.6035H53.8857V22.5811H52.5049V27.168C52.5049 27.4642 52.5664 27.6875 52.6895 27.8379C52.8125 27.9837 53.0221 28.0566 53.3184 28.0566C53.4642 28.0566 53.6647 28.0293 53.9199 27.9746V29C53.5872 29.0911 53.2637 29.1367 52.9492 29.1367C52.3841 29.1367 51.958 28.9658 51.6709 28.624C51.3838 28.2822 51.2402 27.7969 51.2402 27.168V22.5811H49.8936V21.6035H51.2402V19.8125H52.5049ZM56.6338 22.499C57.1943 21.8109 57.9235 21.4668 58.8213 21.4668C60.3844 21.4668 61.1729 22.3486 61.1865 24.1123V29H59.9219V24.1055C59.9173 23.5723 59.7943 23.1781 59.5527 22.9229C59.3158 22.6676 58.9443 22.54 58.4385 22.54C58.0283 22.54 57.6683 22.6494 57.3584 22.8682C57.0485 23.0869 56.807 23.374 56.6338 23.7295V29H55.3691V18.5H56.6338V22.499ZM70.4014 24.9736H68.0635V29H66.7441V19.0469H70.0391C71.1602 19.0469 72.0215 19.3021 72.623 19.8125C73.2292 20.3229 73.5322 21.0658 73.5322 22.041C73.5322 22.6608 73.3636 23.2008 73.0264 23.6611C72.6937 24.1214 72.2288 24.4655 71.6318 24.6934L73.9697 28.918V29H72.5615L70.4014 24.9736ZM68.0635 23.9004H70.0801C70.7318 23.9004 71.249 23.7318 71.6318 23.3945C72.0192 23.0573 72.2129 22.6061 72.2129 22.041C72.2129 21.4258 72.0283 20.9541 71.6592 20.626C71.2946 20.2979 70.766 20.1315 70.0732 20.127H68.0635V23.9004ZM76.5537 29H75.2891V21.6035H76.5537V29ZM75.1865 19.6416C75.1865 19.4365 75.248 19.2633 75.3711 19.1221C75.4987 18.9808 75.6855 18.9102 75.9316 18.9102C76.1777 18.9102 76.3646 18.9808 76.4922 19.1221C76.6198 19.2633 76.6836 19.4365 76.6836 19.6416C76.6836 19.8467 76.6198 20.0176 76.4922 20.1543C76.3646 20.291 76.1777 20.3594 75.9316 20.3594C75.6855 20.3594 75.4987 20.291 75.3711 20.1543C75.248 20.0176 75.1865 19.8467 75.1865 19.6416ZM80.2998 19.8125V21.6035H81.6807V22.5811H80.2998V27.168C80.2998 27.4642 80.3613 27.6875 80.4844 27.8379C80.6074 27.9837 80.8171 28.0566 81.1133 28.0566C81.2591 28.0566 81.4596 28.0293 81.7148 27.9746V29C81.3822 29.0911 81.0586 29.1367 80.7441 29.1367C80.179 29.1367 79.7529 28.9658 79.4658 28.624C79.1787 28.2822 79.0352 27.7969 79.0352 27.168V22.5811H77.6885V21.6035H79.0352V19.8125H80.2998ZM87.7305 29C87.6576 28.8542 87.5983 28.5944 87.5527 28.2207C86.9648 28.8314 86.263 29.1367 85.4473 29.1367C84.7181 29.1367 84.1188 28.9316 83.6494 28.5215C83.1846 28.1068 82.9521 27.5827 82.9521 26.9492C82.9521 26.179 83.2438 25.582 83.8271 25.1582C84.415 24.7298 85.2399 24.5156 86.3018 24.5156H87.5322V23.9346C87.5322 23.4925 87.4001 23.1416 87.1357 22.8818C86.8714 22.6175 86.4818 22.4854 85.9668 22.4854C85.5156 22.4854 85.1374 22.5993 84.832 22.8271C84.5267 23.055 84.374 23.3307 84.374 23.6543H83.1025C83.1025 23.2852 83.2324 22.9297 83.4922 22.5879C83.7565 22.2415 84.112 21.9681 84.5586 21.7676C85.0098 21.5671 85.5042 21.4668 86.042 21.4668C86.8942 21.4668 87.5618 21.681 88.0449 22.1094C88.528 22.5332 88.7786 23.1188 88.7969 23.8662V27.2705C88.7969 27.9495 88.8835 28.4896 89.0566 28.8906V29H87.7305ZM85.6318 28.0361C86.0283 28.0361 86.4043 27.9336 86.7598 27.7285C87.1152 27.5234 87.3727 27.2568 87.5322 26.9287V25.4111H86.541C84.9915 25.4111 84.2168 25.8646 84.2168 26.7715C84.2168 27.168 84.349 27.4779 84.6133 27.7012C84.8776 27.9245 85.2171 28.0361 85.6318 28.0361ZM95.8584 29H94.5459V19.0469H95.8584V29ZM105.846 27.0381C105.846 26.6963 105.716 26.432 105.456 26.2451C105.201 26.0537 104.752 25.8896 104.109 25.7529C103.471 25.6162 102.963 25.4521 102.585 25.2607C102.211 25.0693 101.933 24.8415 101.751 24.5771C101.573 24.3128 101.484 23.9984 101.484 23.6338C101.484 23.0277 101.74 22.515 102.25 22.0957C102.765 21.6764 103.421 21.4668 104.219 21.4668C105.057 21.4668 105.736 21.6833 106.256 22.1162C106.78 22.5492 107.042 23.1029 107.042 23.7773H105.771C105.771 23.431 105.622 23.1325 105.326 22.8818C105.035 22.6312 104.665 22.5059 104.219 22.5059C103.758 22.5059 103.398 22.6061 103.139 22.8066C102.879 23.0072 102.749 23.2692 102.749 23.5928C102.749 23.8981 102.87 24.1283 103.111 24.2832C103.353 24.4382 103.788 24.5863 104.417 24.7275C105.05 24.8688 105.563 25.0374 105.955 25.2334C106.347 25.4294 106.636 25.6663 106.823 25.9443C107.015 26.2178 107.11 26.5527 107.11 26.9492C107.11 27.61 106.846 28.141 106.317 28.542C105.789 28.9385 105.103 29.1367 104.26 29.1367C103.667 29.1367 103.143 29.0319 102.688 28.8223C102.232 28.6126 101.874 28.321 101.614 27.9473C101.359 27.569 101.231 27.1611 101.231 26.7236H102.496C102.519 27.1475 102.688 27.4847 103.002 27.7354C103.321 27.9814 103.74 28.1045 104.26 28.1045C104.738 28.1045 105.121 28.0088 105.408 27.8174C105.7 27.6214 105.846 27.3617 105.846 27.0381ZM110.474 19.8125V21.6035H111.854V22.5811H110.474V27.168C110.474 27.4642 110.535 27.6875 110.658 27.8379C110.781 27.9837 110.991 28.0566 111.287 28.0566C111.433 28.0566 111.633 28.0293 111.889 27.9746V29C111.556 29.0911 111.232 29.1367 110.918 29.1367C110.353 29.1367 109.927 28.9658 109.64 28.624C109.353 28.2822 109.209 27.7969 109.209 27.168V22.5811H107.862V21.6035H109.209V19.8125H110.474ZM112.866 25.2334C112.866 24.5088 113.007 23.8571 113.29 23.2783C113.577 22.6995 113.974 22.2529 114.479 21.9385C114.99 21.624 115.571 21.4668 116.223 21.4668C117.23 21.4668 118.043 21.8154 118.663 22.5127C119.287 23.21 119.6 24.1374 119.6 25.2949V25.3838C119.6 26.1038 119.461 26.751 119.183 27.3252C118.909 27.8949 118.515 28.3392 118 28.6582C117.49 28.9772 116.902 29.1367 116.236 29.1367C115.234 29.1367 114.42 28.7881 113.796 28.0908C113.176 27.3936 112.866 26.4707 112.866 25.3223V25.2334ZM114.138 25.3838C114.138 26.2041 114.327 26.8626 114.705 27.3594C115.088 27.8561 115.598 28.1045 116.236 28.1045C116.879 28.1045 117.389 27.8538 117.768 27.3525C118.146 26.8467 118.335 26.1403 118.335 25.2334C118.335 24.4222 118.141 23.766 117.754 23.2646C117.371 22.7588 116.861 22.5059 116.223 22.5059C115.598 22.5059 115.095 22.7542 114.712 23.251C114.329 23.7477 114.138 24.4587 114.138 25.3838ZM127.434 25.3838C127.434 26.5094 127.176 27.4163 126.661 28.1045C126.146 28.7926 125.449 29.1367 124.569 29.1367C123.672 29.1367 122.965 28.8519 122.45 28.2822V31.8438H121.186V21.6035H122.341L122.402 22.4238C122.917 21.7858 123.633 21.4668 124.549 21.4668C125.438 21.4668 126.139 21.8018 126.654 22.4717C127.174 23.1416 127.434 24.0736 127.434 25.2676V25.3838ZM126.169 25.2402C126.169 24.4062 125.991 23.7477 125.636 23.2646C125.28 22.7816 124.793 22.54 124.173 22.54C123.407 22.54 122.833 22.8796 122.45 23.5586V27.0928C122.828 27.7673 123.407 28.1045 124.187 28.1045C124.793 28.1045 125.273 27.8652 125.629 27.3867C125.989 26.9036 126.169 26.1882 126.169 25.2402ZM135.295 25.3838C135.295 26.5094 135.037 27.4163 134.522 28.1045C134.007 28.7926 133.31 29.1367 132.431 29.1367C131.533 29.1367 130.826 28.8519 130.312 28.2822V31.8438H129.047V21.6035H130.202L130.264 22.4238C130.779 21.7858 131.494 21.4668 132.41 21.4668C133.299 21.4668 134.001 21.8018 134.516 22.4717C135.035 23.1416 135.295 24.0736 135.295 25.2676V25.3838ZM134.03 25.2402C134.03 24.4062 133.853 23.7477 133.497 23.2646C133.142 22.7816 132.654 22.54 132.034 22.54C131.269 22.54 130.694 22.8796 130.312 23.5586V27.0928C130.69 27.7673 131.269 28.1045 132.048 28.1045C132.654 28.1045 133.135 27.8652 133.49 27.3867C133.85 26.9036 134.03 26.1882 134.03 25.2402ZM139.978 29.1367C138.975 29.1367 138.159 28.8086 137.53 28.1523C136.901 27.4915 136.587 26.6097 136.587 25.5068V25.2744C136.587 24.5407 136.726 23.8867 137.004 23.3125C137.286 22.7337 137.678 22.2826 138.18 21.959C138.686 21.6309 139.232 21.4668 139.82 21.4668C140.782 21.4668 141.529 21.7835 142.062 22.417C142.596 23.0505 142.862 23.9574 142.862 25.1377V25.6641H137.852C137.87 26.3932 138.082 26.9834 138.487 27.4346C138.897 27.8812 139.417 28.1045 140.046 28.1045C140.493 28.1045 140.871 28.0133 141.181 27.8311C141.491 27.6488 141.762 27.4072 141.994 27.1064L142.767 27.708C142.147 28.6605 141.217 29.1367 139.978 29.1367ZM139.82 22.5059C139.31 22.5059 138.882 22.6927 138.535 23.0664C138.189 23.4355 137.975 23.9551 137.893 24.625H141.598V24.5293C141.561 23.8867 141.388 23.39 141.078 23.0391C140.768 22.6836 140.349 22.5059 139.82 22.5059ZM144.024 25.2402C144.024 24.1055 144.293 23.194 144.831 22.5059C145.369 21.8132 146.073 21.4668 146.943 21.4668C147.809 21.4668 148.495 21.763 149.001 22.3555V18.5H150.266V29H149.104L149.042 28.207C148.536 28.8268 147.832 29.1367 146.93 29.1367C146.073 29.1367 145.373 28.7858 144.831 28.084C144.293 27.3822 144.024 26.4661 144.024 25.3359V25.2402ZM145.289 25.3838C145.289 26.2223 145.462 26.8786 145.809 27.3525C146.155 27.8265 146.633 28.0635 147.244 28.0635C148.046 28.0635 148.632 27.7035 149.001 26.9834V23.5859C148.623 22.8887 148.042 22.54 147.258 22.54C146.638 22.54 146.155 22.7793 145.809 23.2578C145.462 23.7363 145.289 24.445 145.289 25.3838ZM36.1465 37.6035L36.1807 38.4238C36.723 37.7858 37.4544 37.4668 38.375 37.4668C39.4095 37.4668 40.1136 37.8633 40.4873 38.6562C40.7334 38.3008 41.0524 38.0137 41.4443 37.7949C41.8408 37.5762 42.3079 37.4668 42.8457 37.4668C44.4681 37.4668 45.293 38.3258 45.3203 40.0439V45H44.0557V40.1191C44.0557 39.5905 43.9349 39.1963 43.6934 38.9365C43.4518 38.6722 43.0462 38.54 42.4766 38.54C42.0072 38.54 41.6175 38.6813 41.3076 38.9639C40.9977 39.2419 40.8177 39.6178 40.7676 40.0918V45H39.4961V40.1533C39.4961 39.0778 38.9697 38.54 37.917 38.54C37.0876 38.54 36.5202 38.8932 36.2148 39.5996V45H34.9502V37.6035H36.1465ZM46.8994 41.2334C46.8994 40.5088 47.0407 39.8571 47.3232 39.2783C47.6104 38.6995 48.0068 38.2529 48.5127 37.9385C49.0231 37.624 49.6042 37.4668 50.2559 37.4668C51.263 37.4668 52.0765 37.8154 52.6963 38.5127C53.3206 39.21 53.6328 40.1374 53.6328 41.2949V41.3838C53.6328 42.1038 53.4938 42.751 53.2158 43.3252C52.9424 43.8949 52.5482 44.3392 52.0332 44.6582C51.5228 44.9772 50.9349 45.1367 50.2695 45.1367C49.2669 45.1367 48.4535 44.7881 47.8291 44.0908C47.2093 43.3936 46.8994 42.4707 46.8994 41.3223V41.2334ZM48.1709 41.3838C48.1709 42.2041 48.36 42.8626 48.7383 43.3594C49.1211 43.8561 49.6315 44.1045 50.2695 44.1045C50.9121 44.1045 51.4225 43.8538 51.8008 43.3525C52.179 42.8467 52.3682 42.1403 52.3682 41.2334C52.3682 40.4222 52.1745 39.766 51.7871 39.2646C51.4043 38.7588 50.8939 38.5059 50.2559 38.5059C49.6315 38.5059 49.1279 38.7542 48.7451 39.251C48.3623 39.7477 48.1709 40.4587 48.1709 41.3838ZM58.7939 38.7383C58.6025 38.7064 58.3952 38.6904 58.1719 38.6904C57.3424 38.6904 56.7796 39.0436 56.4834 39.75V45H55.2188V37.6035H56.4492L56.4697 38.458C56.8844 37.7972 57.4723 37.4668 58.2334 37.4668C58.4795 37.4668 58.6663 37.4987 58.7939 37.5625V38.7383ZM62.8955 45.1367C61.8929 45.1367 61.0771 44.8086 60.4482 44.1523C59.8193 43.4915 59.5049 42.6097 59.5049 41.5068V41.2744C59.5049 40.5407 59.6439 39.8867 59.9219 39.3125C60.2044 38.7337 60.5964 38.2826 61.0977 37.959C61.6035 37.6309 62.1504 37.4668 62.7383 37.4668C63.6999 37.4668 64.4473 37.7835 64.9805 38.417C65.5137 39.0505 65.7803 39.9574 65.7803 41.1377V41.6641H60.7695C60.7878 42.3932 60.9997 42.9834 61.4053 43.4346C61.8154 43.8812 62.335 44.1045 62.9639 44.1045C63.4105 44.1045 63.7887 44.0133 64.0986 43.8311C64.4085 43.6488 64.6797 43.4072 64.9121 43.1064L65.6846 43.708C65.0648 44.6605 64.1351 45.1367 62.8955 45.1367ZM62.7383 38.5059C62.2279 38.5059 61.7995 38.6927 61.4531 39.0664C61.1068 39.4355 60.8926 39.9551 60.8105 40.625H64.5156V40.5293C64.4792 39.8867 64.306 39.39 63.9961 39.0391C63.6862 38.6836 63.2669 38.5059 62.7383 38.5059ZM72.4385 35.8125V37.6035H73.8193V38.5811H72.4385V43.168C72.4385 43.4642 72.5 43.6875 72.623 43.8379C72.7461 43.9837 72.9557 44.0566 73.252 44.0566C73.3978 44.0566 73.5983 44.0293 73.8535 43.9746V45C73.5208 45.0911 73.1973 45.1367 72.8828 45.1367C72.3177 45.1367 71.8916 44.9658 71.6045 44.624C71.3174 44.2822 71.1738 43.7969 71.1738 43.168V38.5811H69.8271V37.6035H71.1738V35.8125H72.4385ZM76.5674 38.499C77.1279 37.8109 77.8571 37.4668 78.7549 37.4668C80.318 37.4668 81.1064 38.3486 81.1201 40.1123V45H79.8555V40.1055C79.8509 39.5723 79.7279 39.1781 79.4863 38.9229C79.2493 38.6676 78.8779 38.54 78.3721 38.54C77.9619 38.54 77.6019 38.6494 77.292 38.8682C76.9821 39.0869 76.7406 39.374 76.5674 39.7295V45H75.3027V34.5H76.5674V38.499ZM87.5801 45C87.5072 44.8542 87.4479 44.5944 87.4023 44.2207C86.8145 44.8314 86.1126 45.1367 85.2969 45.1367C84.5677 45.1367 83.9684 44.9316 83.499 44.5215C83.0342 44.1068 82.8018 43.5827 82.8018 42.9492C82.8018 42.179 83.0934 41.582 83.6768 41.1582C84.2646 40.7298 85.0895 40.5156 86.1514 40.5156H87.3818V39.9346C87.3818 39.4925 87.2497 39.1416 86.9854 38.8818C86.721 38.6175 86.3314 38.4854 85.8164 38.4854C85.3652 38.4854 84.987 38.5993 84.6816 38.8271C84.3763 39.055 84.2236 39.3307 84.2236 39.6543H82.9521C82.9521 39.2852 83.082 38.9297 83.3418 38.5879C83.6061 38.2415 83.9616 37.9681 84.4082 37.7676C84.8594 37.5671 85.3538 37.4668 85.8916 37.4668C86.7438 37.4668 87.4115 37.681 87.8945 38.1094C88.3776 38.5332 88.6283 39.1188 88.6465 39.8662V43.2705C88.6465 43.9495 88.7331 44.4896 88.9062 44.8906V45H87.5801ZM85.4814 44.0361C85.8779 44.0361 86.2539 43.9336 86.6094 43.7285C86.9648 43.5234 87.2223 43.2568 87.3818 42.9287V41.4111H86.3906C84.8411 41.4111 84.0664 41.8646 84.0664 42.7715C84.0664 43.168 84.1986 43.4779 84.4629 43.7012C84.7272 43.9245 85.0667 44.0361 85.4814 44.0361ZM91.8252 37.6035L91.8662 38.5332C92.4313 37.8223 93.1696 37.4668 94.0811 37.4668C95.6442 37.4668 96.4326 38.3486 96.4463 40.1123V45H95.1816V40.1055C95.1771 39.5723 95.054 39.1781 94.8125 38.9229C94.5755 38.6676 94.2041 38.54 93.6982 38.54C93.2881 38.54 92.9281 38.6494 92.6182 38.8682C92.3083 39.0869 92.0667 39.374 91.8936 39.7295V45H90.6289V37.6035H91.8252ZM108.218 45H101.696V44.0908L105.142 40.2627C105.652 39.6839 106.003 39.2145 106.194 38.8545C106.39 38.4899 106.488 38.1139 106.488 37.7266C106.488 37.207 106.331 36.7809 106.017 36.4482C105.702 36.1156 105.283 35.9492 104.759 35.9492C104.13 35.9492 103.64 36.1292 103.289 36.4893C102.943 36.8447 102.77 37.3415 102.77 37.9795H101.505C101.505 37.0635 101.799 36.3229 102.387 35.7578C102.979 35.1927 103.77 34.9102 104.759 34.9102C105.684 34.9102 106.415 35.154 106.953 35.6416C107.491 36.1247 107.76 36.7695 107.76 37.5762C107.76 38.556 107.135 39.7227 105.887 41.0762L103.221 43.9678H108.218V45ZM115.799 40.7549C115.799 42.236 115.546 43.3366 115.04 44.0566C114.534 44.7767 113.743 45.1367 112.668 45.1367C111.606 45.1367 110.82 44.7858 110.31 44.084C109.799 43.3776 109.535 42.3249 109.517 40.9258V39.2373C109.517 37.7744 109.77 36.6875 110.275 35.9766C110.781 35.2656 111.574 34.9102 112.654 34.9102C113.725 34.9102 114.514 35.2542 115.02 35.9424C115.525 36.626 115.785 37.6833 115.799 39.1143V40.7549ZM114.534 39.0254C114.534 37.9544 114.384 37.1751 114.083 36.6875C113.782 36.1953 113.306 35.9492 112.654 35.9492C112.007 35.9492 111.535 36.193 111.239 36.6807C110.943 37.1683 110.79 37.918 110.781 38.9297V40.9531C110.781 42.0286 110.936 42.8239 111.246 43.3389C111.561 43.8493 112.035 44.1045 112.668 44.1045C113.292 44.1045 113.755 43.863 114.056 43.3799C114.361 42.8968 114.521 42.1357 114.534 41.0967V39.0254ZM123.66 40.7549C123.66 42.236 123.407 43.3366 122.901 44.0566C122.396 44.7767 121.605 45.1367 120.529 45.1367C119.467 45.1367 118.681 44.7858 118.171 44.084C117.66 43.3776 117.396 42.3249 117.378 40.9258V39.2373C117.378 37.7744 117.631 36.6875 118.137 35.9766C118.643 35.2656 119.436 34.9102 120.516 34.9102C121.587 34.9102 122.375 35.2542 122.881 35.9424C123.387 36.626 123.646 37.6833 123.66 39.1143V40.7549ZM122.396 39.0254C122.396 37.9544 122.245 37.1751 121.944 36.6875C121.644 36.1953 121.167 35.9492 120.516 35.9492C119.868 35.9492 119.397 36.193 119.101 36.6807C118.804 37.1683 118.652 37.918 118.643 38.9297V40.9531C118.643 42.0286 118.798 42.8239 119.107 43.3389C119.422 43.8493 119.896 44.1045 120.529 44.1045C121.154 44.1045 121.616 43.863 121.917 43.3799C122.222 42.8968 122.382 42.1357 122.396 41.0967V39.0254ZM37.9238 60.1045C38.375 60.1045 38.7692 59.9678 39.1064 59.6943C39.4437 59.4209 39.6305 59.0791 39.667 58.6689H40.8633C40.8405 59.0928 40.6947 59.4961 40.4258 59.8789C40.1569 60.2617 39.7969 60.5671 39.3457 60.7949C38.8991 61.0228 38.4251 61.1367 37.9238 61.1367C36.9167 61.1367 36.1146 60.8018 35.5176 60.1318C34.9251 59.4574 34.6289 58.5368 34.6289 57.3701V57.1582C34.6289 56.4382 34.7611 55.7979 35.0254 55.2373C35.2897 54.6768 35.668 54.2415 36.1602 53.9316C36.6569 53.6217 37.2425 53.4668 37.917 53.4668C38.7464 53.4668 39.4346 53.7152 39.9814 54.2119C40.5329 54.7087 40.8268 55.3535 40.8633 56.1465H39.667C39.6305 55.668 39.4482 55.276 39.1201 54.9707C38.7965 54.6608 38.3955 54.5059 37.917 54.5059C37.2744 54.5059 36.7754 54.7383 36.4199 55.2031C36.069 55.6634 35.8936 56.3311 35.8936 57.2061V57.4453C35.8936 58.2975 36.069 58.9538 36.4199 59.4141C36.7708 59.8743 37.2721 60.1045 37.9238 60.1045ZM41.9502 57.2334C41.9502 56.5088 42.0915 55.8571 42.374 55.2783C42.6611 54.6995 43.0576 54.2529 43.5635 53.9385C44.0739 53.624 44.6549 53.4668 45.3066 53.4668C46.3138 53.4668 47.1273 53.8154 47.7471 54.5127C48.3714 55.21 48.6836 56.1374 48.6836 57.2949V57.3838C48.6836 58.1038 48.5446 58.751 48.2666 59.3252C47.9932 59.8949 47.599 60.3392 47.084 60.6582C46.5736 60.9772 45.9857 61.1367 45.3203 61.1367C44.3177 61.1367 43.5042 60.7881 42.8799 60.0908C42.2601 59.3936 41.9502 58.4707 41.9502 57.3223V57.2334ZM43.2217 57.3838C43.2217 58.2041 43.4108 58.8626 43.7891 59.3594C44.1719 59.8561 44.6823 60.1045 45.3203 60.1045C45.9629 60.1045 46.4733 59.8538 46.8516 59.3525C47.2298 58.8467 47.4189 58.1403 47.4189 57.2334C47.4189 56.4222 47.2253 55.766 46.8379 55.2646C46.4551 54.7588 45.9447 54.5059 45.3066 54.5059C44.6823 54.5059 44.1787 54.7542 43.7959 55.251C43.4131 55.7477 43.2217 56.4587 43.2217 57.3838ZM51.459 53.6035L51.4932 54.4238C52.0355 53.7858 52.7669 53.4668 53.6875 53.4668C54.722 53.4668 55.4261 53.8633 55.7998 54.6562C56.0459 54.3008 56.3649 54.0137 56.7568 53.7949C57.1533 53.5762 57.6204 53.4668 58.1582 53.4668C59.7806 53.4668 60.6055 54.3258 60.6328 56.0439V61H59.3682V56.1191C59.3682 55.5905 59.2474 55.1963 59.0059 54.9365C58.7643 54.6722 58.3587 54.54 57.7891 54.54C57.3197 54.54 56.93 54.6813 56.6201 54.9639C56.3102 55.2419 56.1302 55.6178 56.0801 56.0918V61H54.8086V56.1533C54.8086 55.0778 54.2822 54.54 53.2295 54.54C52.4001 54.54 51.8327 54.8932 51.5273 55.5996V61H50.2627V53.6035H51.459ZM68.7949 57.3838C68.7949 58.5094 68.5374 59.4163 68.0225 60.1045C67.5075 60.7926 66.8102 61.1367 65.9307 61.1367C65.0329 61.1367 64.3265 60.8519 63.8115 60.2822V63.8438H62.5469V53.6035H63.7021L63.7637 54.4238C64.2786 53.7858 64.9941 53.4668 65.9102 53.4668C66.7988 53.4668 67.5007 53.8018 68.0156 54.4717C68.5352 55.1416 68.7949 56.0736 68.7949 57.2676V57.3838ZM67.5303 57.2402C67.5303 56.4062 67.3525 55.7477 66.9971 55.2646C66.6416 54.7816 66.154 54.54 65.5342 54.54C64.7686 54.54 64.1943 54.8796 63.8115 55.5586V59.0928C64.1898 59.7673 64.7686 60.1045 65.5479 60.1045C66.154 60.1045 66.6348 59.8652 66.9902 59.3867C67.3503 58.9036 67.5303 58.1882 67.5303 57.2402ZM74.9746 61C74.9017 60.8542 74.8424 60.5944 74.7969 60.2207C74.209 60.8314 73.5072 61.1367 72.6914 61.1367C71.9622 61.1367 71.363 60.9316 70.8936 60.5215C70.4287 60.1068 70.1963 59.5827 70.1963 58.9492C70.1963 58.179 70.488 57.582 71.0713 57.1582C71.6592 56.7298 72.484 56.5156 73.5459 56.5156H74.7764V55.9346C74.7764 55.4925 74.6442 55.1416 74.3799 54.8818C74.1156 54.6175 73.7259 54.4854 73.2109 54.4854C72.7598 54.4854 72.3815 54.5993 72.0762 54.8271C71.7708 55.055 71.6182 55.3307 71.6182 55.6543H70.3467C70.3467 55.2852 70.4766 54.9297 70.7363 54.5879C71.0007 54.2415 71.3561 53.9681 71.8027 53.7676C72.2539 53.5671 72.7484 53.4668 73.2861 53.4668C74.1383 53.4668 74.806 53.681 75.2891 54.1094C75.7721 54.5332 76.0228 55.1188 76.041 55.8662V59.2705C76.041 59.9495 76.1276 60.4896 76.3008 60.8906V61H74.9746ZM72.876 60.0361C73.2725 60.0361 73.6484 59.9336 74.0039 59.7285C74.3594 59.5234 74.6169 59.2568 74.7764 58.9287V57.4111H73.7852C72.2357 57.4111 71.4609 57.8646 71.4609 58.7715C71.4609 59.168 71.5931 59.4779 71.8574 59.7012C72.1217 59.9245 72.4613 60.0361 72.876 60.0361ZM79.2197 53.6035L79.2607 54.5332C79.8258 53.8223 80.5641 53.4668 81.4756 53.4668C83.0387 53.4668 83.8271 54.3486 83.8408 56.1123V61H82.5762V56.1055C82.5716 55.5723 82.4486 55.1781 82.207 54.9229C81.9701 54.6676 81.5986 54.54 81.0928 54.54C80.6826 54.54 80.3226 54.6494 80.0127 54.8682C79.7028 55.0869 79.4613 55.374 79.2881 55.7295V61H78.0234V53.6035H79.2197ZM87.1221 61H85.8574V53.6035H87.1221V61ZM85.7549 51.6416C85.7549 51.4365 85.8164 51.2633 85.9395 51.1221C86.0671 50.9808 86.2539 50.9102 86.5 50.9102C86.7461 50.9102 86.9329 50.9808 87.0605 51.1221C87.1882 51.2633 87.252 51.4365 87.252 51.6416C87.252 51.8467 87.1882 52.0176 87.0605 52.1543C86.9329 52.291 86.7461 52.3594 86.5 52.3594C86.2539 52.3594 86.0671 52.291 85.9395 52.1543C85.8164 52.0176 85.7549 51.8467 85.7549 51.6416ZM92.2217 61.1367C91.2191 61.1367 90.4033 60.8086 89.7744 60.1523C89.1455 59.4915 88.8311 58.6097 88.8311 57.5068V57.2744C88.8311 56.5407 88.9701 55.8867 89.248 55.3125C89.5306 54.7337 89.9225 54.2826 90.4238 53.959C90.9297 53.6309 91.4766 53.4668 92.0645 53.4668C93.026 53.4668 93.7734 53.7835 94.3066 54.417C94.8398 55.0505 95.1064 55.9574 95.1064 57.1377V57.6641H90.0957C90.1139 58.3932 90.3258 58.9834 90.7314 59.4346C91.1416 59.8812 91.6611 60.1045 92.29 60.1045C92.7367 60.1045 93.1149 60.0133 93.4248 59.8311C93.7347 59.6488 94.0059 59.4072 94.2383 59.1064L95.0107 59.708C94.391 60.6605 93.4613 61.1367 92.2217 61.1367ZM92.0645 54.5059C91.554 54.5059 91.1257 54.6927 90.7793 55.0664C90.4329 55.4355 90.2188 55.9551 90.1367 56.625H93.8418V56.5293C93.8053 55.8867 93.6322 55.39 93.3223 55.0391C93.0124 54.6836 92.5931 54.5059 92.0645 54.5059ZM100.883 59.0381C100.883 58.6963 100.753 58.432 100.493 58.2451C100.238 58.0537 99.7891 57.8896 99.1465 57.7529C98.5085 57.6162 98.0003 57.4521 97.6221 57.2607C97.2484 57.0693 96.9704 56.8415 96.7881 56.5771C96.6104 56.3128 96.5215 55.9984 96.5215 55.6338C96.5215 55.0277 96.7767 54.515 97.2871 54.0957C97.8021 53.6764 98.4583 53.4668 99.2559 53.4668C100.094 53.4668 100.773 53.6833 101.293 54.1162C101.817 54.5492 102.079 55.1029 102.079 55.7773H100.808C100.808 55.431 100.66 55.1325 100.363 54.8818C100.072 54.6312 99.7025 54.5059 99.2559 54.5059C98.7956 54.5059 98.4355 54.6061 98.1758 54.8066C97.916 55.0072 97.7861 55.2692 97.7861 55.5928C97.7861 55.8981 97.9069 56.1283 98.1484 56.2832C98.39 56.4382 98.8252 56.5863 99.4541 56.7275C100.088 56.8688 100.6 57.0374 100.992 57.2334C101.384 57.4294 101.674 57.6663 101.86 57.9443C102.052 58.2178 102.147 58.5527 102.147 58.9492C102.147 59.61 101.883 60.141 101.354 60.542C100.826 60.9385 100.14 61.1367 99.2969 61.1367C98.7044 61.1367 98.1803 61.0319 97.7246 60.8223C97.2689 60.6126 96.9111 60.321 96.6514 59.9473C96.3962 59.569 96.2686 59.1611 96.2686 58.7236H97.5332C97.556 59.1475 97.7246 59.4847 98.0391 59.7354C98.3581 59.9814 98.7773 60.1045 99.2969 60.1045C99.7754 60.1045 100.158 60.0088 100.445 59.8174C100.737 59.6214 100.883 59.3617 100.883 59.0381ZM108.983 51.8125V53.6035H110.364V54.5811H108.983V59.168C108.983 59.4642 109.045 59.6875 109.168 59.8379C109.291 59.9837 109.501 60.0566 109.797 60.0566C109.943 60.0566 110.143 60.0293 110.398 59.9746V61C110.066 61.0911 109.742 61.1367 109.428 61.1367C108.863 61.1367 108.437 60.9658 108.149 60.624C107.862 60.2822 107.719 59.7969 107.719 59.168V54.5811H106.372V53.6035H107.719V51.8125H108.983ZM116.414 61C116.341 60.8542 116.282 60.5944 116.236 60.2207C115.648 60.8314 114.947 61.1367 114.131 61.1367C113.402 61.1367 112.802 60.9316 112.333 60.5215C111.868 60.1068 111.636 59.5827 111.636 58.9492C111.636 58.179 111.927 57.582 112.511 57.1582C113.099 56.7298 113.924 56.5156 114.985 56.5156H116.216V55.9346C116.216 55.4925 116.084 55.1416 115.819 54.8818C115.555 54.6175 115.165 54.4854 114.65 54.4854C114.199 54.4854 113.821 54.5993 113.516 54.8271C113.21 55.055 113.058 55.3307 113.058 55.6543H111.786C111.786 55.2852 111.916 54.9297 112.176 54.5879C112.44 54.2415 112.796 53.9681 113.242 53.7676C113.693 53.5671 114.188 53.4668 114.726 53.4668C115.578 53.4668 116.245 53.681 116.729 54.1094C117.212 54.5332 117.462 55.1188 117.48 55.8662V59.2705C117.48 59.9495 117.567 60.4896 117.74 60.8906V61H116.414ZM114.315 60.0361C114.712 60.0361 115.088 59.9336 115.443 59.7285C115.799 59.5234 116.056 59.2568 116.216 58.9287V57.4111H115.225C113.675 57.4111 112.9 57.8646 112.9 58.7715C112.9 59.168 113.033 59.4779 113.297 59.7012C113.561 59.9245 113.901 60.0361 114.315 60.0361ZM121.527 57.5752L120.734 58.4023V61H119.47V50.5H120.734V56.8506L121.411 56.0371L123.715 53.6035H125.253L122.375 56.6934L125.588 61H124.104L121.527 57.5752ZM127.933 61H126.668V53.6035H127.933V61ZM126.565 51.6416C126.565 51.4365 126.627 51.2633 126.75 51.1221C126.878 50.9808 127.064 50.9102 127.311 50.9102C127.557 50.9102 127.743 50.9808 127.871 51.1221C127.999 51.2633 128.062 51.4365 128.062 51.6416C128.062 51.8467 127.999 52.0176 127.871 52.1543C127.743 52.291 127.557 52.3594 127.311 52.3594C127.064 52.3594 126.878 52.291 126.75 52.1543C126.627 52.0176 126.565 51.8467 126.565 51.6416ZM131.159 53.6035L131.2 54.5332C131.765 53.8223 132.504 53.4668 133.415 53.4668C134.978 53.4668 135.767 54.3486 135.78 56.1123V61H134.516V56.1055C134.511 55.5723 134.388 55.1781 134.146 54.9229C133.91 54.6676 133.538 54.54 133.032 54.54C132.622 54.54 132.262 54.6494 131.952 54.8682C131.642 55.0869 131.401 55.374 131.228 55.7295V61H129.963V53.6035H131.159ZM137.387 57.2402C137.387 56.0872 137.653 55.1712 138.187 54.4922C138.72 53.8086 139.426 53.4668 140.306 53.4668C141.208 53.4668 141.912 53.7858 142.418 54.4238L142.479 53.6035H143.635V60.8223C143.635 61.7793 143.35 62.5335 142.78 63.085C142.215 63.6364 141.454 63.9121 140.497 63.9121C139.964 63.9121 139.442 63.7982 138.932 63.5703C138.421 63.3424 138.032 63.0303 137.763 62.6338L138.419 61.875C138.961 62.5449 139.624 62.8799 140.408 62.8799C141.023 62.8799 141.502 62.7067 141.844 62.3604C142.19 62.014 142.363 61.5264 142.363 60.8975V60.2617C141.857 60.8451 141.167 61.1367 140.292 61.1367C139.426 61.1367 138.724 60.7881 138.187 60.0908C137.653 59.3936 137.387 58.4434 137.387 57.2402ZM138.658 57.3838C138.658 58.2178 138.829 58.874 139.171 59.3525C139.513 59.8265 139.991 60.0635 140.606 60.0635C141.404 60.0635 141.99 59.7012 142.363 58.9766V55.5996C141.976 54.8932 141.395 54.54 140.62 54.54C140.005 54.54 139.524 54.7793 139.178 55.2578C138.831 55.7363 138.658 56.445 138.658 57.3838ZM36.1465 69.6035L36.1807 70.4238C36.723 69.7858 37.4544 69.4668 38.375 69.4668C39.4095 69.4668 40.1136 69.8633 40.4873 70.6562C40.7334 70.3008 41.0524 70.0137 41.4443 69.7949C41.8408 69.5762 42.3079 69.4668 42.8457 69.4668C44.4681 69.4668 45.293 70.3258 45.3203 72.0439V77H44.0557V72.1191C44.0557 71.5905 43.9349 71.1963 43.6934 70.9365C43.4518 70.6722 43.0462 70.54 42.4766 70.54C42.0072 70.54 41.6175 70.6813 41.3076 70.9639C40.9977 71.2419 40.8177 71.6178 40.7676 72.0918V77H39.4961V72.1533C39.4961 71.0778 38.9697 70.54 37.917 70.54C37.0876 70.54 36.5202 70.8932 36.2148 71.5996V77H34.9502V69.6035H36.1465ZM49.6543 75.1475L51.377 69.6035H52.7305L49.7568 78.1416C49.2965 79.3721 48.5651 79.9873 47.5625 79.9873L47.3232 79.9668L46.8516 79.8779V78.8525L47.1934 78.8799C47.6217 78.8799 47.9544 78.7933 48.1914 78.6201C48.4329 78.4469 48.6312 78.1302 48.7861 77.6699L49.0664 76.918L46.4277 69.6035H47.8086L49.6543 75.1475ZM57.0303 73.2402C57.0303 72.1055 57.2992 71.194 57.8369 70.5059C58.3747 69.8132 59.0788 69.4668 59.9492 69.4668C60.8151 69.4668 61.501 69.763 62.0068 70.3555V66.5H63.2715V77H62.1094L62.0479 76.207C61.542 76.8268 60.8379 77.1367 59.9355 77.1367C59.0788 77.1367 58.3792 76.7858 57.8369 76.084C57.2992 75.3822 57.0303 74.4661 57.0303 73.3359V73.2402ZM58.2949 73.3838C58.2949 74.2223 58.4681 74.8786 58.8145 75.3525C59.1608 75.8265 59.6393 76.0635 60.25 76.0635C61.0521 76.0635 61.6377 75.7035 62.0068 74.9834V71.5859C61.6286 70.8887 61.0475 70.54 60.2637 70.54C59.6439 70.54 59.1608 70.7793 58.8145 71.2578C58.4681 71.7363 58.2949 72.445 58.2949 73.3838ZM69.8066 77C69.7337 76.8542 69.6745 76.5944 69.6289 76.2207C69.041 76.8314 68.3392 77.1367 67.5234 77.1367C66.7943 77.1367 66.195 76.9316 65.7256 76.5215C65.2607 76.1068 65.0283 75.5827 65.0283 74.9492C65.0283 74.179 65.32 73.582 65.9033 73.1582C66.4912 72.7298 67.3161 72.5156 68.3779 72.5156H69.6084V71.9346C69.6084 71.4925 69.4762 71.1416 69.2119 70.8818C68.9476 70.6175 68.5579 70.4854 68.043 70.4854C67.5918 70.4854 67.2135 70.5993 66.9082 70.8271C66.6029 71.055 66.4502 71.3307 66.4502 71.6543H65.1787C65.1787 71.2852 65.3086 70.9297 65.5684 70.5879C65.8327 70.2415 66.1882 69.9681 66.6348 69.7676C67.0859 69.5671 67.5804 69.4668 68.1182 69.4668C68.9704 69.4668 69.638 69.681 70.1211 70.1094C70.6042 70.5332 70.8548 71.1188 70.873 71.8662V75.2705C70.873 75.9495 70.9596 76.4896 71.1328 76.8906V77H69.8066ZM67.708 76.0361C68.1045 76.0361 68.4805 75.9336 68.8359 75.7285C69.1914 75.5234 69.4489 75.2568 69.6084 74.9287V73.4111H68.6172C67.0677 73.4111 66.293 73.8646 66.293 74.7715C66.293 75.168 66.4251 75.4779 66.6895 75.7012C66.9538 75.9245 67.2933 76.0361 67.708 76.0361ZM74.5713 67.8125V69.6035H75.9521V70.5811H74.5713V75.168C74.5713 75.4642 74.6328 75.6875 74.7559 75.8379C74.8789 75.9837 75.0885 76.0566 75.3848 76.0566C75.5306 76.0566 75.7311 76.0293 75.9863 75.9746V77C75.6536 77.0911 75.3301 77.1367 75.0156 77.1367C74.4505 77.1367 74.0244 76.9658 73.7373 76.624C73.4502 76.2822 73.3066 75.7969 73.3066 75.168V70.5811H71.96V69.6035H73.3066V67.8125H74.5713ZM82.002 77C81.929 76.8542 81.8698 76.5944 81.8242 76.2207C81.2363 76.8314 80.5345 77.1367 79.7188 77.1367C78.9896 77.1367 78.3903 76.9316 77.9209 76.5215C77.4561 76.1068 77.2236 75.5827 77.2236 74.9492C77.2236 74.179 77.5153 73.582 78.0986 73.1582C78.6865 72.7298 79.5114 72.5156 80.5732 72.5156H81.8037V71.9346C81.8037 71.4925 81.6715 71.1416 81.4072 70.8818C81.1429 70.6175 80.7533 70.4854 80.2383 70.4854C79.7871 70.4854 79.4089 70.5993 79.1035 70.8271C78.7982 71.055 78.6455 71.3307 78.6455 71.6543H77.374C77.374 71.2852 77.5039 70.9297 77.7637 70.5879C78.028 70.2415 78.3835 69.9681 78.8301 69.7676C79.2812 69.5671 79.7757 69.4668 80.3135 69.4668C81.1657 69.4668 81.8333 69.681 82.3164 70.1094C82.7995 70.5332 83.0501 71.1188 83.0684 71.8662V75.2705C83.0684 75.9495 83.1549 76.4896 83.3281 76.8906V77H82.002ZM79.9033 76.0361C80.2998 76.0361 80.6758 75.9336 81.0312 75.7285C81.3867 75.5234 81.6442 75.2568 81.8037 74.9287V73.4111H80.8125C79.263 73.4111 78.4883 73.8646 78.4883 74.7715C78.4883 75.168 78.6204 75.4779 78.8848 75.7012C79.1491 75.9245 79.4886 76.0361 79.9033 76.0361ZM85.0781 76.3369C85.0781 76.1182 85.1419 75.9359 85.2695 75.79C85.4017 75.6442 85.5977 75.5713 85.8574 75.5713C86.1172 75.5713 86.3132 75.6442 86.4453 75.79C86.582 75.9359 86.6504 76.1182 86.6504 76.3369C86.6504 76.5465 86.582 76.722 86.4453 76.8633C86.3132 77.0046 86.1172 77.0752 85.8574 77.0752C85.5977 77.0752 85.4017 77.0046 85.2695 76.8633C85.1419 76.722 85.0781 76.5465 85.0781 76.3369Z" fill="#242C57"/>
    <defs>
    <filter id="filter0_ddd" x="0" y="1" width="198" height="125" filterUnits="userSpaceOnUse" color-interpolation-filters="sRGB">
    <feFlood flood-opacity="0" result="BackgroundImageFix"/>
    <feColorMatrix in="SourceAlpha" type="matrix" values="0 0 0 0 0 0 0 0 0 0 0 0 0 0 0 0 0 0 127 0"/>
    <feOffset/>
    <feGaussianBlur stdDeviation="0.5"/>
    <feColorMatrix type="matrix" values="0 0 0 0 0 0 0 0 0 0 0 0 0 0 0 0 0 0 0.04 0"/>
    <feBlend mode="normal" in2="BackgroundImageFix" result="effect1_dropShadow"/>
    <feColorMatrix in="SourceAlpha" type="matrix" values="0 0 0 0 0 0 0 0 0 0 0 0 0 0 0 0 0 0 127 0"/>
    <feOffset dy="2"/>
    <feGaussianBlur stdDeviation="3"/>
    <feColorMatrix type="matrix" values="0 0 0 0 0 0 0 0 0 0 0 0 0 0 0 0 0 0 0.04 0"/>
    <feBlend mode="normal" in2="effect1_dropShadow" result="effect2_dropShadow"/>
    <feColorMatrix in="SourceAlpha" type="matrix" values="0 0 0 0 0 0 0 0 0 0 0 0 0 0 0 0 0 0 127 0"/>
    <feOffset dy="16"/>
    <feGaussianBlur stdDeviation="12"/>
    <feColorMatrix type="matrix" values="0 0 0 0 0 0 0 0 0 0 0 0 0 0 0 0 0 0 0.06 0"/>
    <feBlend mode="normal" in2="effect2_dropShadow" result="effect3_dropShadow"/>
    <feBlend mode="normal" in="SourceGraphic" in2="effect3_dropShadow" result="shape"/>
    </filter>
    </defs>
    </svg>
