<svg width="1920" height="441" viewBox="0 0 1920 441" fill="none" xmlns="http://www.w3.org/2000/svg">
    <rect width="1921" height="441" fill="#242A4C"/>
    <g filter="url(#filter0_ddd)">
    <rect x="1405" y="57" width="243" height="196" rx="4" fill="white"/>
    </g>
    <path d="M1424.12 87.5488H1422.12V91H1420.98V82.4688H1423.81C1424.77 82.4688 1425.51 82.6875 1426.02 83.125C1426.54 83.5625 1426.8 84.1992 1426.8 85.0352C1426.8 85.5664 1426.66 86.0293 1426.37 86.4238C1426.08 86.8184 1425.69 87.1133 1425.17 87.3086L1427.18 90.9297V91H1425.97L1424.12 87.5488ZM1422.12 86.6289H1423.84C1424.4 86.6289 1424.85 86.4844 1425.17 86.1953C1425.51 85.9062 1425.67 85.5195 1425.67 85.0352C1425.67 84.5078 1425.51 84.1035 1425.2 83.8223C1424.88 83.541 1424.43 83.3984 1423.84 83.3945H1422.12V86.6289ZM1429.39 91H1428.31V84.6602H1429.39V91ZM1428.22 82.9785C1428.22 82.8027 1428.27 82.6543 1428.38 82.5332C1428.49 82.4121 1428.65 82.3516 1428.86 82.3516C1429.07 82.3516 1429.23 82.4121 1429.34 82.5332C1429.45 82.6543 1429.5 82.8027 1429.5 82.9785C1429.5 83.1543 1429.45 83.3008 1429.34 83.418C1429.23 83.5352 1429.07 83.5938 1428.86 83.5938C1428.65 83.5938 1428.49 83.5352 1428.38 83.418C1428.27 83.3008 1428.22 83.1543 1428.22 82.9785ZM1432.6 83.125V84.6602H1433.79V85.498H1432.6V89.4297C1432.6 89.6836 1432.66 89.875 1432.76 90.0039C1432.87 90.1289 1433.05 90.1914 1433.3 90.1914C1433.43 90.1914 1433.6 90.168 1433.82 90.1211V91C1433.53 91.0781 1433.25 91.1172 1432.98 91.1172C1432.5 91.1172 1432.13 90.9707 1431.89 90.6777C1431.64 90.3848 1431.52 89.9688 1431.52 89.4297V85.498H1430.37V84.6602H1431.52V83.125H1432.6ZM1438.97 91C1438.91 90.875 1438.86 90.6523 1438.82 90.332C1438.32 90.8555 1437.71 91.1172 1437.02 91.1172C1436.39 91.1172 1435.88 90.9414 1435.47 90.5898C1435.08 90.2344 1434.88 89.7852 1434.88 89.2422C1434.88 88.582 1435.13 88.0703 1435.63 87.707C1436.13 87.3398 1436.84 87.1562 1437.75 87.1562H1438.8V86.6582C1438.8 86.2793 1438.69 85.9785 1438.46 85.7559C1438.24 85.5293 1437.9 85.416 1437.46 85.416C1437.07 85.416 1436.75 85.5137 1436.49 85.709C1436.23 85.9043 1436.1 86.1406 1436.1 86.418H1435.01C1435.01 86.1016 1435.12 85.7969 1435.34 85.5039C1435.57 85.207 1435.87 84.9727 1436.25 84.8008C1436.64 84.6289 1437.06 84.543 1437.53 84.543C1438.26 84.543 1438.83 84.7266 1439.24 85.0938C1439.66 85.457 1439.87 85.959 1439.89 86.5996V89.5176C1439.89 90.0996 1439.96 90.5625 1440.11 90.9062V91H1438.97ZM1437.17 90.1738C1437.51 90.1738 1437.84 90.0859 1438.14 89.9102C1438.45 89.7344 1438.67 89.5059 1438.8 89.2246V87.9238H1437.95C1436.62 87.9238 1435.96 88.3125 1435.96 89.0898C1435.96 89.4297 1436.07 89.6953 1436.3 89.8867C1436.53 90.0781 1436.82 90.1738 1437.17 90.1738ZM1447.19 91.1172C1446.33 91.1172 1445.63 90.8359 1445.1 90.2734C1444.56 89.707 1444.29 88.9512 1444.29 88.0059V87.8066C1444.29 87.1777 1444.41 86.6172 1444.64 86.125C1444.89 85.6289 1445.22 85.2422 1445.65 84.9648C1446.09 84.6836 1446.55 84.543 1447.06 84.543C1447.88 84.543 1448.52 84.8145 1448.98 85.3574C1449.44 85.9004 1449.67 86.6777 1449.67 87.6895V88.1406H1445.37C1445.39 88.7656 1445.57 89.2715 1445.92 89.6582C1446.27 90.041 1446.71 90.2324 1447.25 90.2324C1447.63 90.2324 1447.96 90.1543 1448.22 89.998C1448.49 89.8418 1448.72 89.6348 1448.92 89.377L1449.58 89.8926C1449.05 90.709 1448.26 91.1172 1447.19 91.1172ZM1447.06 85.4336C1446.62 85.4336 1446.25 85.5938 1445.96 85.9141C1445.66 86.2305 1445.48 86.6758 1445.41 87.25H1448.58V87.168C1448.55 86.6172 1448.4 86.1914 1448.14 85.8906C1447.87 85.5859 1447.51 85.4336 1447.06 85.4336ZM1454.84 91C1454.78 90.875 1454.73 90.6523 1454.69 90.332C1454.18 90.8555 1453.58 91.1172 1452.88 91.1172C1452.26 91.1172 1451.74 90.9414 1451.34 90.5898C1450.94 90.2344 1450.74 89.7852 1450.74 89.2422C1450.74 88.582 1450.99 88.0703 1451.49 87.707C1452 87.3398 1452.71 87.1562 1453.62 87.1562H1454.67V86.6582C1454.67 86.2793 1454.56 85.9785 1454.33 85.7559C1454.1 85.5293 1453.77 85.416 1453.33 85.416C1452.94 85.416 1452.62 85.5137 1452.36 85.709C1452.09 85.9043 1451.96 86.1406 1451.96 86.418H1450.87C1450.87 86.1016 1450.98 85.7969 1451.21 85.5039C1451.43 85.207 1451.74 84.9727 1452.12 84.8008C1452.51 84.6289 1452.93 84.543 1453.39 84.543C1454.12 84.543 1454.7 84.7266 1455.11 85.0938C1455.52 85.457 1455.74 85.959 1455.75 86.5996V89.5176C1455.75 90.0996 1455.83 90.5625 1455.98 90.9062V91H1454.84ZM1453.04 90.1738C1453.38 90.1738 1453.7 90.0859 1454.01 89.9102C1454.31 89.7344 1454.53 89.5059 1454.67 89.2246V87.9238H1453.82C1452.49 87.9238 1451.83 88.3125 1451.83 89.0898C1451.83 89.4297 1451.94 89.6953 1452.17 89.8867C1452.39 90.0781 1452.69 90.1738 1453.04 90.1738ZM1460.52 85.6328C1460.35 85.6055 1460.18 85.5918 1459.98 85.5918C1459.27 85.5918 1458.79 85.8945 1458.54 86.5V91H1457.45V84.6602H1458.51L1458.53 85.3926C1458.88 84.8262 1459.38 84.543 1460.04 84.543C1460.25 84.543 1460.41 84.5703 1460.52 84.625V85.6328ZM1462.7 91H1461.61V82H1462.7V91ZM1466.51 89.4121L1467.99 84.6602H1469.15L1466.6 91.9785C1466.21 93.0332 1465.58 93.5605 1464.72 93.5605L1464.51 93.543L1464.11 93.4668V92.5879L1464.4 92.6113C1464.77 92.6113 1465.05 92.5371 1465.26 92.3887C1465.46 92.2402 1465.63 91.9688 1465.77 91.5742L1466.01 90.9297L1463.75 84.6602H1464.93L1466.51 89.4121ZM1474.57 83.125V84.6602H1475.75V85.498H1474.57V89.4297C1474.57 89.6836 1474.62 89.875 1474.73 90.0039C1474.83 90.1289 1475.01 90.1914 1475.27 90.1914C1475.39 90.1914 1475.56 90.168 1475.78 90.1211V91C1475.5 91.0781 1475.22 91.1172 1474.95 91.1172C1474.46 91.1172 1474.1 90.9707 1473.85 90.6777C1473.61 90.3848 1473.48 89.9688 1473.48 89.4297V85.498H1472.33V84.6602H1473.48V83.125H1474.57ZM1479.65 91.1172C1478.79 91.1172 1478.1 90.8359 1477.56 90.2734C1477.02 89.707 1476.75 88.9512 1476.75 88.0059V87.8066C1476.75 87.1777 1476.87 86.6172 1477.11 86.125C1477.35 85.6289 1477.68 85.2422 1478.11 84.9648C1478.55 84.6836 1479.02 84.543 1479.52 84.543C1480.34 84.543 1480.98 84.8145 1481.44 85.3574C1481.9 85.9004 1482.13 86.6777 1482.13 87.6895V88.1406H1477.83C1477.85 88.7656 1478.03 89.2715 1478.38 89.6582C1478.73 90.041 1479.17 90.2324 1479.71 90.2324C1480.1 90.2324 1480.42 90.1543 1480.69 89.998C1480.95 89.8418 1481.18 89.6348 1481.38 89.377L1482.04 89.8926C1481.51 90.709 1480.72 91.1172 1479.65 91.1172ZM1479.52 85.4336C1479.08 85.4336 1478.71 85.5938 1478.42 85.9141C1478.12 86.2305 1477.94 86.6758 1477.87 87.25H1481.04V87.168C1481.01 86.6172 1480.86 86.1914 1480.6 85.8906C1480.33 85.5859 1479.97 85.4336 1479.52 85.4336ZM1487.08 89.3184C1487.08 89.0254 1486.97 88.7988 1486.74 88.6387C1486.53 88.4746 1486.14 88.334 1485.59 88.2168C1485.04 88.0996 1484.61 87.959 1484.28 87.7949C1483.96 87.6309 1483.72 87.4355 1483.57 87.209C1483.42 86.9824 1483.34 86.7129 1483.34 86.4004C1483.34 85.8809 1483.56 85.4414 1484 85.082C1484.44 84.7227 1485 84.543 1485.68 84.543C1486.4 84.543 1486.98 84.7285 1487.43 85.0996C1487.88 85.4707 1488.1 85.9453 1488.1 86.5234H1487.01C1487.01 86.2266 1486.89 85.9707 1486.63 85.7559C1486.38 85.541 1486.07 85.4336 1485.68 85.4336C1485.29 85.4336 1484.98 85.5195 1484.76 85.6914C1484.54 85.8633 1484.42 86.0879 1484.42 86.3652C1484.42 86.627 1484.53 86.8242 1484.73 86.957C1484.94 87.0898 1485.31 87.2168 1485.85 87.3379C1486.4 87.459 1486.84 87.6035 1487.17 87.7715C1487.51 87.9395 1487.76 88.1426 1487.92 88.3809C1488.08 88.6152 1488.16 88.9023 1488.16 89.2422C1488.16 89.8086 1487.94 90.2637 1487.48 90.6074C1487.03 90.9473 1486.44 91.1172 1485.72 91.1172C1485.21 91.1172 1484.76 91.0273 1484.37 90.8477C1483.98 90.668 1483.67 90.418 1483.45 90.0977C1483.23 89.7734 1483.12 89.4238 1483.12 89.0488H1484.21C1484.23 89.4121 1484.37 89.7012 1484.64 89.916C1484.91 90.127 1485.27 90.2324 1485.72 90.2324C1486.13 90.2324 1486.46 90.1504 1486.7 89.9863C1486.95 89.8184 1487.08 89.5957 1487.08 89.3184ZM1491.04 83.125V84.6602H1492.23V85.498H1491.04V89.4297C1491.04 89.6836 1491.1 89.875 1491.2 90.0039C1491.31 90.1289 1491.49 90.1914 1491.74 90.1914C1491.87 90.1914 1492.04 90.168 1492.26 90.1211V91C1491.97 91.0781 1491.7 91.1172 1491.43 91.1172C1490.94 91.1172 1490.58 90.9707 1490.33 90.6777C1490.08 90.3848 1489.96 89.9688 1489.96 89.4297V85.498H1488.81V84.6602H1489.96V83.125H1491.04ZM1496.13 91.1172C1495.27 91.1172 1494.57 90.8359 1494.03 90.2734C1493.49 89.707 1493.22 88.9512 1493.22 88.0059V87.8066C1493.22 87.1777 1493.34 86.6172 1493.58 86.125C1493.82 85.6289 1494.16 85.2422 1494.59 84.9648C1495.02 84.6836 1495.49 84.543 1496 84.543C1496.82 84.543 1497.46 84.8145 1497.92 85.3574C1498.38 85.9004 1498.6 86.6777 1498.6 87.6895V88.1406H1494.31C1494.32 88.7656 1494.51 89.2715 1494.85 89.6582C1495.21 90.041 1495.65 90.2324 1496.19 90.2324C1496.57 90.2324 1496.9 90.1543 1497.16 89.998C1497.43 89.8418 1497.66 89.6348 1497.86 89.377L1498.52 89.8926C1497.99 90.709 1497.19 91.1172 1496.13 91.1172ZM1496 85.4336C1495.56 85.4336 1495.19 85.5938 1494.89 85.9141C1494.6 86.2305 1494.41 86.6758 1494.34 87.25H1497.52V87.168C1497.49 86.6172 1497.34 86.1914 1497.07 85.8906C1496.81 85.5859 1496.45 85.4336 1496 85.4336ZM1502.93 85.6328C1502.76 85.6055 1502.59 85.5918 1502.39 85.5918C1501.68 85.5918 1501.2 85.8945 1500.95 86.5V91H1499.86V84.6602H1500.92L1500.94 85.3926C1501.29 84.8262 1501.79 84.543 1502.45 84.543C1502.66 84.543 1502.82 84.5703 1502.93 84.625V85.6328Z" fill="#959595"/>
    <path d="M1435.51 206.318C1435.51 206.025 1435.4 205.799 1435.18 205.639C1434.96 205.475 1434.57 205.334 1434.02 205.217C1433.48 205.1 1433.04 204.959 1432.72 204.795C1432.4 204.631 1432.16 204.436 1432 204.209C1431.85 203.982 1431.77 203.713 1431.77 203.4C1431.77 202.881 1431.99 202.441 1432.43 202.082C1432.87 201.723 1433.43 201.543 1434.12 201.543C1434.84 201.543 1435.42 201.729 1435.86 202.1C1436.31 202.471 1436.54 202.945 1436.54 203.523H1435.45C1435.45 203.227 1435.32 202.971 1435.07 202.756C1434.82 202.541 1434.5 202.434 1434.12 202.434C1433.72 202.434 1433.41 202.52 1433.19 202.691C1432.97 202.863 1432.86 203.088 1432.86 203.365C1432.86 203.627 1432.96 203.824 1433.17 203.957C1433.38 204.09 1433.75 204.217 1434.29 204.338C1434.83 204.459 1435.27 204.604 1435.61 204.771C1435.94 204.939 1436.19 205.143 1436.35 205.381C1436.51 205.615 1436.6 205.902 1436.6 206.242C1436.6 206.809 1436.37 207.264 1435.92 207.607C1435.46 207.947 1434.88 208.117 1434.15 208.117C1433.64 208.117 1433.2 208.027 1432.8 207.848C1432.41 207.668 1432.11 207.418 1431.88 207.098C1431.67 206.773 1431.56 206.424 1431.56 206.049H1432.64C1432.66 206.412 1432.8 206.701 1433.07 206.916C1433.35 207.127 1433.71 207.232 1434.15 207.232C1434.56 207.232 1434.89 207.15 1435.14 206.986C1435.39 206.818 1435.51 206.596 1435.51 206.318ZM1439.19 208H1438.1V201.66H1439.19V208ZM1438.01 199.979C1438.01 199.803 1438.07 199.654 1438.17 199.533C1438.28 199.412 1438.44 199.352 1438.65 199.352C1438.86 199.352 1439.02 199.412 1439.13 199.533C1439.24 199.654 1439.3 199.803 1439.3 199.979C1439.3 200.154 1439.24 200.301 1439.13 200.418C1439.02 200.535 1438.86 200.594 1438.65 200.594C1438.44 200.594 1438.28 200.535 1438.17 200.418C1438.07 200.301 1438.01 200.154 1438.01 199.979ZM1441.95 201.66L1441.99 202.457C1442.47 201.848 1443.1 201.543 1443.88 201.543C1445.22 201.543 1445.9 202.299 1445.91 203.811V208H1444.83V203.805C1444.82 203.348 1444.72 203.01 1444.51 202.791C1444.31 202.572 1443.99 202.463 1443.56 202.463C1443.21 202.463 1442.9 202.557 1442.63 202.744C1442.37 202.932 1442.16 203.178 1442.01 203.482V208H1440.93V201.66H1441.95ZM1450.09 207.232C1450.48 207.232 1450.81 207.115 1451.1 206.881C1451.39 206.646 1451.55 206.354 1451.58 206.002H1452.61C1452.59 206.365 1452.46 206.711 1452.23 207.039C1452 207.367 1451.7 207.629 1451.31 207.824C1450.93 208.02 1450.52 208.117 1450.09 208.117C1449.23 208.117 1448.54 207.83 1448.03 207.256C1447.52 206.678 1447.27 205.889 1447.27 204.889V204.707C1447.27 204.09 1447.38 203.541 1447.61 203.061C1447.83 202.58 1448.16 202.207 1448.58 201.941C1449 201.676 1449.51 201.543 1450.08 201.543C1450.79 201.543 1451.38 201.756 1451.85 202.182C1452.33 202.607 1452.58 203.16 1452.61 203.84H1451.58C1451.55 203.43 1451.4 203.094 1451.12 202.832C1450.84 202.566 1450.49 202.434 1450.08 202.434C1449.53 202.434 1449.11 202.633 1448.8 203.031C1448.5 203.426 1448.35 203.998 1448.35 204.748V204.953C1448.35 205.684 1448.5 206.246 1448.8 206.641C1449.1 207.035 1449.53 207.232 1450.09 207.232ZM1456.46 208.117C1455.6 208.117 1454.9 207.836 1454.36 207.273C1453.82 206.707 1453.55 205.951 1453.55 205.006V204.807C1453.55 204.178 1453.67 203.617 1453.91 203.125C1454.15 202.629 1454.49 202.242 1454.92 201.965C1455.35 201.684 1455.82 201.543 1456.32 201.543C1457.15 201.543 1457.79 201.814 1458.25 202.357C1458.7 202.9 1458.93 203.678 1458.93 204.689V205.141H1454.64C1454.65 205.766 1454.83 206.271 1455.18 206.658C1455.53 207.041 1455.98 207.232 1456.52 207.232C1456.9 207.232 1457.22 207.154 1457.49 206.998C1457.76 206.842 1457.99 206.635 1458.19 206.377L1458.85 206.893C1458.32 207.709 1457.52 208.117 1456.46 208.117ZM1456.32 202.434C1455.89 202.434 1455.52 202.594 1455.22 202.914C1454.93 203.23 1454.74 203.676 1454.67 204.25H1457.85V204.168C1457.82 203.617 1457.67 203.191 1457.4 202.891C1457.14 202.586 1456.78 202.434 1456.32 202.434ZM1464.35 208H1463.26V199H1464.35V208ZM1470 208C1469.94 207.875 1469.89 207.652 1469.85 207.332C1469.34 207.855 1468.74 208.117 1468.04 208.117C1467.42 208.117 1466.9 207.941 1466.5 207.59C1466.1 207.234 1465.9 206.785 1465.9 206.242C1465.9 205.582 1466.15 205.07 1466.65 204.707C1467.16 204.34 1467.87 204.156 1468.78 204.156H1469.83V203.658C1469.83 203.279 1469.72 202.979 1469.49 202.756C1469.26 202.529 1468.93 202.416 1468.49 202.416C1468.1 202.416 1467.78 202.514 1467.52 202.709C1467.25 202.904 1467.12 203.141 1467.12 203.418H1466.03C1466.03 203.102 1466.14 202.797 1466.37 202.504C1466.59 202.207 1466.9 201.973 1467.28 201.801C1467.67 201.629 1468.09 201.543 1468.55 201.543C1469.28 201.543 1469.86 201.727 1470.27 202.094C1470.68 202.457 1470.9 202.959 1470.91 203.6V206.518C1470.91 207.1 1470.99 207.562 1471.14 207.906V208H1470ZM1468.2 207.174C1468.54 207.174 1468.86 207.086 1469.17 206.91C1469.47 206.734 1469.69 206.506 1469.83 206.225V204.924H1468.98C1467.65 204.924 1466.99 205.312 1466.99 206.09C1466.99 206.43 1467.1 206.695 1467.33 206.887C1467.55 207.078 1467.85 207.174 1468.2 207.174ZM1476.3 206.318C1476.3 206.025 1476.19 205.799 1475.97 205.639C1475.75 205.475 1475.37 205.334 1474.82 205.217C1474.27 205.1 1473.83 204.959 1473.51 204.795C1473.19 204.631 1472.95 204.436 1472.79 204.209C1472.64 203.982 1472.57 203.713 1472.57 203.4C1472.57 202.881 1472.79 202.441 1473.22 202.082C1473.66 201.723 1474.23 201.543 1474.91 201.543C1475.63 201.543 1476.21 201.729 1476.66 202.1C1477.11 202.471 1477.33 202.945 1477.33 203.523H1476.24C1476.24 203.227 1476.11 202.971 1475.86 202.756C1475.61 202.541 1475.29 202.434 1474.91 202.434C1474.52 202.434 1474.21 202.52 1473.98 202.691C1473.76 202.863 1473.65 203.088 1473.65 203.365C1473.65 203.627 1473.75 203.824 1473.96 203.957C1474.17 204.09 1474.54 204.217 1475.08 204.338C1475.62 204.459 1476.06 204.604 1476.4 204.771C1476.73 204.939 1476.98 205.143 1477.14 205.381C1477.31 205.615 1477.39 205.902 1477.39 206.242C1477.39 206.809 1477.16 207.264 1476.71 207.607C1476.26 207.947 1475.67 208.117 1474.95 208.117C1474.44 208.117 1473.99 208.027 1473.6 207.848C1473.21 207.668 1472.9 207.418 1472.68 207.098C1472.46 206.773 1472.35 206.424 1472.35 206.049H1473.43C1473.45 206.412 1473.6 206.701 1473.87 206.916C1474.14 207.127 1474.5 207.232 1474.95 207.232C1475.36 207.232 1475.68 207.15 1475.93 206.986C1476.18 206.818 1476.3 206.596 1476.3 206.318ZM1480.27 200.125V201.66H1481.46V202.498H1480.27V206.43C1480.27 206.684 1480.32 206.875 1480.43 207.004C1480.54 207.129 1480.71 207.191 1480.97 207.191C1481.09 207.191 1481.27 207.168 1481.48 207.121V208C1481.2 208.078 1480.92 208.117 1480.65 208.117C1480.17 208.117 1479.8 207.971 1479.56 207.678C1479.31 207.385 1479.19 206.969 1479.19 206.43V202.498H1478.03V201.66H1479.19V200.125H1480.27ZM1491.32 206.506L1492.54 201.66H1493.62L1491.77 208H1490.89L1489.35 203.195L1487.85 208H1486.97L1485.13 201.66H1486.21L1487.46 206.406L1488.94 201.66H1489.81L1491.32 206.506ZM1497.36 208.117C1496.5 208.117 1495.8 207.836 1495.26 207.273C1494.72 206.707 1494.45 205.951 1494.45 205.006V204.807C1494.45 204.178 1494.57 203.617 1494.81 203.125C1495.05 202.629 1495.39 202.242 1495.82 201.965C1496.25 201.684 1496.72 201.543 1497.22 201.543C1498.05 201.543 1498.69 201.814 1499.14 202.357C1499.6 202.9 1499.83 203.678 1499.83 204.689V205.141H1495.54C1495.55 205.766 1495.73 206.271 1496.08 206.658C1496.43 207.041 1496.88 207.232 1497.42 207.232C1497.8 207.232 1498.12 207.154 1498.39 206.998C1498.65 206.842 1498.89 206.635 1499.09 206.377L1499.75 206.893C1499.22 207.709 1498.42 208.117 1497.36 208.117ZM1497.22 202.434C1496.79 202.434 1496.42 202.594 1496.12 202.914C1495.82 203.23 1495.64 203.676 1495.57 204.25H1498.75V204.168C1498.71 203.617 1498.57 203.191 1498.3 202.891C1498.04 202.586 1497.68 202.434 1497.22 202.434ZM1503.72 208.117C1502.86 208.117 1502.16 207.836 1501.62 207.273C1501.08 206.707 1500.81 205.951 1500.81 205.006V204.807C1500.81 204.178 1500.93 203.617 1501.17 203.125C1501.41 202.629 1501.75 202.242 1502.18 201.965C1502.61 201.684 1503.08 201.543 1503.59 201.543C1504.41 201.543 1505.05 201.814 1505.51 202.357C1505.96 202.9 1506.19 203.678 1506.19 204.689V205.141H1501.9C1501.91 205.766 1502.1 206.271 1502.44 206.658C1502.79 207.041 1503.24 207.232 1503.78 207.232C1504.16 207.232 1504.49 207.154 1504.75 206.998C1505.02 206.842 1505.25 206.635 1505.45 206.377L1506.11 206.893C1505.58 207.709 1504.78 208.117 1503.72 208.117ZM1503.59 202.434C1503.15 202.434 1502.78 202.594 1502.48 202.914C1502.19 203.23 1502 203.676 1501.93 204.25H1505.11V204.168C1505.08 203.617 1504.93 203.191 1504.66 202.891C1504.4 202.586 1504.04 202.434 1503.59 202.434ZM1509.22 205.064L1508.54 205.773V208H1507.46V199H1508.54V204.443L1509.12 203.746L1511.1 201.66H1512.42L1509.95 204.309L1512.7 208H1511.43L1509.22 205.064Z" fill="#959595"/>
    <path d="M1421.13 111.108C1420.21 111.144 1419.75 110.826 1419.75 110.154C1419.75 109.866 1419.83 109.65 1419.98 109.506C1420.13 109.35 1420.36 109.26 1420.68 109.236L1421.26 109.2C1421.75 109.176 1422.12 109.02 1422.38 108.732C1422.63 108.444 1422.75 108.006 1422.75 107.418V99.372C1422.75 99.024 1422.86 98.748 1423.06 98.544C1423.28 98.328 1423.56 98.22 1423.91 98.22C1424.27 98.22 1424.55 98.328 1424.75 98.544C1424.97 98.748 1425.08 99.024 1425.08 99.372V107.418C1425.08 109.686 1423.95 110.904 1421.71 111.072L1421.13 111.108ZM1434.57 102.018C1434.92 102.018 1435.19 102.114 1435.4 102.306C1435.6 102.498 1435.7 102.756 1435.7 103.08V110.064C1435.7 110.376 1435.6 110.628 1435.38 110.82C1435.18 111.012 1434.91 111.108 1434.57 111.108C1434.25 111.108 1433.99 111.018 1433.8 110.838C1433.6 110.658 1433.51 110.412 1433.51 110.1V109.65C1433.23 110.13 1432.86 110.502 1432.39 110.766C1431.92 111.018 1431.4 111.144 1430.81 111.144C1428.65 111.144 1427.57 109.932 1427.57 107.508V103.08C1427.57 102.756 1427.67 102.498 1427.87 102.306C1428.08 102.114 1428.35 102.018 1428.68 102.018C1429.03 102.018 1429.31 102.114 1429.51 102.306C1429.72 102.498 1429.82 102.756 1429.82 103.08V107.526C1429.82 108.15 1429.94 108.612 1430.2 108.912C1430.45 109.212 1430.84 109.362 1431.38 109.362C1432.01 109.362 1432.51 109.158 1432.88 108.75C1433.26 108.33 1433.45 107.778 1433.45 107.094V103.08C1433.45 102.756 1433.56 102.498 1433.76 102.306C1433.96 102.114 1434.23 102.018 1434.57 102.018ZM1439.16 111.108C1438.84 111.108 1438.57 111.018 1438.35 110.838C1438.15 110.646 1438.05 110.376 1438.05 110.028V99.282C1438.05 98.934 1438.15 98.67 1438.35 98.49C1438.57 98.31 1438.84 98.22 1439.16 98.22C1439.49 98.22 1439.76 98.31 1439.97 98.49C1440.19 98.67 1440.3 98.934 1440.3 99.282V110.028C1440.3 110.376 1440.19 110.646 1439.97 110.838C1439.76 111.018 1439.49 111.108 1439.16 111.108ZM1443.73 111.108C1443.41 111.108 1443.14 111.018 1442.92 110.838C1442.72 110.646 1442.62 110.376 1442.62 110.028V103.08C1442.62 102.732 1442.72 102.468 1442.92 102.288C1443.14 102.108 1443.41 102.018 1443.73 102.018C1444.06 102.018 1444.33 102.108 1444.54 102.288C1444.76 102.468 1444.87 102.732 1444.87 103.08V110.028C1444.87 110.376 1444.76 110.646 1444.54 110.838C1444.33 111.018 1444.06 111.108 1443.73 111.108ZM1443.73 100.416C1443.32 100.416 1443 100.308 1442.76 100.092C1442.52 99.864 1442.4 99.57 1442.4 99.21C1442.4 98.85 1442.52 98.562 1442.76 98.346C1443 98.13 1443.32 98.022 1443.73 98.022C1444.13 98.022 1444.45 98.13 1444.69 98.346C1444.94 98.562 1445.06 98.85 1445.06 99.21C1445.06 99.57 1444.94 99.864 1444.7 100.092C1444.46 100.308 1444.14 100.416 1443.73 100.416ZM1451 101.982C1452.23 101.982 1453.13 102.288 1453.72 102.9C1454.32 103.5 1454.62 104.418 1454.62 105.654V110.046C1454.62 110.37 1454.52 110.628 1454.33 110.82C1454.14 111 1453.88 111.09 1453.54 111.09C1453.23 111.09 1452.97 110.994 1452.77 110.802C1452.57 110.61 1452.48 110.358 1452.48 110.046V109.65C1452.27 110.118 1451.95 110.484 1451.51 110.748C1451.07 111.012 1450.57 111.144 1449.99 111.144C1449.41 111.144 1448.87 111.024 1448.39 110.784C1447.91 110.544 1447.53 110.214 1447.26 109.794C1446.98 109.374 1446.84 108.906 1446.84 108.39C1446.84 107.742 1447.01 107.232 1447.33 106.86C1447.67 106.488 1448.21 106.218 1448.95 106.05C1449.69 105.882 1450.72 105.798 1452.03 105.798H1452.48V105.384C1452.48 104.796 1452.35 104.37 1452.1 104.106C1451.85 103.83 1451.44 103.692 1450.88 103.692C1450.53 103.692 1450.17 103.746 1449.81 103.854C1449.45 103.95 1449.03 104.094 1448.54 104.286C1448.22 104.442 1448 104.52 1447.85 104.52C1447.64 104.52 1447.46 104.442 1447.31 104.286C1447.18 104.13 1447.11 103.926 1447.11 103.674C1447.11 103.47 1447.16 103.296 1447.26 103.152C1447.37 102.996 1447.54 102.852 1447.78 102.72C1448.2 102.492 1448.7 102.312 1449.27 102.18C1449.86 102.048 1450.44 101.982 1451 101.982ZM1450.44 109.524C1451.04 109.524 1451.53 109.326 1451.9 108.93C1452.29 108.522 1452.48 108 1452.48 107.364V106.986H1452.15C1451.35 106.986 1450.73 107.022 1450.28 107.094C1449.84 107.166 1449.52 107.292 1449.33 107.472C1449.14 107.652 1449.04 107.898 1449.04 108.21C1449.04 108.594 1449.17 108.912 1449.44 109.164C1449.71 109.404 1450.05 109.524 1450.44 109.524Z" fill="#242A4C"/>
    <path d="M1428.48 149.842C1428.35 150.895 1427.96 151.708 1427.31 152.282C1426.66 152.852 1425.79 153.137 1424.7 153.137C1423.53 153.137 1422.58 152.715 1421.87 151.872C1421.17 151.029 1420.81 149.901 1420.81 148.488V147.531C1420.81 146.606 1420.98 145.793 1421.31 145.091C1421.64 144.389 1422.11 143.851 1422.71 143.478C1423.32 143.099 1424.02 142.91 1424.82 142.91C1425.88 142.91 1426.72 143.206 1427.36 143.799C1428 144.387 1428.37 145.202 1428.48 146.246H1427.16C1427.04 145.453 1426.79 144.879 1426.41 144.523C1426.03 144.168 1425.5 143.99 1424.82 143.99C1423.98 143.99 1423.32 144.3 1422.84 144.92C1422.37 145.54 1422.13 146.422 1422.13 147.565V148.529C1422.13 149.609 1422.36 150.468 1422.81 151.106C1423.26 151.744 1423.89 152.063 1424.7 152.063C1425.43 152.063 1425.99 151.899 1426.38 151.571C1426.77 151.239 1427.03 150.662 1427.16 149.842H1428.48ZM1429.74 149.233C1429.74 148.509 1429.88 147.857 1430.17 147.278C1430.45 146.7 1430.85 146.253 1431.35 145.938C1431.86 145.624 1432.45 145.467 1433.1 145.467C1434.1 145.467 1434.92 145.815 1435.54 146.513C1436.16 147.21 1436.47 148.137 1436.47 149.295V149.384C1436.47 150.104 1436.34 150.751 1436.06 151.325C1435.78 151.895 1435.39 152.339 1434.88 152.658C1434.36 152.977 1433.78 153.137 1433.11 153.137C1432.11 153.137 1431.3 152.788 1430.67 152.091C1430.05 151.394 1429.74 150.471 1429.74 149.322V149.233ZM1431.01 149.384C1431.01 150.204 1431.2 150.863 1431.58 151.359C1431.96 151.856 1432.47 152.104 1433.11 152.104C1433.75 152.104 1434.26 151.854 1434.64 151.353C1435.02 150.847 1435.21 150.14 1435.21 149.233C1435.21 148.422 1435.02 147.766 1434.63 147.265C1434.25 146.759 1433.74 146.506 1433.1 146.506C1432.47 146.506 1431.97 146.754 1431.59 147.251C1431.2 147.748 1431.01 148.459 1431.01 149.384ZM1439.25 145.604L1439.28 146.424C1439.83 145.786 1440.56 145.467 1441.48 145.467C1442.51 145.467 1443.22 145.863 1443.59 146.656C1443.84 146.301 1444.16 146.014 1444.55 145.795C1444.94 145.576 1445.41 145.467 1445.95 145.467C1447.57 145.467 1448.4 146.326 1448.42 148.044V153H1447.16V148.119C1447.16 147.59 1447.04 147.196 1446.8 146.937C1446.56 146.672 1446.15 146.54 1445.58 146.54C1445.11 146.54 1444.72 146.681 1444.41 146.964C1444.1 147.242 1443.92 147.618 1443.87 148.092V153H1442.6V148.153C1442.6 147.078 1442.07 146.54 1441.02 146.54C1440.19 146.54 1439.62 146.893 1439.32 147.6V153H1438.05V145.604H1439.25ZM1456.59 149.384C1456.59 150.509 1456.33 151.416 1455.81 152.104C1455.3 152.793 1454.6 153.137 1453.72 153.137C1452.82 153.137 1452.12 152.852 1451.6 152.282V155.844H1450.34V145.604H1451.49L1451.55 146.424C1452.07 145.786 1452.79 145.467 1453.7 145.467C1454.59 145.467 1455.29 145.802 1455.81 146.472C1456.33 147.142 1456.59 148.074 1456.59 149.268V149.384ZM1455.32 149.24C1455.32 148.406 1455.14 147.748 1454.79 147.265C1454.43 146.782 1453.94 146.54 1453.33 146.54C1452.56 146.54 1451.99 146.88 1451.6 147.559V151.093C1451.98 151.767 1452.56 152.104 1453.34 152.104C1453.94 152.104 1454.43 151.865 1454.78 151.387C1455.14 150.904 1455.32 150.188 1455.32 149.24ZM1462.77 153C1462.69 152.854 1462.63 152.594 1462.59 152.221C1462 152.831 1461.3 153.137 1460.48 153.137C1459.75 153.137 1459.15 152.932 1458.68 152.521C1458.22 152.107 1457.99 151.583 1457.99 150.949C1457.99 150.179 1458.28 149.582 1458.86 149.158C1459.45 148.73 1460.28 148.516 1461.34 148.516H1462.57V147.935C1462.57 147.493 1462.44 147.142 1462.17 146.882C1461.91 146.618 1461.52 146.485 1461 146.485C1460.55 146.485 1460.17 146.599 1459.87 146.827C1459.56 147.055 1459.41 147.331 1459.41 147.654H1458.14C1458.14 147.285 1458.27 146.93 1458.53 146.588C1458.79 146.242 1459.15 145.968 1459.59 145.768C1460.04 145.567 1460.54 145.467 1461.08 145.467C1461.93 145.467 1462.6 145.681 1463.08 146.109C1463.56 146.533 1463.81 147.119 1463.83 147.866V151.271C1463.83 151.95 1463.92 152.49 1464.09 152.891V153H1462.77ZM1460.67 152.036C1461.06 152.036 1461.44 151.934 1461.79 151.729C1462.15 151.523 1462.41 151.257 1462.57 150.929V149.411H1461.58C1460.03 149.411 1459.25 149.865 1459.25 150.771C1459.25 151.168 1459.38 151.478 1459.65 151.701C1459.91 151.924 1460.25 152.036 1460.67 152.036ZM1467.01 145.604L1467.05 146.533C1467.62 145.822 1468.36 145.467 1469.27 145.467C1470.83 145.467 1471.62 146.349 1471.63 148.112V153H1470.37V148.105C1470.36 147.572 1470.24 147.178 1470 146.923C1469.76 146.668 1469.39 146.54 1468.88 146.54C1468.47 146.54 1468.11 146.649 1467.8 146.868C1467.49 147.087 1467.25 147.374 1467.08 147.729V153H1465.81V145.604H1467.01ZM1474.91 153H1473.65V145.604H1474.91V153ZM1473.55 143.642C1473.55 143.437 1473.61 143.263 1473.73 143.122C1473.86 142.981 1474.04 142.91 1474.29 142.91C1474.54 142.91 1474.72 142.981 1474.85 143.122C1474.98 143.263 1475.04 143.437 1475.04 143.642C1475.04 143.847 1474.98 144.018 1474.85 144.154C1474.72 144.291 1474.54 144.359 1474.29 144.359C1474.04 144.359 1473.86 144.291 1473.73 144.154C1473.61 144.018 1473.55 143.847 1473.55 143.642ZM1480.01 153.137C1479.01 153.137 1478.19 152.809 1477.57 152.152C1476.94 151.492 1476.62 150.61 1476.62 149.507V149.274C1476.62 148.541 1476.76 147.887 1477.04 147.312C1477.32 146.734 1477.71 146.283 1478.21 145.959C1478.72 145.631 1479.27 145.467 1479.86 145.467C1480.82 145.467 1481.56 145.784 1482.1 146.417C1482.63 147.05 1482.9 147.957 1482.9 149.138V149.664H1477.89C1477.9 150.393 1478.12 150.983 1478.52 151.435C1478.93 151.881 1479.45 152.104 1480.08 152.104C1480.53 152.104 1480.91 152.013 1481.22 151.831C1481.53 151.649 1481.8 151.407 1482.03 151.106L1482.8 151.708C1482.18 152.66 1481.25 153.137 1480.01 153.137ZM1479.86 146.506C1479.35 146.506 1478.92 146.693 1478.57 147.066C1478.22 147.436 1478.01 147.955 1477.93 148.625H1481.63V148.529C1481.6 147.887 1481.42 147.39 1481.11 147.039C1480.8 146.684 1480.38 146.506 1479.86 146.506ZM1488.67 151.038C1488.67 150.696 1488.54 150.432 1488.28 150.245C1488.03 150.054 1487.58 149.89 1486.94 149.753C1486.3 149.616 1485.79 149.452 1485.41 149.261C1485.04 149.069 1484.76 148.841 1484.58 148.577C1484.4 148.313 1484.31 147.998 1484.31 147.634C1484.31 147.028 1484.57 146.515 1485.08 146.096C1485.59 145.676 1486.25 145.467 1487.05 145.467C1487.89 145.467 1488.56 145.683 1489.08 146.116C1489.61 146.549 1489.87 147.103 1489.87 147.777H1488.6C1488.6 147.431 1488.45 147.132 1488.15 146.882C1487.86 146.631 1487.49 146.506 1487.05 146.506C1486.59 146.506 1486.23 146.606 1485.97 146.807C1485.71 147.007 1485.58 147.269 1485.58 147.593C1485.58 147.898 1485.7 148.128 1485.94 148.283C1486.18 148.438 1486.62 148.586 1487.25 148.728C1487.88 148.869 1488.39 149.037 1488.78 149.233C1489.18 149.429 1489.46 149.666 1489.65 149.944C1489.84 150.218 1489.94 150.553 1489.94 150.949C1489.94 151.61 1489.67 152.141 1489.15 152.542C1488.62 152.938 1487.93 153.137 1487.09 153.137C1486.5 153.137 1485.97 153.032 1485.52 152.822C1485.06 152.613 1484.7 152.321 1484.44 151.947C1484.19 151.569 1484.06 151.161 1484.06 150.724H1485.32C1485.35 151.147 1485.52 151.485 1485.83 151.735C1486.15 151.981 1486.57 152.104 1487.09 152.104C1487.57 152.104 1487.95 152.009 1488.24 151.817C1488.53 151.621 1488.67 151.362 1488.67 151.038ZM1496.77 143.812V145.604H1498.16V146.581H1496.77V151.168C1496.77 151.464 1496.84 151.688 1496.96 151.838C1497.08 151.984 1497.29 152.057 1497.59 152.057C1497.73 152.057 1497.93 152.029 1498.19 151.975V153C1497.86 153.091 1497.53 153.137 1497.22 153.137C1496.65 153.137 1496.23 152.966 1495.94 152.624C1495.65 152.282 1495.51 151.797 1495.51 151.168V146.581H1494.16V145.604H1495.51V143.812H1496.77ZM1500.9 146.499C1501.46 145.811 1502.19 145.467 1503.09 145.467C1504.65 145.467 1505.44 146.349 1505.46 148.112V153H1504.19V148.105C1504.19 147.572 1504.06 147.178 1503.82 146.923C1503.59 146.668 1503.21 146.54 1502.71 146.54C1502.3 146.54 1501.94 146.649 1501.63 146.868C1501.32 147.087 1501.08 147.374 1500.9 147.729V153H1499.64V142.5H1500.9V146.499ZM1511.92 153C1511.84 152.854 1511.78 152.594 1511.74 152.221C1511.15 152.831 1510.45 153.137 1509.63 153.137C1508.9 153.137 1508.3 152.932 1507.83 152.521C1507.37 152.107 1507.14 151.583 1507.14 150.949C1507.14 150.179 1507.43 149.582 1508.01 149.158C1508.6 148.73 1509.43 148.516 1510.49 148.516H1511.72V147.935C1511.72 147.493 1511.59 147.142 1511.32 146.882C1511.06 146.618 1510.67 146.485 1510.15 146.485C1509.7 146.485 1509.32 146.599 1509.02 146.827C1508.71 147.055 1508.56 147.331 1508.56 147.654H1507.29C1507.29 147.285 1507.42 146.93 1507.68 146.588C1507.94 146.242 1508.3 145.968 1508.74 145.768C1509.2 145.567 1509.69 145.467 1510.23 145.467C1511.08 145.467 1511.75 145.681 1512.23 146.109C1512.71 146.533 1512.96 147.119 1512.98 147.866V151.271C1512.98 151.95 1513.07 152.49 1513.24 152.891V153H1511.92ZM1509.82 152.036C1510.21 152.036 1510.59 151.934 1510.95 151.729C1511.3 151.523 1511.56 151.257 1511.72 150.929V149.411H1510.73C1509.18 149.411 1508.4 149.865 1508.4 150.771C1508.4 151.168 1508.53 151.478 1508.8 151.701C1509.06 151.924 1509.4 152.036 1509.82 152.036ZM1516.68 143.812V145.604H1518.06V146.581H1516.68V151.168C1516.68 151.464 1516.74 151.688 1516.87 151.838C1516.99 151.984 1517.2 152.057 1517.49 152.057C1517.64 152.057 1517.84 152.029 1518.1 151.975V153C1517.76 153.091 1517.44 153.137 1517.12 153.137C1516.56 153.137 1516.13 152.966 1515.85 152.624C1515.56 152.282 1515.42 151.797 1515.42 151.168V146.581H1514.07V145.604H1515.42V143.812H1516.68ZM1524.28 146.499C1524.84 145.811 1525.57 145.467 1526.47 145.467C1528.03 145.467 1528.82 146.349 1528.83 148.112V153H1527.57V148.105C1527.57 147.572 1527.44 147.178 1527.2 146.923C1526.96 146.668 1526.59 146.54 1526.09 146.54C1525.68 146.54 1525.32 146.649 1525.01 146.868C1524.7 147.087 1524.46 147.374 1524.28 147.729V153H1523.02V142.5H1524.28V146.499ZM1535.29 153C1535.22 152.854 1535.16 152.594 1535.12 152.221C1534.53 152.831 1533.83 153.137 1533.01 153.137C1532.28 153.137 1531.68 152.932 1531.21 152.521C1530.75 152.107 1530.52 151.583 1530.52 150.949C1530.52 150.179 1530.81 149.582 1531.39 149.158C1531.98 148.73 1532.8 148.516 1533.87 148.516H1535.1V147.935C1535.1 147.493 1534.96 147.142 1534.7 146.882C1534.44 146.618 1534.05 146.485 1533.53 146.485C1533.08 146.485 1532.7 146.599 1532.4 146.827C1532.09 147.055 1531.94 147.331 1531.94 147.654H1530.67C1530.67 147.285 1530.8 146.93 1531.06 146.588C1531.32 146.242 1531.68 145.968 1532.12 145.768C1532.57 145.567 1533.07 145.467 1533.61 145.467C1534.46 145.467 1535.13 145.681 1535.61 146.109C1536.09 146.533 1536.34 147.119 1536.36 147.866V151.271C1536.36 151.95 1536.45 152.49 1536.62 152.891V153H1535.29ZM1533.2 152.036C1533.59 152.036 1533.97 151.934 1534.32 151.729C1534.68 151.523 1534.94 151.257 1535.1 150.929V149.411H1534.11C1532.56 149.411 1531.78 149.865 1531.78 150.771C1531.78 151.168 1531.91 151.478 1532.18 151.701C1532.44 151.924 1532.78 152.036 1533.2 152.036ZM1540.67 151.284L1542.51 145.604H1543.8L1541.15 153H1540.18L1537.5 145.604H1538.79L1540.67 151.284ZM1547.99 153.137C1546.99 153.137 1546.17 152.809 1545.54 152.152C1544.91 151.492 1544.6 150.61 1544.6 149.507V149.274C1544.6 148.541 1544.74 147.887 1545.02 147.312C1545.3 146.734 1545.69 146.283 1546.19 145.959C1546.7 145.631 1547.24 145.467 1547.83 145.467C1548.79 145.467 1549.54 145.784 1550.07 146.417C1550.61 147.05 1550.87 147.957 1550.87 149.138V149.664H1545.86C1545.88 150.393 1546.09 150.983 1546.5 151.435C1546.91 151.881 1547.43 152.104 1548.06 152.104C1548.5 152.104 1548.88 152.013 1549.19 151.831C1549.5 151.649 1549.77 151.407 1550.01 151.106L1550.78 151.708C1550.16 152.66 1549.23 153.137 1547.99 153.137ZM1547.83 146.506C1547.32 146.506 1546.89 146.693 1546.55 147.066C1546.2 147.436 1545.99 147.955 1545.9 148.625H1549.61V148.529C1549.57 147.887 1549.4 147.39 1549.09 147.039C1548.78 146.684 1548.36 146.506 1547.83 146.506ZM1558.24 151.147L1559.96 145.604H1561.31L1558.34 154.142C1557.88 155.372 1557.15 155.987 1556.14 155.987L1555.91 155.967L1555.43 155.878V154.853L1555.78 154.88C1556.2 154.88 1556.54 154.793 1556.77 154.62C1557.01 154.447 1557.21 154.13 1557.37 153.67L1557.65 152.918L1555.01 145.604H1556.39L1558.24 151.147ZM1562 149.233C1562 148.509 1562.14 147.857 1562.43 147.278C1562.71 146.7 1563.11 146.253 1563.62 145.938C1564.13 145.624 1564.71 145.467 1565.36 145.467C1566.37 145.467 1567.18 145.815 1567.8 146.513C1568.42 147.21 1568.74 148.137 1568.74 149.295V149.384C1568.74 150.104 1568.6 150.751 1568.32 151.325C1568.05 151.895 1567.65 152.339 1567.14 152.658C1566.63 152.977 1566.04 153.137 1565.37 153.137C1564.37 153.137 1563.56 152.788 1562.93 152.091C1562.31 151.394 1562 150.471 1562 149.322V149.233ZM1563.27 149.384C1563.27 150.204 1563.46 150.863 1563.84 151.359C1564.22 151.856 1564.74 152.104 1565.37 152.104C1566.02 152.104 1566.53 151.854 1566.9 151.353C1567.28 150.847 1567.47 150.14 1567.47 149.233C1567.47 148.422 1567.28 147.766 1566.89 147.265C1566.51 146.759 1566 146.506 1565.36 146.506C1564.74 146.506 1564.23 146.754 1563.85 147.251C1563.47 147.748 1563.27 148.459 1563.27 149.384ZM1574.89 152.269C1574.4 152.847 1573.67 153.137 1572.72 153.137C1571.93 153.137 1571.33 152.909 1570.92 152.453C1570.51 151.993 1570.3 151.314 1570.29 150.416V145.604H1571.56V150.382C1571.56 151.503 1572.02 152.063 1572.93 152.063C1573.89 152.063 1574.54 151.703 1574.85 150.983V145.604H1576.12V153H1574.92L1574.89 152.269ZM1581.62 146.738C1581.43 146.706 1581.22 146.69 1581 146.69C1580.17 146.69 1579.61 147.044 1579.31 147.75V153H1578.05V145.604H1579.28L1579.3 146.458C1579.71 145.797 1580.3 145.467 1581.06 145.467C1581.31 145.467 1581.49 145.499 1581.62 145.562V146.738ZM1585.96 149.24C1585.96 148.105 1586.22 147.194 1586.76 146.506C1587.3 145.813 1588 145.467 1588.88 145.467C1589.74 145.467 1590.43 145.763 1590.93 146.355V142.5H1592.2V153H1591.04L1590.97 152.207C1590.47 152.827 1589.76 153.137 1588.86 153.137C1588 153.137 1587.31 152.786 1586.76 152.084C1586.22 151.382 1585.96 150.466 1585.96 149.336V149.24ZM1587.22 149.384C1587.22 150.222 1587.39 150.879 1587.74 151.353C1588.09 151.826 1588.57 152.063 1589.18 152.063C1589.98 152.063 1590.56 151.703 1590.93 150.983V147.586C1590.55 146.889 1589.97 146.54 1589.19 146.54C1588.57 146.54 1588.09 146.779 1587.74 147.258C1587.39 147.736 1587.22 148.445 1587.22 149.384ZM1598.73 153C1598.66 152.854 1598.6 152.594 1598.55 152.221C1597.97 152.831 1597.26 153.137 1596.45 153.137C1595.72 153.137 1595.12 152.932 1594.65 152.521C1594.19 152.107 1593.95 151.583 1593.95 150.949C1593.95 150.179 1594.25 149.582 1594.83 149.158C1595.42 148.73 1596.24 148.516 1597.3 148.516H1598.53V147.935C1598.53 147.493 1598.4 147.142 1598.14 146.882C1597.87 146.618 1597.48 146.485 1596.97 146.485C1596.52 146.485 1596.14 146.599 1595.83 146.827C1595.53 147.055 1595.38 147.331 1595.38 147.654H1594.1C1594.1 147.285 1594.23 146.93 1594.49 146.588C1594.76 146.242 1595.11 145.968 1595.56 145.768C1596.01 145.567 1596.51 145.467 1597.04 145.467C1597.9 145.467 1598.56 145.681 1599.05 146.109C1599.53 146.533 1599.78 147.119 1599.8 147.866V151.271C1599.8 151.95 1599.89 152.49 1600.06 152.891V153H1598.73ZM1596.63 152.036C1597.03 152.036 1597.41 151.934 1597.76 151.729C1598.12 151.523 1598.37 151.257 1598.53 150.929V149.411H1597.54C1595.99 149.411 1595.22 149.865 1595.22 150.771C1595.22 151.168 1595.35 151.478 1595.62 151.701C1595.88 151.924 1596.22 152.036 1596.63 152.036ZM1603.5 143.812V145.604H1604.88V146.581H1603.5V151.168C1603.5 151.464 1603.56 151.688 1603.68 151.838C1603.8 151.984 1604.01 152.057 1604.31 152.057C1604.46 152.057 1604.66 152.029 1604.91 151.975V153C1604.58 153.091 1604.26 153.137 1603.94 153.137C1603.38 153.137 1602.95 152.966 1602.66 152.624C1602.38 152.282 1602.23 151.797 1602.23 151.168V146.581H1600.89V145.604H1602.23V143.812H1603.5ZM1610.93 153C1610.85 152.854 1610.8 152.594 1610.75 152.221C1610.16 152.831 1609.46 153.137 1608.64 153.137C1607.92 153.137 1607.32 152.932 1606.85 152.521C1606.38 152.107 1606.15 151.583 1606.15 150.949C1606.15 150.179 1606.44 149.582 1607.02 149.158C1607.61 148.73 1608.44 148.516 1609.5 148.516H1610.73V147.935C1610.73 147.493 1610.6 147.142 1610.33 146.882C1610.07 146.618 1609.68 146.485 1609.16 146.485C1608.71 146.485 1608.33 146.599 1608.03 146.827C1607.72 147.055 1607.57 147.331 1607.57 147.654H1606.3C1606.3 147.285 1606.43 146.93 1606.69 146.588C1606.95 146.242 1607.31 145.968 1607.76 145.768C1608.21 145.567 1608.7 145.467 1609.24 145.467C1610.09 145.467 1610.76 145.681 1611.24 146.109C1611.73 146.533 1611.98 147.119 1611.99 147.866V151.271C1611.99 151.95 1612.08 152.49 1612.25 152.891V153H1610.93ZM1608.83 152.036C1609.23 152.036 1609.6 151.934 1609.96 151.729C1610.31 151.523 1610.57 151.257 1610.73 150.929V149.411H1609.74C1608.19 149.411 1607.41 149.865 1607.41 150.771C1607.41 151.168 1607.55 151.478 1607.81 151.701C1608.07 151.924 1608.41 152.036 1608.83 152.036Z" fill="black"/>
    <path d="M1462.74 186.768C1462.27 186.768 1461.92 186.664 1461.68 186.456C1461.46 186.248 1461.34 185.96 1461.34 185.592C1461.34 185.224 1461.46 184.936 1461.68 184.728C1461.92 184.504 1462.27 184.392 1462.74 184.392H1467.68C1468.14 184.392 1468.49 184.504 1468.71 184.728C1468.95 184.936 1469.07 185.224 1469.07 185.592C1469.07 185.96 1468.95 186.248 1468.71 186.456C1468.49 186.664 1468.14 186.768 1467.68 186.768H1462.74ZM1488.87 189.504C1489.83 189.504 1490.31 189.912 1490.31 190.728C1490.31 191.576 1489.83 192 1488.87 192H1479.75C1479.34 192 1479.01 191.88 1478.77 191.64C1478.53 191.384 1478.41 191.072 1478.41 190.704C1478.41 190.224 1478.59 189.792 1478.96 189.408L1484.43 183.528C1485.11 182.792 1485.59 182.12 1485.9 181.512C1486.22 180.888 1486.38 180.272 1486.38 179.664C1486.38 178.912 1486.16 178.336 1485.73 177.936C1485.3 177.536 1484.68 177.336 1483.88 177.336C1483.23 177.336 1482.59 177.464 1481.96 177.72C1481.35 177.96 1480.74 178.296 1480.11 178.728C1479.95 178.84 1479.79 178.936 1479.63 179.016C1479.47 179.08 1479.31 179.112 1479.15 179.112C1478.88 179.112 1478.64 178.984 1478.43 178.728C1478.24 178.472 1478.15 178.168 1478.15 177.816C1478.15 177.576 1478.19 177.368 1478.27 177.192C1478.36 177.016 1478.51 176.848 1478.7 176.688C1479.4 176.128 1480.23 175.688 1481.17 175.368C1482.11 175.032 1483.06 174.864 1484 174.864C1485.65 174.864 1486.96 175.28 1487.94 176.112C1488.93 176.944 1489.43 178.064 1489.43 179.472C1489.43 180.448 1489.22 181.368 1488.8 182.232C1488.39 183.08 1487.68 184.032 1486.69 185.088L1482.54 189.504H1488.87ZM1499.42 181.176C1500.48 181.176 1501.41 181.408 1502.21 181.872C1503.02 182.32 1503.66 182.952 1504.1 183.768C1504.55 184.584 1504.78 185.52 1504.78 186.576C1504.78 187.68 1504.52 188.656 1504.01 189.504C1503.51 190.352 1502.8 191.016 1501.87 191.496C1500.96 191.96 1499.9 192.192 1498.7 192.192C1497.71 192.192 1496.74 192.032 1495.78 191.712C1494.83 191.376 1494.02 190.928 1493.35 190.368C1492.98 190.048 1492.8 189.672 1492.8 189.24C1492.8 188.888 1492.9 188.592 1493.09 188.352C1493.3 188.096 1493.54 187.968 1493.81 187.968C1493.97 187.968 1494.12 188 1494.26 188.064C1494.41 188.112 1494.58 188.2 1494.77 188.328C1495.41 188.776 1496.03 189.12 1496.64 189.36C1497.25 189.6 1497.9 189.72 1498.58 189.72C1499.64 189.72 1500.45 189.456 1501.01 188.928C1501.57 188.4 1501.85 187.648 1501.85 186.672C1501.85 185.728 1501.56 184.984 1500.98 184.44C1500.42 183.88 1499.65 183.6 1498.66 183.6C1498.03 183.6 1497.47 183.688 1496.98 183.864C1496.5 184.04 1496 184.336 1495.49 184.752C1495.18 184.96 1494.87 185.064 1494.55 185.064C1494.23 185.064 1493.96 184.968 1493.74 184.776C1493.51 184.584 1493.4 184.328 1493.4 184.008V176.52C1493.4 176.072 1493.53 175.72 1493.78 175.464C1494.04 175.208 1494.4 175.08 1494.86 175.08H1502.86C1503.82 175.08 1504.3 175.48 1504.3 176.28C1504.3 177.08 1503.82 177.48 1502.86 177.48H1496.42V182.04C1497.24 181.464 1498.24 181.176 1499.42 181.176ZM1515.52 183.312C1516.53 183.568 1517.29 184.056 1517.82 184.776C1518.37 185.48 1518.64 186.36 1518.64 187.416C1518.64 188.872 1518.1 190.032 1517.03 190.896C1515.96 191.76 1514.51 192.192 1512.69 192.192C1511.65 192.192 1510.65 192.032 1509.69 191.712C1508.73 191.392 1507.91 190.944 1507.24 190.368C1506.87 190.048 1506.69 189.672 1506.69 189.24C1506.69 188.888 1506.78 188.592 1506.97 188.352C1507.18 188.096 1507.42 187.968 1507.69 187.968C1507.85 187.968 1508 188 1508.13 188.064C1508.25 188.112 1508.43 188.2 1508.65 188.328C1509.33 188.776 1509.97 189.12 1510.57 189.36C1511.18 189.6 1511.85 189.72 1512.57 189.72C1513.62 189.72 1514.41 189.512 1514.92 189.096C1515.43 188.664 1515.69 188.016 1515.69 187.152C1515.69 186.304 1515.41 185.68 1514.87 185.28C1514.34 184.864 1513.52 184.656 1512.4 184.656H1511.03C1510.66 184.656 1510.37 184.536 1510.17 184.296C1509.97 184.04 1509.88 183.752 1509.88 183.432C1509.88 183.096 1509.97 182.808 1510.17 182.568C1510.37 182.328 1510.66 182.208 1511.03 182.208H1511.99C1514.18 182.208 1515.28 181.384 1515.28 179.736C1515.28 178.968 1515.05 178.376 1514.58 177.96C1514.12 177.544 1513.48 177.336 1512.66 177.336C1511.49 177.336 1510.25 177.8 1508.92 178.728C1508.69 178.856 1508.52 178.952 1508.39 179.016C1508.26 179.064 1508.12 179.088 1507.96 179.088C1507.69 179.088 1507.45 178.968 1507.24 178.728C1507.05 178.472 1506.95 178.168 1506.95 177.816C1506.95 177.576 1506.99 177.376 1507.07 177.216C1507.17 177.04 1507.31 176.864 1507.5 176.688C1508.17 176.128 1508.97 175.688 1509.9 175.368C1510.85 175.032 1511.81 174.864 1512.78 174.864C1514.45 174.864 1515.77 175.272 1516.74 176.088C1517.73 176.904 1518.23 177.992 1518.23 179.352C1518.21 180.28 1517.97 181.096 1517.49 181.8C1517.02 182.488 1516.37 182.992 1515.52 183.312Z" fill="#2EBFA5"/>
    <rect x="1431" y="172" width="22" height="20" rx="2" fill="#B7FFF2"/>
    <path d="M1448.64 186L1442.75 179.667L1439.65 183L1435 178" stroke="#2EBFA5" stroke-width="1.5" stroke-linecap="round" stroke-linejoin="round"/>
    <path fill-rule="evenodd" clip-rule="evenodd" d="M1599.27 210.077L1599.44 179.883C1599.44 178.43 1600.63 177.245 1602.08 177.237C1603.54 177.229 1604.71 178.401 1604.7 179.854L1604.54 210.048L1599.27 210.077Z" fill="#2EBFA5"/>
    <path fill-rule="evenodd" clip-rule="evenodd" d="M1590.81 210.124L1590.93 188.136C1590.94 186.682 1592.12 185.498 1593.58 185.49C1595.03 185.482 1596.2 186.654 1596.19 188.107L1596.07 210.095L1590.81 210.124Z" fill="#2EBFA5"/>
    <path fill-rule="evenodd" clip-rule="evenodd" d="M1580.88 210.162L1581.09 171.761C1581.1 170.308 1582.28 169.124 1583.74 169.116C1585.19 169.108 1586.36 170.279 1586.35 171.732L1586.15 210.133L1580.88 210.162Z" fill="#2EBFA5"/>
    <path fill-rule="evenodd" clip-rule="evenodd" d="M1572.42 210.209L1572.6 177.279C1572.61 175.826 1573.79 174.641 1575.24 174.633C1576.7 174.625 1577.87 175.797 1577.86 177.25L1577.68 210.18L1572.42 210.209Z" fill="#2EBFA5"/>
    <path fill-rule="evenodd" clip-rule="evenodd" d="M1562.52 210.247L1562.7 177.317C1562.71 175.864 1563.89 174.679 1565.35 174.671C1566.8 174.663 1567.97 175.835 1567.96 177.288L1567.79 210.218L1562.52 210.247Z" fill="#2EBFA5"/>
    <path fill-rule="evenodd" clip-rule="evenodd" d="M1554.06 210.293L1554.16 191.041C1554.17 189.587 1555.36 188.403 1556.81 188.395C1558.26 188.387 1559.43 189.559 1559.43 191.012L1559.32 210.264L1554.06 210.293Z" fill="#2EBFA5"/>
    <defs>
    <filter id="filter0_ddd" x="1381" y="49" width="291" height="244" filterUnits="userSpaceOnUse" color-interpolation-filters="sRGB">
    <feFlood flood-opacity="0" result="BackgroundImageFix"/>
    <feColorMatrix in="SourceAlpha" type="matrix" values="0 0 0 0 0 0 0 0 0 0 0 0 0 0 0 0 0 0 127 0"/>
    <feOffset/>
    <feGaussianBlur stdDeviation="0.5"/>
    <feColorMatrix type="matrix" values="0 0 0 0 0 0 0 0 0 0 0 0 0 0 0 0 0 0 0.04 0"/>
    <feBlend mode="normal" in2="BackgroundImageFix" result="effect1_dropShadow"/>
    <feColorMatrix in="SourceAlpha" type="matrix" values="0 0 0 0 0 0 0 0 0 0 0 0 0 0 0 0 0 0 127 0"/>
    <feOffset dy="2"/>
    <feGaussianBlur stdDeviation="3"/>
    <feColorMatrix type="matrix" values="0 0 0 0 0 0 0 0 0 0 0 0 0 0 0 0 0 0 0.04 0"/>
    <feBlend mode="normal" in2="effect1_dropShadow" result="effect2_dropShadow"/>
    <feColorMatrix in="SourceAlpha" type="matrix" values="0 0 0 0 0 0 0 0 0 0 0 0 0 0 0 0 0 0 127 0"/>
    <feOffset dy="16"/>
    <feGaussianBlur stdDeviation="12"/>
    <feColorMatrix type="matrix" values="0 0 0 0 0 0 0 0 0 0 0 0 0 0 0 0 0 0 0.06 0"/>
    <feBlend mode="normal" in2="effect2_dropShadow" result="effect3_dropShadow"/>
    <feBlend mode="normal" in="SourceGraphic" in2="effect3_dropShadow" result="shape"/>
    </filter>
    </defs>
    </svg>
