<svg width="441" height="115" viewBox="0 0 441 115" fill="none" xmlns="http://www.w3.org/2000/svg">
    <g filter="url(#filter0_ddd)">
    <rect x="24" y="10" width="393" height="65" rx="4" fill="white"/>
    </g>
    <path d="M34.616 7.6C35.5547 7.68533 36.3227 8.048 36.92 8.688C37.5173 9.328 37.816 10.1387 37.816 11.12C37.816 12.1867 37.496 13.0613 36.856 13.744C36.216 14.384 35.4053 14.704 34.424 14.704C33.3147 14.704 32.4187 14.2987 31.736 13.488C31.096 12.6773 30.776 11.4187 30.776 9.712C30.776 6.42666 31.864 3.58933 34.04 1.2C34.4667 0.773331 34.9573 0.559998 35.512 0.559998C35.9813 0.559998 36.3867 0.730665 36.728 1.072C37.0693 1.37066 37.24 1.73333 37.24 2.16C37.24 2.62933 37.0693 3.03467 36.728 3.376C35.6187 4.528 34.9147 5.936 34.616 7.6ZM45.24 7.6C46.1787 7.68533 46.9467 8.048 47.544 8.688C48.1413 9.328 48.44 10.1387 48.44 11.12C48.44 12.1867 48.12 13.0613 47.48 13.744C46.84 14.384 46.0293 14.704 45.048 14.704C43.9387 14.704 43.0427 14.2987 42.36 13.488C41.72 12.6773 41.4 11.4187 41.4 9.712C41.4 6.42666 42.488 3.58933 44.664 1.2C45.0907 0.773331 45.5813 0.559998 46.136 0.559998C46.6053 0.559998 47.0107 0.730665 47.352 1.072C47.6933 1.37066 47.864 1.73333 47.864 2.16C47.864 2.62933 47.6933 3.03467 47.352 3.376C46.2427 4.528 45.5387 5.936 45.24 7.6Z" fill="#2EBFA5"/>
    <path d="M67.808 27.04C67.8507 26.9013 67.9253 26.8 68.032 26.736C68.1387 26.6613 68.256 26.624 68.384 26.624C68.5547 26.624 68.6987 26.6773 68.816 26.784C68.944 26.88 69.008 27.0133 69.008 27.184C69.008 27.2587 68.992 27.344 68.96 27.44L65.344 37.632C65.2907 37.7813 65.2 37.8987 65.072 37.984C64.944 38.0587 64.8 38.096 64.64 38.096C64.4907 38.096 64.352 38.0587 64.224 37.984C64.096 37.8987 64.0053 37.7813 63.952 37.632L60.816 28.768L57.648 37.632C57.5947 37.7813 57.504 37.8987 57.376 37.984C57.248 38.0587 57.1093 38.096 56.96 38.096C56.8107 38.096 56.672 38.0587 56.544 37.984C56.416 37.8987 56.3253 37.7813 56.272 37.632L52.64 27.44C52.608 27.3547 52.592 27.2747 52.592 27.2C52.592 27.0293 52.656 26.8907 52.784 26.784C52.9227 26.6773 53.0773 26.624 53.248 26.624C53.376 26.624 53.4933 26.6613 53.6 26.736C53.7173 26.8 53.7973 26.9013 53.84 27.04L56.992 36.128L60.192 27.136C60.2453 26.976 60.3307 26.8587 60.448 26.784C60.5653 26.6987 60.6933 26.656 60.832 26.656C60.9707 26.656 61.0987 26.6987 61.216 26.784C61.3333 26.8693 61.4187 26.992 61.472 27.152L64.624 36.16L67.808 27.04ZM72.3404 38.08C72.1484 38.08 71.9884 38.0267 71.8604 37.92C71.743 37.8027 71.6844 37.6427 71.6844 37.44V30.688C71.6844 30.4853 71.743 30.3307 71.8604 30.224C71.9884 30.1067 72.1484 30.048 72.3404 30.048C72.5324 30.048 72.687 30.1067 72.8044 30.224C72.9217 30.3307 72.9804 30.4853 72.9804 30.688V37.44C72.9804 37.6533 72.9217 37.8133 72.8044 37.92C72.687 38.0267 72.5324 38.08 72.3404 38.08ZM72.3404 28.368C72.0844 28.368 71.8764 28.2933 71.7164 28.144C71.5564 27.9947 71.4764 27.7973 71.4764 27.552C71.4764 27.3173 71.5564 27.1253 71.7164 26.976C71.8764 26.8267 72.0844 26.752 72.3404 26.752C72.5964 26.752 72.8044 26.8267 72.9644 26.976C73.1244 27.1253 73.2044 27.3173 73.2044 27.552C73.2044 27.7973 73.1244 27.9947 72.9644 28.144C72.8044 28.2933 72.5964 28.368 72.3404 28.368ZM79.1281 37.056C79.5015 37.088 79.6881 37.2587 79.6881 37.568C79.6881 37.7493 79.6188 37.888 79.4801 37.984C79.3521 38.0693 79.1548 38.1013 78.8881 38.08L78.4561 38.048C77.6028 37.984 76.9735 37.728 76.5681 37.28C76.1628 36.832 75.9601 36.1547 75.9601 35.248V31.232H74.8881C74.7068 31.232 74.5628 31.1893 74.4561 31.104C74.3601 31.008 74.3121 30.8853 74.3121 30.736C74.3121 30.576 74.3601 30.448 74.4561 30.352C74.5628 30.256 74.7068 30.208 74.8881 30.208H75.9601V28.4C75.9601 28.1973 76.0188 28.0427 76.1361 27.936C76.2535 27.8187 76.4135 27.76 76.6161 27.76C76.8081 27.76 76.9628 27.8187 77.0801 27.936C77.1975 28.0427 77.2561 28.1973 77.2561 28.4V30.208H79.0321C79.2028 30.208 79.3361 30.256 79.4321 30.352C79.5388 30.448 79.5921 30.576 79.5921 30.736C79.5921 30.8853 79.5388 31.008 79.4321 31.104C79.3361 31.1893 79.2028 31.232 79.0321 31.232H77.2561V35.312C77.2561 35.8987 77.3735 36.3253 77.6081 36.592C77.8535 36.848 78.2161 36.992 78.6961 37.024L79.1281 37.056ZM84.9016 30.016C85.819 30.016 86.5123 30.2773 86.9816 30.8C87.451 31.312 87.6856 32.08 87.6856 33.104V37.44C87.6856 37.6427 87.627 37.8027 87.5096 37.92C87.3923 38.0267 87.2376 38.08 87.0456 38.08C86.843 38.08 86.683 38.0267 86.5656 37.92C86.4483 37.8027 86.3896 37.6427 86.3896 37.44V33.136C86.3896 32.4427 86.2456 31.9307 85.9576 31.6C85.6803 31.2693 85.2323 31.104 84.6136 31.104C83.899 31.104 83.3283 31.3227 82.9016 31.76C82.475 32.1973 82.2616 32.7893 82.2616 33.536V37.44C82.2616 37.6427 82.203 37.8027 82.0856 37.92C81.979 38.0267 81.8243 38.08 81.6216 38.08C81.419 38.08 81.259 38.0267 81.1416 37.92C81.0243 37.8027 80.9656 37.6427 80.9656 37.44V27.264C80.9656 27.0827 81.0243 26.9333 81.1416 26.816C81.2696 26.6987 81.4296 26.64 81.6216 26.64C81.8243 26.64 81.979 26.6987 82.0856 26.816C82.203 26.9227 82.2616 27.072 82.2616 27.264V31.456C82.5176 30.9867 82.875 30.6293 83.3336 30.384C83.7923 30.1387 84.315 30.016 84.9016 30.016ZM102.984 37.184C103.059 37.3013 103.096 37.424 103.096 37.552C103.096 37.712 103.032 37.8453 102.904 37.952C102.787 38.048 102.648 38.096 102.488 38.096C102.243 38.096 102.051 37.9893 101.912 37.776L99.7684 34.384C99.491 33.9467 99.203 33.648 98.9044 33.488C98.6057 33.3173 98.2004 33.232 97.6884 33.232H95.6724V37.408C95.6724 37.6107 95.6137 37.776 95.4964 37.904C95.379 38.0213 95.2244 38.08 95.0324 38.08C94.8297 38.08 94.6697 38.0213 94.5524 37.904C94.435 37.776 94.3764 37.6107 94.3764 37.408V27.36C94.3764 27.168 94.435 27.0133 94.5524 26.896C94.6804 26.7787 94.8457 26.72 95.0484 26.72H99.0164C100.243 26.72 101.176 26.992 101.816 27.536C102.467 28.08 102.792 28.88 102.792 29.936C102.792 30.832 102.531 31.552 102.008 32.096C101.496 32.64 100.76 32.9707 99.8004 33.088C100.067 33.1733 100.307 33.312 100.52 33.504C100.734 33.696 100.947 33.9627 101.16 34.304L102.984 37.184ZM98.9044 32.144C99.779 32.144 100.43 31.9627 100.856 31.6C101.294 31.2373 101.512 30.688 101.512 29.952C101.512 29.2267 101.299 28.688 100.872 28.336C100.446 27.984 99.7897 27.808 98.9044 27.808H95.6724V32.144H98.9044ZM105.809 38.08C105.617 38.08 105.457 38.0267 105.329 37.92C105.212 37.8027 105.153 37.6427 105.153 37.44V30.688C105.153 30.4853 105.212 30.3307 105.329 30.224C105.457 30.1067 105.617 30.048 105.809 30.048C106.001 30.048 106.156 30.1067 106.273 30.224C106.39 30.3307 106.449 30.4853 106.449 30.688V37.44C106.449 37.6533 106.39 37.8133 106.273 37.92C106.156 38.0267 106.001 38.08 105.809 38.08ZM105.809 28.368C105.553 28.368 105.345 28.2933 105.185 28.144C105.025 27.9947 104.945 27.7973 104.945 27.552C104.945 27.3173 105.025 27.1253 105.185 26.976C105.345 26.8267 105.553 26.752 105.809 26.752C106.065 26.752 106.273 26.8267 106.433 26.976C106.593 27.1253 106.673 27.3173 106.673 27.552C106.673 27.7973 106.593 27.9947 106.433 28.144C106.273 28.2933 106.065 28.368 105.809 28.368ZM112.597 37.056C112.97 37.088 113.157 37.2587 113.157 37.568C113.157 37.7493 113.088 37.888 112.949 37.984C112.821 38.0693 112.624 38.1013 112.357 38.08L111.925 38.048C111.072 37.984 110.442 37.728 110.037 37.28C109.632 36.832 109.429 36.1547 109.429 35.248V31.232H108.357C108.176 31.232 108.032 31.1893 107.925 31.104C107.829 31.008 107.781 30.8853 107.781 30.736C107.781 30.576 107.829 30.448 107.925 30.352C108.032 30.256 108.176 30.208 108.357 30.208H109.429V28.4C109.429 28.1973 109.488 28.0427 109.605 27.936C109.722 27.8187 109.882 27.76 110.085 27.76C110.277 27.76 110.432 27.8187 110.549 27.936C110.666 28.0427 110.725 28.1973 110.725 28.4V30.208H112.501C112.672 30.208 112.805 30.256 112.901 30.352C113.008 30.448 113.061 30.576 113.061 30.736C113.061 30.8853 113.008 31.008 112.901 31.104C112.805 31.1893 112.672 31.232 112.501 31.232H110.725V35.312C110.725 35.8987 110.842 36.3253 111.077 36.592C111.322 36.848 111.685 36.992 112.165 37.024L112.597 37.056ZM117.618 30.016C119.57 30.016 120.546 31.04 120.546 33.088V37.44C120.546 37.632 120.488 37.7867 120.37 37.904C120.264 38.0213 120.114 38.08 119.922 38.08C119.73 38.08 119.576 38.0213 119.458 37.904C119.341 37.7867 119.282 37.632 119.282 37.44V36.672C119.08 37.1307 118.77 37.488 118.354 37.744C117.938 37.9893 117.458 38.112 116.914 38.112C116.413 38.112 115.949 38.0107 115.522 37.808C115.106 37.6053 114.776 37.3227 114.53 36.96C114.285 36.5973 114.162 36.1973 114.162 35.76C114.162 35.1733 114.312 34.72 114.61 34.4C114.909 34.0693 115.4 33.8347 116.082 33.696C116.765 33.5467 117.714 33.472 118.93 33.472H119.282V32.944C119.282 32.304 119.149 31.8347 118.882 31.536C118.626 31.2373 118.205 31.088 117.618 31.088C116.893 31.088 116.157 31.2853 115.41 31.68C115.122 31.8613 114.92 31.952 114.802 31.952C114.674 31.952 114.568 31.904 114.482 31.808C114.397 31.712 114.354 31.5893 114.354 31.44C114.354 31.2907 114.397 31.1627 114.482 31.056C114.578 30.9387 114.728 30.8213 114.93 30.704C115.304 30.4907 115.725 30.3253 116.194 30.208C116.674 30.08 117.149 30.016 117.618 30.016ZM117.09 37.088C117.73 37.088 118.253 36.8747 118.658 36.448C119.074 36.0107 119.282 35.4507 119.282 34.768V34.304H118.994C118.056 34.304 117.341 34.3467 116.85 34.432C116.36 34.5067 116.008 34.64 115.794 34.832C115.592 35.0133 115.49 35.2853 115.49 35.648C115.49 36.064 115.64 36.4107 115.938 36.688C116.248 36.9547 116.632 37.088 117.09 37.088ZM127.892 38.08C127.689 38.08 127.529 38.0213 127.412 37.904C127.294 37.776 127.236 37.6107 127.236 37.408V27.312C127.236 27.1093 127.294 26.9493 127.412 26.832C127.529 26.704 127.689 26.64 127.892 26.64C128.094 26.64 128.254 26.704 128.372 26.832C128.489 26.9493 128.548 27.1093 128.548 27.312V37.408C128.548 37.6107 128.489 37.776 128.372 37.904C128.254 38.0213 128.094 38.08 127.892 38.08ZM137.887 38.112C137.396 38.112 136.927 38.0533 136.479 37.936C136.041 37.8187 135.652 37.6533 135.311 37.44C135.119 37.312 134.98 37.1947 134.895 37.088C134.82 36.9707 134.783 36.832 134.783 36.672C134.783 36.5333 134.82 36.4213 134.895 36.336C134.98 36.24 135.087 36.192 135.215 36.192C135.343 36.192 135.529 36.272 135.775 36.432C136.095 36.624 136.409 36.7787 136.719 36.896C137.039 37.0027 137.433 37.056 137.903 37.056C138.479 37.056 138.927 36.9547 139.247 36.752C139.567 36.5493 139.727 36.256 139.727 35.872C139.727 35.6373 139.668 35.4507 139.551 35.312C139.433 35.1627 139.231 35.0347 138.943 34.928C138.655 34.8107 138.233 34.6933 137.679 34.576C136.74 34.3733 136.068 34.1013 135.663 33.76C135.257 33.4187 135.055 32.9547 135.055 32.368C135.055 31.9093 135.183 31.504 135.439 31.152C135.695 30.8 136.047 30.5227 136.495 30.32C136.953 30.1173 137.471 30.016 138.047 30.016C138.463 30.016 138.863 30.0747 139.247 30.192C139.641 30.2987 139.988 30.4533 140.287 30.656C140.649 30.912 140.831 31.1787 140.831 31.456C140.831 31.5947 140.788 31.712 140.703 31.808C140.617 31.904 140.516 31.952 140.399 31.952C140.271 31.952 140.079 31.8613 139.823 31.68C139.524 31.488 139.241 31.3387 138.975 31.232C138.708 31.1253 138.377 31.072 137.983 31.072C137.481 31.072 137.076 31.184 136.767 31.408C136.468 31.632 136.319 31.9307 136.319 32.304C136.319 32.5387 136.372 32.7307 136.479 32.88C136.596 33.0187 136.783 33.1467 137.039 33.264C137.305 33.3707 137.684 33.4773 138.174 33.584C138.9 33.744 139.46 33.92 139.855 34.112C140.26 34.304 140.548 34.5387 140.719 34.816C140.889 35.0933 140.975 35.4453 140.975 35.872C140.975 36.544 140.692 37.088 140.127 37.504C139.561 37.9093 138.815 38.112 137.887 38.112ZM146.472 37.056C146.845 37.088 147.032 37.2587 147.032 37.568C147.032 37.7493 146.963 37.888 146.824 37.984C146.696 38.0693 146.499 38.1013 146.232 38.08L145.8 38.048C144.947 37.984 144.317 37.728 143.912 37.28C143.507 36.832 143.304 36.1547 143.304 35.248V31.232H142.232C142.051 31.232 141.907 31.1893 141.8 31.104C141.704 31.008 141.656 30.8853 141.656 30.736C141.656 30.576 141.704 30.448 141.8 30.352C141.907 30.256 142.051 30.208 142.232 30.208H143.304V28.4C143.304 28.1973 143.363 28.0427 143.48 27.936C143.597 27.8187 143.757 27.76 143.96 27.76C144.152 27.76 144.307 27.8187 144.424 27.936C144.541 28.0427 144.6 28.1973 144.6 28.4V30.208H146.376C146.547 30.208 146.68 30.256 146.776 30.352C146.883 30.448 146.936 30.576 146.936 30.736C146.936 30.8853 146.883 31.008 146.776 31.104C146.68 31.1893 146.547 31.232 146.376 31.232H144.6V35.312C144.6 35.8987 144.717 36.3253 144.952 36.592C145.197 36.848 145.56 36.992 146.04 37.024L146.472 37.056ZM151.541 38.112C150.805 38.112 150.155 37.9467 149.589 37.616C149.035 37.2853 148.603 36.816 148.293 36.208C147.995 35.5893 147.845 34.8747 147.845 34.064C147.845 33.2533 147.995 32.544 148.293 31.936C148.603 31.3173 149.035 30.8427 149.589 30.512C150.155 30.1813 150.805 30.016 151.541 30.016C152.277 30.016 152.928 30.1813 153.493 30.512C154.059 30.8427 154.491 31.3173 154.789 31.936C155.099 32.544 155.253 33.2533 155.253 34.064C155.253 34.8747 155.099 35.5893 154.789 36.208C154.491 36.816 154.059 37.2853 153.493 37.616C152.928 37.9467 152.277 38.112 151.541 38.112ZM151.541 37.04C152.309 37.04 152.896 36.7893 153.301 36.288C153.717 35.776 153.925 35.0347 153.925 34.064C153.925 33.1147 153.717 32.384 153.301 31.872C152.885 31.3493 152.299 31.088 151.541 31.088C150.784 31.088 150.197 31.3493 149.781 31.872C149.365 32.384 149.157 33.1147 149.157 34.064C149.157 35.024 149.36 35.76 149.765 36.272C150.181 36.784 150.773 37.04 151.541 37.04ZM161.104 30.016C161.787 30.016 162.39 30.1867 162.912 30.528C163.435 30.8693 163.84 31.3493 164.128 31.968C164.416 32.576 164.56 33.2853 164.56 34.096C164.56 34.9067 164.416 35.616 164.128 36.224C163.84 36.8213 163.435 37.2853 162.912 37.616C162.4 37.9467 161.798 38.112 161.104 38.112C160.496 38.112 159.963 37.9787 159.504 37.712C159.056 37.4453 158.715 37.0667 158.48 36.576V40.336C158.48 40.528 158.422 40.6773 158.304 40.784C158.198 40.9013 158.043 40.96 157.84 40.96C157.638 40.96 157.478 40.9013 157.36 40.784C157.243 40.6667 157.184 40.5173 157.184 40.336V30.688C157.184 30.496 157.243 30.3413 157.36 30.224C157.478 30.1067 157.638 30.048 157.84 30.048C158.043 30.048 158.198 30.1067 158.304 30.224C158.422 30.3413 158.48 30.496 158.48 30.688V31.552C158.715 31.0613 159.056 30.6827 159.504 30.416C159.963 30.1493 160.496 30.016 161.104 30.016ZM160.848 37.04C161.606 37.04 162.192 36.784 162.608 36.272C163.024 35.76 163.232 35.0347 163.232 34.096C163.232 33.1573 163.024 32.4267 162.608 31.904C162.192 31.3707 161.606 31.104 160.848 31.104C160.091 31.104 159.504 31.36 159.088 31.872C158.683 32.384 158.48 33.1147 158.48 34.064C158.48 35.0133 158.683 35.7493 159.088 36.272C159.504 36.784 160.091 37.04 160.848 37.04ZM170.417 30.016C171.1 30.016 171.702 30.1867 172.225 30.528C172.748 30.8693 173.153 31.3493 173.441 31.968C173.729 32.576 173.873 33.2853 173.873 34.096C173.873 34.9067 173.729 35.616 173.441 36.224C173.153 36.8213 172.748 37.2853 172.225 37.616C171.713 37.9467 171.11 38.112 170.417 38.112C169.809 38.112 169.276 37.9787 168.817 37.712C168.369 37.4453 168.028 37.0667 167.793 36.576V40.336C167.793 40.528 167.734 40.6773 167.617 40.784C167.51 40.9013 167.356 40.96 167.153 40.96C166.95 40.96 166.79 40.9013 166.673 40.784C166.556 40.6667 166.497 40.5173 166.497 40.336V30.688C166.497 30.496 166.556 30.3413 166.673 30.224C166.79 30.1067 166.95 30.048 167.153 30.048C167.356 30.048 167.51 30.1067 167.617 30.224C167.734 30.3413 167.793 30.496 167.793 30.688V31.552C168.028 31.0613 168.369 30.6827 168.817 30.416C169.276 30.1493 169.809 30.016 170.417 30.016ZM170.161 37.04C170.918 37.04 171.505 36.784 171.921 36.272C172.337 35.76 172.545 35.0347 172.545 34.096C172.545 33.1573 172.337 32.4267 171.921 31.904C171.505 31.3707 170.918 31.104 170.161 31.104C169.404 31.104 168.817 31.36 168.401 31.872C167.996 32.384 167.793 33.1147 167.793 34.064C167.793 35.0133 167.996 35.7493 168.401 36.272C168.817 36.784 169.404 37.04 170.161 37.04ZM181.841 36.192C181.959 36.192 182.06 36.24 182.145 36.336C182.231 36.432 182.273 36.5547 182.273 36.704C182.273 36.9707 182.087 37.216 181.713 37.44C181.329 37.664 180.924 37.8347 180.497 37.952C180.071 38.0587 179.655 38.112 179.249 38.112C178.044 38.112 177.089 37.7547 176.385 37.04C175.692 36.3253 175.345 35.3387 175.345 34.08C175.345 33.28 175.5 32.576 175.809 31.968C176.119 31.3493 176.551 30.8693 177.105 30.528C177.671 30.1867 178.311 30.016 179.025 30.016C180.039 30.016 180.844 30.3467 181.441 31.008C182.039 31.6693 182.337 32.5653 182.337 33.696C182.337 33.9093 182.295 34.064 182.209 34.16C182.124 34.256 181.985 34.304 181.793 34.304H176.641C176.737 36.1387 177.607 37.056 179.249 37.056C179.665 37.056 180.023 37.0027 180.321 36.896C180.62 36.7787 180.94 36.624 181.281 36.432C181.559 36.272 181.745 36.192 181.841 36.192ZM179.041 31.024C178.359 31.024 177.809 31.2373 177.393 31.664C176.988 32.0907 176.748 32.6933 176.673 33.472H181.201C181.18 32.6827 180.983 32.08 180.609 31.664C180.236 31.2373 179.713 31.024 179.041 31.024ZM190.503 26.64C190.706 26.64 190.866 26.6987 190.983 26.816C191.1 26.9333 191.159 27.0827 191.159 27.264V37.44C191.159 37.632 191.1 37.7867 190.983 37.904C190.866 38.0213 190.706 38.08 190.503 38.08C190.3 38.08 190.14 38.0213 190.023 37.904C189.916 37.7867 189.863 37.632 189.863 37.44V36.576C189.628 37.0667 189.282 37.4453 188.823 37.712C188.375 37.9787 187.847 38.112 187.239 38.112C186.556 38.112 185.954 37.9413 185.431 37.6C184.908 37.2587 184.503 36.784 184.215 36.176C183.927 35.5573 183.783 34.8427 183.783 34.032C183.783 33.232 183.927 32.528 184.215 31.92C184.503 31.312 184.908 30.8427 185.431 30.512C185.954 30.1813 186.556 30.016 187.239 30.016C187.847 30.016 188.375 30.1493 188.823 30.416C189.282 30.6827 189.628 31.0613 189.863 31.552V27.264C189.863 27.072 189.916 26.9227 190.023 26.816C190.14 26.6987 190.3 26.64 190.503 26.64ZM187.495 37.04C188.252 37.04 188.834 36.784 189.239 36.272C189.655 35.7493 189.863 35.0133 189.863 34.064C189.863 33.1147 189.655 32.384 189.239 31.872C188.834 31.36 188.252 31.104 187.495 31.104C186.738 31.104 186.146 31.36 185.719 31.872C185.303 32.384 185.095 33.104 185.095 34.032C185.095 34.9813 185.303 35.7227 185.719 36.256C186.146 36.7787 186.738 37.04 187.495 37.04ZM206.356 30.016C208.084 30.016 208.948 31.0453 208.948 33.104V37.44C208.948 37.6427 208.89 37.8027 208.772 37.92C208.655 38.0267 208.5 38.08 208.308 38.08C208.116 38.08 207.956 38.0267 207.828 37.92C207.711 37.8027 207.652 37.6427 207.652 37.44V33.136C207.652 32.4213 207.524 31.904 207.268 31.584C207.012 31.264 206.612 31.104 206.068 31.104C205.418 31.104 204.906 31.3227 204.532 31.76C204.159 32.1973 203.972 32.7893 203.972 33.536V37.44C203.972 37.6427 203.908 37.8027 203.78 37.92C203.663 38.0267 203.508 38.08 203.316 38.08C203.124 38.08 202.97 38.0267 202.852 37.92C202.735 37.8027 202.676 37.6427 202.676 37.44V33.136C202.676 32.4213 202.548 31.904 202.292 31.584C202.036 31.264 201.631 31.104 201.076 31.104C200.436 31.104 199.924 31.3227 199.54 31.76C199.167 32.1973 198.98 32.7893 198.98 33.536V37.44C198.98 37.6427 198.922 37.8027 198.804 37.92C198.687 38.0267 198.532 38.08 198.34 38.08C198.148 38.08 197.988 38.0267 197.86 37.92C197.743 37.8027 197.684 37.6427 197.684 37.44V30.688C197.684 30.496 197.743 30.3413 197.86 30.224C197.988 30.1067 198.148 30.048 198.34 30.048C198.522 30.048 198.671 30.1067 198.788 30.224C198.906 30.3307 198.964 30.48 198.964 30.672V31.44C199.199 30.9813 199.524 30.6293 199.94 30.384C200.356 30.1387 200.836 30.016 201.38 30.016C202.596 30.016 203.391 30.528 203.764 31.552C203.988 31.0827 204.33 30.7093 204.788 30.432C205.247 30.1547 205.77 30.016 206.356 30.016ZM214.541 38.112C213.805 38.112 213.155 37.9467 212.589 37.616C212.035 37.2853 211.603 36.816 211.293 36.208C210.995 35.5893 210.845 34.8747 210.845 34.064C210.845 33.2533 210.995 32.544 211.293 31.936C211.603 31.3173 212.035 30.8427 212.589 30.512C213.155 30.1813 213.805 30.016 214.541 30.016C215.277 30.016 215.928 30.1813 216.493 30.512C217.059 30.8427 217.491 31.3173 217.789 31.936C218.099 32.544 218.253 33.2533 218.253 34.064C218.253 34.8747 218.099 35.5893 217.789 36.208C217.491 36.816 217.059 37.2853 216.493 37.616C215.928 37.9467 215.277 38.112 214.541 38.112ZM214.541 37.04C215.309 37.04 215.896 36.7893 216.301 36.288C216.717 35.776 216.925 35.0347 216.925 34.064C216.925 33.1147 216.717 32.384 216.301 31.872C215.885 31.3493 215.299 31.088 214.541 31.088C213.784 31.088 213.197 31.3493 212.781 31.872C212.365 32.384 212.157 33.1147 212.157 34.064C212.157 35.024 212.36 35.76 212.765 36.272C213.181 36.784 213.773 37.04 214.541 37.04ZM224.04 30.048C224.488 30.016 224.712 30.1973 224.712 30.592C224.712 30.7627 224.664 30.9013 224.568 31.008C224.472 31.104 224.307 31.1627 224.072 31.184L223.592 31.232C222.878 31.296 222.344 31.552 221.992 32C221.651 32.4373 221.48 32.9547 221.48 33.552V37.44C221.48 37.6533 221.422 37.8133 221.304 37.92C221.187 38.0267 221.032 38.08 220.84 38.08C220.648 38.08 220.488 38.0267 220.36 37.92C220.243 37.8027 220.184 37.6427 220.184 37.44V30.688C220.184 30.4853 220.248 30.3307 220.376 30.224C220.504 30.1067 220.659 30.048 220.84 30.048C221.011 30.048 221.155 30.1067 221.272 30.224C221.39 30.3307 221.448 30.48 221.448 30.672V31.568C221.672 31.0987 221.987 30.7413 222.392 30.496C222.808 30.2507 223.283 30.1067 223.816 30.064L224.04 30.048ZM231.701 36.192C231.818 36.192 231.919 36.24 232.005 36.336C232.09 36.432 232.133 36.5547 232.133 36.704C232.133 36.9707 231.946 37.216 231.573 37.44C231.189 37.664 230.783 37.8347 230.357 37.952C229.93 38.0587 229.514 38.112 229.109 38.112C227.903 38.112 226.949 37.7547 226.245 37.04C225.551 36.3253 225.205 35.3387 225.205 34.08C225.205 33.28 225.359 32.576 225.669 31.968C225.978 31.3493 226.41 30.8693 226.965 30.528C227.53 30.1867 228.17 30.016 228.885 30.016C229.898 30.016 230.703 30.3467 231.301 31.008C231.898 31.6693 232.197 32.5653 232.197 33.696C232.197 33.9093 232.154 34.064 232.069 34.16C231.983 34.256 231.845 34.304 231.653 34.304H226.501C226.597 36.1387 227.466 37.056 229.109 37.056C229.525 37.056 229.882 37.0027 230.181 36.896C230.479 36.7787 230.799 36.624 231.141 36.432C231.418 36.272 231.605 36.192 231.701 36.192ZM228.901 31.024C228.218 31.024 227.669 31.2373 227.253 31.664C226.847 32.0907 226.607 32.6933 226.533 33.472H231.061C231.039 32.6827 230.842 32.08 230.469 31.664C230.095 31.2373 229.573 31.024 228.901 31.024ZM241.831 37.056C242.205 37.088 242.391 37.2587 242.391 37.568C242.391 37.7493 242.322 37.888 242.183 37.984C242.055 38.0693 241.858 38.1013 241.591 38.08L241.159 38.048C240.306 37.984 239.677 37.728 239.271 37.28C238.866 36.832 238.663 36.1547 238.663 35.248V31.232H237.591C237.41 31.232 237.266 31.1893 237.159 31.104C237.063 31.008 237.015 30.8853 237.015 30.736C237.015 30.576 237.063 30.448 237.159 30.352C237.266 30.256 237.41 30.208 237.591 30.208H238.663V28.4C238.663 28.1973 238.722 28.0427 238.839 27.936C238.957 27.8187 239.117 27.76 239.319 27.76C239.511 27.76 239.666 27.8187 239.783 27.936C239.901 28.0427 239.959 28.1973 239.959 28.4V30.208H241.735C241.906 30.208 242.039 30.256 242.135 30.352C242.242 30.448 242.295 30.576 242.295 30.736C242.295 30.8853 242.242 31.008 242.135 31.104C242.039 31.1893 241.906 31.232 241.735 31.232H239.959V35.312C239.959 35.8987 240.077 36.3253 240.311 36.592C240.557 36.848 240.919 36.992 241.399 37.024L241.831 37.056ZM247.605 30.016C248.522 30.016 249.215 30.2773 249.685 30.8C250.154 31.312 250.389 32.08 250.389 33.104V37.44C250.389 37.6427 250.33 37.8027 250.213 37.92C250.095 38.0267 249.941 38.08 249.749 38.08C249.546 38.08 249.386 38.0267 249.269 37.92C249.151 37.8027 249.093 37.6427 249.093 37.44V33.136C249.093 32.4427 248.949 31.9307 248.661 31.6C248.383 31.2693 247.935 31.104 247.317 31.104C246.602 31.104 246.031 31.3227 245.605 31.76C245.178 32.1973 244.965 32.7893 244.965 33.536V37.44C244.965 37.6427 244.906 37.8027 244.789 37.92C244.682 38.0267 244.527 38.08 244.325 38.08C244.122 38.08 243.962 38.0267 243.845 37.92C243.727 37.8027 243.669 37.6427 243.669 37.44V27.264C243.669 27.0827 243.727 26.9333 243.845 26.816C243.973 26.6987 244.133 26.64 244.325 26.64C244.527 26.64 244.682 26.6987 244.789 26.816C244.906 26.9227 244.965 27.072 244.965 27.264V31.456C245.221 30.9867 245.578 30.6293 246.037 30.384C246.495 30.1387 247.018 30.016 247.605 30.016ZM255.947 30.016C257.899 30.016 258.875 31.04 258.875 33.088V37.44C258.875 37.632 258.816 37.7867 258.699 37.904C258.592 38.0213 258.443 38.08 258.251 38.08C258.059 38.08 257.904 38.0213 257.787 37.904C257.669 37.7867 257.611 37.632 257.611 37.44V36.672C257.408 37.1307 257.099 37.488 256.683 37.744C256.267 37.9893 255.787 38.112 255.243 38.112C254.741 38.112 254.277 38.0107 253.851 37.808C253.435 37.6053 253.104 37.3227 252.859 36.96C252.613 36.5973 252.491 36.1973 252.491 35.76C252.491 35.1733 252.64 34.72 252.939 34.4C253.237 34.0693 253.728 33.8347 254.411 33.696C255.093 33.5467 256.043 33.472 257.259 33.472H257.611V32.944C257.611 32.304 257.477 31.8347 257.211 31.536C256.955 31.2373 256.533 31.088 255.947 31.088C255.221 31.088 254.485 31.2853 253.739 31.68C253.451 31.8613 253.248 31.952 253.131 31.952C253.003 31.952 252.896 31.904 252.811 31.808C252.725 31.712 252.683 31.5893 252.683 31.44C252.683 31.2907 252.725 31.1627 252.811 31.056C252.907 30.9387 253.056 30.8213 253.259 30.704C253.632 30.4907 254.053 30.3253 254.523 30.208C255.003 30.08 255.477 30.016 255.947 30.016ZM255.419 37.088C256.059 37.088 256.581 36.8747 256.987 36.448C257.403 36.0107 257.611 35.4507 257.611 34.768V34.304H257.323C256.384 34.304 255.669 34.3467 255.179 34.432C254.688 34.5067 254.336 34.64 254.123 34.832C253.92 35.0133 253.819 35.2853 253.819 35.648C253.819 36.064 253.968 36.4107 254.267 36.688C254.576 36.9547 254.96 37.088 255.419 37.088ZM265.167 30.016C267.034 30.016 267.967 31.0453 267.967 33.104V37.44C267.967 37.6427 267.908 37.8027 267.791 37.92C267.684 38.0267 267.53 38.08 267.327 38.08C267.124 38.08 266.964 38.0267 266.847 37.92C266.73 37.8027 266.671 37.6427 266.671 37.44V33.184C266.671 32.4587 266.527 31.9307 266.239 31.6C265.962 31.2693 265.514 31.104 264.895 31.104C264.18 31.104 263.61 31.3227 263.183 31.76C262.756 32.1973 262.543 32.7893 262.543 33.536V37.44C262.543 37.6427 262.484 37.8027 262.367 37.92C262.26 38.0267 262.106 38.08 261.903 38.08C261.7 38.08 261.54 38.0267 261.423 37.92C261.306 37.8027 261.247 37.6427 261.247 37.44V30.688C261.247 30.496 261.306 30.3413 261.423 30.224C261.54 30.1067 261.7 30.048 261.903 30.048C262.095 30.048 262.244 30.1067 262.351 30.224C262.468 30.3413 262.527 30.4907 262.527 30.672V31.488C262.783 31.008 263.14 30.6453 263.599 30.4C264.058 30.144 264.58 30.016 265.167 30.016ZM281.394 36.896C281.586 36.896 281.735 36.944 281.842 37.04C281.948 37.136 282.002 37.2693 282.002 37.44C282.002 37.8133 281.799 38 281.394 38H275.122C274.94 38 274.791 37.9467 274.674 37.84C274.556 37.7227 274.498 37.584 274.498 37.424C274.498 37.2213 274.572 37.0453 274.722 36.896L278.578 32.656C279.111 32.0587 279.495 31.5253 279.73 31.056C279.975 30.576 280.098 30.096 280.098 29.616C280.098 28.9973 279.916 28.5227 279.554 28.192C279.202 27.8613 278.7 27.696 278.05 27.696C277.538 27.696 277.047 27.792 276.578 27.984C276.108 28.1653 275.639 28.448 275.17 28.832C275.01 28.96 274.86 29.024 274.722 29.024C274.604 29.024 274.503 28.9707 274.418 28.864C274.332 28.7467 274.29 28.608 274.29 28.448C274.29 28.224 274.375 28.0427 274.546 27.904C274.983 27.4987 275.516 27.1787 276.146 26.944C276.775 26.7093 277.42 26.592 278.082 26.592C279.095 26.592 279.9 26.8587 280.498 27.392C281.106 27.9253 281.41 28.6453 281.41 29.552C281.41 30.2027 281.26 30.8267 280.962 31.424C280.674 32.0213 280.194 32.688 279.522 33.424L276.322 36.896H281.394ZM287.659 38.128C286.369 38.128 285.387 37.6373 284.715 36.656C284.043 35.6747 283.707 34.2453 283.707 32.368C283.707 30.48 284.043 29.0453 284.715 28.064C285.387 27.0827 286.369 26.592 287.659 26.592C288.95 26.592 289.931 27.0827 290.603 28.064C291.275 29.0347 291.611 30.464 291.611 32.352C291.611 34.24 291.275 35.6747 290.603 36.656C289.931 37.6373 288.95 38.128 287.659 38.128ZM287.659 37.024C288.555 37.024 289.217 36.6453 289.643 35.888C290.07 35.1307 290.283 33.952 290.283 32.352C290.283 30.7413 290.07 29.5627 289.643 28.816C289.227 28.0693 288.566 27.696 287.659 27.696C286.763 27.696 286.102 28.0747 285.675 28.832C285.249 29.5787 285.035 30.752 285.035 32.352C285.035 33.952 285.249 35.1307 285.675 35.888C286.102 36.6453 286.763 37.024 287.659 37.024ZM297.253 38.128C295.962 38.128 294.981 37.6373 294.309 36.656C293.637 35.6747 293.301 34.2453 293.301 32.368C293.301 30.48 293.637 29.0453 294.309 28.064C294.981 27.0827 295.962 26.592 297.253 26.592C298.544 26.592 299.525 27.0827 300.197 28.064C300.869 29.0347 301.205 30.464 301.205 32.352C301.205 34.24 300.869 35.6747 300.197 36.656C299.525 37.6373 298.544 38.128 297.253 38.128ZM297.253 37.024C298.149 37.024 298.81 36.6453 299.237 35.888C299.664 35.1307 299.877 33.952 299.877 32.352C299.877 30.7413 299.664 29.5627 299.237 28.816C298.821 28.0693 298.16 27.696 297.253 27.696C296.357 27.696 295.696 28.0747 295.269 28.832C294.842 29.5787 294.629 30.752 294.629 32.352C294.629 33.952 294.842 35.1307 295.269 35.888C295.696 36.6453 296.357 37.024 297.253 37.024ZM310.588 38.112C309.863 38.112 309.217 37.9467 308.652 37.616C308.097 37.2853 307.665 36.816 307.356 36.208C307.057 35.6 306.908 34.896 306.908 34.096C306.908 33.296 307.063 32.5867 307.372 31.968C307.692 31.3493 308.135 30.8693 308.7 30.528C309.265 30.1867 309.916 30.016 310.652 30.016C311.057 30.016 311.457 30.0747 311.852 30.192C312.257 30.2987 312.609 30.4587 312.908 30.672C313.1 30.8 313.233 30.928 313.308 31.056C313.393 31.1733 313.436 31.3067 313.436 31.456C313.436 31.6053 313.393 31.728 313.308 31.824C313.233 31.92 313.132 31.968 313.004 31.968C312.929 31.968 312.849 31.9467 312.764 31.904C312.679 31.8613 312.604 31.8187 312.54 31.776C312.487 31.7333 312.449 31.7067 312.428 31.696C312.151 31.5147 311.884 31.3707 311.628 31.264C311.383 31.1573 311.079 31.104 310.716 31.104C309.937 31.104 309.329 31.3707 308.892 31.904C308.465 32.4267 308.252 33.1573 308.252 34.096C308.252 35.0347 308.465 35.76 308.892 36.272C309.329 36.784 309.937 37.04 310.716 37.04C311.079 37.04 311.388 36.9867 311.644 36.88C311.911 36.7733 312.177 36.6293 312.444 36.448C312.561 36.3733 312.673 36.3093 312.78 36.256C312.887 36.2027 312.977 36.176 313.052 36.176C313.169 36.176 313.265 36.224 313.34 36.32C313.425 36.416 313.468 36.5387 313.468 36.688C313.468 36.8267 313.431 36.9547 313.356 37.072C313.281 37.1787 313.143 37.3013 312.94 37.44C312.641 37.6427 312.279 37.808 311.852 37.936C311.436 38.0533 311.015 38.112 310.588 38.112ZM318.26 38.112C317.524 38.112 316.873 37.9467 316.308 37.616C315.753 37.2853 315.321 36.816 315.012 36.208C314.713 35.5893 314.564 34.8747 314.564 34.064C314.564 33.2533 314.713 32.544 315.012 31.936C315.321 31.3173 315.753 30.8427 316.308 30.512C316.873 30.1813 317.524 30.016 318.26 30.016C318.996 30.016 319.647 30.1813 320.212 30.512C320.777 30.8427 321.209 31.3173 321.508 31.936C321.817 32.544 321.972 33.2533 321.972 34.064C321.972 34.8747 321.817 35.5893 321.508 36.208C321.209 36.816 320.777 37.2853 320.212 37.616C319.647 37.9467 318.996 38.112 318.26 38.112ZM318.26 37.04C319.028 37.04 319.615 36.7893 320.02 36.288C320.436 35.776 320.644 35.0347 320.644 34.064C320.644 33.1147 320.436 32.384 320.02 31.872C319.604 31.3493 319.017 31.088 318.26 31.088C317.503 31.088 316.916 31.3493 316.5 31.872C316.084 32.384 315.876 33.1147 315.876 34.064C315.876 35.024 316.079 35.76 316.484 36.272C316.9 36.784 317.492 37.04 318.26 37.04ZM332.575 30.016C334.303 30.016 335.167 31.0453 335.167 33.104V37.44C335.167 37.6427 335.108 37.8027 334.991 37.92C334.874 38.0267 334.719 38.08 334.527 38.08C334.335 38.08 334.175 38.0267 334.047 37.92C333.93 37.8027 333.871 37.6427 333.871 37.44V33.136C333.871 32.4213 333.743 31.904 333.487 31.584C333.231 31.264 332.831 31.104 332.287 31.104C331.636 31.104 331.124 31.3227 330.751 31.76C330.378 32.1973 330.191 32.7893 330.191 33.536V37.44C330.191 37.6427 330.127 37.8027 329.999 37.92C329.882 38.0267 329.727 38.08 329.535 38.08C329.343 38.08 329.188 38.0267 329.071 37.92C328.954 37.8027 328.895 37.6427 328.895 37.44V33.136C328.895 32.4213 328.767 31.904 328.511 31.584C328.255 31.264 327.85 31.104 327.295 31.104C326.655 31.104 326.143 31.3227 325.759 31.76C325.386 32.1973 325.199 32.7893 325.199 33.536V37.44C325.199 37.6427 325.14 37.8027 325.023 37.92C324.906 38.0267 324.751 38.08 324.559 38.08C324.367 38.08 324.207 38.0267 324.079 37.92C323.962 37.8027 323.903 37.6427 323.903 37.44V30.688C323.903 30.496 323.962 30.3413 324.079 30.224C324.207 30.1067 324.367 30.048 324.559 30.048C324.74 30.048 324.89 30.1067 325.007 30.224C325.124 30.3307 325.183 30.48 325.183 30.672V31.44C325.418 30.9813 325.743 30.6293 326.159 30.384C326.575 30.1387 327.055 30.016 327.599 30.016C328.815 30.016 329.61 30.528 329.983 31.552C330.207 31.0827 330.548 30.7093 331.007 30.432C331.466 30.1547 331.988 30.016 332.575 30.016ZM341.448 30.016C342.131 30.016 342.733 30.1867 343.256 30.528C343.779 30.8693 344.184 31.3493 344.472 31.968C344.76 32.576 344.904 33.2853 344.904 34.096C344.904 34.9067 344.76 35.616 344.472 36.224C344.184 36.8213 343.779 37.2853 343.256 37.616C342.744 37.9467 342.141 38.112 341.448 38.112C340.84 38.112 340.307 37.9787 339.848 37.712C339.4 37.4453 339.059 37.0667 338.824 36.576V40.336C338.824 40.528 338.765 40.6773 338.648 40.784C338.541 40.9013 338.387 40.96 338.184 40.96C337.981 40.96 337.821 40.9013 337.704 40.784C337.587 40.6667 337.528 40.5173 337.528 40.336V30.688C337.528 30.496 337.587 30.3413 337.704 30.224C337.821 30.1067 337.981 30.048 338.184 30.048C338.387 30.048 338.541 30.1067 338.648 30.224C338.765 30.3413 338.824 30.496 338.824 30.688V31.552C339.059 31.0613 339.4 30.6827 339.848 30.416C340.307 30.1493 340.84 30.016 341.448 30.016ZM341.192 37.04C341.949 37.04 342.536 36.784 342.952 36.272C343.368 35.76 343.576 35.0347 343.576 34.096C343.576 33.1573 343.368 32.4267 342.952 31.904C342.536 31.3707 341.949 31.104 341.192 31.104C340.435 31.104 339.848 31.36 339.432 31.872C339.027 32.384 338.824 33.1147 338.824 34.064C338.824 35.0133 339.027 35.7493 339.432 36.272C339.848 36.784 340.435 37.04 341.192 37.04ZM350.025 30.016C351.977 30.016 352.953 31.04 352.953 33.088V37.44C352.953 37.632 352.894 37.7867 352.777 37.904C352.67 38.0213 352.521 38.08 352.329 38.08C352.137 38.08 351.982 38.0213 351.865 37.904C351.747 37.7867 351.689 37.632 351.689 37.44V36.672C351.486 37.1307 351.177 37.488 350.761 37.744C350.345 37.9893 349.865 38.112 349.321 38.112C348.819 38.112 348.355 38.0107 347.929 37.808C347.513 37.6053 347.182 37.3227 346.937 36.96C346.691 36.5973 346.569 36.1973 346.569 35.76C346.569 35.1733 346.718 34.72 347.017 34.4C347.315 34.0693 347.806 33.8347 348.489 33.696C349.171 33.5467 350.121 33.472 351.337 33.472H351.689V32.944C351.689 32.304 351.555 31.8347 351.289 31.536C351.033 31.2373 350.611 31.088 350.025 31.088C349.299 31.088 348.563 31.2853 347.817 31.68C347.529 31.8613 347.326 31.952 347.209 31.952C347.081 31.952 346.974 31.904 346.889 31.808C346.803 31.712 346.761 31.5893 346.761 31.44C346.761 31.2907 346.803 31.1627 346.889 31.056C346.985 30.9387 347.134 30.8213 347.337 30.704C347.71 30.4907 348.131 30.3253 348.601 30.208C349.081 30.08 349.555 30.016 350.025 30.016ZM349.497 37.088C350.137 37.088 350.659 36.8747 351.065 36.448C351.481 36.0107 351.689 35.4507 351.689 34.768V34.304H351.401C350.462 34.304 349.747 34.3467 349.257 34.432C348.766 34.5067 348.414 34.64 348.201 34.832C347.998 35.0133 347.897 35.2853 347.897 35.648C347.897 36.064 348.046 36.4107 348.345 36.688C348.654 36.9547 349.038 37.088 349.497 37.088ZM359.245 30.016C361.112 30.016 362.045 31.0453 362.045 33.104V37.44C362.045 37.6427 361.986 37.8027 361.869 37.92C361.762 38.0267 361.608 38.08 361.405 38.08C361.202 38.08 361.042 38.0267 360.925 37.92C360.808 37.8027 360.749 37.6427 360.749 37.44V33.184C360.749 32.4587 360.605 31.9307 360.317 31.6C360.04 31.2693 359.592 31.104 358.973 31.104C358.258 31.104 357.688 31.3227 357.261 31.76C356.834 32.1973 356.621 32.7893 356.621 33.536V37.44C356.621 37.6427 356.562 37.8027 356.445 37.92C356.338 38.0267 356.184 38.08 355.981 38.08C355.778 38.08 355.618 38.0267 355.501 37.92C355.384 37.8027 355.325 37.6427 355.325 37.44V30.688C355.325 30.496 355.384 30.3413 355.501 30.224C355.618 30.1067 355.778 30.048 355.981 30.048C356.173 30.048 356.322 30.1067 356.429 30.224C356.546 30.3413 356.605 30.4907 356.605 30.672V31.488C356.861 31.008 357.218 30.6453 357.677 30.4C358.136 30.144 358.658 30.016 359.245 30.016ZM365.075 38.08C364.883 38.08 364.723 38.0267 364.595 37.92C364.477 37.8027 364.419 37.6427 364.419 37.44V30.688C364.419 30.4853 364.477 30.3307 364.595 30.224C364.723 30.1067 364.883 30.048 365.075 30.048C365.267 30.048 365.421 30.1067 365.539 30.224C365.656 30.3307 365.715 30.4853 365.715 30.688V37.44C365.715 37.6533 365.656 37.8133 365.539 37.92C365.421 38.0267 365.267 38.08 365.075 38.08ZM365.075 28.368C364.819 28.368 364.611 28.2933 364.451 28.144C364.291 27.9947 364.211 27.7973 364.211 27.552C364.211 27.3173 364.291 27.1253 364.451 26.976C364.611 26.8267 364.819 26.752 365.075 26.752C365.331 26.752 365.539 26.8267 365.699 26.976C365.859 27.1253 365.939 27.3173 365.939 27.552C365.939 27.7973 365.859 27.9947 365.699 28.144C365.539 28.2933 365.331 28.368 365.075 28.368ZM374.17 36.192C374.287 36.192 374.388 36.24 374.474 36.336C374.559 36.432 374.602 36.5547 374.602 36.704C374.602 36.9707 374.415 37.216 374.042 37.44C373.658 37.664 373.252 37.8347 372.826 37.952C372.399 38.0587 371.983 38.112 371.578 38.112C370.372 38.112 369.418 37.7547 368.714 37.04C368.02 36.3253 367.674 35.3387 367.674 34.08C367.674 33.28 367.828 32.576 368.138 31.968C368.447 31.3493 368.879 30.8693 369.434 30.528C369.999 30.1867 370.639 30.016 371.354 30.016C372.367 30.016 373.172 30.3467 373.77 31.008C374.367 31.6693 374.666 32.5653 374.666 33.696C374.666 33.9093 374.623 34.064 374.538 34.16C374.452 34.256 374.314 34.304 374.122 34.304H368.97C369.066 36.1387 369.935 37.056 371.578 37.056C371.994 37.056 372.351 37.0027 372.65 36.896C372.948 36.7787 373.268 36.624 373.61 36.432C373.887 36.272 374.074 36.192 374.17 36.192ZM371.37 31.024C370.687 31.024 370.138 31.2373 369.722 31.664C369.316 32.0907 369.076 32.6933 369.002 33.472H373.53C373.508 32.6827 373.311 32.08 372.938 31.664C372.564 31.2373 372.042 31.024 371.37 31.024ZM379.199 38.112C378.708 38.112 378.239 38.0533 377.791 37.936C377.354 37.8187 376.964 37.6533 376.623 37.44C376.431 37.312 376.292 37.1947 376.207 37.088C376.132 36.9707 376.095 36.832 376.095 36.672C376.095 36.5333 376.132 36.4213 376.207 36.336C376.292 36.24 376.399 36.192 376.527 36.192C376.655 36.192 376.842 36.272 377.087 36.432C377.407 36.624 377.722 36.7787 378.031 36.896C378.351 37.0027 378.746 37.056 379.215 37.056C379.791 37.056 380.239 36.9547 380.559 36.752C380.879 36.5493 381.039 36.256 381.039 35.872C381.039 35.6373 380.98 35.4507 380.863 35.312C380.746 35.1627 380.543 35.0347 380.255 34.928C379.967 34.8107 379.546 34.6933 378.991 34.576C378.052 34.3733 377.38 34.1013 376.975 33.76C376.57 33.4187 376.367 32.9547 376.367 32.368C376.367 31.9093 376.495 31.504 376.751 31.152C377.007 30.8 377.359 30.5227 377.807 30.32C378.266 30.1173 378.783 30.016 379.359 30.016C379.775 30.016 380.175 30.0747 380.559 30.192C380.954 30.2987 381.3 30.4533 381.599 30.656C381.962 30.912 382.143 31.1787 382.143 31.456C382.143 31.5947 382.1 31.712 382.015 31.808C381.93 31.904 381.828 31.952 381.711 31.952C381.583 31.952 381.391 31.8613 381.135 31.68C380.836 31.488 380.554 31.3387 380.287 31.232C380.02 31.1253 379.69 31.072 379.295 31.072C378.794 31.072 378.388 31.184 378.079 31.408C377.78 31.632 377.631 31.9307 377.631 32.304C377.631 32.5387 377.684 32.7307 377.791 32.88C377.908 33.0187 378.095 33.1467 378.351 33.264C378.618 33.3707 378.996 33.4773 379.487 33.584C380.212 33.744 380.772 33.92 381.167 34.112C381.572 34.304 381.86 34.5387 382.031 34.816C382.202 35.0933 382.287 35.4453 382.287 35.872C382.287 36.544 382.004 37.088 381.439 37.504C380.874 37.9093 380.127 38.112 379.199 38.112ZM56.8 57.056C57.1733 57.088 57.36 57.2587 57.36 57.568C57.36 57.7493 57.2907 57.888 57.152 57.984C57.024 58.0693 56.8267 58.1013 56.56 58.08L56.128 58.048C55.2747 57.984 54.6453 57.728 54.24 57.28C53.8347 56.832 53.632 56.1547 53.632 55.248V51.232H52.56C52.3787 51.232 52.2347 51.1893 52.128 51.104C52.032 51.008 51.984 50.8853 51.984 50.736C51.984 50.576 52.032 50.448 52.128 50.352C52.2347 50.256 52.3787 50.208 52.56 50.208H53.632V48.4C53.632 48.1973 53.6907 48.0427 53.808 47.936C53.9253 47.8187 54.0853 47.76 54.288 47.76C54.48 47.76 54.6347 47.8187 54.752 47.936C54.8693 48.0427 54.928 48.1973 54.928 48.4V50.208H56.704C56.8747 50.208 57.008 50.256 57.104 50.352C57.2107 50.448 57.264 50.576 57.264 50.736C57.264 50.8853 57.2107 51.008 57.104 51.104C57.008 51.1893 56.8747 51.232 56.704 51.232H54.928V55.312C54.928 55.8987 55.0453 56.3253 55.28 56.592C55.5253 56.848 55.888 56.992 56.368 57.024L56.8 57.056ZM61.8215 50.016C63.7735 50.016 64.7495 51.04 64.7495 53.088V57.44C64.7495 57.632 64.6908 57.7867 64.5735 57.904C64.4668 58.0213 64.3175 58.08 64.1255 58.08C63.9335 58.08 63.7788 58.0213 63.6615 57.904C63.5442 57.7867 63.4855 57.632 63.4855 57.44V56.672C63.2828 57.1307 62.9735 57.488 62.5575 57.744C62.1415 57.9893 61.6615 58.112 61.1175 58.112C60.6162 58.112 60.1522 58.0107 59.7255 57.808C59.3095 57.6053 58.9788 57.3227 58.7335 56.96C58.4882 56.5973 58.3655 56.1973 58.3655 55.76C58.3655 55.1733 58.5148 54.72 58.8135 54.4C59.1122 54.0693 59.6028 53.8347 60.2855 53.696C60.9682 53.5467 61.9175 53.472 63.1335 53.472H63.4855V52.944C63.4855 52.304 63.3522 51.8347 63.0855 51.536C62.8295 51.2373 62.4082 51.088 61.8215 51.088C61.0962 51.088 60.3602 51.2853 59.6135 51.68C59.3255 51.8613 59.1228 51.952 59.0055 51.952C58.8775 51.952 58.7708 51.904 58.6855 51.808C58.6002 51.712 58.5575 51.5893 58.5575 51.44C58.5575 51.2907 58.6002 51.1627 58.6855 51.056C58.7815 50.9387 58.9308 50.8213 59.1335 50.704C59.5068 50.4907 59.9282 50.3253 60.3975 50.208C60.8775 50.08 61.3522 50.016 61.8215 50.016ZM61.2935 57.088C61.9335 57.088 62.4562 56.8747 62.8615 56.448C63.2775 56.0107 63.4855 55.4507 63.4855 54.768V54.304H63.1975C62.2588 54.304 61.5442 54.3467 61.0535 54.432C60.5628 54.5067 60.2108 54.64 59.9975 54.832C59.7948 55.0133 59.6935 55.2853 59.6935 55.648C59.6935 56.064 59.8428 56.4107 60.1415 56.688C60.4508 56.9547 60.8348 57.088 61.2935 57.088ZM73.3459 56.976C73.5165 57.136 73.6019 57.3067 73.6019 57.488C73.6019 57.648 73.5432 57.7867 73.4259 57.904C73.3192 58.0213 73.1859 58.08 73.0259 58.08C72.8872 58.08 72.7432 58.016 72.5939 57.888L68.4179 54.288V57.44C68.4179 57.6427 68.3539 57.8027 68.2259 57.92C68.1085 58.0267 67.9592 58.08 67.7779 58.08C67.5859 58.08 67.4259 58.0267 67.2979 57.92C67.1805 57.8027 67.1219 57.6427 67.1219 57.44V47.28C67.1219 47.0773 67.1805 46.9227 67.2979 46.816C67.4259 46.6987 67.5859 46.64 67.7779 46.64C67.9592 46.64 68.1085 46.6987 68.2259 46.816C68.3539 46.9227 68.4179 47.0773 68.4179 47.28V53.776L72.2419 50.272C72.3699 50.144 72.5139 50.08 72.6739 50.08C72.8339 50.08 72.9725 50.1387 73.0899 50.256C73.2072 50.3733 73.2659 50.512 73.2659 50.672C73.2659 50.8533 73.1912 51.0133 73.0419 51.152L69.8899 53.968L73.3459 56.976ZM75.7779 58.08C75.5859 58.08 75.4259 58.0267 75.2979 57.92C75.1805 57.8027 75.1219 57.6427 75.1219 57.44V50.688C75.1219 50.4853 75.1805 50.3307 75.2979 50.224C75.4259 50.1067 75.5859 50.048 75.7779 50.048C75.9699 50.048 76.1245 50.1067 76.2419 50.224C76.3592 50.3307 76.4179 50.4853 76.4179 50.688V57.44C76.4179 57.6533 76.3592 57.8133 76.2419 57.92C76.1245 58.0267 75.9699 58.08 75.7779 58.08ZM75.7779 48.368C75.5219 48.368 75.3139 48.2933 75.1539 48.144C74.9939 47.9947 74.9139 47.7973 74.9139 47.552C74.9139 47.3173 74.9939 47.1253 75.1539 46.976C75.3139 46.8267 75.5219 46.752 75.7779 46.752C76.0339 46.752 76.2419 46.8267 76.4019 46.976C76.5619 47.1253 76.6419 47.3173 76.6419 47.552C76.6419 47.7973 76.5619 47.9947 76.4019 48.144C76.2419 48.2933 76.0339 48.368 75.7779 48.368ZM82.7606 50.016C84.6273 50.016 85.5606 51.0453 85.5606 53.104V57.44C85.5606 57.6427 85.502 57.8027 85.3846 57.92C85.278 58.0267 85.1233 58.08 84.9206 58.08C84.718 58.08 84.558 58.0267 84.4406 57.92C84.3233 57.8027 84.2646 57.6427 84.2646 57.44V53.184C84.2646 52.4587 84.1206 51.9307 83.8326 51.6C83.5553 51.2693 83.1073 51.104 82.4886 51.104C81.774 51.104 81.2033 51.3227 80.7766 51.76C80.35 52.1973 80.1366 52.7893 80.1366 53.536V57.44C80.1366 57.6427 80.078 57.8027 79.9606 57.92C79.854 58.0267 79.6993 58.08 79.4966 58.08C79.294 58.08 79.134 58.0267 79.0166 57.92C78.8993 57.8027 78.8406 57.6427 78.8406 57.44V50.688C78.8406 50.496 78.8993 50.3413 79.0166 50.224C79.134 50.1067 79.294 50.048 79.4966 50.048C79.6886 50.048 79.838 50.1067 79.9446 50.224C80.062 50.3413 80.1206 50.4907 80.1206 50.672V51.488C80.3766 51.008 80.734 50.6453 81.1926 50.4C81.6513 50.144 82.174 50.016 82.7606 50.016ZM94.2544 50.048C94.457 50.048 94.617 50.1067 94.7344 50.224C94.8517 50.3413 94.9104 50.496 94.9104 50.688V57.472C94.9104 58.6347 94.6117 59.5093 94.0144 60.096C93.417 60.6933 92.5317 60.992 91.3584 60.992C90.217 60.992 89.2677 60.768 88.5104 60.32C88.1264 60.1067 87.9344 59.8613 87.9344 59.584C87.9344 59.4347 87.9717 59.312 88.0464 59.216C88.1317 59.12 88.2384 59.072 88.3664 59.072C88.473 59.072 88.665 59.1467 88.9424 59.296C89.3157 59.488 89.6837 59.6427 90.0464 59.76C90.409 59.8773 90.841 59.936 91.3424 59.936C92.0997 59.936 92.6704 59.7333 93.0544 59.328C93.4384 58.9333 93.6304 58.352 93.6304 57.584V56.208C93.4064 56.7093 93.0597 57.0933 92.5904 57.36C92.1317 57.6267 91.5877 57.76 90.9584 57.76C90.2757 57.76 89.6677 57.6 89.1344 57.28C88.6117 56.96 88.201 56.5067 87.9024 55.92C87.6144 55.3333 87.4704 54.656 87.4704 53.888C87.4704 53.12 87.6144 52.4427 87.9024 51.856C88.201 51.2693 88.6117 50.816 89.1344 50.496C89.6677 50.176 90.2757 50.016 90.9584 50.016C91.577 50.016 92.1157 50.1493 92.5744 50.416C93.033 50.6827 93.3797 51.0613 93.6144 51.552V50.688C93.6144 50.496 93.6677 50.3413 93.7744 50.224C93.8917 50.1067 94.0517 50.048 94.2544 50.048ZM91.2144 56.688C91.961 56.688 92.5477 56.4427 92.9744 55.952C93.401 55.4507 93.6144 54.7627 93.6144 53.888C93.6144 53.024 93.401 52.3467 92.9744 51.856C92.5584 51.3547 91.9717 51.104 91.2144 51.104C90.457 51.104 89.8597 51.3547 89.4224 51.856C88.9957 52.3467 88.7824 53.024 88.7824 53.888C88.7824 54.7627 88.9957 55.4507 89.4224 55.952C89.8597 56.4427 90.457 56.688 91.2144 56.688ZM110.106 50.016C111.834 50.016 112.698 51.0453 112.698 53.104V57.44C112.698 57.6427 112.64 57.8027 112.522 57.92C112.405 58.0267 112.25 58.08 112.058 58.08C111.866 58.08 111.706 58.0267 111.578 57.92C111.461 57.8027 111.402 57.6427 111.402 57.44V53.136C111.402 52.4213 111.274 51.904 111.018 51.584C110.762 51.264 110.362 51.104 109.818 51.104C109.168 51.104 108.656 51.3227 108.282 51.76C107.909 52.1973 107.722 52.7893 107.722 53.536V57.44C107.722 57.6427 107.658 57.8027 107.53 57.92C107.413 58.0267 107.258 58.08 107.066 58.08C106.874 58.08 106.72 58.0267 106.602 57.92C106.485 57.8027 106.426 57.6427 106.426 57.44V53.136C106.426 52.4213 106.298 51.904 106.042 51.584C105.786 51.264 105.381 51.104 104.826 51.104C104.186 51.104 103.674 51.3227 103.29 51.76C102.917 52.1973 102.73 52.7893 102.73 53.536V57.44C102.73 57.6427 102.672 57.8027 102.554 57.92C102.437 58.0267 102.282 58.08 102.09 58.08C101.898 58.08 101.738 58.0267 101.61 57.92C101.493 57.8027 101.434 57.6427 101.434 57.44V50.688C101.434 50.496 101.493 50.3413 101.61 50.224C101.738 50.1067 101.898 50.048 102.09 50.048C102.272 50.048 102.421 50.1067 102.538 50.224C102.656 50.3307 102.714 50.48 102.714 50.672V51.44C102.949 50.9813 103.274 50.6293 103.69 50.384C104.106 50.1387 104.586 50.016 105.13 50.016C106.346 50.016 107.141 50.528 107.514 51.552C107.738 51.0827 108.08 50.7093 108.538 50.432C108.997 50.1547 109.52 50.016 110.106 50.016ZM120.675 50.448C120.793 50.192 120.979 50.064 121.235 50.064C121.395 50.064 121.539 50.1173 121.667 50.224C121.795 50.3307 121.859 50.464 121.859 50.624C121.859 50.72 121.838 50.8053 121.795 50.88L117.299 60.576C117.246 60.6933 117.166 60.784 117.059 60.848C116.963 60.912 116.862 60.944 116.755 60.944C116.595 60.944 116.451 60.8907 116.323 60.784C116.206 60.688 116.147 60.56 116.147 60.4C116.147 60.3147 116.169 60.2293 116.211 60.144L117.331 57.728L114.163 50.88C114.121 50.8053 114.099 50.7253 114.099 50.64C114.099 50.48 114.169 50.3413 114.307 50.224C114.457 50.1067 114.617 50.048 114.787 50.048C114.894 50.048 114.995 50.08 115.091 50.144C115.198 50.208 115.278 50.2987 115.331 50.416L118.003 56.416L120.675 50.448ZM133.659 46.64C133.862 46.64 134.022 46.6987 134.139 46.816C134.256 46.9333 134.315 47.0827 134.315 47.264V57.44C134.315 57.632 134.256 57.7867 134.139 57.904C134.022 58.0213 133.862 58.08 133.659 58.08C133.456 58.08 133.296 58.0213 133.179 57.904C133.072 57.7867 133.019 57.632 133.019 57.44V56.576C132.784 57.0667 132.438 57.4453 131.979 57.712C131.531 57.9787 131.003 58.112 130.395 58.112C129.712 58.112 129.11 57.9413 128.587 57.6C128.064 57.2587 127.659 56.784 127.371 56.176C127.083 55.5573 126.939 54.8427 126.939 54.032C126.939 53.232 127.083 52.528 127.371 51.92C127.659 51.312 128.064 50.8427 128.587 50.512C129.11 50.1813 129.712 50.016 130.395 50.016C131.003 50.016 131.531 50.1493 131.979 50.416C132.438 50.6827 132.784 51.0613 133.019 51.552V47.264C133.019 47.072 133.072 46.9227 133.179 46.816C133.296 46.6987 133.456 46.64 133.659 46.64ZM130.651 57.04C131.408 57.04 131.99 56.784 132.395 56.272C132.811 55.7493 133.019 55.0133 133.019 54.064C133.019 53.1147 132.811 52.384 132.395 51.872C131.99 51.36 131.408 51.104 130.651 51.104C129.894 51.104 129.302 51.36 128.875 51.872C128.459 52.384 128.251 53.104 128.251 54.032C128.251 54.9813 128.459 55.7227 128.875 56.256C129.302 56.7787 129.894 57.04 130.651 57.04ZM139.9 50.016C141.852 50.016 142.828 51.04 142.828 53.088V57.44C142.828 57.632 142.769 57.7867 142.652 57.904C142.545 58.0213 142.396 58.08 142.204 58.08C142.012 58.08 141.857 58.0213 141.74 57.904C141.622 57.7867 141.564 57.632 141.564 57.44V56.672C141.361 57.1307 141.052 57.488 140.636 57.744C140.22 57.9893 139.74 58.112 139.196 58.112C138.694 58.112 138.23 58.0107 137.804 57.808C137.388 57.6053 137.057 57.3227 136.812 56.96C136.566 56.5973 136.444 56.1973 136.444 55.76C136.444 55.1733 136.593 54.72 136.892 54.4C137.19 54.0693 137.681 53.8347 138.364 53.696C139.046 53.5467 139.996 53.472 141.212 53.472H141.564V52.944C141.564 52.304 141.43 51.8347 141.164 51.536C140.908 51.2373 140.486 51.088 139.9 51.088C139.174 51.088 138.438 51.2853 137.692 51.68C137.404 51.8613 137.201 51.952 137.084 51.952C136.956 51.952 136.849 51.904 136.764 51.808C136.678 51.712 136.636 51.5893 136.636 51.44C136.636 51.2907 136.678 51.1627 136.764 51.056C136.86 50.9387 137.009 50.8213 137.212 50.704C137.585 50.4907 138.006 50.3253 138.476 50.208C138.956 50.08 139.43 50.016 139.9 50.016ZM139.372 57.088C140.012 57.088 140.534 56.8747 140.94 56.448C141.356 56.0107 141.564 55.4507 141.564 54.768V54.304H141.276C140.337 54.304 139.622 54.3467 139.132 54.432C138.641 54.5067 138.289 54.64 138.076 54.832C137.873 55.0133 137.772 55.2853 137.772 55.648C137.772 56.064 137.921 56.4107 138.22 56.688C138.529 56.9547 138.913 57.088 139.372 57.088ZM148.8 57.056C149.173 57.088 149.36 57.2587 149.36 57.568C149.36 57.7493 149.291 57.888 149.152 57.984C149.024 58.0693 148.827 58.1013 148.56 58.08L148.128 58.048C147.275 57.984 146.645 57.728 146.24 57.28C145.835 56.832 145.632 56.1547 145.632 55.248V51.232H144.56C144.379 51.232 144.235 51.1893 144.128 51.104C144.032 51.008 143.984 50.8853 143.984 50.736C143.984 50.576 144.032 50.448 144.128 50.352C144.235 50.256 144.379 50.208 144.56 50.208H145.632V48.4C145.632 48.1973 145.691 48.0427 145.808 47.936C145.925 47.8187 146.085 47.76 146.288 47.76C146.48 47.76 146.635 47.8187 146.752 47.936C146.869 48.0427 146.928 48.1973 146.928 48.4V50.208H148.704C148.875 50.208 149.008 50.256 149.104 50.352C149.211 50.448 149.264 50.576 149.264 50.736C149.264 50.8853 149.211 51.008 149.104 51.104C149.008 51.1893 148.875 51.232 148.704 51.232H146.928V55.312C146.928 55.8987 147.045 56.3253 147.28 56.592C147.525 56.848 147.888 56.992 148.368 57.024L148.8 57.056ZM153.822 50.016C155.774 50.016 156.75 51.04 156.75 53.088V57.44C156.75 57.632 156.691 57.7867 156.574 57.904C156.467 58.0213 156.318 58.08 156.126 58.08C155.934 58.08 155.779 58.0213 155.662 57.904C155.544 57.7867 155.486 57.632 155.486 57.44V56.672C155.283 57.1307 154.974 57.488 154.558 57.744C154.142 57.9893 153.662 58.112 153.118 58.112C152.616 58.112 152.152 58.0107 151.726 57.808C151.31 57.6053 150.979 57.3227 150.734 56.96C150.488 56.5973 150.366 56.1973 150.366 55.76C150.366 55.1733 150.515 54.72 150.814 54.4C151.112 54.0693 151.603 53.8347 152.286 53.696C152.968 53.5467 153.918 53.472 155.134 53.472H155.486V52.944C155.486 52.304 155.352 51.8347 155.086 51.536C154.83 51.2373 154.408 51.088 153.822 51.088C153.096 51.088 152.36 51.2853 151.614 51.68C151.326 51.8613 151.123 51.952 151.006 51.952C150.878 51.952 150.771 51.904 150.686 51.808C150.6 51.712 150.558 51.5893 150.558 51.44C150.558 51.2907 150.6 51.1627 150.686 51.056C150.782 50.9387 150.931 50.8213 151.134 50.704C151.507 50.4907 151.928 50.3253 152.398 50.208C152.878 50.08 153.352 50.016 153.822 50.016ZM153.294 57.088C153.934 57.088 154.456 56.8747 154.862 56.448C155.278 56.0107 155.486 55.4507 155.486 54.768V54.304H155.198C154.259 54.304 153.544 54.3467 153.054 54.432C152.563 54.5067 152.211 54.64 151.998 54.832C151.795 55.0133 151.694 55.2853 151.694 55.648C151.694 56.064 151.843 56.4107 152.142 56.688C152.451 56.9547 152.835 57.088 153.294 57.088ZM173.903 50.464C174.01 50.208 174.186 50.08 174.431 50.08C174.591 50.08 174.735 50.1333 174.863 50.24C174.991 50.3467 175.055 50.48 175.055 50.64C175.055 50.7147 175.039 50.7947 175.007 50.88L172.351 57.6C172.287 57.7387 172.191 57.8507 172.063 57.936C171.946 58.0107 171.812 58.048 171.663 58.048C171.524 58.048 171.391 58.0107 171.263 57.936C171.146 57.8507 171.055 57.7387 170.991 57.6L168.783 51.984L166.591 57.6C166.538 57.7387 166.447 57.8507 166.319 57.936C166.191 58.0107 166.052 58.048 165.903 58.048C165.764 58.048 165.631 58.0107 165.503 57.936C165.375 57.8507 165.279 57.7387 165.215 57.6L162.559 50.896C162.527 50.8107 162.511 50.736 162.511 50.672C162.511 50.5013 162.58 50.3573 162.719 50.24C162.868 50.1227 163.028 50.064 163.199 50.064C163.455 50.064 163.636 50.192 163.743 50.448L165.935 56.352L168.191 50.496C168.255 50.3573 168.34 50.2507 168.447 50.176C168.564 50.1013 168.687 50.064 168.815 50.064C168.954 50.064 169.076 50.1013 169.183 50.176C169.3 50.2507 169.386 50.3573 169.439 50.496L171.695 56.336L173.903 50.464ZM177.575 58.08C177.383 58.08 177.223 58.0267 177.095 57.92C176.977 57.8027 176.919 57.6427 176.919 57.44V50.688C176.919 50.4853 176.977 50.3307 177.095 50.224C177.223 50.1067 177.383 50.048 177.575 50.048C177.767 50.048 177.921 50.1067 178.039 50.224C178.156 50.3307 178.215 50.4853 178.215 50.688V57.44C178.215 57.6533 178.156 57.8133 178.039 57.92C177.921 58.0267 177.767 58.08 177.575 58.08ZM177.575 48.368C177.319 48.368 177.111 48.2933 176.951 48.144C176.791 47.9947 176.711 47.7973 176.711 47.552C176.711 47.3173 176.791 47.1253 176.951 46.976C177.111 46.8267 177.319 46.752 177.575 46.752C177.831 46.752 178.039 46.8267 178.199 46.976C178.359 47.1253 178.439 47.3173 178.439 47.552C178.439 47.7973 178.359 47.9947 178.199 48.144C178.039 48.2933 177.831 48.368 177.575 48.368ZM184.363 57.056C184.736 57.088 184.923 57.2587 184.923 57.568C184.923 57.7493 184.853 57.888 184.715 57.984C184.587 58.0693 184.389 58.1013 184.123 58.08L183.691 58.048C182.837 57.984 182.208 57.728 181.803 57.28C181.397 56.832 181.195 56.1547 181.195 55.248V51.232H180.123C179.941 51.232 179.797 51.1893 179.691 51.104C179.595 51.008 179.546 50.8853 179.546 50.736C179.546 50.576 179.595 50.448 179.691 50.352C179.797 50.256 179.941 50.208 180.123 50.208H181.195V48.4C181.195 48.1973 181.253 48.0427 181.371 47.936C181.488 47.8187 181.648 47.76 181.851 47.76C182.043 47.76 182.197 47.8187 182.315 47.936C182.432 48.0427 182.491 48.1973 182.491 48.4V50.208H184.266C184.437 50.208 184.571 50.256 184.667 50.352C184.773 50.448 184.827 50.576 184.827 50.736C184.827 50.8853 184.773 51.008 184.667 51.104C184.571 51.1893 184.437 51.232 184.266 51.232H182.491V55.312C182.491 55.8987 182.608 56.3253 182.843 56.592C183.088 56.848 183.451 56.992 183.931 57.024L184.363 57.056ZM190.136 50.016C191.053 50.016 191.747 50.2773 192.216 50.8C192.685 51.312 192.92 52.08 192.92 53.104V57.44C192.92 57.6427 192.861 57.8027 192.744 57.92C192.627 58.0267 192.472 58.08 192.28 58.08C192.077 58.08 191.917 58.0267 191.8 57.92C191.683 57.8027 191.624 57.6427 191.624 57.44V53.136C191.624 52.4427 191.48 51.9307 191.192 51.6C190.915 51.2693 190.467 51.104 189.848 51.104C189.133 51.104 188.563 51.3227 188.136 51.76C187.709 52.1973 187.496 52.7893 187.496 53.536V57.44C187.496 57.6427 187.437 57.8027 187.32 57.92C187.213 58.0267 187.059 58.08 186.856 58.08C186.653 58.08 186.493 58.0267 186.376 57.92C186.259 57.8027 186.2 57.6427 186.2 57.44V47.264C186.2 47.0827 186.259 46.9333 186.376 46.816C186.504 46.6987 186.664 46.64 186.856 46.64C187.059 46.64 187.213 46.6987 187.32 46.816C187.437 46.9227 187.496 47.072 187.496 47.264V51.456C187.752 50.9867 188.109 50.6293 188.568 50.384C189.027 50.1387 189.549 50.016 190.136 50.016ZM198.526 58.112C197.79 58.112 197.139 57.9467 196.574 57.616C196.019 57.2853 195.587 56.816 195.278 56.208C194.979 55.5893 194.83 54.8747 194.83 54.064C194.83 53.2533 194.979 52.544 195.278 51.936C195.587 51.3173 196.019 50.8427 196.574 50.512C197.139 50.1813 197.79 50.016 198.526 50.016C199.262 50.016 199.912 50.1813 200.478 50.512C201.043 50.8427 201.475 51.3173 201.774 51.936C202.083 52.544 202.238 53.2533 202.238 54.064C202.238 54.8747 202.083 55.5893 201.774 56.208C201.475 56.816 201.043 57.2853 200.478 57.616C199.912 57.9467 199.262 58.112 198.526 58.112ZM198.526 57.04C199.294 57.04 199.88 56.7893 200.286 56.288C200.702 55.776 200.91 55.0347 200.91 54.064C200.91 53.1147 200.702 52.384 200.286 51.872C199.87 51.3493 199.283 51.088 198.526 51.088C197.768 51.088 197.182 51.3493 196.766 51.872C196.35 52.384 196.142 53.1147 196.142 54.064C196.142 55.024 196.344 55.76 196.75 56.272C197.166 56.784 197.758 57.04 198.526 57.04ZM210.089 50.048C210.291 50.048 210.446 50.1067 210.553 50.224C210.67 50.3413 210.729 50.496 210.729 50.688V57.456C210.729 57.6373 210.67 57.7867 210.553 57.904C210.446 58.0213 210.291 58.08 210.089 58.08C209.897 58.08 209.742 58.0267 209.625 57.92C209.518 57.8027 209.465 57.6533 209.465 57.472V56.672C209.219 57.1413 208.873 57.4987 208.425 57.744C207.987 57.9893 207.491 58.112 206.937 58.112C206.009 58.112 205.31 57.856 204.841 57.344C204.371 56.8213 204.137 56.0533 204.137 55.04V50.688C204.137 50.496 204.195 50.3413 204.313 50.224C204.43 50.1067 204.59 50.048 204.793 50.048C204.995 50.048 205.15 50.1067 205.257 50.224C205.374 50.3413 205.433 50.496 205.433 50.688V55.008C205.433 55.7013 205.571 56.2133 205.849 56.544C206.126 56.864 206.563 57.024 207.161 57.024C207.843 57.024 208.393 56.8053 208.809 56.368C209.225 55.92 209.433 55.3333 209.433 54.608V50.688C209.433 50.496 209.491 50.3413 209.609 50.224C209.726 50.1067 209.886 50.048 210.089 50.048ZM216.738 57.056C217.111 57.088 217.298 57.2587 217.298 57.568C217.298 57.7493 217.228 57.888 217.09 57.984C216.962 58.0693 216.764 58.1013 216.498 58.08L216.066 58.048C215.212 57.984 214.583 57.728 214.178 57.28C213.772 56.832 213.57 56.1547 213.57 55.248V51.232H212.498C212.316 51.232 212.172 51.1893 212.066 51.104C211.97 51.008 211.921 50.8853 211.921 50.736C211.921 50.576 211.97 50.448 212.066 50.352C212.172 50.256 212.316 50.208 212.498 50.208H213.57V48.4C213.57 48.1973 213.628 48.0427 213.746 47.936C213.863 47.8187 214.023 47.76 214.226 47.76C214.418 47.76 214.572 47.8187 214.69 47.936C214.807 48.0427 214.866 48.1973 214.866 48.4V50.208H216.641C216.812 50.208 216.946 50.256 217.042 50.352C217.148 50.448 217.202 50.576 217.202 50.736C217.202 50.8853 217.148 51.008 217.042 51.104C216.946 51.1893 216.812 51.232 216.641 51.232H214.866V55.312C214.866 55.8987 214.983 56.3253 215.218 56.592C215.463 56.848 215.826 56.992 216.306 57.024L216.738 57.056ZM231.372 50.016C233.1 50.016 233.964 51.0453 233.964 53.104V57.44C233.964 57.6427 233.905 57.8027 233.788 57.92C233.671 58.0267 233.516 58.08 233.324 58.08C233.132 58.08 232.972 58.0267 232.844 57.92C232.727 57.8027 232.668 57.6427 232.668 57.44V53.136C232.668 52.4213 232.54 51.904 232.284 51.584C232.028 51.264 231.628 51.104 231.084 51.104C230.433 51.104 229.921 51.3227 229.548 51.76C229.175 52.1973 228.988 52.7893 228.988 53.536V57.44C228.988 57.6427 228.924 57.8027 228.796 57.92C228.679 58.0267 228.524 58.08 228.332 58.08C228.14 58.08 227.985 58.0267 227.868 57.92C227.751 57.8027 227.692 57.6427 227.692 57.44V53.136C227.692 52.4213 227.564 51.904 227.308 51.584C227.052 51.264 226.647 51.104 226.092 51.104C225.452 51.104 224.94 51.3227 224.556 51.76C224.183 52.1973 223.996 52.7893 223.996 53.536V57.44C223.996 57.6427 223.937 57.8027 223.82 57.92C223.703 58.0267 223.548 58.08 223.356 58.08C223.164 58.08 223.004 58.0267 222.876 57.92C222.759 57.8027 222.7 57.6427 222.7 57.44V50.688C222.7 50.496 222.759 50.3413 222.876 50.224C223.004 50.1067 223.164 50.048 223.356 50.048C223.537 50.048 223.687 50.1067 223.804 50.224C223.921 50.3307 223.98 50.48 223.98 50.672V51.44C224.215 50.9813 224.54 50.6293 224.956 50.384C225.372 50.1387 225.852 50.016 226.396 50.016C227.612 50.016 228.407 50.528 228.78 51.552C229.004 51.0827 229.345 50.7093 229.804 50.432C230.263 50.1547 230.785 50.016 231.372 50.016ZM241.941 50.448C242.058 50.192 242.245 50.064 242.501 50.064C242.661 50.064 242.805 50.1173 242.933 50.224C243.061 50.3307 243.125 50.464 243.125 50.624C243.125 50.72 243.104 50.8053 243.061 50.88L238.565 60.576C238.512 60.6933 238.432 60.784 238.325 60.848C238.229 60.912 238.128 60.944 238.021 60.944C237.861 60.944 237.717 60.8907 237.589 60.784C237.472 60.688 237.413 60.56 237.413 60.4C237.413 60.3147 237.434 60.2293 237.477 60.144L238.597 57.728L235.429 50.88C235.386 50.8053 235.365 50.7253 235.365 50.64C235.365 50.48 235.434 50.3413 235.573 50.224C235.722 50.1067 235.882 50.048 236.053 50.048C236.16 50.048 236.261 50.08 236.357 50.144C236.464 50.208 236.544 50.2987 236.597 50.416L239.269 56.416L241.941 50.448ZM251.885 58.112C251.159 58.112 250.514 57.9467 249.949 57.616C249.394 57.2853 248.962 56.816 248.653 56.208C248.354 55.6 248.205 54.896 248.205 54.096C248.205 53.296 248.359 52.5867 248.669 51.968C248.989 51.3493 249.431 50.8693 249.997 50.528C250.562 50.1867 251.213 50.016 251.949 50.016C252.354 50.016 252.754 50.0747 253.149 50.192C253.554 50.2987 253.906 50.4587 254.205 50.672C254.397 50.8 254.53 50.928 254.605 51.056C254.69 51.1733 254.733 51.3067 254.733 51.456C254.733 51.6053 254.69 51.728 254.605 51.824C254.53 51.92 254.429 51.968 254.301 51.968C254.226 51.968 254.146 51.9467 254.061 51.904C253.975 51.8613 253.901 51.8187 253.837 51.776C253.783 51.7333 253.746 51.7067 253.725 51.696C253.447 51.5147 253.181 51.3707 252.925 51.264C252.679 51.1573 252.375 51.104 252.013 51.104C251.234 51.104 250.626 51.3707 250.189 51.904C249.762 52.4267 249.549 53.1573 249.549 54.096C249.549 55.0347 249.762 55.76 250.189 56.272C250.626 56.784 251.234 57.04 252.013 57.04C252.375 57.04 252.685 56.9867 252.941 56.88C253.207 56.7733 253.474 56.6293 253.741 56.448C253.858 56.3733 253.97 56.3093 254.077 56.256C254.183 56.2027 254.274 56.176 254.349 56.176C254.466 56.176 254.562 56.224 254.637 56.32C254.722 56.416 254.765 56.5387 254.765 56.688C254.765 56.8267 254.727 56.9547 254.653 57.072C254.578 57.1787 254.439 57.3013 254.237 57.44C253.938 57.6427 253.575 57.808 253.149 57.936C252.733 58.0533 252.311 58.112 251.885 58.112ZM259.557 58.112C258.821 58.112 258.17 57.9467 257.605 57.616C257.05 57.2853 256.618 56.816 256.309 56.208C256.01 55.5893 255.861 54.8747 255.861 54.064C255.861 53.2533 256.01 52.544 256.309 51.936C256.618 51.3173 257.05 50.8427 257.605 50.512C258.17 50.1813 258.821 50.016 259.557 50.016C260.293 50.016 260.944 50.1813 261.509 50.512C262.074 50.8427 262.506 51.3173 262.805 51.936C263.114 52.544 263.269 53.2533 263.269 54.064C263.269 54.8747 263.114 55.5893 262.805 56.208C262.506 56.816 262.074 57.2853 261.509 57.616C260.944 57.9467 260.293 58.112 259.557 58.112ZM259.557 57.04C260.325 57.04 260.912 56.7893 261.317 56.288C261.733 55.776 261.941 55.0347 261.941 54.064C261.941 53.1147 261.733 52.384 261.317 51.872C260.901 51.3493 260.314 51.088 259.557 51.088C258.8 51.088 258.213 51.3493 257.797 51.872C257.381 52.384 257.173 53.1147 257.173 54.064C257.173 55.024 257.376 55.76 257.781 56.272C258.197 56.784 258.789 57.04 259.557 57.04ZM269.12 50.016C270.987 50.016 271.92 51.0453 271.92 53.104V57.44C271.92 57.6427 271.861 57.8027 271.744 57.92C271.637 58.0267 271.483 58.08 271.28 58.08C271.077 58.08 270.917 58.0267 270.8 57.92C270.683 57.8027 270.624 57.6427 270.624 57.44V53.184C270.624 52.4587 270.48 51.9307 270.192 51.6C269.915 51.2693 269.467 51.104 268.848 51.104C268.133 51.104 267.563 51.3227 267.136 51.76C266.709 52.1973 266.496 52.7893 266.496 53.536V57.44C266.496 57.6427 266.437 57.8027 266.32 57.92C266.213 58.0267 266.059 58.08 265.856 58.08C265.653 58.08 265.493 58.0267 265.376 57.92C265.259 57.8027 265.2 57.6427 265.2 57.44V50.688C265.2 50.496 265.259 50.3413 265.376 50.224C265.493 50.1067 265.653 50.048 265.856 50.048C266.048 50.048 266.197 50.1067 266.304 50.224C266.421 50.3413 266.48 50.4907 266.48 50.672V51.488C266.736 51.008 267.093 50.6453 267.552 50.4C268.011 50.144 268.533 50.016 269.12 50.016ZM277.894 57.056C278.267 57.088 278.454 57.2587 278.454 57.568C278.454 57.7493 278.384 57.888 278.246 57.984C278.118 58.0693 277.92 58.1013 277.654 58.08L277.222 58.048C276.368 57.984 275.739 57.728 275.334 57.28C274.928 56.832 274.726 56.1547 274.726 55.248V51.232H273.654C273.472 51.232 273.328 51.1893 273.222 51.104C273.126 51.008 273.078 50.8853 273.078 50.736C273.078 50.576 273.126 50.448 273.222 50.352C273.328 50.256 273.472 50.208 273.654 50.208H274.726V48.4C274.726 48.1973 274.784 48.0427 274.902 47.936C275.019 47.8187 275.179 47.76 275.382 47.76C275.574 47.76 275.728 47.8187 275.846 47.936C275.963 48.0427 276.022 48.1973 276.022 48.4V50.208H277.798C277.968 50.208 278.102 50.256 278.198 50.352C278.304 50.448 278.358 50.576 278.358 50.736C278.358 50.8853 278.304 51.008 278.198 51.104C278.102 51.1893 277.968 51.232 277.798 51.232H276.022V55.312C276.022 55.8987 276.139 56.3253 276.374 56.592C276.619 56.848 276.982 56.992 277.462 57.024L277.894 57.056ZM283.587 50.048C284.035 50.016 284.259 50.1973 284.259 50.592C284.259 50.7627 284.211 50.9013 284.115 51.008C284.019 51.104 283.854 51.1627 283.619 51.184L283.139 51.232C282.425 51.296 281.891 51.552 281.539 52C281.198 52.4373 281.027 52.9547 281.027 53.552V57.44C281.027 57.6533 280.969 57.8133 280.851 57.92C280.734 58.0267 280.579 58.08 280.387 58.08C280.195 58.08 280.035 58.0267 279.907 57.92C279.79 57.8027 279.731 57.6427 279.731 57.44V50.688C279.731 50.4853 279.795 50.3307 279.923 50.224C280.051 50.1067 280.206 50.048 280.387 50.048C280.558 50.048 280.702 50.1067 280.819 50.224C280.937 50.3307 280.995 50.48 280.995 50.672V51.568C281.219 51.0987 281.534 50.7413 281.939 50.496C282.355 50.2507 282.83 50.1067 283.363 50.064L283.587 50.048ZM288.448 58.112C287.712 58.112 287.061 57.9467 286.496 57.616C285.941 57.2853 285.509 56.816 285.2 56.208C284.901 55.5893 284.752 54.8747 284.752 54.064C284.752 53.2533 284.901 52.544 285.2 51.936C285.509 51.3173 285.941 50.8427 286.496 50.512C287.061 50.1813 287.712 50.016 288.448 50.016C289.184 50.016 289.834 50.1813 290.4 50.512C290.965 50.8427 291.397 51.3173 291.696 51.936C292.005 52.544 292.16 53.2533 292.16 54.064C292.16 54.8747 292.005 55.5893 291.696 56.208C291.397 56.816 290.965 57.2853 290.4 57.616C289.834 57.9467 289.184 58.112 288.448 58.112ZM288.448 57.04C289.216 57.04 289.802 56.7893 290.208 56.288C290.624 55.776 290.832 55.0347 290.832 54.064C290.832 53.1147 290.624 52.384 290.208 51.872C289.792 51.3493 289.205 51.088 288.448 51.088C287.69 51.088 287.104 51.3493 286.688 51.872C286.272 52.384 286.064 53.1147 286.064 54.064C286.064 55.024 286.266 55.76 286.672 56.272C287.088 56.784 287.68 57.04 288.448 57.04ZM294.747 58.08C294.555 58.08 294.395 58.0267 294.267 57.92C294.149 57.8027 294.091 57.6427 294.091 57.44V47.28C294.091 47.0773 294.149 46.9227 294.267 46.816C294.395 46.6987 294.555 46.64 294.747 46.64C294.928 46.64 295.077 46.6987 295.195 46.816C295.323 46.9227 295.387 47.0773 295.387 47.28V57.44C295.387 57.6427 295.323 57.8027 295.195 57.92C295.077 58.0267 294.928 58.08 294.747 58.08ZM298.449 58.08C298.193 58.08 297.98 58 297.809 57.84C297.639 57.6693 297.553 57.4507 297.553 57.184C297.553 56.9173 297.639 56.6987 297.809 56.528C297.98 56.3573 298.193 56.272 298.449 56.272C298.695 56.272 298.897 56.3573 299.057 56.528C299.228 56.6987 299.313 56.9173 299.313 57.184C299.313 57.4507 299.228 57.6693 299.057 57.84C298.897 58 298.695 58.08 298.449 58.08Z" fill="#242A4C"/>
    <defs>
    <filter id="filter0_ddd" x="0" y="2" width="441" height="113" filterUnits="userSpaceOnUse" color-interpolation-filters="sRGB">
    <feFlood flood-opacity="0" result="BackgroundImageFix"/>
    <feColorMatrix in="SourceAlpha" type="matrix" values="0 0 0 0 0 0 0 0 0 0 0 0 0 0 0 0 0 0 127 0"/>
    <feOffset/>
    <feGaussianBlur stdDeviation="0.5"/>
    <feColorMatrix type="matrix" values="0 0 0 0 0 0 0 0 0 0 0 0 0 0 0 0 0 0 0.04 0"/>
    <feBlend mode="normal" in2="BackgroundImageFix" result="effect1_dropShadow"/>
    <feColorMatrix in="SourceAlpha" type="matrix" values="0 0 0 0 0 0 0 0 0 0 0 0 0 0 0 0 0 0 127 0"/>
    <feOffset dy="2"/>
    <feGaussianBlur stdDeviation="3"/>
    <feColorMatrix type="matrix" values="0 0 0 0 0 0 0 0 0 0 0 0 0 0 0 0 0 0 0.04 0"/>
    <feBlend mode="normal" in2="effect1_dropShadow" result="effect2_dropShadow"/>
    <feColorMatrix in="SourceAlpha" type="matrix" values="0 0 0 0 0 0 0 0 0 0 0 0 0 0 0 0 0 0 127 0"/>
    <feOffset dy="16"/>
    <feGaussianBlur stdDeviation="12"/>
    <feColorMatrix type="matrix" values="0 0 0 0 0 0 0 0 0 0 0 0 0 0 0 0 0 0 0.06 0"/>
    <feBlend mode="normal" in2="effect2_dropShadow" result="effect3_dropShadow"/>
    <feBlend mode="normal" in="SourceGraphic" in2="effect3_dropShadow" result="shape"/>
    </filter>
    </defs>
    </svg>
