<svg width="172" height="151" viewBox="0 0 172 151" fill="none" xmlns="http://www.w3.org/2000/svg">
    <g filter="url(#filter0_ddd)">
    <rect x="24" y="8" width="124" height="103" rx="4" fill="white"/>
    </g>
    <path d="M37.8057 22.9736H35.4678V27H34.1484V17.0469H37.4434C38.5645 17.0469 39.4258 17.3021 40.0273 17.8125C40.6335 18.3229 40.9365 19.0658 40.9365 20.041C40.9365 20.6608 40.7679 21.2008 40.4307 21.6611C40.098 22.1214 39.6331 22.4655 39.0361 22.6934L41.374 26.918V27H39.9658L37.8057 22.9736ZM35.4678 21.9004H37.4844C38.1361 21.9004 38.6533 21.7318 39.0361 21.3945C39.4235 21.0573 39.6172 20.6061 39.6172 20.041C39.6172 19.4258 39.4326 18.9541 39.0635 18.626C38.6989 18.2979 38.1702 18.1315 37.4775 18.127H35.4678V21.9004ZM43.958 27H42.6934V19.6035H43.958V27ZM42.5908 17.6416C42.5908 17.4365 42.6523 17.2633 42.7754 17.1221C42.903 16.9808 43.0898 16.9102 43.3359 16.9102C43.582 16.9102 43.7689 16.9808 43.8965 17.1221C44.0241 17.2633 44.0879 17.4365 44.0879 17.6416C44.0879 17.8467 44.0241 18.0176 43.8965 18.1543C43.7689 18.291 43.582 18.3594 43.3359 18.3594C43.0898 18.3594 42.903 18.291 42.7754 18.1543C42.6523 18.0176 42.5908 17.8467 42.5908 17.6416ZM47.7041 17.8125V19.6035H49.085V20.5811H47.7041V25.168C47.7041 25.4642 47.7656 25.6875 47.8887 25.8379C48.0117 25.9837 48.2214 26.0566 48.5176 26.0566C48.6634 26.0566 48.8639 26.0293 49.1191 25.9746V27C48.7865 27.0911 48.4629 27.1367 48.1484 27.1367C47.5833 27.1367 47.1572 26.9658 46.8701 26.624C46.583 26.2822 46.4395 25.7969 46.4395 25.168V20.5811H45.0928V19.6035H46.4395V17.8125H47.7041ZM55.1348 27C55.0618 26.8542 55.0026 26.5944 54.957 26.2207C54.3691 26.8314 53.6673 27.1367 52.8516 27.1367C52.1224 27.1367 51.5231 26.9316 51.0537 26.5215C50.5889 26.1068 50.3564 25.5827 50.3564 24.9492C50.3564 24.179 50.6481 23.582 51.2314 23.1582C51.8193 22.7298 52.6442 22.5156 53.7061 22.5156H54.9365V21.9346C54.9365 21.4925 54.8044 21.1416 54.54 20.8818C54.2757 20.6175 53.8861 20.4854 53.3711 20.4854C52.9199 20.4854 52.5417 20.5993 52.2363 20.8271C51.931 21.055 51.7783 21.3307 51.7783 21.6543H50.5068C50.5068 21.2852 50.6367 20.9297 50.8965 20.5879C51.1608 20.2415 51.5163 19.9681 51.9629 19.7676C52.4141 19.5671 52.9085 19.4668 53.4463 19.4668C54.2985 19.4668 54.9661 19.681 55.4492 20.1094C55.9323 20.5332 56.1829 21.1188 56.2012 21.8662V25.2705C56.2012 25.9495 56.2878 26.4896 56.4609 26.8906V27H55.1348ZM53.0361 26.0361C53.4326 26.0361 53.8086 25.9336 54.1641 25.7285C54.5195 25.5234 54.777 25.2568 54.9365 24.9287V23.4111H53.9453C52.3958 23.4111 51.6211 23.8646 51.6211 24.7715C51.6211 25.168 51.7533 25.4779 52.0176 25.7012C52.2819 25.9245 52.6214 26.0361 53.0361 26.0361ZM64.7256 27.1367C63.723 27.1367 62.9072 26.8086 62.2783 26.1523C61.6494 25.4915 61.335 24.6097 61.335 23.5068V23.2744C61.335 22.5407 61.474 21.8867 61.752 21.3125C62.0345 20.7337 62.4264 20.2826 62.9277 19.959C63.4336 19.6309 63.9805 19.4668 64.5684 19.4668C65.5299 19.4668 66.2773 19.7835 66.8105 20.417C67.3438 21.0505 67.6104 21.9574 67.6104 23.1377V23.6641H62.5996C62.6178 24.3932 62.8298 24.9834 63.2354 25.4346C63.6455 25.8812 64.165 26.1045 64.7939 26.1045C65.2406 26.1045 65.6188 26.0133 65.9287 25.8311C66.2386 25.6488 66.5098 25.4072 66.7422 25.1064L67.5146 25.708C66.8949 26.6605 65.9652 27.1367 64.7256 27.1367ZM64.5684 20.5059C64.0579 20.5059 63.6296 20.6927 63.2832 21.0664C62.9368 21.4355 62.7227 21.9551 62.6406 22.625H66.3457V22.5293C66.3092 21.8867 66.1361 21.39 65.8262 21.0391C65.5163 20.6836 65.097 20.5059 64.5684 20.5059ZM73.6465 27C73.5736 26.8542 73.5143 26.5944 73.4688 26.2207C72.8809 26.8314 72.179 27.1367 71.3633 27.1367C70.6341 27.1367 70.0348 26.9316 69.5654 26.5215C69.1006 26.1068 68.8682 25.5827 68.8682 24.9492C68.8682 24.179 69.1598 23.582 69.7432 23.1582C70.3311 22.7298 71.1559 22.5156 72.2178 22.5156H73.4482V21.9346C73.4482 21.4925 73.3161 21.1416 73.0518 20.8818C72.7874 20.6175 72.3978 20.4854 71.8828 20.4854C71.4316 20.4854 71.0534 20.5993 70.748 20.8271C70.4427 21.055 70.29 21.3307 70.29 21.6543H69.0186C69.0186 21.2852 69.1484 20.9297 69.4082 20.5879C69.6725 20.2415 70.028 19.9681 70.4746 19.7676C70.9258 19.5671 71.4202 19.4668 71.958 19.4668C72.8102 19.4668 73.4779 19.681 73.9609 20.1094C74.444 20.5332 74.6947 21.1188 74.7129 21.8662V25.2705C74.7129 25.9495 74.7995 26.4896 74.9727 26.8906V27H73.6465ZM71.5479 26.0361C71.9443 26.0361 72.3203 25.9336 72.6758 25.7285C73.0312 25.5234 73.2887 25.2568 73.4482 24.9287V23.4111H72.457C70.9076 23.4111 70.1328 23.8646 70.1328 24.7715C70.1328 25.168 70.265 25.4779 70.5293 25.7012C70.7936 25.9245 71.1331 26.0361 71.5479 26.0361ZM80.2705 20.7383C80.0791 20.7064 79.8717 20.6904 79.6484 20.6904C78.819 20.6904 78.2562 21.0436 77.96 21.75V27H76.6953V19.6035H77.9258L77.9463 20.458C78.361 19.7972 78.9489 19.4668 79.71 19.4668C79.9561 19.4668 80.1429 19.4987 80.2705 19.5625V20.7383ZM82.8135 27H81.5488V16.5H82.8135V27ZM87.2637 25.1475L88.9863 19.6035H90.3398L87.3662 28.1416C86.9059 29.3721 86.1745 29.9873 85.1719 29.9873L84.9326 29.9668L84.4609 29.8779V28.8525L84.8027 28.8799C85.2311 28.8799 85.5638 28.7933 85.8008 28.6201C86.0423 28.4469 86.2406 28.1302 86.3955 27.6699L86.6758 26.918L84.0371 19.6035H85.418L87.2637 25.1475ZM96.6631 17.8125V19.6035H98.0439V20.5811H96.6631V25.168C96.6631 25.4642 96.7246 25.6875 96.8477 25.8379C96.9707 25.9837 97.1803 26.0566 97.4766 26.0566C97.6224 26.0566 97.8229 26.0293 98.0781 25.9746V27C97.7454 27.0911 97.4219 27.1367 97.1074 27.1367C96.5423 27.1367 96.1162 26.9658 95.8291 26.624C95.542 26.2822 95.3984 25.7969 95.3984 25.168V20.5811H94.0518V19.6035H95.3984V17.8125H96.6631ZM102.597 27.1367C101.594 27.1367 100.778 26.8086 100.149 26.1523C99.5205 25.4915 99.2061 24.6097 99.2061 23.5068V23.2744C99.2061 22.5407 99.3451 21.8867 99.623 21.3125C99.9056 20.7337 100.298 20.2826 100.799 19.959C101.305 19.6309 101.852 19.4668 102.439 19.4668C103.401 19.4668 104.148 19.7835 104.682 20.417C105.215 21.0505 105.481 21.9574 105.481 23.1377V23.6641H100.471C100.489 24.3932 100.701 24.9834 101.106 25.4346C101.517 25.8812 102.036 26.1045 102.665 26.1045C103.112 26.1045 103.49 26.0133 103.8 25.8311C104.11 25.6488 104.381 25.4072 104.613 25.1064L105.386 25.708C104.766 26.6605 103.836 27.1367 102.597 27.1367ZM102.439 20.5059C101.929 20.5059 101.501 20.6927 101.154 21.0664C100.808 21.4355 100.594 21.9551 100.512 22.625H104.217V22.5293C104.18 21.8867 104.007 21.39 103.697 21.0391C103.387 20.6836 102.968 20.5059 102.439 20.5059ZM111.258 25.0381C111.258 24.6963 111.128 24.432 110.868 24.2451C110.613 24.0537 110.164 23.8896 109.521 23.7529C108.883 23.6162 108.375 23.4521 107.997 23.2607C107.623 23.0693 107.345 22.8415 107.163 22.5771C106.985 22.3128 106.896 21.9984 106.896 21.6338C106.896 21.0277 107.152 20.515 107.662 20.0957C108.177 19.6764 108.833 19.4668 109.631 19.4668C110.469 19.4668 111.148 19.6833 111.668 20.1162C112.192 20.5492 112.454 21.1029 112.454 21.7773H111.183C111.183 21.431 111.035 21.1325 110.738 20.8818C110.447 20.6312 110.077 20.5059 109.631 20.5059C109.171 20.5059 108.811 20.6061 108.551 20.8066C108.291 21.0072 108.161 21.2692 108.161 21.5928C108.161 21.8981 108.282 22.1283 108.523 22.2832C108.765 22.4382 109.2 22.5863 109.829 22.7275C110.463 22.8688 110.975 23.0374 111.367 23.2334C111.759 23.4294 112.049 23.6663 112.235 23.9443C112.427 24.2178 112.522 24.5527 112.522 24.9492C112.522 25.61 112.258 26.141 111.729 26.542C111.201 26.9385 110.515 27.1367 109.672 27.1367C109.079 27.1367 108.555 27.0319 108.1 26.8223C107.644 26.6126 107.286 26.321 107.026 25.9473C106.771 25.569 106.644 25.1611 106.644 24.7236H107.908C107.931 25.1475 108.1 25.4847 108.414 25.7354C108.733 25.9814 109.152 26.1045 109.672 26.1045C110.15 26.1045 110.533 26.0088 110.82 25.8174C111.112 25.6214 111.258 25.3617 111.258 25.0381ZM115.886 17.8125V19.6035H117.267V20.5811H115.886V25.168C115.886 25.4642 115.947 25.6875 116.07 25.8379C116.193 25.9837 116.403 26.0566 116.699 26.0566C116.845 26.0566 117.046 26.0293 117.301 25.9746V27C116.968 27.0911 116.645 27.1367 116.33 27.1367C115.765 27.1367 115.339 26.9658 115.052 26.624C114.765 26.2822 114.621 25.7969 114.621 25.168V20.5811H113.274V19.6035H114.621V17.8125H115.886ZM121.819 27.1367C120.817 27.1367 120.001 26.8086 119.372 26.1523C118.743 25.4915 118.429 24.6097 118.429 23.5068V23.2744C118.429 22.5407 118.568 21.8867 118.846 21.3125C119.128 20.7337 119.52 20.2826 120.021 19.959C120.527 19.6309 121.074 19.4668 121.662 19.4668C122.624 19.4668 123.371 19.7835 123.904 20.417C124.438 21.0505 124.704 21.9574 124.704 23.1377V23.6641H119.693C119.712 24.3932 119.924 24.9834 120.329 25.4346C120.739 25.8812 121.259 26.1045 121.888 26.1045C122.334 26.1045 122.713 26.0133 123.022 25.8311C123.332 25.6488 123.604 25.4072 123.836 25.1064L124.608 25.708C123.989 26.6605 123.059 27.1367 121.819 27.1367ZM121.662 20.5059C121.152 20.5059 120.723 20.6927 120.377 21.0664C120.031 21.4355 119.816 21.9551 119.734 22.625H123.439V22.5293C123.403 21.8867 123.23 21.39 122.92 21.0391C122.61 20.6836 122.191 20.5059 121.662 20.5059ZM129.749 20.7383C129.558 20.7064 129.35 20.6904 129.127 20.6904C128.298 20.6904 127.735 21.0436 127.438 21.75V27H126.174V19.6035H127.404L127.425 20.458C127.84 19.7972 128.427 19.4668 129.188 19.4668C129.435 19.4668 129.621 19.4987 129.749 19.5625V20.7383Z" fill="#737584"/>
    <path d="M38.6016 34.625H40.9453V42.5C40.9453 43.224 40.7839 43.8646 40.4609 44.4219C40.1432 44.974 39.6927 45.401 39.1094 45.7031C38.526 46.0052 37.8672 46.1562 37.1328 46.1562C35.9297 46.1562 34.9922 45.8516 34.3203 45.2422C33.6484 44.6276 33.3125 43.7604 33.3125 42.6406H35.6719C35.6719 43.1979 35.7891 43.6094 36.0234 43.875C36.2578 44.1406 36.6276 44.2734 37.1328 44.2734C37.5807 44.2734 37.9375 44.1198 38.2031 43.8125C38.4688 43.5052 38.6016 43.0677 38.6016 42.5V34.625ZM47.8672 45.1406C47.3099 45.8177 46.5391 46.1562 45.5547 46.1562C44.6484 46.1562 43.9557 45.8958 43.4766 45.375C43.0026 44.8542 42.7604 44.0911 42.75 43.0859V37.5469H45.0078V43.0078C45.0078 43.888 45.4089 44.3281 46.2109 44.3281C46.9766 44.3281 47.5026 44.0625 47.7891 43.5312V37.5469H50.0547V46H47.9297L47.8672 45.1406ZM54.1406 46H51.875V34H54.1406V46ZM58.3906 46H56.125V37.5469H58.3906V46ZM55.9922 35.3594C55.9922 35.0208 56.1042 34.7422 56.3281 34.5234C56.5573 34.3047 56.8672 34.1953 57.2578 34.1953C57.6432 34.1953 57.9505 34.3047 58.1797 34.5234C58.4089 34.7422 58.5234 35.0208 58.5234 35.3594C58.5234 35.7031 58.4062 35.9844 58.1719 36.2031C57.9427 36.4219 57.638 36.5312 57.2578 36.5312C56.8776 36.5312 56.5703 36.4219 56.3359 36.2031C56.1068 35.9844 55.9922 35.7031 55.9922 35.3594ZM65.1562 46C65.0521 45.7969 64.9766 45.5443 64.9297 45.2422C64.3828 45.8516 63.6719 46.1562 62.7969 46.1562C61.9688 46.1562 61.2812 45.9167 60.7344 45.4375C60.1927 44.9583 59.9219 44.3542 59.9219 43.625C59.9219 42.7292 60.2526 42.0417 60.9141 41.5625C61.5807 41.0833 62.5417 40.8411 63.7969 40.8359H64.8359V40.3516C64.8359 39.9609 64.7344 39.6484 64.5312 39.4141C64.3333 39.1797 64.0182 39.0625 63.5859 39.0625C63.2057 39.0625 62.9062 39.1536 62.6875 39.3359C62.474 39.5182 62.3672 39.7682 62.3672 40.0859H60.1094C60.1094 39.5964 60.2604 39.1432 60.5625 38.7266C60.8646 38.3099 61.2917 37.9844 61.8438 37.75C62.3958 37.5104 63.0156 37.3906 63.7031 37.3906C64.7448 37.3906 65.5703 37.6536 66.1797 38.1797C66.7943 38.7005 67.1016 39.4349 67.1016 40.3828V44.0469C67.1068 44.849 67.2188 45.4557 67.4375 45.8672V46H65.1562ZM63.2891 44.4297C63.6224 44.4297 63.9297 44.3568 64.2109 44.2109C64.4922 44.0599 64.7005 43.8594 64.8359 43.6094V42.1562H63.9922C62.862 42.1562 62.2604 42.5469 62.1875 43.3281L62.1797 43.4609C62.1797 43.7422 62.2786 43.974 62.4766 44.1562C62.6745 44.3385 62.9453 44.4297 63.2891 44.4297Z" fill="#242C57"/>
    <path d="M61.736 72.768C61.272 72.768 60.92 72.664 60.68 72.456C60.456 72.248 60.344 71.96 60.344 71.592C60.344 71.224 60.456 70.936 60.68 70.728C60.92 70.504 61.272 70.392 61.736 70.392H66.68C67.144 70.392 67.488 70.504 67.712 70.728C67.952 70.936 68.072 71.224 68.072 71.592C68.072 71.96 67.952 72.248 67.712 72.456C67.488 72.664 67.144 72.768 66.68 72.768H61.736ZM86.9139 75.504C87.8739 75.504 88.3539 75.912 88.3539 76.728C88.3539 77.576 87.8739 78 86.9139 78H77.7939C77.3779 78 77.0499 77.88 76.8099 77.64C76.5699 77.384 76.4499 77.072 76.4499 76.704C76.4499 76.224 76.6339 75.792 77.0019 75.408L82.4739 69.528C83.1459 68.792 83.6339 68.12 83.9379 67.512C84.2579 66.888 84.4179 66.272 84.4179 65.664C84.4179 64.912 84.2019 64.336 83.7699 63.936C83.3379 63.536 82.7219 63.336 81.9219 63.336C81.2659 63.336 80.6259 63.464 80.0019 63.72C79.3939 63.96 78.7779 64.296 78.1539 64.728C77.9939 64.84 77.8339 64.936 77.6739 65.016C77.5139 65.08 77.3539 65.112 77.1939 65.112C76.9219 65.112 76.6819 64.984 76.4739 64.728C76.2819 64.472 76.1859 64.168 76.1859 63.816C76.1859 63.576 76.2259 63.368 76.3059 63.192C76.4019 63.016 76.5459 62.848 76.7379 62.688C77.4419 62.128 78.2659 61.688 79.2099 61.368C80.1539 61.032 81.0979 60.864 82.0419 60.864C83.6899 60.864 85.0019 61.28 85.9779 62.112C86.9699 62.944 87.4659 64.064 87.4659 65.472C87.4659 66.448 87.2579 67.368 86.8419 68.232C86.4259 69.08 85.7219 70.032 84.7299 71.088L80.5779 75.504H86.9139ZM96.9839 67.176C98.0399 67.176 98.9679 67.408 99.7679 67.872C100.584 68.32 101.216 68.952 101.664 69.768C102.112 70.584 102.336 71.52 102.336 72.576C102.336 73.68 102.08 74.656 101.568 75.504C101.072 76.352 100.36 77.016 99.4319 77.496C98.5199 77.96 97.4639 78.192 96.2639 78.192C95.2719 78.192 94.2959 78.032 93.3359 77.712C92.3919 77.376 91.5839 76.928 90.9119 76.368C90.5439 76.048 90.3599 75.672 90.3599 75.24C90.3599 74.888 90.4559 74.592 90.6479 74.352C90.8559 74.096 91.0959 73.968 91.3679 73.968C91.5279 73.968 91.6799 74 91.8239 74.064C91.9679 74.112 92.1359 74.2 92.3279 74.328C92.9679 74.776 93.5919 75.12 94.1999 75.36C94.8079 75.6 95.4559 75.72 96.1439 75.72C97.1999 75.72 98.0079 75.456 98.5679 74.928C99.1279 74.4 99.4079 73.648 99.4079 72.672C99.4079 71.728 99.1199 70.984 98.5439 70.44C97.9839 69.88 97.2079 69.6 96.2159 69.6C95.5919 69.6 95.0319 69.688 94.5359 69.864C94.0559 70.04 93.5599 70.336 93.0479 70.752C92.7439 70.96 92.4319 71.064 92.1119 71.064C91.7919 71.064 91.5199 70.968 91.2959 70.776C91.0719 70.584 90.9599 70.328 90.9599 70.008V62.52C90.9599 62.072 91.0879 61.72 91.3439 61.464C91.5999 61.208 91.9599 61.08 92.4239 61.08H100.416C101.376 61.08 101.856 61.48 101.856 62.28C101.856 63.08 101.376 63.48 100.416 63.48H93.9839V68.04C94.7999 67.464 95.7999 67.176 96.9839 67.176ZM112.599 69.312C113.607 69.568 114.375 70.056 114.903 70.776C115.447 71.48 115.719 72.36 115.719 73.416C115.719 74.872 115.183 76.032 114.111 76.896C113.039 77.76 111.591 78.192 109.767 78.192C108.727 78.192 107.727 78.032 106.767 77.712C105.807 77.392 104.991 76.944 104.319 76.368C103.951 76.048 103.767 75.672 103.767 75.24C103.767 74.888 103.863 74.592 104.055 74.352C104.263 74.096 104.503 73.968 104.775 73.968C104.935 73.968 105.079 74 105.207 74.064C105.335 74.112 105.511 74.2 105.735 74.328C106.407 74.776 107.047 75.12 107.655 75.36C108.263 75.6 108.927 75.72 109.647 75.72C110.703 75.72 111.487 75.512 111.999 75.096C112.511 74.664 112.767 74.016 112.767 73.152C112.767 72.304 112.495 71.68 111.951 71.28C111.423 70.864 110.599 70.656 109.479 70.656H108.111C107.743 70.656 107.455 70.536 107.247 70.296C107.055 70.04 106.959 69.752 106.959 69.432C106.959 69.096 107.055 68.808 107.247 68.568C107.455 68.328 107.743 68.208 108.111 68.208H109.071C111.263 68.208 112.359 67.384 112.359 65.736C112.359 64.968 112.127 64.376 111.663 63.96C111.199 63.544 110.559 63.336 109.743 63.336C108.575 63.336 107.327 63.8 105.999 64.728C105.775 64.856 105.599 64.952 105.471 65.016C105.343 65.064 105.199 65.088 105.039 65.088C104.767 65.088 104.527 64.968 104.319 64.728C104.127 64.472 104.031 64.168 104.031 63.816C104.031 63.576 104.071 63.376 104.151 63.216C104.247 63.04 104.391 62.864 104.583 62.688C105.255 62.128 106.055 61.688 106.983 61.368C107.927 61.032 108.887 60.864 109.863 60.864C111.527 60.864 112.847 61.272 113.823 62.088C114.815 62.904 115.311 63.992 115.311 65.352C115.295 66.28 115.047 67.096 114.567 67.8C114.103 68.488 113.447 68.992 112.599 69.312Z" fill="#03B898"/>
    <rect x="33" y="63" width="18" height="16" rx="2" fill="#BFFEF3"/>
    <path d="M48.6363 75L42.7479 68.6667L39.6487 72L35 67" stroke="#03B898" stroke-width="1.5" stroke-linecap="round" stroke-linejoin="round"/>
    <path d="M37.8125 89.2062C37.8125 88.8937 37.6938 88.6521 37.4563 88.4812C37.2229 88.3062 36.8125 88.1562 36.225 88.0312C35.6417 87.9062 35.1771 87.7562 34.8313 87.5812C34.4896 87.4062 34.2354 87.1979 34.0688 86.9562C33.9063 86.7146 33.825 86.4271 33.825 86.0937C33.825 85.5396 34.0583 85.0708 34.525 84.6875C34.9958 84.3042 35.5958 84.1125 36.325 84.1125C37.0917 84.1125 37.7125 84.3104 38.1875 84.7062C38.6667 85.1021 38.9063 85.6083 38.9063 86.225H37.7438C37.7438 85.9083 37.6083 85.6354 37.3375 85.4062C37.0708 85.1771 36.7333 85.0625 36.325 85.0625C35.9042 85.0625 35.575 85.1542 35.3375 85.3375C35.1 85.5208 34.9813 85.7604 34.9813 86.0562C34.9813 86.3354 35.0917 86.5458 35.3125 86.6875C35.5333 86.8292 35.9313 86.9646 36.5063 87.0937C37.0854 87.2229 37.5542 87.3771 37.9125 87.5562C38.2708 87.7354 38.5354 87.9521 38.7063 88.2062C38.8813 88.4562 38.9688 88.7625 38.9688 89.125C38.9688 89.7292 38.7271 90.2146 38.2438 90.5812C37.7604 90.9437 37.1333 91.125 36.3625 91.125C35.8208 91.125 35.3417 91.0292 34.925 90.8375C34.5083 90.6458 34.1813 90.3792 33.9438 90.0375C33.7104 89.6917 33.5938 89.3187 33.5938 88.9187H34.75C34.7708 89.3062 34.925 89.6146 35.2125 89.8437C35.5042 90.0687 35.8875 90.1812 36.3625 90.1812C36.8 90.1812 37.15 90.0937 37.4125 89.9187C37.6792 89.7396 37.8125 89.5021 37.8125 89.2062ZM41.7312 91H40.575V84.2375H41.7312V91ZM40.4812 82.4437C40.4812 82.2562 40.5375 82.0979 40.65 81.9687C40.7667 81.8396 40.9375 81.775 41.1625 81.775C41.3875 81.775 41.5583 81.8396 41.675 81.9687C41.7917 82.0979 41.85 82.2562 41.85 82.4437C41.85 82.6312 41.7917 82.7875 41.675 82.9125C41.5583 83.0375 41.3875 83.1 41.1625 83.1C40.9375 83.1 40.7667 83.0375 40.65 82.9125C40.5375 82.7875 40.4812 82.6312 40.4812 82.4437ZM44.6812 84.2375L44.7187 85.0875C45.2354 84.4375 45.9104 84.1125 46.7437 84.1125C48.1729 84.1125 48.8937 84.9187 48.9062 86.5312V91H47.75V86.525C47.7458 86.0375 47.6333 85.6771 47.4125 85.4437C47.1958 85.2104 46.8562 85.0937 46.3937 85.0937C46.0187 85.0937 45.6896 85.1937 45.4062 85.3937C45.1229 85.5937 44.9021 85.8562 44.7437 86.1812V91H43.5875V84.2375H44.6812ZM53.3625 90.1812C53.775 90.1812 54.1354 90.0562 54.4437 89.8062C54.7521 89.5562 54.9229 89.2437 54.9562 88.8687H56.05C56.0292 89.2562 55.8958 89.625 55.65 89.975C55.4042 90.325 55.075 90.6042 54.6625 90.8125C54.2542 91.0208 53.8208 91.125 53.3625 91.125C52.4417 91.125 51.7083 90.8187 51.1625 90.2062C50.6208 89.5896 50.35 88.7479 50.35 87.6812V87.4875C50.35 86.8292 50.4708 86.2437 50.7125 85.7312C50.9542 85.2187 51.3 84.8208 51.75 84.5375C52.2042 84.2542 52.7396 84.1125 53.3562 84.1125C54.1146 84.1125 54.7437 84.3396 55.2437 84.7937C55.7479 85.2479 56.0167 85.8375 56.05 86.5625H54.9562C54.9229 86.125 54.7562 85.7667 54.4562 85.4875C54.1604 85.2042 53.7937 85.0625 53.3562 85.0625C52.7687 85.0625 52.3125 85.275 51.9875 85.7C51.6667 86.1208 51.5062 86.7312 51.5062 87.5312V87.75C51.5062 88.5292 51.6667 89.1292 51.9875 89.55C52.3083 89.9708 52.7667 90.1812 53.3625 90.1812ZM60.1563 91.125C59.2396 91.125 58.4938 90.825 57.9188 90.225C57.3438 89.6208 57.0563 88.8146 57.0563 87.8062V87.5937C57.0563 86.9229 57.1833 86.325 57.4375 85.8C57.6958 85.2708 58.0542 84.8583 58.5125 84.5625C58.975 84.2625 59.475 84.1125 60.0125 84.1125C60.8917 84.1125 61.575 84.4021 62.0625 84.9812C62.55 85.5604 62.7938 86.3896 62.7938 87.4687V87.95H58.2125C58.2292 88.6167 58.4229 89.1562 58.7938 89.5687C59.1688 89.9771 59.6438 90.1812 60.2188 90.1812C60.6271 90.1812 60.9729 90.0979 61.2563 89.9312C61.5396 89.7646 61.7875 89.5437 62 89.2687L62.7063 89.8187C62.1396 90.6896 61.2896 91.125 60.1563 91.125ZM60.0125 85.0625C59.5458 85.0625 59.1542 85.2333 58.8375 85.575C58.5208 85.9125 58.325 86.3875 58.25 87H61.6375V86.9125C61.6042 86.325 61.4458 85.8708 61.1625 85.55C60.8792 85.225 60.4958 85.0625 60.0125 85.0625ZM68.5688 91H67.4125V81.4H68.5688V91ZM74.6 91C74.5333 90.8667 74.4792 90.6292 74.4375 90.2875C73.9 90.8458 73.2583 91.125 72.5125 91.125C71.8458 91.125 71.2979 90.9375 70.8687 90.5625C70.4437 90.1833 70.2312 89.7042 70.2312 89.125C70.2312 88.4208 70.4979 87.875 71.0312 87.4875C71.5687 87.0958 72.3229 86.9 73.2937 86.9H74.4187V86.3687C74.4187 85.9646 74.2979 85.6437 74.0562 85.4062C73.8146 85.1646 73.4583 85.0437 72.9875 85.0437C72.575 85.0437 72.2292 85.1479 71.95 85.3562C71.6708 85.5646 71.5312 85.8167 71.5312 86.1125H70.3687C70.3687 85.775 70.4875 85.45 70.725 85.1375C70.9667 84.8208 71.2917 84.5708 71.7 84.3875C72.1125 84.2042 72.5646 84.1125 73.0562 84.1125C73.8354 84.1125 74.4458 84.3083 74.8875 84.7C75.3292 85.0875 75.5583 85.6229 75.575 86.3062V89.4187C75.575 90.0396 75.6542 90.5333 75.8125 90.9V91H74.6ZM72.6812 90.1187C73.0437 90.1187 73.3875 90.025 73.7125 89.8375C74.0375 89.65 74.2729 89.4062 74.4187 89.1062V87.7187H73.5125C72.0958 87.7187 71.3875 88.1333 71.3875 88.9625C71.3875 89.325 71.5083 89.6083 71.75 89.8125C71.9917 90.0167 72.3021 90.1187 72.6812 90.1187ZM81.325 89.2062C81.325 88.8937 81.2063 88.6521 80.9688 88.4812C80.7354 88.3062 80.325 88.1562 79.7375 88.0312C79.1542 87.9062 78.6896 87.7562 78.3438 87.5812C78.0021 87.4062 77.7479 87.1979 77.5813 86.9562C77.4188 86.7146 77.3375 86.4271 77.3375 86.0937C77.3375 85.5396 77.5708 85.0708 78.0375 84.6875C78.5083 84.3042 79.1083 84.1125 79.8375 84.1125C80.6042 84.1125 81.225 84.3104 81.7 84.7062C82.1792 85.1021 82.4188 85.6083 82.4188 86.225H81.2563C81.2563 85.9083 81.1208 85.6354 80.85 85.4062C80.5833 85.1771 80.2458 85.0625 79.8375 85.0625C79.4167 85.0625 79.0875 85.1542 78.85 85.3375C78.6125 85.5208 78.4938 85.7604 78.4938 86.0562C78.4938 86.3354 78.6042 86.5458 78.825 86.6875C79.0458 86.8292 79.4438 86.9646 80.0188 87.0937C80.5979 87.2229 81.0667 87.3771 81.425 87.5562C81.7833 87.7354 82.0479 87.9521 82.2188 88.2062C82.3938 88.4562 82.4813 88.7625 82.4813 89.125C82.4813 89.7292 82.2396 90.2146 81.7563 90.5812C81.2729 90.9437 80.6458 91.125 79.875 91.125C79.3333 91.125 78.8542 91.0292 78.4375 90.8375C78.0208 90.6458 77.6938 90.3792 77.4563 90.0375C77.2229 89.6917 77.1063 89.3187 77.1063 88.9187H78.2625C78.2833 89.3062 78.4375 89.6146 78.725 89.8437C79.0167 90.0687 79.4 90.1812 79.875 90.1812C80.3125 90.1812 80.6625 90.0937 80.925 89.9187C81.1917 89.7396 81.325 89.5021 81.325 89.2062ZM85.5562 82.6V84.2375H86.8187V85.1312H85.5562V89.325C85.5562 89.5958 85.6125 89.8 85.725 89.9375C85.8375 90.0708 86.0292 90.1375 86.3 90.1375C86.4333 90.1375 86.6167 90.1125 86.85 90.0625V91C86.5458 91.0833 86.25 91.125 85.9625 91.125C85.4458 91.125 85.0562 90.9687 84.7937 90.6562C84.5312 90.3437 84.4 89.9 84.4 89.325V85.1312H83.1687V84.2375H84.4V82.6H85.5562ZM97.3375 89.4062L98.6375 84.2375H99.7937L97.825 91H96.8875L95.2437 85.875L93.6437 91H92.7062L90.7437 84.2375H91.8937L93.225 89.3L94.8 84.2375H95.7312L97.3375 89.4062ZM103.781 91.125C102.865 91.125 102.119 90.825 101.544 90.225C100.969 89.6208 100.681 88.8146 100.681 87.8062V87.5937C100.681 86.9229 100.808 86.325 101.062 85.8C101.321 85.2708 101.679 84.8583 102.137 84.5625C102.6 84.2625 103.1 84.1125 103.637 84.1125C104.517 84.1125 105.2 84.4021 105.687 84.9812C106.175 85.5604 106.419 86.3896 106.419 87.4687V87.95H101.837C101.854 88.6167 102.048 89.1562 102.419 89.5687C102.794 89.9771 103.269 90.1812 103.844 90.1812C104.252 90.1812 104.598 90.0979 104.881 89.9312C105.165 89.7646 105.412 89.5437 105.625 89.2687L106.331 89.8187C105.765 90.6896 104.915 91.125 103.781 91.125ZM103.637 85.0625C103.171 85.0625 102.779 85.2333 102.462 85.575C102.146 85.9125 101.95 86.3875 101.875 87H105.262V86.9125C105.229 86.325 105.071 85.8708 104.787 85.55C104.504 85.225 104.121 85.0625 103.637 85.0625ZM110.569 91.125C109.652 91.125 108.906 90.825 108.331 90.225C107.756 89.6208 107.469 88.8146 107.469 87.8062V87.5937C107.469 86.9229 107.596 86.325 107.85 85.8C108.108 85.2708 108.467 84.8583 108.925 84.5625C109.387 84.2625 109.887 84.1125 110.425 84.1125C111.304 84.1125 111.987 84.4021 112.475 84.9812C112.962 85.5604 113.206 86.3896 113.206 87.4687V87.95H108.625C108.642 88.6167 108.835 89.1562 109.206 89.5687C109.581 89.9771 110.056 90.1812 110.631 90.1812C111.04 90.1812 111.385 90.0979 111.669 89.9312C111.952 89.7646 112.2 89.5437 112.412 89.2687L113.119 89.8187C112.552 90.6896 111.702 91.125 110.569 91.125ZM110.425 85.0625C109.958 85.0625 109.567 85.2333 109.25 85.575C108.933 85.9125 108.737 86.3875 108.662 87H112.05V86.9125C112.017 86.325 111.858 85.8708 111.575 85.55C111.292 85.225 110.908 85.0625 110.425 85.0625ZM116.438 87.8687L115.713 88.625V91H114.556V81.4H115.713V87.2062L116.331 86.4625L118.438 84.2375H119.844L117.213 87.0625L120.15 91H118.794L116.438 87.8687Z" fill="#959595"/>
    <defs>
    <filter id="filter0_ddd" x="0" y="0" width="172" height="151" filterUnits="userSpaceOnUse" color-interpolation-filters="sRGB">
    <feFlood flood-opacity="0" result="BackgroundImageFix"/>
    <feColorMatrix in="SourceAlpha" type="matrix" values="0 0 0 0 0 0 0 0 0 0 0 0 0 0 0 0 0 0 127 0"/>
    <feOffset/>
    <feGaussianBlur stdDeviation="0.5"/>
    <feColorMatrix type="matrix" values="0 0 0 0 0 0 0 0 0 0 0 0 0 0 0 0 0 0 0.04 0"/>
    <feBlend mode="normal" in2="BackgroundImageFix" result="effect1_dropShadow"/>
    <feColorMatrix in="SourceAlpha" type="matrix" values="0 0 0 0 0 0 0 0 0 0 0 0 0 0 0 0 0 0 127 0"/>
    <feOffset dy="2"/>
    <feGaussianBlur stdDeviation="3"/>
    <feColorMatrix type="matrix" values="0 0 0 0 0 0 0 0 0 0 0 0 0 0 0 0 0 0 0.04 0"/>
    <feBlend mode="normal" in2="effect1_dropShadow" result="effect2_dropShadow"/>
    <feColorMatrix in="SourceAlpha" type="matrix" values="0 0 0 0 0 0 0 0 0 0 0 0 0 0 0 0 0 0 127 0"/>
    <feOffset dy="16"/>
    <feGaussianBlur stdDeviation="12"/>
    <feColorMatrix type="matrix" values="0 0 0 0 0 0 0 0 0 0 0 0 0 0 0 0 0 0 0.06 0"/>
    <feBlend mode="normal" in2="effect2_dropShadow" result="effect3_dropShadow"/>
    <feBlend mode="normal" in="SourceGraphic" in2="effect3_dropShadow" result="shape"/>
    </filter>
    </defs>
    </svg>
