<svg fill="none" height="96" viewBox="0 0 96 96" width="96" xmlns="http://www.w3.org/2000/svg"><circle cx="48" cy="48" fill="#ffe9ce" fill-opacity=".5" r="48"/><path d="m51.436 49.968c1.536.432 2.7 1.176 3.492 2.232.792 1.032 1.188 2.34 1.188 3.924 0 2.208-.78 3.948-2.34 5.22-1.536 1.272-3.624 1.908-6.264 1.908-1.56 0-3.06-.252-4.5-.756-1.416-.504-2.616-1.2-3.6-2.088-.48-.384-.72-.864-.72-1.44 0-.432.12-.792.36-1.08.24-.312.528-.468.864-.468.36 0 .768.156 1.224.468 1.032.768 2.04 1.356 3.024 1.764 1.008.384 2.088.576 3.24.576 3.408 0 5.112-1.452 5.112-4.356 0-1.416-.456-2.472-1.368-3.168-.888-.72-2.244-1.08-4.068-1.08h-1.98c-.456 0-.816-.144-1.08-.432-.264-.312-.396-.672-.396-1.08 0-.384.132-.72.396-1.008.264-.312.624-.468 1.08-.468h1.404c1.752 0 3.084-.36 3.996-1.08.936-.744 1.404-1.824 1.404-3.24 0-1.248-.384-2.22-1.152-2.916-.744-.696-1.8-1.044-3.168-1.044-2.016 0-4.032.78-6.048 2.34-.456.312-.864.468-1.224.468-.336 0-.624-.144-.864-.432-.24-.312-.36-.684-.36-1.116 0-.576.24-1.056.72-1.44.984-.888 2.172-1.584 3.564-2.088 1.416-.504 2.868-.756 4.356-.756 2.376 0 4.272.6 5.688 1.8s2.112 2.808 2.088 4.824c0 1.392-.36 2.628-1.08 3.708-.72 1.056-1.716 1.824-2.988 2.304z" fill="#2ebfa5"/></svg>