<svg fill="none" height="96" viewBox="0 0 96 96" width="96" xmlns="http://www.w3.org/2000/svg"><circle cx="48" cy="48" fill="#ffe9ce" fill-opacity=".5" r="48"/><path d="m55.108 59.94c.576 0 1.008.132 1.296.396.312.264.468.636.468 1.116 0 1.032-.588 1.548-1.764 1.548h-13.896c-.528 0-.948-.144-1.26-.432-.288-.312-.432-.696-.432-1.152 0-.552.216-1.056.648-1.512l8.46-9.252c1.128-1.224 1.944-2.34 2.448-3.348s.756-2.004.756-2.988c0-1.272-.372-2.244-1.116-2.916-.72-.696-1.752-1.044-3.096-1.044-2.04 0-4.068.78-6.084 2.34-.264.168-.492.3-.684.396-.168.072-.348.108-.54.108-.336 0-.624-.156-.864-.468s-.36-.684-.36-1.116c0-.6.24-1.08.72-1.44 1.008-.864 2.22-1.548 3.636-2.052 1.416-.528 2.844-.792 4.284-.792 2.376 0 4.26.612 5.652 1.836 1.416 1.2 2.124 2.832 2.124 4.896 0 1.464-.324 2.856-.972 4.176-.624 1.32-1.68 2.796-3.168 4.428l-6.804 7.272z" fill="#2ebfa5"/></svg>