<svg fill="none" height="96" viewBox="0 0 96 96" width="96" xmlns="http://www.w3.org/2000/svg"><circle cx="48" cy="48" fill="#ffe9ce" fill-opacity=".51" r="48"/><path d="m54.856 59.94c.576 0 1.008.132 1.296.396s.432.636.432 1.116c0 1.032-.576 1.548-1.728 1.548h-12.024c-1.176 0-1.764-.516-1.764-1.548 0-.48.144-.852.432-1.116.312-.264.756-.396 1.332-.396h4.14v-17.964l-3.708 2.34c-.24.144-.48.216-.72.216-.408 0-.768-.18-1.08-.54-.288-.36-.432-.768-.432-1.224 0-.552.24-.984.72-1.296l5.544-3.528c.552-.336 1.08-.504 1.584-.504.528 0 .96.168 1.296.504s.504.792.504 1.368v20.628z" fill="#2ebfa5"/></svg>