<svg width="27" height="33" viewBox="0 0 27 33" fill="none" xmlns="http://www.w3.org/2000/svg">
    <path d="M11.0368 2.71794C12.3027 2.71794 13.3285 3.74369 13.3285 5.0096V5.01419L15.6201 0.42627C16.886 0.42627 17.9118 1.45202 17.9118 2.71794V3.89585L20.2035 2.48877C21.4694 2.48877 22.4951 3.51452 22.4951 4.78044V8.02085L23.4118 16.5H10.9983L11.0368 2.71794Z" fill="#EF9645"/>
    <path d="M1.06815 14.8674C2.33406 14.3073 4.14265 15.0581 5.42231 16.8731C6.2629 18.0648 6.5104 19.7615 7.61406 19.9384C8.03573 20.0053 8.74523 19.6515 8.74523 18.6578V4.125C8.74523 4.125 8.74523 2.29167 10.5786 2.29167C12.4119 2.29167 12.4119 4.125 12.4119 4.125V14.7886C12.4119 14.762 13.3286 14.7299 13.3286 14.7134V1.83333C13.3286 1.83333 13.3286 0 15.1619 0C16.9952 0 16.9952 1.83333 16.9952 1.83333V14.7153C16.9952 14.7308 17.9119 14.7528 17.9119 14.7785V3.89583C17.9119 3.89583 17.9119 2.0625 19.7452 2.0625C21.5786 2.0625 21.5786 3.89583 21.5786 3.89583V15.4807C21.5786 15.5888 22.4952 15.7107 22.4952 15.8455V8.02083C22.4952 8.02083 22.4952 6.1875 24.3286 6.1875C26.1619 6.1875 26.1619 8.02083 26.1619 8.02083V22C26.1619 28.0748 21.2366 33 15.1619 33C10.7848 33 7.77356 30.6185 6.09056 28.149C4.66331 26.0544 4.2499 23.8801 4.1619 23.2228C4.1619 23.2228 4.04915 21.8671 3.10223 20.5966C1.75565 18.7917 0.810562 17.7036 0.237646 17.0528C-0.0529377 16.7237 -0.335271 15.488 1.06815 14.8674Z" fill="#FFDC5D"/>
    </svg>
