<svg width="95" height="95" viewBox="0 0 95 95" fill="none" xmlns="http://www.w3.org/2000/svg">
<rect width="95" height="95" fill="#E5E5E5"/>
<g clip-path="url(#clip0)">
<rect width="1440" height="5054" transform="translate(-1064 -2917)" fill="#FFF8F5"/>
<path d="M47.5 95C73.7335 95 95 73.7335 95 47.5C95 21.2665 73.7335 0 47.5 0C21.2665 0 0 21.2665 0 47.5C0 73.7335 21.2665 95 47.5 95Z" fill="#32BA7C"/>
<path d="M35.3633 68.9274L59.7876 93.3517C80.0163 87.9573 95.0005 69.5268 95.0005 47.4999C95.0005 47.0504 95.0005 46.6009 95.0005 46.1514L75.8207 28.47L35.3633 68.9274Z" fill="#0AA06E"/>
<path d="M48.6976 58.1389C50.7953 60.2367 50.7953 63.8329 48.6976 65.9307L44.3521 70.2761C42.2543 72.3739 38.6581 72.3739 36.5603 70.2761L17.5304 51.0963C15.4326 48.9985 15.4326 45.4023 17.5304 43.3045L21.8758 38.9591C23.9736 36.8613 27.5698 36.8613 29.6676 38.9591L48.6976 58.1389Z" fill="white"/>
<path d="M65.3316 25.0238C67.4294 22.926 71.0256 22.926 73.1234 25.0238L77.4688 29.3692C79.5666 31.467 79.5666 35.0632 77.4688 37.161L44.5035 69.9765C42.4057 72.0742 38.8095 72.0742 36.7117 69.9765L32.3663 65.631C30.2685 63.5332 30.2685 59.937 32.3663 57.8392L65.3316 25.0238Z" fill="white"/>
</g>
<defs>
<clipPath id="clip0">
<rect width="1440" height="5054" fill="white" transform="translate(-1064 -2917)"/>
</clipPath>
</defs>
</svg>
