<svg width="27" height="22" viewBox="0 0 34 29" fill="none"
    xmlns="http://www.w3.org/2000/svg">
    <path d="M33 1.01513C31.6071 2.03153 30.0649 2.80891 28.4327 3.31733C27.5567 2.27534 26.3925 1.5368 25.0975 1.2016C23.8025 0.866406 22.4393 0.950723 21.1921 1.44315C19.945 1.93558 18.8741 2.81236 18.1243 3.9549C17.3746 5.09745 16.9821 6.45064 17 7.83146V9.33617C14.4438 9.40473 11.9109 8.81826 9.62692 7.62899C7.3429 6.43972 5.37864 4.68457 3.90909 2.51984C3.90909 2.51984 -1.90909 16.0622 11.1818 22.081C8.18622 24.1846 4.61768 25.2393 1 25.0905C14.0909 32.614 30.0909 25.0905 30.0909 7.78632C30.0896 7.36719 30.0506 6.94909 29.9745 6.53741C31.4591 5.02291 32.5067 3.11076 33 1.01513Z" fill="#242A4C" stroke="#242A4C" stroke-width="1.5" stroke-linecap="round" stroke-linejoin="round"/>
</svg>
